<svg width="130" height="44" viewBox="0 0 130 44" fill="none" xmlns="http://www.w3.org/2000/svg">
<path d="M9.87857 24.1486C9.87857 23.6708 8.76571 23.1668 6.53987 22.6365C5.81715 22.4747 5.10671 22.2623 4.41383 22.0007C3.74349 21.7385 3.10144 21.4091 2.49754 21.0174C1.84424 20.6032 1.31561 20.0194 0.968013 19.3284C0.601327 18.5811 0.417781 17.7572 0.432634 16.9248C0.432634 15.1229 1.08163 13.6982 2.37954 12.6509C3.67746 11.6035 5.35996 11.0806 7.42701 11.082C10.58 11.082 13.2152 11.9888 15.0747 13.6058L12.717 17.718C11.0738 16.6051 9.43146 16.0486 7.78977 16.0486C7.44293 16.0366 7.09926 16.119 6.79551 16.2868C6.68544 16.3356 6.59051 16.413 6.52056 16.511C6.45062 16.609 6.40825 16.724 6.39787 16.844C6.39787 17.163 6.72125 17.4274 7.37239 17.6394C8.02353 17.8513 8.80792 18.0764 9.73657 18.2949C10.6817 18.5255 11.6109 18.8175 12.5181 19.1689C13.4448 19.5264 14.2606 20.1227 14.8824 20.8972C15.5492 21.7444 15.8944 22.8003 15.8569 23.8777C15.8569 25.7058 15.1613 27.1698 13.7701 28.2696C12.379 29.3694 10.5043 29.9193 8.1459 29.9193C6.40667 29.9208 4.68668 29.5553 3.09843 28.8465C1.48295 28.0773 0.450119 27.3351 0 26.6199L2.4538 22.4836C3.01099 23.0386 4.25218 23.7946 5.44522 24.2753C6.63825 24.756 7.69575 24.9505 8.54354 24.9505C9.44378 24.9505 9.89607 24.6861 9.89607 24.1574" fill="white"/>
<path d="M23.4842 37.3802H17.5234V11.5486H23.4842V12.9012C24.7034 11.6819 26.3598 11.0723 28.453 11.0723C30.8114 11.0723 32.7321 11.9332 34.215 13.655C35.6979 15.3768 36.4393 17.5619 36.4393 20.2101C36.4393 22.991 35.5523 25.3093 33.778 27.1651C31.9761 28.9932 29.6577 29.9073 26.823 29.9073C25.6845 29.94 24.5504 29.7507 23.4842 29.3501V37.3802ZM26.5849 16.6354C25.4705 16.6354 24.4369 17.1656 23.4842 18.2261V23.669C24.3334 24.1413 25.2945 24.3753 26.2657 24.3464C27.485 24.3464 28.4261 23.9822 29.0889 23.2539C29.7517 22.5255 30.0824 21.5524 30.0809 20.3346C30.0809 19.2203 29.7699 18.3259 29.1479 17.6515C28.5259 16.977 27.6716 16.639 26.5849 16.6376" fill="white"/>
<path d="M44.5506 29.4338H38.5898V11.5492H44.5506V12.9805C45.346 11.8151 46.5783 11.2324 48.2477 11.2324C49.491 11.2324 50.6338 11.6148 51.8552 12.3752L48.9229 17.4707C48.2678 17.0548 47.5134 16.8217 46.7379 16.7955C46.2903 16.7768 45.8466 16.8866 45.4594 17.112C45.0722 17.3373 44.7577 17.6688 44.5528 18.0672L44.5506 29.4338Z" fill="white"/>
<path d="M58.8905 11.5488H52.9297V29.4334H58.8905V11.5488Z" fill="white"/>
<path d="M67.9374 29.4338H61.9766V11.5492H67.9374V12.9411C69.1028 11.8006 70.5733 11.231 72.349 11.2324C77.1969 11.2324 79.6216 13.7489 79.623 18.7818V29.4338H73.6622V19.8197C73.6622 18.8408 73.4037 18.0927 72.8865 17.5756C72.3694 17.0585 71.6476 16.7999 70.7211 16.7999C70.1976 16.8049 69.6807 16.9168 69.202 17.1287C68.7234 17.3406 68.293 17.6481 67.9374 18.0323V29.4338Z" fill="white"/>
<path d="M99.6494 11.1522L94.0492 12.2774C92.6671 11.46 91.0834 11.0467 89.4781 11.0844C87.1211 11.0844 85.2004 11.7596 83.7161 13.1099C82.2856 14.4618 81.5704 16.0779 81.5704 17.9585C81.5633 19.265 81.9736 20.5396 82.7416 21.5966C83.5565 22.7214 84.6818 23.5841 85.9798 24.0789C85.7826 24.3864 85.6856 24.7475 85.7022 25.1124C85.7022 25.3527 85.639 26.7621 86.3906 28.0119C84.3279 30.2563 82.8147 32.9491 81.9703 35.8781C81.6529 37.1106 81.6155 38.3985 81.861 39.6473C82.0106 40.3381 82.3074 40.9885 82.7312 41.5541C83.1551 42.1198 83.696 42.5873 84.317 42.9249C86.1335 43.9708 87.9397 43.9613 89.7358 42.8964C91.545 41.8068 93.181 39.9947 94.6435 37.4601C96.0784 34.9735 96.811 32.6551 96.8416 30.505C96.8809 28.3914 96.0069 26.8175 94.2195 25.7832C92.8779 25.0097 91.4555 24.7431 90.0942 25.2173C90.0872 25.1797 90.0828 25.1418 90.0811 25.1036C90.0742 24.9568 90.0875 24.8098 90.1205 24.6666C92.2924 24.5617 94.0404 23.8596 95.3646 22.5603C96.7149 21.2623 97.3901 19.7255 97.3901 17.9498C97.3701 17.4415 97.3035 16.9361 97.1912 16.4399L99.656 15.7844L99.6494 11.1522ZM91.3135 30.8022C92.0302 31.2145 91.7053 32.6049 90.339 34.9735C88.9726 37.3421 87.9311 38.3181 87.2144 37.9014C86.4715 37.4732 86.7838 36.0762 88.1517 33.7105C89.5195 31.3449 90.5735 30.3754 91.3135 30.8022V30.8022ZM91.1846 19.3788C90.6931 19.746 90.0884 19.9293 89.4758 19.8967C88.4955 19.9754 87.8065 19.6701 87.4088 18.9811C87.2137 18.6637 87.1121 18.2977 87.1156 17.9251C87.1191 17.5526 87.2276 17.1885 87.4285 16.8748C87.8393 16.161 88.5217 15.8165 89.4758 15.8412C90.2173 15.8412 90.7934 16.0335 91.2042 16.4181C91.41 16.6144 91.5714 16.8524 91.6777 17.1162C91.784 17.38 91.8326 17.6635 91.8204 17.9476C91.833 18.2192 91.7821 18.49 91.6717 18.7384C91.5614 18.9869 91.3946 19.2061 91.1846 19.3788Z" fill="white"/>
<path d="M109.005 24.2613C108.855 24.3137 108.698 24.3424 108.539 24.3465C108.334 24.3053 108.142 24.2146 107.98 24.0821C107.689 23.7369 107.543 23.0566 107.543 22.0413V1.61328H101.582V24.305C101.582 28.0414 103.066 29.9096 106.033 29.9096C107.433 29.9474 108.822 29.6476 110.082 29.0356V23.7215C109.746 23.9477 109.383 24.1319 109.002 24.27" fill="white"/>
<path d="M128.287 27.8827C126.485 29.2345 124.166 29.9104 121.332 29.9104C118.418 29.9104 116.061 29.0495 114.259 27.3277C112.511 25.6059 111.637 23.3269 111.637 20.4907C111.637 17.79 112.525 15.5518 114.3 13.7761C116.101 11.9741 118.445 11.0732 121.334 11.0732C123.606 11.0408 125.801 11.896 127.452 13.457C129.148 14.9924 129.995 17.0063 129.995 19.4987C130.02 20.5042 129.899 21.508 129.637 22.4791H117.794C118.326 24.1222 119.717 24.9431 121.968 24.9416C123.377 24.9608 124.771 24.6447 126.034 24.0195L128.287 27.8827ZM121.133 16.0398C119.385 16.0398 118.206 16.8613 117.597 18.5045H124.035C124.039 18.1726 123.969 17.8439 123.832 17.5418C123.694 17.2396 123.492 16.9715 123.239 16.7565C122.71 16.2787 122.008 16.0398 121.133 16.0398" fill="white"/>
<path d="M59.3532 6.3885C57.9657 8.79204 55.514 9.9763 53.8774 9.03018C52.2408 8.08406 52.0376 5.37023 53.4251 2.96668C54.8126 0.563136 57.2664 -0.618939 58.903 0.325C60.5396 1.26894 60.7407 3.98495 59.3532 6.3885Z" fill="white"/>
</svg>
