<svg width="649" height="62" viewBox="0 0 649 62" fill="none" xmlns="http://www.w3.org/2000/svg">
<g clip-path="url(#clip0_678_161)">
<path d="M368.241 61.7704H376.249V20.3224L375.897 12.4904L380.297 19.0904L397.897 42.3224H399.833L416.641 19.5304L421.217 12.4904L420.865 20.5864V61.7704H428.873V0.17041H421.657L399.041 31.4984L375.633 0.17041H368.241V61.7704Z" fill="white"/>
<path d="M445.769 61.7704H490.913V54.2904H453.777V34.1384H487.657V26.8344H453.777V7.65041H490.121V0.17041H445.769V61.7704Z" fill="white"/>
<path d="M504.641 61.7704H522.769C546.881 61.7704 557.617 47.6904 557.617 30.0904C557.617 14.0744 548.641 0.17041 523.649 0.17041H504.641V61.7704ZM523.473 7.65041C542.481 7.65041 549.345 17.2424 549.345 30.0904C549.345 44.0824 541.689 54.2904 523.297 54.2904H512.649V7.65041H523.473Z" fill="white"/>
<path d="M579.089 0.17041H571.081V61.7704H579.089V0.17041Z" fill="white"/>
<path d="M588.417 61.7704H596.601L603.377 46.1944H633.561L640.425 61.7704H648.785L621.769 -0.00561523H615.433L588.417 61.7704ZM614.729 19.7064L618.425 10.2904L622.121 19.7064L630.569 39.1544H606.369L614.729 19.7064Z" fill="white"/>
<path d="M0 61.7671H17.9875V42.4379H45.7834V26.9254H17.9875V15.9421H51.025V0.175415H0V61.7671Z" fill="white"/>
<path d="M153.959 39.3267L161.418 19.4975L168.83 39.3267H153.959ZM152.663 0.176636L128.376 61.7683H145.872L149.08 53.2683H173.784L177.234 61.7683H195.48L170.197 0.176636H152.663Z" fill="white"/>
<path d="M245.459 32.5433L219.168 0.176636H204.63V61.7683H221.576V29.5308L248.638 61.7683H262.405V0.176636H245.459V32.5433Z" fill="white"/>
<path d="M93.9292 27.9863H82.1917V14.9738H94.0167C98.6792 14.9738 100.817 17.9572 100.817 21.4113C100.817 25.0613 98.9459 27.9863 93.9292 27.9863ZM118.554 20.9113C118.554 9.11132 110.667 0.177979 94.9459 0.177979H64.1125V61.7655H82.1917V42.5238H89.5292L102.408 61.7655H122.683L106.558 39.753C113.717 36.5947 118.554 29.8197 118.554 20.9113Z" fill="white"/>
<path d="M321.059 29.8904L339.743 0.177856H319.293L306.193 22.4862H297.363V0.177856H279.288V61.7654H297.363V39.8071H306.559L320.572 61.7654H341.88L321.059 29.8904Z" fill="white"/>
</g>
<defs>
<clipPath id="clip0_678_161">
<rect width="649" height="62" fill="white"/>
</clipPath>
</defs>
</svg>
