<svg width="110" height="32" viewBox="0 0 110 32" fill="none" xmlns="http://www.w3.org/2000/svg">
<path d="M20.866 7.19253C21.3824 3.406 19.1549 0.257887 14.6756 0.257887H5.43268V0.286192H4.28992H3.05244C3.05244 0.286192 4.43047 1.23283 4.82158 2.56629C4.84296 2.91538 4.84908 3.31479 4.84296 3.78654L3.83159 11.6489L2.80495 19.4485L2.82022 19.4013L2.71023 20.2064C2.26718 21.7789 0.721097 22.9457 0.721097 22.9457H5.84517V22.9048H6.63349L7.86791 13.8693H11.5773L14.6358 22.9048H19.6132L16.0353 13.1397C18.2719 12.344 20.4291 10.3721 20.8629 7.19253H20.866ZM13.0409 10.1834H8.37206L9.18788 4.20167H13.8567C15.745 4.20167 16.8113 5.44079 16.57 7.19253C16.3347 8.94113 14.9261 10.1834 13.0409 10.1834ZM28.7797 4.20482L28.022 9.7714H37.326L35.5477 13.7152H27.4842L26.2284 22.9079H25.3912V22.9488H20.2671C20.2671 22.9488 22.3387 21.3889 22.3724 19.4485L22.4274 19.1906L22.3418 19.4642L24.4043 3.80226C24.8748 1.86182 22.5893 0.305061 22.5893 0.305061H25.0184L25.0245 0.257887H40.137L38.3587 4.20167H28.7797V4.20482ZM57.3273 2.42162C56.0776 0.927764 54.1006 0.257887 51.8121 0.257887H43.2536V0.286192H42.0192H40.7787C40.7787 0.286192 42.1659 1.23912 42.5539 2.58201C42.5753 2.92796 42.5814 3.32423 42.5723 3.78654L41.6434 10.9979L40.5312 19.4485L40.5709 19.3258L40.5556 19.4485C40.5159 21.3889 38.4504 22.9488 38.4504 22.9488H43.5714V22.9079H48.7199C51.0054 22.9079 53.1687 22.2412 54.8248 20.7442C57.645 18.1999 57.8467 14.8945 58.3142 11.4885C58.7786 8.0857 59.4508 4.96904 57.3273 2.42477V2.42162ZM54.0181 11.4854C53.5476 14.9197 53.2023 16.5425 52.2612 17.5615C51.3935 18.4861 50.3393 18.961 48.8544 18.961H44.9922L47.0088 4.20482H50.871C52.356 4.20482 53.2787 4.68285 53.8929 5.60432C54.559 6.62015 54.4856 8.05111 54.0181 11.4885V11.4854ZM66.7565 4.20482L65.9957 9.7714H75.2966L73.5214 13.7152H65.4549L64.2021 22.9079H63.7346V22.9488H58.6106C58.6106 22.9488 59.5058 22.2695 60.1322 21.2505L62.6866 2.5317C62.2741 1.22654 60.9358 0.308206 60.9358 0.308206H62.9921L62.9983 0.261032H78.1108L76.3386 4.20482H66.7596H66.7565ZM95.2765 27.1882C97.7209 26.4743 99.0623 25.9019 99.0654 25.9114C99.0623 25.9019 97.7973 26.6378 95.4171 27.6128C93.0399 28.5877 89.52 29.7608 85.1323 30.5973C81.2793 31.3396 76.7663 31.8333 71.8714 31.8333L72.6781 29.5375C77.1452 29.7356 81.3129 29.5689 84.9306 29.1727C89.2786 28.7041 92.8352 27.8958 95.2765 27.1851V27.1882ZM109.454 11.3093C109.078 10.3155 108.519 9.41916 107.88 8.6455C107.242 7.8687 106.527 7.20826 105.797 6.64216C104.333 5.50998 102.83 4.73631 101.528 4.16708C100.223 3.60098 99.1112 3.23617 98.332 3.00029C97.5529 2.76757 97.1037 2.65749 97.1037 2.65749C97.1037 2.65749 97.5315 2.83676 98.2709 3.17012C99.0104 3.50663 100.065 4.00039 101.284 4.68599C102.5 5.3716 103.89 6.24904 105.207 7.4001C106.515 8.54486 107.755 9.99784 108.412 11.7307C108.742 12.5956 108.919 13.5045 108.929 14.3976C108.938 15.3034 108.779 16.1777 108.498 16.9922C107.935 18.6245 106.939 19.9642 106.007 20.9989C105.063 22.0336 104.162 22.7853 103.526 23.2947C102.888 23.8042 102.506 24.0684 102.506 24.0715C102.506 24.0684 102.921 23.8671 103.624 23.4426C104.324 23.018 105.32 22.3764 106.396 21.4109C107.459 20.4454 108.638 19.1308 109.378 17.3445C109.744 16.4576 109.977 15.4481 109.998 14.4134C110.022 13.3692 109.83 12.3 109.451 11.3093H109.454ZM104.532 11.5672C104.608 10.7369 104.489 9.90349 104.229 9.15813C103.976 8.42221 103.572 7.7429 103.114 7.16423C102.653 6.58241 102.13 6.08236 101.589 5.64206C100.501 4.76462 99.3465 4.1199 98.2251 3.5884C97.1007 3.06005 96.0007 2.64806 94.9588 2.3084C92.8719 1.63224 91.0111 1.22968 89.4803 0.940344C87.9892 0.669877 86.8098 0.500049 85.9878 0.396265C85.5173 0.327076 85.1231 0.273612 84.8023 0.232727C83.7909 0.0786241 83.1768 0.0188698 83.0362 0C83.2501 0.0408845 84.6648 0.245307 86.9748 0.792531C88.2306 1.09759 89.7491 1.50958 91.4449 2.13229C92.2913 2.44678 93.1805 2.8116 94.088 3.26133C94.9954 3.7142 95.9182 4.24256 96.7921 4.92501C97.6507 5.59803 98.497 6.44717 98.9309 7.50074C99.044 7.78693 99.1142 8.03224 99.1601 8.3373C99.1662 8.40334 99.1784 8.47253 99.1815 8.53543C99.1876 8.6172 99.1937 8.69582 99.1906 8.75872C99.1906 8.79017 99.1906 8.82791 99.1906 8.85936V8.97572C99.1815 9.04177 99.1754 9.1141 99.1662 9.18644C99.0959 9.75882 98.8637 10.3186 98.5245 10.825C97.8401 11.8408 96.7921 12.6553 95.6524 13.3378C94.5066 14.0171 93.2446 14.5738 91.9247 15.0486C91.0233 15.3694 90.0944 15.6556 89.1472 15.9104C86.33 16.6086 83.1462 17.0771 79.7638 17.313C78.8319 17.3759 77.8785 17.4168 76.916 17.4451L76.3599 19.0302C77.5546 18.9736 78.731 18.8824 79.8829 18.766C83.4243 18.3949 86.7334 17.7376 89.6269 16.835C90.5161 16.574 91.393 16.2878 92.2485 15.967C93.5991 15.4512 94.8977 14.8474 96.0954 14.102C96.6912 13.7278 97.2657 13.3158 97.7851 12.8535C98.3106 12.3849 98.7873 11.8659 99.1662 11.2653C99.5451 10.6709 99.814 9.98526 99.8812 9.2745C99.8903 9.18644 99.8965 9.09838 99.8995 9.00403V8.88138C99.8995 8.83106 99.8995 8.78703 99.8995 8.73985C99.8995 8.64236 99.8903 8.56373 99.8812 8.48511C99.872 8.39076 99.8567 8.3027 99.8445 8.2115C99.7895 7.89071 99.6765 7.53219 99.5512 7.246C98.992 6.00688 98.054 5.15774 97.1312 4.46899C96.1993 3.78968 95.2215 3.27391 94.2866 2.84619C94.2652 2.83676 94.2468 2.83047 94.2254 2.82103C94.8274 3.06634 95.4415 3.33681 96.0618 3.64816C97.0579 4.15135 98.0723 4.74575 99.0165 5.51941C99.9484 6.28678 100.834 7.25228 101.271 8.45995C101.384 8.77445 101.455 9.07636 101.498 9.41287C101.504 9.48521 101.513 9.56069 101.516 9.63302C101.522 9.71794 101.525 9.80285 101.525 9.88147C101.525 9.91921 101.525 9.95695 101.525 9.99155C101.525 10.0167 101.522 10.0985 101.519 10.1205C101.513 10.196 101.507 10.2746 101.498 10.3532C101.421 10.9979 101.183 11.6301 100.828 12.2087C100.116 13.3724 99.0012 14.3222 97.7729 15.1241C96.5385 15.9229 95.1635 16.5802 93.7274 17.1432C92.7802 17.5112 91.7994 17.8351 90.8002 18.1307C87.7081 18.9799 84.1881 19.5617 80.4482 19.8573C79.003 19.9705 77.5149 20.0334 76.0086 20.0617L75.4464 21.6657C77.1941 21.609 78.9113 21.4927 80.5765 21.3103C84.4692 20.8794 88.1022 20.112 91.2708 19.0553C92.2241 18.7566 93.156 18.4263 94.0666 18.0552C95.5393 17.4514 96.951 16.7438 98.2343 15.8758C98.8729 15.4418 99.487 14.9606 100.04 14.4291C100.593 13.8913 101.088 13.3 101.479 12.6302C101.867 11.9634 102.136 11.2149 102.206 10.4444C102.216 10.3469 102.222 10.2494 102.225 10.1457C102.225 10.1205 102.225 10.0356 102.225 10.0104C102.225 9.95695 102.225 9.90663 102.225 9.85631C102.225 9.75882 102.216 9.66762 102.206 9.57956C102.2 9.47892 102.185 9.38142 102.17 9.28079C102.115 8.92226 102.011 8.55115 101.886 8.22722C101.62 7.55106 101.235 6.95351 100.798 6.44088C100.355 5.91882 99.8598 5.47538 99.3556 5.08226C98.3473 4.30545 97.2809 3.72364 96.2512 3.24246C96.1504 3.19528 96.0496 3.1544 95.9457 3.10722C96.6271 3.38084 97.3237 3.6859 98.0265 4.04128C99.1112 4.59479 100.22 5.25523 101.235 6.1201C102.24 6.98182 103.166 8.06369 103.603 9.42231C103.817 10.0922 103.899 10.8061 103.817 11.52C103.737 12.2371 103.49 12.9384 103.123 13.5894C102.381 14.8977 101.201 15.989 99.8842 16.9042C98.5612 17.8225 97.0762 18.5804 95.5179 19.2314C94.4943 19.656 93.4341 20.0303 92.3524 20.3699C89.0067 21.3574 85.1873 22.043 81.1235 22.3921C79.168 22.5588 77.1483 22.65 75.095 22.6595L74.5266 24.2823C76.8274 24.2414 79.0855 24.0904 81.261 23.842C85.557 23.3419 89.5567 22.4519 93.0246 21.2191C93.9963 20.8888 94.9496 20.5303 95.8785 20.1309C97.4734 19.4359 98.9951 18.6276 100.37 17.6338C101.736 16.6431 102.983 15.4606 103.786 13.9762C104.183 13.2403 104.452 12.4226 104.526 11.5955L104.532 11.5672ZM43.2322 30.1665H42.5448L42.4531 30.8458C42.4073 31.1855 42.2453 31.3081 42.0131 31.3081C41.7809 31.3081 41.6525 31.1855 41.6984 30.8458L42.0498 28.2764C42.0956 27.9367 42.2606 27.8078 42.4898 27.8078C42.7189 27.8078 42.8472 27.9367 42.8014 28.2764L42.7311 28.7858H43.4186L43.4828 28.3235C43.5867 27.5625 43.275 27.1285 42.5631 27.1285C41.8512 27.1285 41.4203 27.5625 41.3164 28.3235L40.9773 30.7986C40.8734 31.5597 41.1851 31.9969 41.897 31.9969C42.6089 31.9969 43.0397 31.5628 43.1436 30.7986L43.2292 30.1665H43.2322ZM54.8554 31.9402H52.8754L53.5262 27.1819H55.5062L55.4145 27.8612H54.1587L53.9784 29.1853H54.9745L54.8829 29.8646H53.8868L53.6973 31.2578H54.9531L54.8615 31.9371L54.8554 31.9402ZM58.6778 31.0754H59.57L59.5761 31.9371H60.3094L60.2178 27.1788H59.1544L57.7642 31.9371H58.4303L58.6747 31.0754H58.6778ZM59.5394 28.0248L59.5608 30.4307H58.8611L59.5394 28.0248ZM49.7313 31.9402H47.7513L48.4021 27.1819H50.3821L50.2904 27.8612H49.0346L48.8544 29.1853H49.8504L49.7588 29.8646H48.7627L48.5733 31.2578H49.8291L49.7374 31.9371L49.7313 31.9402ZM37.8851 31.9402H37.1579L37.8087 27.1819H38.5359L37.8851 31.9402ZM37.1854 28.3581C37.2893 27.5971 36.9899 27.1819 36.2627 27.1819H35.1138L34.463 31.9402H35.6118C36.339 31.9402 36.7515 31.5251 36.8554 30.764L37.1824 28.3581H37.1854ZM36.4613 28.3235L36.1221 30.7986C36.0763 31.1383 35.9204 31.2609 35.6882 31.2609H35.2788L35.7432 27.8612H36.1527C36.3849 27.8612 36.5071 27.9839 36.4582 28.3235H36.4613ZM40.9284 28.5059H40.2409L40.2715 28.2764C40.3173 27.9367 40.2042 27.8078 39.972 27.8078C39.7398 27.8078 39.5901 27.9367 39.5443 28.2764C39.4098 29.2544 40.8062 29.44 40.6198 30.7986C40.5159 31.5597 40.0881 31.9969 39.3731 31.9969C38.6582 31.9969 38.3496 31.5628 38.4534 30.7986L38.4993 30.4715H39.1868L39.1348 30.8458C39.089 31.1855 39.2173 31.3081 39.4495 31.3081C39.6818 31.3081 39.8437 31.1855 39.8895 30.8458C40.024 29.8677 38.6276 29.6853 38.814 28.3235C38.9179 27.5625 39.3395 27.1285 40.0484 27.1285C40.7573 27.1285 41.0598 27.5625 40.9559 28.3235L40.9314 28.5059H40.9284ZM47.956 27.8612H46.7613L46.5658 29.2953H47.5038L47.4122 29.9746H46.4741L46.2052 31.9402H45.478L46.1289 27.1819H48.0508L47.9591 27.8612H47.956ZM66.671 28.3235C66.7749 27.5625 66.4449 27.1285 65.7299 27.1285C65.0149 27.1285 64.5688 27.5625 64.4649 28.3235L64.1257 30.7986C64.0218 31.5597 64.3518 31.9969 65.0668 31.9969C65.7818 31.9969 66.2279 31.5628 66.3318 30.7986L66.671 28.3235ZM65.9499 28.2764L65.5985 30.8458C65.5527 31.1855 65.3877 31.3144 65.1585 31.3144C64.9293 31.3144 64.801 31.1855 64.8468 30.8458L65.1982 28.2764C65.244 27.9367 65.406 27.8078 65.6382 27.8078C65.8704 27.8078 65.9957 27.9367 65.9499 28.2764ZM68.1957 31.9402L67.7618 28.4934L67.2912 31.9402H66.6374L67.2882 27.1819H68.1987L68.5562 30.0281L68.9443 27.1819H69.592L68.9412 31.9402H68.1957ZM61.6844 31.9402H60.9572L61.5133 27.8612H60.7555L60.8472 27.1819H63.093L63.0013 27.8612H62.2405L61.6844 31.9402ZM31.7619 28.2764C31.8077 27.9367 31.6794 27.8078 31.4502 27.8078C31.2211 27.8078 31.0561 27.9367 31.0103 28.2764L30.6589 30.8458C30.613 31.1855 30.7414 31.3081 30.9736 31.3081C31.2058 31.3081 31.3677 31.1855 31.4136 30.8458L31.5327 29.9684H31.2027L31.2944 29.289H32.3119L32.1041 30.7986C32.0002 31.5597 31.5725 31.9969 30.8575 31.9969C30.1425 31.9969 29.8339 31.5628 29.9378 30.7986L30.2769 28.3235C30.3808 27.5625 30.8086 27.1285 31.5236 27.1285C32.2386 27.1285 32.5472 27.5625 32.4433 28.3235L32.3791 28.7858H31.6916L31.7619 28.2764ZM63.5024 31.9402H62.7752L63.426 27.1819H64.1532L63.5024 31.9402ZM52.9029 28.3581C53.0068 27.5971 52.7073 27.1819 51.9801 27.1819H50.8313L50.1804 31.9402H51.3293C52.0565 31.9402 52.469 31.5251 52.5729 30.764L52.8998 28.3581H52.9029ZM52.1818 28.3235L51.8426 30.7986C51.7968 31.1383 51.641 31.2609 51.4088 31.2609H50.9993L51.4638 27.8612H51.8732C52.1054 27.8612 52.2276 27.9839 52.1787 28.3235H52.1818ZM57.9261 28.6506L57.9781 28.2764C58.0789 27.5436 57.8039 27.1819 57.0523 27.1819H55.9553L55.3045 31.9402H56.0317L56.2976 30.0029H56.5481C56.8781 30.0029 57.0003 30.1665 56.9423 30.6068L56.8414 31.3553C56.7895 31.7421 56.8048 31.8176 56.8292 31.9402H57.5686C57.5197 31.7641 57.5381 31.5943 57.5686 31.3616L57.6695 30.6288C57.7367 30.1319 57.6695 29.7734 57.3273 29.6161C57.6725 29.4589 57.8681 29.1412 57.9353 28.6506H57.9261ZM57.2417 28.3518L57.1775 28.8204C57.1256 29.201 56.9423 29.3236 56.6734 29.3236H56.3892L56.5878 27.8612H56.9392C57.1959 27.8612 57.2875 28.009 57.2417 28.3518ZM7.49514 30.7955C7.39125 31.5566 6.96348 31.9937 6.24849 31.9937C5.53351 31.9937 5.2249 31.5597 5.32879 30.7955L5.37462 30.4684H6.06211L6.01016 30.8427C5.96433 31.1823 6.09266 31.305 6.32183 31.305C6.55099 31.305 6.71598 31.1823 6.76182 30.8427C6.89626 29.8646 5.4999 29.6822 5.68628 28.3204C5.79017 27.5593 6.21183 27.1253 6.9207 27.1253C7.62958 27.1253 7.93207 27.5593 7.82819 28.3204L7.80374 28.5028H7.11626L7.14681 28.2732C7.19264 27.9336 7.07959 27.8046 6.84737 27.8046C6.61515 27.8046 6.46543 27.9336 6.4196 28.2732C6.28516 29.2513 7.68152 29.4369 7.49514 30.7955ZM4.94685 30.8049C4.84296 31.566 4.41519 32 3.70021 32C2.98522 32 2.67662 31.566 2.7805 30.8049L3.27549 27.1819H4.0027L3.5016 30.8521C3.45577 31.1917 3.5841 31.3144 3.81326 31.3144C4.04242 31.3144 4.20742 31.1917 4.25325 30.8521L4.75436 27.1819H5.44184L4.94685 30.8049ZM9.96703 30.7955C9.86315 31.5566 9.43232 31.9937 8.72039 31.9937C8.00846 31.9937 7.6968 31.5597 7.80069 30.7955L7.84652 30.4684H8.53401L8.48206 30.8427C8.43623 31.1823 8.56456 31.305 8.79678 31.305C9.029 31.305 9.19094 31.1823 9.23677 30.8427C9.37121 29.8646 7.97485 29.6822 8.16124 28.3204C8.26512 27.5593 8.68678 27.1253 9.3926 27.1253C10.0984 27.1253 10.404 27.5593 10.3001 28.3204L10.2756 28.5028H9.58815L9.61871 28.2732C9.66454 27.9336 9.55149 27.8046 9.31927 27.8046C9.08705 27.8046 8.93733 27.9336 8.8915 28.2732C8.75706 29.2513 10.1534 29.4369 9.96703 30.7955ZM1.74774 27.1819H0.650821L0 31.9402H0.727208L0.993037 30.0029H1.24359C1.57358 30.0029 1.6958 30.1665 1.63775 30.6068L1.53692 31.3553C1.48497 31.7421 1.50025 31.8176 1.52469 31.9402H2.26412C2.21524 31.7641 2.23357 31.5943 2.26412 31.3616L2.36496 30.6288C2.43218 30.1319 2.36496 29.7734 2.02274 29.6161C2.36801 29.4589 2.56356 29.1412 2.63078 28.6506L2.68273 28.2764C2.78356 27.5436 2.50856 27.1819 1.75691 27.1819H1.74774ZM1.94024 28.3518L1.87608 28.8204C1.82413 29.201 1.6408 29.3236 1.37192 29.3236H1.08776L1.28636 27.8612H1.63469C1.89135 27.8612 1.98302 28.009 1.93719 28.3518H1.94024ZM15.7205 31.9402L15.2867 28.4934L14.8161 31.9402H14.1622L14.81 27.1819H15.7205L16.078 30.0281L16.4661 27.1819H17.1138L16.463 31.9402H15.7175H15.7205ZM12.2006 31.0754H13.0928L13.0989 31.9371H13.8322L13.7436 27.1788H12.6803L11.2901 31.9371H11.9562L12.2006 31.0754ZM13.0592 28.0248L13.0806 30.4307H12.3809L13.0592 28.0248ZM10.954 31.9402H10.2268L10.8745 27.1819H11.6017L10.9509 31.9402H10.954ZM26.4912 31.9402H25.764L26.4148 27.1819H27.142L26.4912 31.9402ZM21.5138 27.8612H20.3191L20.1235 29.2953H21.0615L20.9699 29.9746H20.0318L19.763 31.9402H19.0358L19.6866 27.1819H21.6085L21.5168 27.8612H21.5138ZM23.8298 31.9402L24.0468 30.3646L23.564 27.1851H24.3248L24.5845 29.3519L25.434 27.1851H26.1276L24.774 30.3646L24.5601 31.9402H23.8329H23.8298ZM23.231 31.9402H21.309L21.9599 27.1819H22.6871L22.131 31.2609H23.3257L23.234 31.9402H23.231ZM28.572 31.9402L28.1381 28.4934L27.6675 31.9402H27.0137L27.6645 27.1819H28.575L28.9325 30.0281L29.3206 27.1819H29.9683L29.3175 31.9402H28.572Z" fill="white"/>
</svg>
