<svg width="33" height="39" viewBox="0 0 33 39" fill="none" xmlns="http://www.w3.org/2000/svg">
<mask id="mask0_666_149" style="mask-type:luminance" maskUnits="userSpaceOnUse" x="0" y="0" width="33" height="39">
<path d="M32.9607 0.128174H0.189453V38.9005H32.9607V0.128174Z" fill="white"/>
</mask>
<g mask="url(#mask0_666_149)">
<path d="M2.27106 29.4481C2.56845 29.5737 2.8807 29.6718 3.18281 29.7667C3.27696 29.7965 3.37114 29.8263 3.46532 29.8567C5.20901 30.3996 6.83789 31.2587 8.27046 32.3909C10.5991 34.2557 12.9554 36.0101 14.953 37.4804C15.5107 37.8859 16.1418 38.1786 16.8114 38.3435C18.072 38.6593 19.3659 38.8236 20.6655 38.8328C23.4471 38.8468 26.1524 37.9251 28.3466 36.2166C31.4125 33.9015 32.9629 30.9482 32.9535 27.4353C32.9537 26.0476 32.8143 24.6635 32.5374 23.3036C32.0165 20.6402 31.1783 18.0485 30.0411 15.584C29.4368 14.3064 28.734 13.3275 27.8929 12.5914C27.5378 12.2708 27.1186 12.0295 26.6632 11.8834C26.2076 11.7374 25.726 11.69 25.2506 11.7444C24.7687 11.8047 24.3052 11.9668 23.8908 12.2199C23.4765 12.4731 23.1207 12.8114 22.8472 13.2125C22.7747 13.3149 22.7046 13.4195 22.6244 13.5389L22.5528 13.6448C21.516 12.8061 20.4611 12.4849 19.3322 12.6612C18.241 12.8321 17.7601 13.1882 16.6853 14.645C14.431 13.4751 13.2871 14.1978 12.2262 15.7799C12.0529 15.4523 11.8851 15.1306 11.7199 14.814C11.3056 14.0188 10.913 13.2677 10.4904 12.5244C9.51889 10.8154 8.56327 9.14782 7.55491 7.53445C6.97396 6.61594 6.16159 5.86625 5.19917 5.36057C4.13768 4.79708 3.2012 4.98752 2.41563 5.9267C2.1169 6.26824 1.90833 6.67894 1.80886 7.12151C1.7094 7.56407 1.72221 8.02444 1.84611 8.46084C2.01091 9.08063 2.23464 9.69365 2.45085 10.2865C2.56197 10.5903 2.67273 10.8941 2.77632 11.1999C3.99713 14.8008 5.69858 18.2551 7.34414 21.5956L7.61634 22.1478C7.75494 22.4301 7.88207 22.7124 8.02916 23.0394C8.07811 23.1482 8.12879 23.2607 8.18208 23.3781L8.03275 23.3516C7.84212 23.3183 7.68464 23.2908 7.52813 23.2586C5.68937 22.8845 3.77776 23.1555 2.11583 24.0264C0.850566 24.6608 0.26705 25.5278 0.332027 26.6764C0.406234 28.0043 1.05891 28.9368 2.27106 29.4481ZM9.20703 26.3802C9.66846 26.8836 10.0892 27.0178 10.4945 26.791C10.9171 26.5541 11.081 26.1428 10.9686 25.6017C10.8962 25.2816 10.787 24.971 10.6431 24.6761C10.1488 23.6195 9.65055 22.5645 9.14843 21.5111C8.13441 19.3737 7.08579 17.1633 6.10546 14.9678C5.41143 13.4135 4.79929 11.7902 4.20736 10.2201C4.02603 9.73913 3.84401 9.25871 3.66119 8.77875C3.49404 8.41201 3.41404 8.01157 3.42761 7.60878C3.47502 7.23335 3.65789 6.88808 3.94195 6.63779C4.03725 6.56536 4.49288 6.68597 4.75958 6.88716C5.22255 7.21703 5.62926 7.6193 5.96405 8.07856C6.62339 9.02637 7.22597 10.0124 7.76852 11.0315C8.68727 12.7877 9.5954 14.5874 10.4736 16.3278C10.8994 17.1716 11.3263 18.0149 11.7543 18.8576L11.7845 18.9175C11.8838 19.1403 12.0151 19.3476 12.1741 19.5327C12.2757 19.6626 12.4133 19.7597 12.5697 19.8119C12.7262 19.8642 12.8946 19.8691 13.0538 19.8264C13.2131 19.7834 13.3562 19.6946 13.4653 19.5709C13.5743 19.4473 13.6446 19.2945 13.6671 19.1311C13.6984 18.9596 13.7056 18.7847 13.6885 18.6113C13.6795 18.4934 13.679 18.375 13.6871 18.257C13.7033 18.0858 13.7155 17.9126 13.7276 17.7396C13.745 17.2478 13.8129 16.759 13.9304 16.281C13.9569 16.1017 14.0347 15.934 14.1544 15.7979C14.2742 15.6618 14.4306 15.5632 14.6051 15.514C14.7796 15.4648 14.9647 15.467 15.1379 15.5205C15.3111 15.574 15.4653 15.6764 15.5816 15.8153C15.8954 16.1407 16.1601 16.5101 16.3672 16.9119C16.425 17.0108 16.4824 17.1097 16.541 17.2064C16.6306 17.3698 16.7019 17.5427 16.7535 17.7217C16.7842 17.8159 16.815 17.9085 16.8504 17.9994C17.0414 18.4887 17.4072 18.6841 17.8793 18.551C18.3048 18.4309 18.5055 18.0993 18.4443 17.6192C18.4197 17.4249 18.3879 17.2315 18.3559 17.0381C18.325 16.8499 18.2941 16.6636 18.27 16.4754C18.2411 16.2571 18.2304 16.0367 18.2378 15.8166L18.2416 15.7154C18.2642 15.1037 18.2856 14.5259 18.9258 14.2601C19.7294 13.926 20.4917 14.0465 21.0729 14.5989C21.3574 14.8982 21.6015 15.2336 21.7989 15.5964C21.8626 15.7018 21.9259 15.8069 21.9908 15.9096C22.0545 16.018 22.1093 16.1313 22.1547 16.2484C22.2204 16.4403 22.3236 16.6173 22.4585 16.769C22.6864 16.9924 23.0851 17.1887 23.3599 17.1302C23.6347 17.0716 23.916 16.7274 24.0275 16.4289C24.1033 16.1917 24.1458 15.9451 24.1537 15.6962C24.1648 15.5548 24.1761 15.4088 24.2005 15.2712C24.2445 14.9595 24.3213 14.6533 24.4295 14.3576C24.6302 13.8602 24.9568 13.5349 25.3512 13.4417C25.5459 13.4061 25.7465 13.4183 25.9354 13.4774C26.1245 13.5364 26.2963 13.6404 26.436 13.7805C27.067 14.3346 27.8463 15.0807 28.2725 15.9386C29.9608 19.3344 30.9376 22.8001 31.1758 26.2401C31.1875 26.4107 31.1841 26.5872 31.1809 26.7579C31.1792 26.8405 31.1778 26.923 31.1778 27.0054V27.0094C31.3984 32.4433 25.5636 36.2823 21.4497 36.5378C18.3044 36.7339 15.7147 35.8702 13.5358 33.8993C11.9948 32.5053 10.328 31.1939 8.90076 30.0953C7.46297 28.9775 5.82662 28.1417 4.07797 27.6316L4.0328 27.6186C3.58633 27.5057 3.1519 27.3493 2.73585 27.1519C2.35559 26.954 2.1311 26.6952 2.10379 26.4231C2.07762 26.1611 2.22774 25.8901 2.53832 25.6395C2.9706 25.284 3.47249 25.0228 4.01183 24.8726C4.56473 24.7235 5.13428 24.645 5.70691 24.6388C6.56436 24.6251 7.40655 24.8669 8.12581 25.3337C8.4653 25.5795 8.77186 25.8679 9.03807 26.1916C9.09403 26.255 9.15033 26.3179 9.20703 26.3798V26.3802Z" fill="#8E705F"/>
</g>
</svg>
