<svg width="416" height="251" viewBox="0 0 416 251" fill="none" xmlns="http://www.w3.org/2000/svg">
<path d="M200.71 5.02002C112.961 5.02002 0 44.4152 0 128.597C0 223.137 137.552 250.561 200.97 250.561C264.388 250.561 413.6 229.462 413.6 129.955C413.6 39.3635 287.189 5.06249 200.71 5.06249V5.02002Z" fill="url(#paint0_linear_549_1532)"/>
<path d="M351.063 42.9721C469.051 128.555 381.42 237.986 200.97 235.227C38.9888 232.765 -50.4242 140.588 51.6922 44.373C20.9116 64.4102 0 92.3435 0 128.555C0 223.095 119.149 250.519 200.97 250.519C275.984 250.519 413.6 229.42 413.6 129.913C413.6 92.1738 390.377 48.321 314.615 23.4443L351.063 42.9721Z" fill="url(#paint1_linear_549_1532)"/>
<path d="M206.802 206.751C308.71 206.751 391.322 161.592 391.322 105.885C391.322 50.179 308.71 5.02002 206.802 5.02002C104.893 5.02002 22.2803 50.179 22.2803 105.885C22.2803 161.592 104.893 206.751 206.802 206.751Z" stroke="#FCE2C1" stroke-width="0.1" stroke-linecap="round" stroke-linejoin="round"/>
<path d="M206.802 204.458C307.541 204.458 389.206 159.964 389.206 105.078C389.206 50.1925 307.541 5.69873 206.802 5.69873C106.063 5.69873 24.3975 50.1925 24.3975 105.078C24.3975 159.964 106.063 204.458 206.802 204.458Z" stroke="#FCE2C1" stroke-width="0.1" stroke-linecap="round" stroke-linejoin="round"/>
<path d="M206.801 202.166C306.389 202.166 387.123 158.337 387.123 104.272C387.123 50.2069 306.389 6.37842 206.801 6.37842C107.214 6.37842 26.4814 50.2069 26.4814 104.272C26.4814 158.337 107.214 202.166 206.801 202.166Z" stroke="#FCE2C1" stroke-width="0.1" stroke-linecap="round" stroke-linejoin="round"/>
<path d="M206.801 199.831C305.237 199.831 385.035 156.668 385.035 103.423C385.035 50.1784 305.237 7.01514 206.801 7.01514C108.364 7.01514 28.5654 50.1784 28.5654 103.423C28.5654 156.668 108.364 199.831 206.801 199.831Z" stroke="#FCE2C1" stroke-width="0.1" stroke-linecap="round" stroke-linejoin="round"/>
<path d="M206.801 197.539C304.069 197.539 382.919 155.04 382.919 102.616C382.919 50.1925 304.069 7.69434 206.801 7.69434C109.534 7.69434 30.6836 50.1925 30.6836 102.616C30.6836 155.04 109.534 197.539 206.801 197.539Z" stroke="#FCE2C1" stroke-width="0.1" stroke-linecap="round" stroke-linejoin="round"/>
<path d="M206.802 195.289C302.918 195.289 380.835 153.437 380.835 101.81C380.835 50.1834 302.918 8.33154 206.802 8.33154C110.686 8.33154 32.7686 50.1834 32.7686 101.81C32.7686 153.437 110.686 195.289 206.802 195.289Z" stroke="#FCE2C1" stroke-width="0.1" stroke-linecap="round" stroke-linejoin="round"/>
<path d="M206.801 192.997C301.747 192.997 378.717 151.81 378.717 101.004C378.717 50.1974 301.747 9.01074 206.801 9.01074C111.854 9.01074 34.8848 50.1974 34.8848 101.004C34.8848 151.81 111.854 192.997 206.801 192.997Z" stroke="#FCE2C1" stroke-width="0.1" stroke-linecap="round" stroke-linejoin="round"/>
<path d="M206.802 190.704C300.597 190.704 376.633 150.182 376.633 100.197C376.633 50.211 300.597 9.68945 206.802 9.68945C113.007 9.68945 36.9707 50.211 36.9707 100.197C36.9707 150.182 113.007 190.704 206.802 190.704Z" stroke="#FCE2C1" stroke-width="0.1" stroke-linecap="round" stroke-linejoin="round"/>
<path d="M206.801 188.412C299.427 188.412 374.515 148.555 374.515 99.3906C374.515 50.2252 299.427 10.3691 206.801 10.3691C114.175 10.3691 39.0869 50.2252 39.0869 99.3906C39.0869 148.555 114.175 188.412 206.801 188.412Z" stroke="#FCE2C1" stroke-width="0.1" stroke-linecap="round" stroke-linejoin="round"/>
<path d="M206.803 186.077C298.277 186.077 372.432 146.886 372.432 98.5412C372.432 50.1968 298.277 11.0059 206.803 11.0059C115.328 11.0059 41.1729 50.1968 41.1729 98.5412C41.1729 146.886 115.328 186.077 206.803 186.077Z" stroke="#FCE2C1" stroke-width="0.1" stroke-linecap="round" stroke-linejoin="round"/>
<path d="M206.8 183.784C297.106 183.784 370.313 145.258 370.313 97.7342C370.313 50.2104 297.106 11.6846 206.8 11.6846C116.495 11.6846 43.2881 50.2104 43.2881 97.7342C43.2881 145.258 116.495 183.784 206.8 183.784Z" stroke="#FCE2C1" stroke-width="0.1" stroke-linecap="round" stroke-linejoin="round"/>
<path d="M206.802 181.492C295.956 181.492 368.23 143.632 368.23 96.9281C368.23 50.225 295.956 12.3643 206.802 12.3643C117.647 12.3643 45.374 50.225 45.374 96.9281C45.374 143.632 117.647 181.492 206.802 181.492Z" stroke="#FCE2C1" stroke-width="0.1" stroke-linecap="round" stroke-linejoin="round"/>
<defs>
<linearGradient id="paint0_linear_549_1532" x1="0" y1="127.791" x2="413.6" y2="127.791" gradientUnits="userSpaceOnUse">
<stop stop-color="#FFEACF"/>
<stop offset="0.15" stop-color="#FFF3E0"/>
<stop offset="0.31" stop-color="#FFF9EC"/>
<stop offset="0.49" stop-color="#FFFBF0"/>
<stop offset="0.77" stop-color="#FFF9EE"/>
<stop offset="0.87" stop-color="#FFF6E7"/>
<stop offset="0.95" stop-color="#FFF0DB"/>
<stop offset="1" stop-color="#FFEACF"/>
</linearGradient>
<linearGradient id="paint1_linear_549_1532" x1="207.322" y1="158.738" x2="209.811" y2="242.295" gradientUnits="userSpaceOnUse">
<stop stop-color="#FFECD4"/>
<stop offset="1" stop-color="#FCE2C1"/>
</linearGradient>
</defs>
</svg>
