<svg width="227" height="360" viewBox="0 0 227 360" fill="none" xmlns="http://www.w3.org/2000/svg">
<path d="M19.9992 123.891C19.9992 123.891 16.2164 128.982 14.4458 137.136C12.7288 145.032 10.1908 164.301 10.1908 164.301C10.1908 164.301 0.741937 173.324 0.146352 180.175C-0.443867 187.025 0.661453 196.429 5.10956 195.174C6.51536 194.777 6.88022 188.677 10.0728 181.001C12.1224 176.066 13.1956 176.302 13.7053 177.106C14.0326 177.621 14.0272 178.276 13.7643 178.817C13.0131 180.357 10.0191 185.561 11.5537 186.623C13.5229 187.985 18.3466 182.417 19.0548 177.46C19.7631 172.498 18.2285 169.43 17.7564 167.3C17.7564 167.3 26.615 147.457 28.0369 143.439C28.9491 140.864 34.7708 127.046 39.1384 116.671L22.9932 111.505C21.6196 115.475 20.4553 119.788 20.0046 123.891H19.9992Z" fill="#FFB689"/>
<path d="M41.0216 255.614C41.1021 257.282 40.646 261.51 40.646 261.51C40.646 261.51 36.1335 271.015 35.7794 276.589C35.6452 278.67 36.0208 287.103 36.5252 296.587C36.7344 296.604 36.9383 296.646 37.1315 296.738C37.1691 296.754 41.0216 298.615 45.8346 298.701C45.9848 298.701 46.135 298.701 46.2853 298.701C50.7119 298.701 54.323 297.564 54.6503 297.456C54.7952 297.403 54.9508 297.371 55.1117 297.365C55.1386 297.365 55.1654 297.365 55.1922 297.365H55.2083C55.3264 297.365 55.4444 297.381 55.5571 297.408C57.3116 289.85 58.755 283.278 59.0769 280.784C60.2413 271.745 60.1769 263.457 60.1769 263.457C60.1769 263.457 64.6733 249.306 67.3561 240.588L41.5474 239.816C41.2308 246.806 40.9465 254.048 41.0216 255.614Z" fill="#FFB689"/>
<path d="M103.479 287.581C104.874 287.581 106.097 287.441 107.111 287.162C107.229 287.125 107.353 287.103 107.476 287.098C107.508 287.098 107.54 287.098 107.573 287.098C107.583 287.098 107.589 287.098 107.599 287.098C107.68 287.098 107.755 287.114 107.836 287.125C109.976 282.399 112.01 278.606 113.523 275.334C117.188 267.421 127.044 249.569 127.345 246.516C127.613 243.791 127.093 237.767 126.406 231.684L100.039 233.808C102.245 239.408 104.498 245.057 104.901 245.808C104.901 245.808 95.4302 253.855 93.7937 260.571C93.0156 263.763 92.2806 274.824 91.5938 285.43C91.7333 285.44 91.8728 285.462 92.0123 285.51C92.0713 285.531 98.1345 287.581 103.484 287.581H103.479Z" fill="#FFB689"/>
<path d="M125.235 222.403C124.747 220.375 124.114 217.908 123.298 214.963C121.823 209.636 119.752 202.748 116.844 194.031C111.553 178.179 106.874 163.03 106.874 163.03L106.767 162.247C104.943 162.912 96.8565 165.733 89.1622 166.377C86.2272 166.624 83.1903 166.747 80.1211 166.747C65.2798 166.747 53.9315 163.91 52.4667 163.523C51.4633 166.527 47.8039 177.932 44.4987 194.02C41.7837 207.227 37.0083 231.608 35.9513 236.994C35.8439 237.552 36.2678 238.067 36.8366 238.067L41.612 238.212L67.8338 238.995L71.8581 239.113C71.8581 239.113 71.8688 239.113 71.8742 239.113C72.1532 239.113 72.3946 238.92 72.4536 238.641L80.8884 200.892C81.044 200.377 81.484 200.119 81.9293 200.119C82.3747 200.119 82.8308 200.388 82.9757 200.913L91.5929 232.869L99.4106 232.241L126.207 230.085L126.802 230.037C126.802 230.037 126.518 227.746 125.23 222.403H125.235Z" fill="#FFF9ED"/>
<path d="M55.1811 298.98C55.1811 298.98 51.2427 300.315 46.2795 300.315C46.1185 300.315 45.9629 300.315 45.802 300.315C41.209 300.235 37.4852 298.674 36.616 298.282C36.4872 298.223 36.4229 298.191 36.4229 298.191C36.4229 298.191 36.8253 303.346 37.2492 309.488C37.5711 314.171 37.9038 319.423 38.0862 323.42C38.9769 323.307 40.0554 323.248 41.3056 323.248C43.8274 323.248 46.9019 323.495 49.1931 323.854C49.4935 323.903 49.7779 323.951 50.0462 323.999C51.8222 314.901 55.1918 298.985 55.1918 298.985L55.1811 298.98Z" fill="#DE8459"/>
<path d="M107.079 288.82C105.952 289.077 104.734 289.19 103.479 289.19C97.7859 289.19 91.4866 287.033 91.4866 287.033C91.4866 287.033 89.7052 304.146 88.9111 310.787C88.997 310.803 89.0828 310.824 89.1687 310.851C89.9038 311.06 90.655 311.511 91.4437 312.219C92.4471 313.126 93.429 313.528 94.6309 313.528C94.9636 313.528 95.3231 313.496 95.6987 313.431C96.9757 313.212 98.199 312.026 98.5532 311.591C98.859 311.216 99.3205 310.996 99.8034 310.996C99.8248 310.996 99.8409 310.996 99.8624 310.996C99.8839 310.996 99.8946 310.996 99.916 310.996C100.039 311.001 100.157 311.012 100.265 311.028C102.685 303.1 107.578 288.696 107.578 288.696C107.417 288.739 107.251 288.771 107.085 288.809L107.079 288.82Z" fill="#DE8459"/>
<path d="M106.59 17.2304C106.574 17.048 106.542 16.828 106.493 16.5974C106.456 16.4686 106.418 16.3345 106.381 16.2058C106.032 15.1436 105.157 13.9366 102.979 13.8561C102.866 13.8561 102.753 13.8508 102.641 13.8508C100.35 13.8508 98.9814 14.7574 98.0209 15.7498C97.6078 16.1736 97.0605 16.3935 96.5078 16.3935C96.0303 16.3935 95.5527 16.2272 95.1771 15.8839C93.8411 14.6662 91.6036 13.2231 88.5291 13.2231C88.4755 13.2231 88.4272 13.2231 88.3735 13.2231C83.6518 13.2982 79.3807 15.8946 77.873 20.2612C77.873 20.2612 77.873 20.272 77.8676 20.2773C77.653 20.8996 77.4974 21.5594 77.4008 22.2568C77.052 24.7942 76.9233 29.2574 76.875 30.2069C76.8481 30.7594 76.3813 31.1027 75.9199 31.1027C75.6355 31.1027 75.3511 30.974 75.1687 30.6897C74.9272 30.3141 74.7126 29.8206 74.4873 29.2895C73.9722 28.0718 73.0385 27.1009 71.3806 27.1009C71.284 27.1009 71.182 27.1009 71.0801 27.1116C70.1035 27.176 68.8855 28.5171 68.3597 30.4214C68.2631 30.9686 68.2041 31.5909 68.2041 32.3204C68.2041 32.9212 68.2309 33.4631 68.2792 33.9673C68.2846 33.9995 68.29 34.0317 68.3007 34.0639C68.3007 34.0639 68.2953 34.0531 68.2846 34.037C68.6494 37.8136 70.2806 38.8972 72.341 39.1547C73.6931 39.321 74.9594 38.4788 74.9594 38.4788C75.5765 46.1284 75.4584 50.833 74.2673 53.6708C73.4946 55.5161 71.9332 56.5944 70.5113 57.2166C70.624 57.3722 70.742 57.5331 70.8494 57.6833C71.6864 58.8528 72.2927 59.695 73.7683 60.9932C77.2613 64.0616 81.8489 65.8158 86.356 65.8158C91.727 65.8158 96.159 63.3321 98.5253 59.0084C98.697 58.6919 98.9706 57.9784 99.1101 57.5761C96.2985 56.8143 94.1308 55.9775 94.1308 55.9775L94.2381 52.5818C92.4299 52.5174 90.9866 51.9649 90.8793 51.922C90.6056 51.8147 90.4661 51.5036 90.5788 51.23C90.6861 50.9564 90.9973 50.8223 91.2763 50.9242C91.3192 50.9403 95.424 52.5067 98.1014 50.436C98.9384 49.7869 100.232 47.7807 101.675 44.9053C103.408 40.6245 107.845 29.5631 104.642 28.6458C104.642 28.6458 104.851 27.8143 105.13 26.5805C105.055 26.5644 104.132 26.3606 103.006 26.3338C103.027 27.176 102.925 28.7048 101.873 28.6458C100.827 28.5868 100.816 27.2886 100.892 26.5698C100.156 26.7897 99.5126 27.1867 99.1477 27.8626C99.1745 28.7746 99.2228 29.944 99.2711 31.1564C99.4106 34.6164 99.4911 36.7568 99.3999 37.2718C99.2336 38.2052 98.4877 39.2405 96.0034 39.2405C95.66 39.2405 95.2898 39.2191 94.8767 39.1815C93.7982 39.0689 93.0577 38.7148 92.6821 38.1301C92.2636 37.481 92.4675 36.8265 92.489 36.7514C92.5855 36.4725 92.886 36.3223 93.1704 36.4135C93.4494 36.51 93.605 36.8104 93.5084 37.0948C93.5084 37.0948 93.444 37.3361 93.5943 37.5615C93.7874 37.8458 94.2811 38.0443 94.9893 38.1194C96.4112 38.2642 98.1497 38.2052 98.3482 37.0948C98.4287 36.6549 98.2999 33.506 98.2033 31.21C98.1497 29.9118 98.1014 28.6673 98.0746 27.7178C98.0746 27.7178 98.0746 27.7124 98.0746 27.707C98.0585 27.1116 98.0531 26.6395 98.0585 26.3552C98.1175 24.5903 98.9223 23.3941 100.521 22.6913C102.008 22.0369 105.501 22.5411 105.892 22.6001C105.914 22.6001 105.935 22.6162 105.957 22.6216C106.348 20.5348 106.66 18.4266 106.59 17.2411V17.2304ZM89.0067 29.3378C87.7457 29.3378 87.6223 27.7821 87.6491 26.9453C86.1736 27.1652 85.5458 27.6266 85.5351 27.6319C85.4385 27.707 85.3258 27.7392 85.2078 27.7392C85.0468 27.7392 84.8859 27.6695 84.7839 27.53C84.6068 27.2993 84.6444 26.9668 84.8751 26.7844C84.9932 26.6932 86.0931 25.8778 88.7008 25.7705C91.2656 25.6632 92.0704 26.1567 92.2046 26.2587C92.4407 26.4357 92.489 26.7736 92.3119 27.0097C92.1402 27.2403 91.8182 27.294 91.5822 27.1331C91.55 27.117 91.1905 26.9292 90.2193 26.8595C90.2944 27.7392 90.2622 29.3378 89.012 29.3378H89.0067ZM97.3234 45.5169C96.8136 45.6832 96.1966 45.7368 95.6117 45.7368C94.4957 45.7368 93.4762 45.5383 93.4118 45.5276C93.1221 45.4686 92.9289 45.1896 92.988 44.9C93.047 44.6103 93.326 44.4172 93.6157 44.4762C93.6372 44.4762 95.7781 44.8892 96.9961 44.4976C97.2751 44.4118 97.5809 44.562 97.6722 44.8463C97.7634 45.1306 97.6078 45.431 97.3234 45.5222V45.5169ZM96.1268 42.7274C98.0907 42.663 98.9331 42.2768 98.9384 42.2714C99.2067 42.148 99.5233 42.2553 99.6521 42.5235C99.7808 42.7918 99.6735 43.1083 99.4053 43.237C99.3033 43.2853 98.3536 43.7252 96.159 43.8003C95.9712 43.8056 95.7835 43.811 95.601 43.811C92.7411 43.811 90.7398 43.0707 90.6485 43.0385C90.3695 42.9366 90.23 42.6255 90.3373 42.3465C90.4393 42.0676 90.7505 41.9281 91.0295 42.03C91.051 42.0354 93.1918 42.8186 96.1268 42.722V42.7274ZM92.8538 24.0914C92.7197 24.3543 92.3977 24.4616 92.1348 24.3328C92.1026 24.3167 90.67 23.6301 88.5667 23.6569C85.6424 23.6945 84.4995 24.4938 84.4888 24.4991C84.3922 24.5689 84.2849 24.6011 84.1722 24.6011C84.0059 24.6011 83.8449 24.5259 83.7376 24.3865C83.5659 24.1504 83.6088 23.8178 83.8449 23.6408C83.8986 23.5979 85.2239 22.6323 88.5506 22.584C90.9383 22.5518 92.548 23.3404 92.6124 23.3726C92.8753 23.5067 92.9826 23.8286 92.8484 24.0914H92.8538Z" fill="#FFB689"/>
<path d="M100.95 23.6625C99.7645 24.1829 99.2172 24.9607 99.1421 26.2321C101.245 24.6281 104.975 25.4328 105.361 25.5186C105.49 24.9339 105.624 24.3009 105.758 23.6464C105.753 23.6464 105.742 23.6464 105.736 23.6464C104.755 23.4962 101.975 23.2119 100.956 23.6625H100.95Z" fill="#FFB689"/>
<path d="M108.634 10.2675C108.355 5.80429 105.399 0.81539 97.946 0.187754C96.4382 0.0590085 94.9573 0 93.5569 0C76.2098 0 72.7812 9.495 72.6416 9.89733C72.4968 10.3211 72.1802 10.6805 71.7671 10.8629C69.1755 12.0163 67.5067 13.7704 66.6751 16.222C65.3927 20.0039 66.3692 24.6602 67.5443 28.1524C67.6999 27.8735 67.8662 27.616 68.0326 27.3853C68.875 26.2373 69.9159 25.5668 70.9676 25.497C71.1071 25.4863 71.2466 25.4809 71.3807 25.4809C73.0655 25.4809 74.4499 26.2105 75.3781 27.5623C75.4586 25.8082 75.5928 23.5927 75.8074 22.0316C76.3493 18.0888 78.7424 14.9023 82.1656 13.1321C83.9792 12.1933 86.0772 11.6461 88.3522 11.6086C88.4112 11.6086 88.4703 11.6086 88.5293 11.6086C92.1189 11.6086 94.7159 13.2823 96.2612 14.6877C96.3309 14.7521 96.4114 14.7789 96.5133 14.7789C96.6421 14.7789 96.7763 14.7199 96.8675 14.6234C98.4289 13.0194 100.318 12.2362 102.646 12.2362C102.775 12.2362 102.909 12.2362 103.043 12.2416C103.827 12.2684 104.487 12.4186 105.034 12.6332C105.914 12.9711 106.515 13.47 106.907 13.9153C107.234 14.2854 107.481 14.677 107.668 15.074C108.328 13.9957 108.763 12.2791 108.64 10.2728L108.634 10.2675Z" fill="#DE8459"/>
<path d="M117.59 62.1787C117.59 62.1787 112.085 59.3516 101.494 58.15C101.215 58.1178 100.93 58.0856 100.64 58.0588C100.64 58.0588 100.243 59.2014 99.9322 59.77C97.083 64.9896 91.8622 67.4197 86.3517 67.4197C81.571 67.4197 76.5756 65.5958 72.7016 62.1947C70.7538 60.4835 70.1583 59.4482 68.9617 57.8228C68.9617 57.8228 68.79 57.8388 68.4681 57.8764C66.1823 58.1446 56.2076 59.534 44.2047 64.4532C33.5164 68.8359 18.3692 107.293 18.7072 108.452L23.5309 109.992L39.7673 115.184L43.5662 116.402C43.9096 116.198 46.9841 109.353 48.8943 105.04C51.5073 98.0343 53.2082 93.2547 53.2243 93.201C53.3746 92.7826 53.8306 92.5627 54.2545 92.7129C54.673 92.8631 54.893 93.319 54.7428 93.7428C54.7213 93.7965 53.1117 98.3401 50.6113 105.051C51.0298 112.599 52.0063 131.53 52.5268 151.866C52.5644 153.245 52.5965 154.629 52.6287 156.013C52.6717 157.987 52.7092 159.966 52.7468 161.946C52.7468 161.946 52.779 161.957 52.8273 161.967C53.836 162.23 65.297 165.154 80.133 165.154C82.9929 165.154 85.9761 165.047 89.0399 164.789C97.2708 164.097 106.151 160.782 106.559 160.626C106.569 160.626 106.58 160.621 106.58 160.621C106.58 160.621 106.709 159.425 106.934 157.375C107.036 156.437 107.16 155.326 107.299 154.06C108.764 140.864 112.085 111.515 113.743 101.248C115.745 88.8398 119.34 67.9186 117.596 62.2001L117.59 62.1787Z" fill="#FFF9ED"/>
<path d="M55.048 351.224C53.4973 348.708 51.775 339.696 50.4765 335.125C50.2404 334.294 50.2458 333.414 50.4926 332.583C51.0345 330.769 51.8179 327.728 51.2223 326.381C51.0774 326.054 50.8521 325.829 50.5248 325.743C50.5194 325.743 50.514 325.738 50.5033 325.732C50.2726 325.679 50.015 325.625 49.736 325.571C49.4463 325.518 49.1297 325.464 48.797 325.416C46.683 325.094 43.8016 324.853 41.2959 324.853C40.1315 324.853 39.0584 324.906 38.1731 325.024C38.1624 325.024 38.1516 325.024 38.1409 325.024C37.8511 325.062 37.5882 325.11 37.3414 325.169C37.2717 325.185 37.2019 325.201 37.1375 325.217C36.9283 325.271 36.7297 325.341 36.5473 325.427C36.0859 325.641 35.7532 325.979 35.7532 326.564C35.7532 329.316 36.1663 332.674 36.381 333.934C36.5956 335.19 28.9013 347.222 27.474 349.899C26.4492 351.819 26.0575 351.449 26.2775 356.159C26.4277 359.394 32.1046 360 40.0403 360C47.9761 360 56.0836 359.19 56.0889 355.998C56.0889 353.107 56.0889 352.914 55.0426 351.229L55.048 351.224Z" fill="#FFF9ED"/>
<path d="M125.917 328.13C120.847 327.004 114.279 323.731 109.67 322.138C105.276 320.62 102.137 318.726 101.386 317.176C100.994 316.371 100.876 315.556 100.812 314.843C100.742 314.049 100.736 313.383 100.506 312.992C100.366 312.761 100.152 312.616 99.7921 312.606C99.7921 312.606 99.7867 312.616 99.776 312.622C99.7438 312.659 99.6472 312.772 99.4916 312.933C98.9228 313.523 97.5868 314.735 95.9556 315.014C95.4942 315.095 95.0489 315.132 94.6142 315.132C93.0206 315.132 91.647 314.58 90.3486 313.41C89.8925 312.997 89.3774 312.632 88.8676 312.445C88.8086 312.423 88.7496 312.402 88.6959 312.386C88.535 312.343 88.374 312.311 88.2184 312.311C88.1057 312.311 87.9984 312.327 87.8911 312.353C87.8857 312.353 87.875 312.353 87.8696 312.353C87.5584 312.439 87.274 312.611 87.0111 312.842C85.777 313.931 85.0312 316.361 84.4464 317.428C83.7381 318.726 79.5207 327.476 79.011 328.592C77.5354 331.826 77.015 335.217 79.8695 336.563C81.8923 337.518 85.3156 338.36 88.9964 338.36C91.9261 338.36 95.0113 337.824 97.678 336.386C97.678 336.386 112.128 337.775 118.143 337.856C120.53 337.888 123.283 338.033 125.907 338.033C130.07 338.033 133.912 337.673 135.447 335.935C137.55 333.559 132.297 329.536 125.912 328.114L125.917 328.13Z" fill="#FFF9ED"/>
<path d="M215.405 116.214C210.026 111.928 196.976 112.582 196.976 112.582C196.976 112.582 181.245 101.168 174.333 96.981C167.198 92.6609 160.901 91.9029 160.901 91.9029C158.189 89.8433 155.036 88.0416 151.865 86.5018C150.719 92.1317 148.461 98.0917 146.51 102.341C156.309 106.031 167.371 110.21 169.563 111.189C173.452 112.922 193.952 120.143 193.952 120.143C195.173 121.948 196.018 125.541 200.43 128.071C204.709 130.529 210.262 134.837 210.957 133.324C211.735 131.628 211.196 128.912 205.992 125.984C205.461 125.688 204.008 124.538 203.856 123.947C203.621 123.029 204.19 122.088 209.183 123.992C216.952 126.957 221.632 130.887 222.881 130.14C226.849 127.772 220.788 120.504 215.405 116.222V116.214Z" fill="#FFB689"/>
<path d="M126.162 65.9499C116.66 60.5223 113.689 59.1911 99.0902 68.5175C96.2979 70.3008 94.908 82.9338 109.535 91.6499C122.55 99.3989 134.325 105.452 141.093 108.706C141.093 108.706 142.512 106.521 144.288 103.251C144.515 102.788 144.75 102.295 144.99 101.767C146.929 97.5524 149.255 91.4557 150.363 85.7879C150.697 84.0807 150.921 82.4153 150.986 80.8485C149.434 79.8813 137.288 72.303 126.158 65.9461L126.162 65.9499Z" fill="#FFF9ED"/>
<path d="M115.48 87.8101C115.48 87.8101 112.749 114.278 110.694 131.991" stroke="#51703C" stroke-width="2.5" stroke-linecap="round" stroke-linejoin="round"/>
</svg>
