<svg width="158" height="360" viewBox="0 0 158 360" fill="none" xmlns="http://www.w3.org/2000/svg">
<path d="M19.9992 123.891C19.9992 123.891 16.2164 128.982 14.4458 137.136C12.7288 145.032 10.1908 164.301 10.1908 164.301C10.1908 164.301 0.741937 173.324 0.146352 180.175C-0.443867 187.025 0.661453 196.429 5.10956 195.174C6.51536 194.777 6.88022 188.677 10.0728 181.001C12.1224 176.066 13.1956 176.302 13.7053 177.106C14.0326 177.621 14.0272 178.276 13.7643 178.817C13.0131 180.357 10.0191 185.561 11.5537 186.623C13.5229 187.985 18.3466 182.417 19.0548 177.46C19.7631 172.498 18.2285 169.43 17.7564 167.3C17.7564 167.3 26.615 147.457 28.0369 143.439C28.9491 140.864 34.7708 127.046 39.1384 116.671L22.9932 111.505C21.6196 115.475 20.4553 119.788 20.0046 123.891H19.9992Z" fill="#FFB689"/>
<path d="M41.0218 255.614C41.1023 257.282 40.6462 261.51 40.6462 261.51C40.6462 261.51 36.1337 271.015 35.7796 276.589C35.6455 278.67 36.0211 287.103 36.5254 296.587C36.7347 296.604 36.9386 296.646 37.1318 296.738C37.1693 296.754 41.0218 298.615 45.8348 298.701C45.985 298.701 46.1353 298.701 46.2855 298.701C50.7122 298.701 54.3232 297.564 54.6505 297.456C54.7954 297.403 54.951 297.371 55.112 297.365C55.1388 297.365 55.1656 297.365 55.1925 297.365H55.2086C55.3266 297.365 55.4447 297.381 55.5573 297.408C57.3119 289.85 58.7552 283.278 59.0772 280.784C60.2415 271.745 60.1771 263.457 60.1771 263.457C60.1771 263.457 64.6735 249.306 67.3564 240.588L41.5477 239.816C41.2311 246.806 40.9467 254.048 41.0218 255.614Z" fill="#FFB689"/>
<path d="M103.478 287.581C104.873 287.581 106.097 287.441 107.111 287.162C107.229 287.125 107.352 287.103 107.476 287.098C107.508 287.098 107.54 287.098 107.572 287.098C107.583 287.098 107.588 287.098 107.599 287.098C107.68 287.098 107.755 287.114 107.835 287.125C109.976 282.399 112.01 278.606 113.523 275.334C117.188 267.421 127.044 249.569 127.345 246.516C127.613 243.791 127.093 237.767 126.406 231.684L100.039 233.808C102.244 239.408 104.498 245.057 104.9 245.808C104.9 245.808 95.4299 253.855 93.7934 260.571C93.0154 263.763 92.2803 274.824 91.5935 285.43C91.733 285.44 91.8725 285.462 92.012 285.51C92.071 285.531 98.1342 287.581 103.484 287.581H103.478Z" fill="#FFB689"/>
<path d="M125.235 222.403C124.747 220.375 124.114 217.908 123.298 214.963C121.823 209.636 119.752 202.748 116.844 194.031C111.553 178.179 106.874 163.03 106.874 163.03L106.767 162.247C104.943 162.912 96.8565 165.733 89.1622 166.377C86.2272 166.624 83.1903 166.747 80.1211 166.747C65.2798 166.747 53.9315 163.91 52.4667 163.523C51.4633 166.527 47.8039 177.932 44.4987 194.02C41.7837 207.227 37.0083 231.608 35.9513 236.994C35.8439 237.552 36.2678 238.067 36.8366 238.067L41.612 238.212L67.8338 238.995L71.8581 239.113C71.8581 239.113 71.8688 239.113 71.8742 239.113C72.1532 239.113 72.3946 238.92 72.4536 238.641L80.8884 200.892C81.044 200.377 81.484 200.119 81.9293 200.119C82.3747 200.119 82.8308 200.388 82.9757 200.913L91.5929 232.869L99.4106 232.241L126.207 230.085L126.802 230.037C126.802 230.037 126.518 227.746 125.23 222.403H125.235Z" fill="#FFF9ED"/>
<path d="M55.1811 298.98C55.1811 298.98 51.2427 300.315 46.2795 300.315C46.1185 300.315 45.9629 300.315 45.802 300.315C41.209 300.235 37.4852 298.674 36.616 298.282C36.4872 298.223 36.4229 298.191 36.4229 298.191C36.4229 298.191 36.8253 303.346 37.2492 309.488C37.5711 314.171 37.9038 319.423 38.0862 323.42C38.9769 323.307 40.0554 323.248 41.3056 323.248C43.8274 323.248 46.9019 323.495 49.1931 323.854C49.4935 323.903 49.7779 323.951 50.0462 323.999C51.8222 314.901 55.1918 298.985 55.1918 298.985L55.1811 298.98Z" fill="#DE8459"/>
<path d="M107.079 288.82C105.952 289.077 104.734 289.19 103.479 289.19C97.7856 289.19 91.4864 287.033 91.4864 287.033C91.4864 287.033 89.705 304.146 88.9109 310.787C88.9967 310.803 89.0826 310.824 89.1684 310.851C89.9035 311.06 90.6547 311.511 91.4435 312.219C92.4468 313.126 93.4288 313.528 94.6307 313.528C94.9633 313.528 95.3228 313.496 95.6984 313.431C96.9754 313.212 98.1988 312.026 98.5529 311.591C98.8588 311.216 99.3202 310.996 99.8031 310.996C99.8246 310.996 99.8407 310.996 99.8621 310.996C99.8836 310.996 99.8943 310.996 99.9158 310.996C100.039 311.001 100.157 311.012 100.265 311.028C102.684 303.1 107.578 288.696 107.578 288.696C107.417 288.739 107.251 288.771 107.084 288.809L107.079 288.82Z" fill="#DE8459"/>
<path d="M106.59 17.2304C106.574 17.048 106.542 16.828 106.493 16.5974C106.456 16.4686 106.418 16.3345 106.381 16.2058C106.032 15.1436 105.157 13.9366 102.979 13.8561C102.866 13.8561 102.753 13.8508 102.641 13.8508C100.35 13.8508 98.9814 14.7574 98.0209 15.7498C97.6078 16.1736 97.0605 16.3935 96.5078 16.3935C96.0303 16.3935 95.5527 16.2272 95.1771 15.8839C93.8411 14.6662 91.6036 13.2231 88.5291 13.2231C88.4755 13.2231 88.4272 13.2231 88.3735 13.2231C83.6518 13.2982 79.3807 15.8946 77.873 20.2612C77.873 20.2612 77.873 20.272 77.8676 20.2773C77.653 20.8996 77.4974 21.5594 77.4008 22.2568C77.052 24.7942 76.9233 29.2574 76.875 30.2069C76.8481 30.7594 76.3813 31.1027 75.9199 31.1027C75.6355 31.1027 75.3511 30.974 75.1687 30.6897C74.9272 30.3141 74.7126 29.8206 74.4873 29.2895C73.9722 28.0718 73.0385 27.1009 71.3806 27.1009C71.284 27.1009 71.182 27.1009 71.0801 27.1116C70.1035 27.176 68.8855 28.5171 68.3597 30.4214C68.2631 30.9686 68.2041 31.5909 68.2041 32.3204C68.2041 32.9212 68.2309 33.4631 68.2792 33.9673C68.2846 33.9995 68.29 34.0317 68.3007 34.0639C68.3007 34.0639 68.2953 34.0531 68.2846 34.037C68.6494 37.8136 70.2806 38.8972 72.341 39.1547C73.6931 39.321 74.9594 38.4788 74.9594 38.4788C75.5765 46.1284 75.4584 50.833 74.2673 53.6708C73.4946 55.5161 71.9332 56.5944 70.5113 57.2166C70.624 57.3722 70.742 57.5331 70.8494 57.6833C71.6864 58.8528 72.2927 59.695 73.7683 60.9932C77.2613 64.0616 81.8489 65.8158 86.356 65.8158C91.727 65.8158 96.159 63.3321 98.5253 59.0084C98.697 58.6919 98.9706 57.9784 99.1101 57.5761C96.2985 56.8143 94.1308 55.9775 94.1308 55.9775L94.2381 52.5818C92.4299 52.5174 90.9866 51.9649 90.8793 51.922C90.6056 51.8147 90.4661 51.5036 90.5788 51.23C90.6861 50.9564 90.9973 50.8223 91.2763 50.9242C91.3192 50.9403 95.424 52.5067 98.1014 50.436C98.9384 49.7869 100.232 47.7807 101.675 44.9053C103.408 40.6245 107.845 29.5631 104.642 28.6458C104.642 28.6458 104.851 27.8143 105.13 26.5805C105.055 26.5644 104.132 26.3606 103.006 26.3338C103.027 27.176 102.925 28.7048 101.873 28.6458C100.827 28.5868 100.816 27.2886 100.892 26.5698C100.156 26.7897 99.5126 27.1867 99.1477 27.8626C99.1745 28.7746 99.2228 29.944 99.2711 31.1564C99.4106 34.6164 99.4911 36.7568 99.3999 37.2718C99.2336 38.2052 98.4877 39.2405 96.0034 39.2405C95.66 39.2405 95.2898 39.2191 94.8767 39.1815C93.7982 39.0689 93.0577 38.7148 92.6821 38.1301C92.2636 37.481 92.4675 36.8265 92.489 36.7514C92.5855 36.4725 92.886 36.3223 93.1704 36.4135C93.4494 36.51 93.605 36.8104 93.5084 37.0948C93.5084 37.0948 93.444 37.3361 93.5943 37.5615C93.7874 37.8458 94.2811 38.0443 94.9893 38.1194C96.4112 38.2642 98.1497 38.2052 98.3482 37.0948C98.4287 36.6549 98.2999 33.506 98.2033 31.21C98.1497 29.9118 98.1014 28.6673 98.0746 27.7178C98.0746 27.7178 98.0746 27.7124 98.0746 27.707C98.0585 27.1116 98.0531 26.6395 98.0585 26.3552C98.1175 24.5903 98.9223 23.3941 100.521 22.6913C102.008 22.0369 105.501 22.5411 105.892 22.6001C105.914 22.6001 105.935 22.6162 105.957 22.6216C106.348 20.5348 106.66 18.4266 106.59 17.2411V17.2304ZM89.0067 29.3378C87.7457 29.3378 87.6223 27.7821 87.6491 26.9453C86.1736 27.1652 85.5458 27.6266 85.5351 27.6319C85.4385 27.707 85.3258 27.7392 85.2078 27.7392C85.0468 27.7392 84.8859 27.6695 84.7839 27.53C84.6068 27.2993 84.6444 26.9668 84.8751 26.7844C84.9932 26.6932 86.0931 25.8778 88.7008 25.7705C91.2656 25.6632 92.0704 26.1567 92.2046 26.2587C92.4407 26.4357 92.489 26.7736 92.3119 27.0097C92.1402 27.2403 91.8182 27.294 91.5822 27.1331C91.55 27.117 91.1905 26.9292 90.2193 26.8595C90.2944 27.7392 90.2622 29.3378 89.012 29.3378H89.0067ZM97.3234 45.5169C96.8136 45.6832 96.1966 45.7368 95.6117 45.7368C94.4957 45.7368 93.4762 45.5383 93.4118 45.5276C93.1221 45.4686 92.9289 45.1896 92.988 44.9C93.047 44.6103 93.326 44.4172 93.6157 44.4762C93.6372 44.4762 95.7781 44.8892 96.9961 44.4976C97.2751 44.4118 97.5809 44.562 97.6722 44.8463C97.7634 45.1306 97.6078 45.431 97.3234 45.5222V45.5169ZM96.1268 42.7274C98.0907 42.663 98.9331 42.2768 98.9384 42.2714C99.2067 42.148 99.5233 42.2553 99.6521 42.5235C99.7808 42.7918 99.6735 43.1083 99.4053 43.237C99.3033 43.2853 98.3536 43.7252 96.159 43.8003C95.9712 43.8056 95.7835 43.811 95.601 43.811C92.7411 43.811 90.7398 43.0707 90.6485 43.0385C90.3695 42.9366 90.23 42.6255 90.3373 42.3465C90.4393 42.0676 90.7505 41.9281 91.0295 42.03C91.051 42.0354 93.1918 42.8186 96.1268 42.722V42.7274ZM92.8538 24.0914C92.7197 24.3543 92.3977 24.4616 92.1348 24.3328C92.1026 24.3167 90.67 23.6301 88.5667 23.6569C85.6424 23.6945 84.4995 24.4938 84.4888 24.4991C84.3922 24.5689 84.2849 24.6011 84.1722 24.6011C84.0059 24.6011 83.8449 24.5259 83.7376 24.3865C83.5659 24.1504 83.6088 23.8178 83.8449 23.6408C83.8986 23.5979 85.2239 22.6323 88.5506 22.584C90.9383 22.5518 92.548 23.3404 92.6124 23.3726C92.8753 23.5067 92.9826 23.8286 92.8484 24.0914H92.8538Z" fill="#FFB689"/>
<path d="M100.95 23.6625C99.7643 24.1829 99.217 24.9607 99.1418 26.2321C101.245 24.6281 104.974 25.4328 105.361 25.5186C105.489 24.9339 105.624 24.3009 105.758 23.6464C105.752 23.6464 105.742 23.6464 105.736 23.6464C104.754 23.4962 101.975 23.2119 100.955 23.6625H100.95Z" fill="#FFB689"/>
<path d="M108.634 10.2675C108.355 5.80429 105.399 0.81539 97.946 0.187754C96.4382 0.0590085 94.9573 0 93.5569 0C76.2098 0 72.7812 9.495 72.6416 9.89733C72.4968 10.3211 72.1802 10.6805 71.7671 10.8629C69.1755 12.0163 67.5067 13.7704 66.6751 16.222C65.3927 20.0039 66.3692 24.6602 67.5443 28.1524C67.6999 27.8735 67.8662 27.616 68.0326 27.3853C68.875 26.2373 69.9159 25.5668 70.9676 25.497C71.1071 25.4863 71.2466 25.4809 71.3807 25.4809C73.0655 25.4809 74.4499 26.2105 75.3781 27.5623C75.4586 25.8082 75.5928 23.5927 75.8074 22.0316C76.3493 18.0888 78.7424 14.9023 82.1656 13.1321C83.9792 12.1933 86.0772 11.6461 88.3522 11.6086C88.4112 11.6086 88.4703 11.6086 88.5293 11.6086C92.1189 11.6086 94.7159 13.2823 96.2612 14.6877C96.3309 14.7521 96.4114 14.7789 96.5133 14.7789C96.6421 14.7789 96.7763 14.7199 96.8675 14.6234C98.4289 13.0194 100.318 12.2362 102.646 12.2362C102.775 12.2362 102.909 12.2362 103.043 12.2416C103.827 12.2684 104.487 12.4186 105.034 12.6332C105.914 12.9711 106.515 13.47 106.907 13.9153C107.234 14.2854 107.481 14.677 107.668 15.074C108.328 13.9957 108.763 12.2791 108.64 10.2728L108.634 10.2675Z" fill="#DE8459"/>
<path d="M117.59 62.1787C117.59 62.1787 112.085 59.3516 101.493 58.15C101.214 58.1178 100.93 58.0856 100.64 58.0588C100.64 58.0588 100.243 59.2014 99.9319 59.77C97.0828 64.9896 91.862 67.4197 86.3515 67.4197C81.5707 67.4197 76.5753 65.5958 72.7013 62.1947C70.7536 60.4835 70.158 59.4482 68.9615 57.8228C68.9615 57.8228 68.7898 57.8388 68.4678 57.8764C66.1821 58.1446 56.2074 59.534 44.2045 64.4532C33.5161 68.8359 18.3689 107.293 18.707 108.452L23.5307 109.992L39.7671 115.184L43.5659 116.402C43.9093 116.198 46.9839 109.353 48.894 105.04C51.5071 98.0343 53.208 93.2547 53.2241 93.201C53.3743 92.7826 53.8304 92.5627 54.2543 92.7129C54.6728 92.8631 54.8928 93.319 54.7426 93.7428C54.7211 93.7965 53.1114 98.3401 50.611 105.051C51.0295 112.599 52.0061 131.53 52.5266 151.866C52.5641 153.245 52.5963 154.629 52.6285 156.013C52.6714 157.987 52.709 159.966 52.7465 161.946C52.7465 161.946 52.7787 161.957 52.827 161.967C53.8358 162.23 65.2968 165.154 80.1327 165.154C82.9926 165.154 85.9759 165.047 89.0397 164.789C97.2706 164.097 106.151 160.782 106.558 160.626C106.569 160.626 106.58 160.621 106.58 160.621C106.58 160.621 106.709 159.425 106.934 157.375C107.036 156.437 107.159 155.326 107.299 154.06C108.764 140.864 112.085 111.515 113.743 101.248C115.744 88.8398 119.339 67.9186 117.596 62.2001L117.59 62.1787Z" fill="#FFF9ED"/>
<path d="M55.0478 351.224C53.4971 348.708 51.7747 339.696 50.4762 335.125C50.2401 334.294 50.2455 333.414 50.4923 332.583C51.0343 330.769 51.8176 327.728 51.2221 326.381C51.0772 326.054 50.8518 325.829 50.5245 325.743C50.5192 325.743 50.5138 325.738 50.5031 325.732C50.2723 325.679 50.0148 325.625 49.7358 325.571C49.446 325.518 49.1295 325.464 48.7968 325.416C46.6827 325.094 43.8014 324.853 41.2956 324.853C40.1313 324.853 39.0582 324.906 38.1728 325.024C38.1621 325.024 38.1514 325.024 38.1406 325.024C37.8509 325.062 37.588 325.11 37.3412 325.169C37.2714 325.185 37.2017 325.201 37.1373 325.217C36.928 325.271 36.7295 325.341 36.5471 325.427C36.0856 325.641 35.7529 325.979 35.7529 326.564C35.7529 329.316 36.1661 332.674 36.3807 333.934C36.5953 335.19 28.901 347.222 27.4738 349.899C26.4489 351.819 26.0572 351.449 26.2772 356.159C26.4275 359.394 32.1043 360 40.0401 360C47.9759 360 56.0833 359.19 56.0887 355.998C56.0887 353.107 56.0887 352.914 55.0424 351.229L55.0478 351.224Z" fill="#FFF9ED"/>
<path d="M125.917 328.13C120.847 327.004 114.279 323.731 109.67 322.138C105.276 320.62 102.137 318.726 101.385 317.176C100.994 316.371 100.876 315.556 100.811 314.843C100.742 314.049 100.736 313.383 100.505 312.992C100.366 312.761 100.151 312.616 99.7918 312.606C99.7918 312.606 99.7865 312.616 99.7757 312.622C99.7435 312.659 99.647 312.772 99.4914 312.933C98.9226 313.523 97.5866 314.735 95.9554 315.014C95.494 315.095 95.0486 315.132 94.614 315.132C93.0204 315.132 91.6468 314.58 90.3483 313.41C89.8922 312.997 89.3771 312.632 88.8674 312.445C88.8084 312.423 88.7494 312.402 88.6957 312.386C88.5347 312.343 88.3738 312.311 88.2182 312.311C88.1055 312.311 87.9982 312.327 87.8909 312.353C87.8855 312.353 87.8748 312.353 87.8694 312.353C87.5582 312.439 87.2738 312.611 87.0109 312.842C85.7768 313.931 85.031 316.361 84.4461 317.428C83.7379 318.726 79.5205 327.476 79.0107 328.592C77.5352 331.826 77.0147 335.217 79.8692 336.563C81.8921 337.518 85.3154 338.36 88.9962 338.36C91.9258 338.36 95.011 337.824 97.6778 336.386C97.6778 336.386 112.127 337.775 118.142 337.856C120.53 337.888 123.283 338.033 125.906 338.033C130.07 338.033 133.912 337.673 135.446 335.935C137.55 333.559 132.297 329.536 125.912 328.114L125.917 328.13Z" fill="#FFF9ED"/>
<path d="M156.935 175.325C156.163 168.491 146.472 159.725 146.472 159.725C146.472 159.725 143.419 140.531 141.493 132.683C139.502 124.583 135.585 119.594 135.585 119.594C135.124 116.22 134.169 112.717 133.015 109.386C128.224 112.556 122.413 115.174 118.029 116.799C122.348 126.337 127.215 137.114 128.074 139.357C129.597 143.332 138.987 162.933 138.987 162.933C138.574 165.074 136.632 168.212 137.962 173.12C139.25 177.884 140.13 184.858 141.691 184.278C143.441 183.629 144.981 181.328 143.371 175.577C143.205 174.992 142.99 173.152 143.301 172.627C143.784 171.811 144.852 171.548 147.036 176.425C150.432 184.015 150.963 190.104 152.374 190.458C156.855 191.59 157.708 182.165 156.93 175.33L156.935 175.325Z" fill="#FFB689"/>
<path d="M129.373 76.6787C126.492 66.1216 125.333 63.08 108.415 59.3517C105.179 58.6382 95.2635 66.5883 99.4434 83.0946C103.167 97.7769 107.213 110.383 109.697 117.47C109.697 117.47 112.246 116.928 115.814 115.871C116.302 115.705 116.817 115.522 117.359 115.319C121.711 113.709 127.667 111.043 132.458 107.819C133.901 106.848 135.237 105.829 136.391 104.767C135.978 102.986 132.748 89.0383 129.373 76.6734V76.6787Z" fill="#FFF9ED"/>
<path d="M115.48 87.8101C115.48 87.8101 112.749 114.278 110.694 131.991" stroke="#51703C" stroke-width="2.5" stroke-linecap="round" stroke-linejoin="round"/>
</svg>
