<svg width="57" height="42" viewBox="0 0 57 42" fill="none" xmlns="http://www.w3.org/2000/svg">
<path d="M32.0529 18.1394C38.838 13.703 45.6212 9.26339 52.4026 4.82043C53.7522 3.93189 55.0441 2.95147 56.3112 1.94961C56.5191 1.78173 56.6712 1.5555 56.747 1.30035C56.8223 1.0451 56.8183 0.772921 56.7354 0.5193C56.6186 0.103956 55.9092 -0.139673 55.3982 0.0859934C54.9042 0.303829 54.3877 0.481707 53.9195 0.744063C50.9315 2.41798 47.8962 4.01881 44.9854 5.8154C39.0056 9.50737 33.0754 13.2778 27.1603 17.0688C21.5471 20.6653 15.9849 24.3378 10.3835 27.9534C9.48427 28.5337 8.50874 29.0002 7.55734 29.498C7.48804 29.5217 7.41371 29.5278 7.34121 29.5156C7.26874 29.5035 7.20046 29.4736 7.14255 29.4286C7.03582 29.3011 6.92299 29.0441 6.98315 28.9336C8.09418 26.8963 9.15182 24.8255 10.3776 22.8563C13.2287 18.2772 15.5356 13.4252 17.8368 8.56744C18.2146 7.76917 18.6193 6.94525 18.3653 6.00508C18.3188 5.83418 18.2323 5.54608 18.1421 5.5372C17.8008 5.47715 17.4501 5.50163 17.1215 5.60836C16.7998 5.76519 16.5289 6.00752 16.3391 6.3084C15.6599 7.36292 14.9993 8.4316 14.3802 9.5223C9.95726 17.316 5.55905 25.1234 1.12498 32.9109C-0.547541 35.8487 -0.916269 37.8907 4.02243 38.8126C5.44533 39.0786 6.87798 39.3375 8.31788 39.4628C14.9951 40.0464 21.6747 40.5993 28.3569 41.1211C29.2565 41.1633 30.1578 41.1362 31.0525 41.0399C31.6473 40.9946 31.9943 40.5717 32.1868 40.0446C32.3983 39.4643 32.0592 38.3899 31.652 38.0831C30.7483 37.402 29.6829 37.1606 28.611 37.0112C24.484 36.4356 20.3519 35.8968 16.2195 35.3606C13.5271 35.0112 10.8323 34.6952 8.14112 34.3415C8.00834 34.324 7.85607 34.1009 7.80234 33.9456C7.78662 33.8726 7.78914 33.797 7.80963 33.7254C7.83008 33.6538 7.8679 33.5882 7.91981 33.5345C8.78448 32.8963 9.63836 32.2402 10.5448 31.6647C17.6944 27.1254 24.8499 22.5956 32.0115 18.075L32.0529 18.1394Z" fill="white"/>
</svg>
