<svg width="179" height="311" viewBox="0 0 179 311" fill="none" xmlns="http://www.w3.org/2000/svg">
<path d="M71.0781 166.508C71.0781 166.508 56.281 187.927 54.8027 190.495C53.3244 193.062 52.4346 194.287 52.4346 198.083C52.4346 202.827 55.8573 204.123 58.0982 209.13C59.2705 211.749 75.2776 245.171 76.3651 248.629C77.4527 252.087 80.1127 260.571 80.1127 260.571H86.8592C86.8592 260.571 83.3706 242.755 82.6785 235.453C81.9864 228.152 78.6297 209.248 76.125 203.26C74.6844 199.817 70.7768 197.65 70.7768 197.65L95.0699 173.588L71.0734 166.508H71.0781Z" fill="#FFB689"/>
<path d="M108.935 188.286C108.935 188.286 115.54 214.444 116.251 217.035C116.957 219.626 114.937 225.245 115.144 230.173C115.733 244.267 126.613 284.633 126.613 284.633L131.829 284.798C131.829 284.798 134.89 248.563 135.017 244.616C135.144 240.668 136.048 231.869 135.582 226.857C135.106 221.793 133.195 218.787 132.964 216.705C132.733 214.623 134.607 187.909 134.607 187.909L108.935 188.276V188.286Z" fill="#FFB689"/>
<path d="M80.7858 261.277C80.4892 261.277 80.2256 261.094 80.122 260.811C80.0514 260.618 73.0695 241.474 68.8935 234.968C68.7523 234.747 68.7429 234.469 68.87 234.243C68.9971 234.021 69.2325 233.88 69.4867 233.88C69.4915 233.88 69.6092 233.88 69.6092 233.88C70.386 233.88 77.3255 233.767 81.9723 229.777C82.1041 229.664 82.2641 229.607 82.4336 229.607C82.509 229.607 82.589 229.622 82.6643 229.645C82.8997 229.725 83.0786 229.928 83.1257 230.173C83.2764 230.922 86.812 248.596 87.0521 252.332C87.2922 256.063 87.57 260.524 87.57 260.524C87.5841 260.717 87.5135 260.91 87.3817 261.051C87.2499 261.192 87.0616 261.273 86.8685 261.273H80.7906L80.7858 261.277Z" fill="#DE8459"/>
<path d="M82.4335 230.314C82.4335 230.314 86.1057 248.648 86.3458 252.379C86.5859 256.11 86.8636 260.571 86.8636 260.571H80.7857C80.7857 260.571 73.7567 241.233 69.4866 234.587C69.4866 234.587 69.5289 234.587 69.609 234.587C70.6165 234.587 77.6313 234.436 82.4335 230.314ZM82.4335 228.901C82.0992 228.901 81.7743 229.019 81.5154 229.24C77.0617 233.065 70.3622 233.173 69.6137 233.173H69.5195C69.5195 233.173 69.5007 233.173 69.4913 233.173C68.9828 233.173 68.5073 233.451 68.2578 233.899C68.0036 234.356 68.0177 234.912 68.3002 235.354C72.4337 241.789 79.3921 260.863 79.458 261.056C79.6605 261.617 80.1925 261.984 80.7857 261.984H86.8636C87.2544 261.984 87.6263 261.824 87.8947 261.536C88.163 261.249 88.2996 260.872 88.276 260.481C88.276 260.481 87.9983 256.02 87.7582 252.289C87.5133 248.511 83.973 230.79 83.8176 230.036C83.7187 229.546 83.3656 229.141 82.8948 228.976C82.7442 228.924 82.5888 228.901 82.4335 228.901Z" fill="#51703C"/>
<path d="M127.097 288.321C126.777 288.321 126.49 288.1 126.41 287.784L117.917 253.076C117.86 252.845 117.926 252.6 118.086 252.426C118.223 252.28 118.407 252.2 118.604 252.2C118.642 252.2 118.684 252.2 118.727 252.209C118.755 252.214 121.509 252.685 124.866 252.685C128.223 252.685 132.526 252.242 135.101 250.123C135.228 250.014 135.388 249.962 135.548 249.962C135.661 249.962 135.779 249.991 135.882 250.047C136.137 250.184 136.283 250.457 136.25 250.74L132.554 287.148C132.521 287.478 132.262 287.742 131.932 287.78L127.177 288.321C127.149 288.321 127.126 288.321 127.097 288.321Z" fill="#DE8459"/>
<path d="M135.548 250.669L131.853 287.078L127.098 287.62L118.604 252.911C118.604 252.911 121.396 253.397 124.861 253.397C128.501 253.397 132.884 252.864 135.544 250.669M135.548 249.256C135.548 249.256 135.525 249.256 135.515 249.256C135.186 249.265 134.88 249.383 134.644 249.581C132.733 251.15 129.353 251.979 124.866 251.979C121.575 251.979 118.878 251.522 118.849 251.517C118.769 251.503 118.689 251.498 118.609 251.498C118.223 251.498 117.847 251.658 117.578 251.946C117.253 252.294 117.126 252.784 117.239 253.246L125.732 287.954C125.888 288.59 126.462 289.033 127.102 289.033C127.154 289.033 127.211 289.033 127.262 289.023L132.017 288.482C132.677 288.406 133.194 287.883 133.265 287.219L136.951 250.872C136.961 250.806 136.966 250.735 136.966 250.669C136.966 249.892 136.339 249.261 135.563 249.256H135.553H135.548Z" fill="#51703C"/>
<path d="M61.8734 279.988C56.85 279.988 48.3239 279.569 47.6648 276.761C47.1987 274.778 47.9143 273.336 53.0224 271.396C62.3347 267.863 68.2197 265.05 70.9032 263.689C73.3937 262.426 74.9756 260.961 75.244 259.666C75.4323 258.752 75.5217 257.735 75.6018 256.84C75.7477 255.158 75.8419 254.334 76.3315 253.91C76.5528 253.716 76.8211 253.613 77.1083 253.613C77.6686 253.613 78.1441 253.994 78.6902 254.437C79.387 254.998 80.1779 255.638 81.2184 255.638C81.4067 255.638 81.6044 255.615 81.8022 255.572C83.1722 255.271 84.1044 254.414 84.9989 253.58C85.8322 252.807 86.6231 252.077 87.673 251.926C87.7059 251.922 87.7389 251.917 87.7719 251.917C88.0496 251.917 88.3039 252.082 88.4168 252.341C88.6711 252.92 94.6408 266.548 94.815 270.736C94.8715 272.102 94.9044 273.294 94.9044 274.274C94.9091 275.517 94.2406 276.832 93.2001 277.633C91.67 278.806 88.6193 279.592 85.6109 279.592C84.7352 279.592 83.8784 279.526 83.0545 279.399C81.9057 279.22 80.611 279.135 79.0904 279.135C76.92 279.135 74.5378 279.305 71.7836 279.503C69.6368 279.658 67.2028 279.832 64.5852 279.936C63.7283 279.969 62.815 279.988 61.8687 279.988H61.8734Z" fill="#FFF9ED"/>
<path d="M87.7721 252.624C87.7721 252.624 93.9395 266.661 94.109 270.764C94.1749 272.328 94.1984 273.468 94.1984 274.279C94.2032 275.386 93.5629 276.464 92.7719 277.072C91.449 278.09 88.6289 278.886 85.6111 278.886C84.8014 278.886 83.9775 278.829 83.163 278.702C81.8965 278.504 80.5454 278.429 79.0906 278.429C75.1265 278.429 70.4044 278.994 64.5571 279.23C63.7332 279.263 62.8199 279.281 61.8689 279.281C56.1487 279.281 48.8231 278.622 48.3476 276.601C48.0463 275.32 48.0134 274.057 53.2674 272.06C61.7088 268.857 67.735 266.091 71.2189 264.32C73.022 263.406 75.5173 261.791 75.9316 259.812C76.3976 257.579 76.2705 254.894 76.7931 254.442C76.892 254.357 76.9956 254.319 77.1038 254.319C77.9183 254.319 79.1236 256.34 81.2139 256.34C81.4493 256.34 81.6941 256.317 81.9483 256.26C84.8155 255.634 85.9454 252.883 87.7721 252.624ZM87.7721 251.21C87.7062 251.21 87.6355 251.215 87.5696 251.225C86.3032 251.408 85.3946 252.247 84.5189 253.062C83.6526 253.867 82.8334 254.626 81.647 254.885C81.5011 254.918 81.3551 254.932 81.2139 254.932C80.423 254.932 79.7685 254.4 79.1283 253.891C78.5304 253.41 77.9136 252.911 77.1038 252.911C76.6472 252.911 76.2187 253.071 75.8656 253.382C75.1406 254.013 75.0465 255.059 74.8958 256.788C74.8205 257.664 74.731 258.653 74.5521 259.53C74.3309 260.594 72.8478 261.918 70.5833 263.067C67.9139 264.424 62.0478 267.222 52.7731 270.746C47.8627 272.611 46.342 274.232 46.9776 276.931C47.3495 278.528 49.1856 279.503 52.9238 280.101C56.1817 280.624 59.9292 280.699 61.8736 280.699C62.8293 280.699 63.7521 280.68 64.6183 280.647C67.2454 280.539 69.6841 280.365 71.8356 280.214C74.5757 280.016 76.9438 279.847 79.0906 279.847C80.5736 279.847 81.8353 279.931 82.9464 280.101C83.8033 280.233 84.6978 280.304 85.6111 280.304C88.8172 280.304 91.9622 279.479 93.6288 278.198C94.8387 277.27 95.6155 275.73 95.6108 274.274C95.6108 273.28 95.5732 272.079 95.5167 270.708C95.3425 266.464 89.7023 253.519 89.0621 252.058C88.8361 251.54 88.3229 251.215 87.7721 251.215V251.21Z" fill="#51703C"/>
<path d="M129.989 309.369C124.716 309.298 117.842 307.4 116.844 306.335C115.846 305.275 115.672 300.993 116.223 299.971C116.929 298.666 121.383 289.193 121.463 288.076C121.496 287.068 121.006 281.91 120.813 280.007C120.794 279.837 120.841 279.672 120.935 279.531C121.1 279.296 125.003 273.737 128.765 273.535C128.826 273.535 128.892 273.53 128.953 273.53C132.781 273.53 135.073 279.842 135.168 280.111C135.191 280.177 135.205 280.247 135.21 280.313L135.525 287.045C136.264 288.467 141.881 299.264 142.408 300.823C142.648 301.53 142.71 302.529 142.597 303.801C142.427 305.708 140.643 306.693 140.054 307.018C137.39 308.488 133.727 309.369 130.257 309.369H129.989Z" fill="#FFF9ED"/>
<path d="M128.958 274.236C132.333 274.236 134.508 280.346 134.508 280.346L134.828 287.238C134.828 287.238 141.198 299.457 141.74 301.054C141.985 301.78 141.975 302.821 141.895 303.744C141.782 304.992 140.812 305.802 139.715 306.405C137.244 307.772 133.717 308.667 130.262 308.667C130.172 308.667 130.087 308.667 129.998 308.667C124.669 308.596 118.125 306.669 117.362 305.854C116.599 305.039 116.43 301.082 116.849 300.31C117.268 299.533 122.136 289.386 122.173 288.104C122.211 286.823 121.524 279.941 121.524 279.941C121.524 279.941 125.351 274.434 128.812 274.246C128.863 274.246 128.911 274.246 128.962 274.246M128.958 272.823C128.882 272.823 128.807 272.823 128.732 272.828C124.697 273.044 120.794 278.504 120.361 279.126C120.168 279.404 120.083 279.738 120.116 280.073C120.375 282.659 120.775 287.049 120.761 288.01C120.502 289.409 116.152 298.614 115.606 299.632C114.933 300.875 115.107 305.51 116.336 306.815C117.673 308.243 125.074 310.004 129.984 310.07C130.078 310.07 130.172 310.07 130.266 310.07C133.849 310.07 137.639 309.161 140.403 307.635C141.071 307.268 143.105 306.146 143.307 303.862C143.43 302.472 143.359 301.403 143.081 300.592C142.549 299.029 137.333 288.976 136.231 286.856L135.925 280.275C135.921 280.134 135.892 279.997 135.845 279.866C135.586 279.145 133.214 272.818 128.962 272.818L128.958 272.823Z" fill="#51703C"/>
<path d="M106.741 199.794C106.369 199.794 106.058 199.506 106.035 199.129L104.278 170.163C104.245 169.584 104.062 169.283 103.991 169.235C103.991 169.254 103.737 169.339 103.304 169.956L88.4032 193.481C88.2714 193.693 88.0407 193.811 87.8053 193.811C87.7206 193.811 87.6311 193.797 87.5464 193.759L58.4512 182.213C58.2581 182.138 58.1075 181.978 58.0416 181.78C57.9757 181.582 58.0039 181.365 58.1122 181.186C81.3884 143.595 90.7148 132.186 90.8043 132.078C90.9408 131.913 91.1385 131.823 91.3504 131.823H91.3598C91.9624 131.833 92.565 131.837 93.163 131.837C110.022 131.837 126.745 127.984 126.914 127.942C126.966 127.928 127.023 127.923 127.074 127.923C127.258 127.923 127.437 127.994 127.573 128.13C127.71 128.267 130.996 131.611 133.901 140.246C138.124 152.809 140.93 195.771 141.048 197.594C141.062 197.782 140.996 197.971 140.869 198.112C140.742 198.253 140.563 198.338 140.374 198.347C140.374 198.347 106.75 199.803 106.741 199.803V199.794Z" fill="#FFF9ED"/>
<path d="M127.079 128.63C127.079 128.63 130.351 131.894 133.232 140.472C137.474 153.092 140.341 197.641 140.341 197.641L106.736 199.096L104.98 170.135C104.933 169.306 104.594 168.548 104.024 168.548C103.676 168.548 103.238 168.83 102.725 169.561L87.8052 193.114L58.71 181.568C82.2262 143.581 91.3456 132.535 91.3456 132.535C91.9529 132.544 92.5555 132.549 93.1628 132.549C110.309 132.549 127.074 128.634 127.074 128.634M127.079 127.216C126.971 127.216 126.862 127.23 126.759 127.254C126.594 127.292 109.942 131.131 93.1675 131.131C92.5696 131.131 91.9717 131.126 91.3738 131.117C91.3644 131.117 91.3597 131.117 91.3503 131.117C90.9312 131.117 90.5311 131.305 90.2627 131.63C89.8861 132.082 80.8138 143.185 57.5142 180.819C57.2929 181.172 57.2411 181.61 57.3729 182.006C57.5047 182.402 57.8061 182.722 58.1921 182.878L87.2873 194.423C87.4568 194.489 87.6357 194.522 87.8052 194.522C88.276 194.522 88.7326 194.287 88.9963 193.868L103.605 170.809L105.328 199.186C105.375 199.935 105.997 200.514 106.736 200.514C106.755 200.514 106.778 200.514 106.797 200.514L140.402 199.059C140.784 199.045 141.137 198.875 141.391 198.592C141.645 198.31 141.772 197.938 141.749 197.556C141.631 195.728 138.821 152.682 134.569 140.029C131.613 131.239 128.218 127.782 128.072 127.64C127.804 127.372 127.446 127.226 127.074 127.226L127.079 127.216Z" fill="#51703C"/>
<path d="M131.26 93.3888C131.26 93.3888 138.938 104.624 139.809 105.321C139.809 105.321 141.636 112.264 143.199 114.474C144.767 116.683 159.14 134.508 162.582 138.362C162.582 138.362 161.965 146.346 162.342 148.155C162.718 149.964 165.567 154.42 166.311 155.226C168.184 157.261 169.347 155.626 169.211 153.525C169.088 151.726 166.132 147.218 166.762 145.738C167.393 144.259 170.454 149.045 171.357 150.609C172.775 153.059 173.542 157.6 174.314 159.013C175.086 160.426 178.74 156.761 178.575 150.515C178.415 144.269 173.551 137.749 169.225 136.11C169.225 136.11 157.248 109.118 154.136 105.67C151.024 102.221 149.202 100.13 149.202 100.13L142.728 84.6128L131.264 93.3794L131.26 93.3888Z" fill="#FFB689"/>
<path d="M84.3216 16.6991C84.3216 16.6991 84.3216 24.3963 84.6841 26.1393C85.0466 27.8822 86.2048 29.5404 86.7368 29.9879C86.7368 29.9879 84.7547 31.4152 84.8771 34.4866C84.9948 37.5626 90.6114 48.7034 93.1679 48.6045L94.4108 48.5574C94.4108 48.5574 95.0134 53.3811 94.1895 55.303C93.5822 56.7209 89.5051 65.8267 99.9097 65.8644C110.314 65.9021 112.616 53.3528 112.616 53.3528C112.616 53.3528 108.756 50.1307 108.549 44.7888C108.342 39.4469 108.365 36.2201 108.365 36.2201C108.365 36.2201 111.901 34.7645 111.717 30.0821C111.538 25.3997 107.169 26.0921 106.256 27.1097L106.134 16.2987C106.134 16.2987 87.9609 8.49778 84.3169 16.6991H84.3216Z" fill="#FFB689"/>
<path d="M111.58 6.14233C111.58 6.14233 113.049 1.17728 122.851 0.795717C132.653 0.418863 139.225 6.23183 141.537 11.7056C143.67 16.7508 147.869 31.547 162.304 30.9911C166.885 30.8168 170.336 29.7475 172.534 28.8054C173.466 28.405 174.38 29.4225 173.867 30.2987C171.046 35.113 163.886 43.9361 149.719 42.7631C149.719 42.7631 152.243 45.3116 156.023 46.428C157.488 46.8614 157.709 48.8352 156.362 49.5606C154.253 50.6959 150.633 51.817 144.461 52.0525C131.198 52.566 125.012 44.1056 123.699 31.6459C122.39 19.1862 120.959 6.69819 114.099 7.79578C114.099 7.79578 110.229 9.04882 111.58 6.13762V6.14233Z" fill="#DE8459"/>
<path d="M123.294 0.00437991C133.183 -0.184079 139.864 5.74224 142.255 11.4028L142.467 11.917C143.554 14.6093 145.077 19.0859 147.936 22.9889C150.951 27.1048 155.387 30.4786 162.274 30.2134L162.69 30.1947C166.68 29.9919 169.751 29.0976 171.815 28.2616L172.228 28.0897C173.832 27.4014 175.442 29.1507 174.539 30.6926C171.811 35.3504 165.071 43.7303 152.058 43.6463C153.036 44.3184 154.357 45.0734 155.913 45.5788L156.244 45.6813L156.245 45.6818C158.36 46.3079 158.705 49.1836 156.732 50.2466H156.732C154.486 51.4556 150.739 52.5923 144.491 52.8308C137.675 53.0946 132.579 51.0479 129.03 47.2462C125.503 43.469 123.59 38.0521 122.924 31.7281V31.7276C122.267 25.4745 121.588 19.3195 120.235 14.8632C119.558 12.632 118.737 10.9182 117.736 9.83589C116.784 8.80547 115.675 8.34662 114.266 8.55903C114.235 8.56854 114.193 8.58127 114.144 8.59504C114.028 8.62702 113.866 8.66864 113.676 8.70863C113.309 8.78606 112.787 8.8678 112.284 8.83591C111.821 8.80657 111.113 8.66226 110.734 8.02202C110.36 7.39035 110.506 6.61292 110.861 5.83747C110.863 5.83276 110.865 5.82782 110.866 5.82276C110.885 5.7714 110.912 5.70243 110.948 5.6184C111.021 5.45037 111.133 5.2216 111.3 4.95208C111.633 4.412 112.18 3.71148 113.05 3.00738C114.797 1.59309 117.786 0.213562 122.821 0.0175643L123.294 0.00437991ZM123.322 1.56166L122.881 1.57434C118.115 1.75992 115.468 3.05421 114.031 4.21781C113.308 4.80267 112.875 5.36724 112.626 5.77002C112.502 5.97183 112.423 6.13414 112.377 6.23909C112.354 6.29145 112.34 6.32963 112.333 6.35115C112.33 6.35697 112.329 6.36149 112.327 6.36484L112.327 6.36434C112.313 6.41303 112.293 6.45915 112.271 6.50277C112.065 6.956 112.069 7.15844 112.077 7.21879C112.108 7.23526 112.192 7.26958 112.382 7.28167C112.678 7.3004 113.039 7.25083 113.355 7.18431C113.507 7.15231 113.637 7.1187 113.728 7.09354C113.773 7.08103 113.808 7.07099 113.831 7.06413C113.842 7.0607 113.85 7.05804 113.855 7.05652C113.857 7.05592 113.858 7.05526 113.859 7.055C113.897 7.04264 113.937 7.03345 113.976 7.02711C115.976 6.70714 117.605 7.39824 118.881 8.77911C120.12 10.119 121.025 12.1 121.726 14.4109C123.131 19.0391 123.822 25.3583 124.474 31.5648H124.473C125.12 37.7005 126.958 42.7438 130.169 46.1833C133.357 49.598 137.985 51.5241 144.431 51.2745H144.431C150.527 51.0419 154.02 49.937 155.993 48.8754L156.058 48.8369C156.706 48.4212 156.59 47.4084 155.803 47.1752V47.1747C153.807 46.5853 152.154 45.6229 151.005 44.8141C150.429 44.4085 149.975 44.0384 149.662 43.7675C149.506 43.632 149.385 43.521 149.301 43.4425C149.26 43.4032 149.227 43.3718 149.205 43.3497C149.193 43.3386 149.184 43.3297 149.178 43.3233L149.166 43.3116C148.937 43.08 148.875 42.7298 149.013 42.4344C149.151 42.1389 149.459 41.9602 149.784 41.9871C163.521 43.1245 170.446 34.5978 173.194 29.9056C173.235 29.8368 173.239 29.7833 173.234 29.7418C173.227 29.6943 173.204 29.6404 173.161 29.5927C173.119 29.5451 173.067 29.5146 173.017 29.502C172.973 29.4908 172.916 29.4894 172.842 29.5212L172.841 29.5217C170.567 30.4963 167.023 31.5912 162.334 31.7697C154.787 32.0603 149.905 28.3137 146.679 23.9092C143.487 19.5521 141.85 14.4476 140.819 12.0093V12.0088C138.659 6.89293 132.532 1.38587 123.322 1.56166Z" fill="#51703C"/>
<path d="M86.912 24.1461L86.9114 24.1466C87.7524 24.1859 88.4906 24.3169 89.1299 24.6735C89.7797 25.036 90.2733 25.5997 90.6833 26.4022H90.6828C90.864 26.7567 90.9521 27.2781 90.9942 27.8373C91.0379 28.4171 91.0364 29.1115 90.9968 29.8606C90.9176 31.3591 90.6843 33.1155 90.3317 34.685C90.2457 35.0707 90.2836 35.3004 90.4103 35.4371C90.5527 35.5904 90.9743 35.8153 92.1433 35.7352L92.1448 35.7347C93.2262 35.6632 93.6797 35.4381 93.8504 35.2555C93.9719 35.1254 94.0253 34.9258 93.8854 34.5116C93.7936 34.24 93.9394 33.9453 94.2111 33.8534C94.4828 33.7616 94.7777 33.9073 94.8695 34.179C95.0591 34.7397 95.1174 35.4209 94.6093 35.9644C94.1504 36.4554 93.34 36.6962 92.2138 36.7707L92.2143 36.7712C90.9779 36.8559 90.1287 36.6612 89.6484 36.1434C89.1526 35.6089 89.216 34.9156 89.3181 34.4584V34.4574C89.6575 32.9463 89.8831 31.2478 89.9593 29.8058C89.9974 29.0846 89.9976 28.4368 89.9583 27.9148C89.9226 27.4401 89.8573 27.1198 89.7879 26.9422L89.7579 26.8748C89.4146 26.2028 89.0484 25.8176 88.6236 25.5807C88.2427 25.3682 87.7728 25.251 87.1428 25.2009L86.8627 25.1836C86.3309 25.1585 85.6383 25.2582 85.0522 25.3743C84.7647 25.4313 84.5129 25.4901 84.3333 25.5345C84.2437 25.5567 84.1722 25.5754 84.1238 25.5883C84.0997 25.5947 84.0812 25.5997 84.069 25.603C84.0631 25.6046 84.0587 25.6058 84.0558 25.6066C84.0545 25.6069 84.0534 25.6074 84.0528 25.6076H84.0523C83.7761 25.6851 83.4891 25.5241 83.4116 25.248C83.334 24.972 83.4951 24.6851 83.7712 24.6076H83.7722L83.7733 24.6071C83.7744 24.6068 83.7764 24.6061 83.7783 24.6056C83.7823 24.6045 83.788 24.6029 83.7951 24.601C83.8095 24.597 83.8303 24.5913 83.857 24.5843C83.9105 24.57 83.9879 24.5502 84.0837 24.5264C84.2752 24.479 84.5434 24.4164 84.8503 24.3556C85.4529 24.2362 86.2481 24.1147 86.912 24.1461Z" fill="#51703C"/>
<path d="M97.1165 23.6136C98.2004 23.5725 99.0298 23.8087 99.5962 24.0644C99.8785 24.1918 100.094 24.3237 100.243 24.4269C100.317 24.4785 100.375 24.5227 100.417 24.5562C100.437 24.573 100.453 24.5871 100.466 24.5978C100.472 24.6032 100.477 24.6078 100.481 24.6115C100.483 24.6134 100.485 24.6152 100.487 24.6166C100.487 24.6172 100.488 24.618 100.489 24.6186L100.49 24.6191V24.6196C100.49 24.6198 100.49 24.6201 100.198 24.9325L100.49 24.6201C100.7 24.816 100.71 25.1445 100.514 25.3539C100.319 25.5627 99.992 25.5743 99.7824 25.3803C99.7829 25.3807 99.7833 25.3817 99.7834 25.3818L99.7804 25.3787V25.3782C99.7766 25.375 99.7698 25.3694 99.7601 25.3615C99.7384 25.3438 99.7017 25.3154 99.6505 25.2799C99.5481 25.2088 99.3871 25.1098 99.1686 25.0111C98.7334 24.8146 98.0634 24.6172 97.1561 24.6516C96.2149 24.6872 95.4246 24.8676 94.8717 25.0385C94.5957 25.1238 94.3799 25.2061 94.2355 25.2662C94.1634 25.2962 94.1091 25.321 94.0742 25.3372C94.0569 25.3452 94.0442 25.3512 94.0367 25.3549C94.033 25.3567 94.0303 25.3573 94.0291 25.3579C93.7734 25.488 93.4607 25.3868 93.3305 25.1313C93.2004 24.8758 93.3023 24.5632 93.5578 24.433H93.5583V24.4325H93.5593C93.5598 24.4323 93.5602 24.4318 93.5608 24.4315C93.5621 24.4308 93.5639 24.4299 93.5659 24.429C93.5698 24.427 93.5751 24.4245 93.5816 24.4213C93.5948 24.4149 93.6135 24.4058 93.6369 24.395C93.6837 24.3733 93.7507 24.3434 93.8363 24.3078C94.0075 24.2365 94.2541 24.1421 94.5648 24.0461C95.1852 23.8543 96.0664 23.6533 97.1165 23.6136Z" fill="#51703C"/>
<path d="M86.2732 26.266C87.2307 25.9961 88.5353 26.015 90.2784 26.907C90.5337 27.0377 90.6349 27.3505 90.5041 27.6058C90.3734 27.8609 90.0604 27.9619 89.8051 27.8314C88.2621 27.0418 87.2268 27.0767 86.5553 27.266C86.21 27.3634 85.9358 27.5081 85.7121 27.6428C85.6556 27.6768 85.6027 27.7101 85.5508 27.7427C85.5007 27.7741 85.4479 27.8072 85.3991 27.8365C85.3207 27.8835 85.1778 27.9688 85.0222 28.0003C84.6355 28.0785 84.3362 27.9609 84.1395 27.8436C84.0661 27.7998 83.9961 27.7482 83.9614 27.7229C83.764 27.6493 83.6231 27.4601 83.623 27.2371C83.623 26.9503 83.8556 26.7178 84.1425 26.7178C84.2835 26.7178 84.3896 26.7703 84.4322 26.7929C84.482 26.8193 84.5253 26.8496 84.5489 26.8664C84.6107 26.9104 84.6329 26.929 84.6716 26.9521C84.7184 26.98 84.7508 26.9895 84.7949 26.9846C84.8061 26.9788 84.8287 26.968 84.8644 26.9465C84.9024 26.9237 84.9446 26.8966 84.9984 26.8629C85.0505 26.8301 85.1109 26.7928 85.1764 26.7533C85.4412 26.5939 85.8041 26.3983 86.2732 26.266Z" fill="#51703C"/>
<path d="M99.4111 26.5312C99.6704 26.4095 99.9793 26.5211 100.102 26.7801C100.216 27.0233 100.126 27.3103 99.9001 27.446L99.8529 27.4713L99.8514 27.4718C99.8509 27.472 99.8505 27.4725 99.8499 27.4728C99.8484 27.4735 99.8464 27.4744 99.8443 27.4754C99.8401 27.4773 99.8346 27.4796 99.8281 27.4825C99.8149 27.4883 99.7968 27.4963 99.7748 27.5053C99.7311 27.5232 99.6699 27.5466 99.5978 27.5702C99.4636 27.614 99.2556 27.6698 99.0367 27.6711C99.0353 27.6711 99.034 27.6711 99.0326 27.6711C99.0315 27.6711 99.0302 27.6716 99.0291 27.6716V27.6711C98.887 27.6715 98.7567 27.6257 98.6851 27.5986C98.596 27.5648 98.4994 27.5201 98.4061 27.4749C98.1977 27.3738 98.013 27.2752 97.7623 27.1574C97.2738 26.9279 96.7862 26.7529 96.3875 26.767L96.387 26.7664C95.7251 26.7911 95.2717 26.9967 94.9899 27.1828C94.8475 27.2768 94.7464 27.3674 94.684 27.4307C94.6528 27.4624 94.6315 27.4874 94.6196 27.5017C94.6164 27.5056 94.6138 27.5086 94.612 27.5109C94.4453 27.7438 94.1214 27.7978 93.888 27.6315C93.6545 27.4651 93.5998 27.1409 93.7663 26.9074L94.1894 27.2086C93.7894 26.9236 93.7678 26.908 93.7668 26.9069V26.9064L93.7678 26.9054C93.7683 26.9047 93.7687 26.9037 93.7693 26.9029C93.7705 26.9012 93.7719 26.8993 93.7734 26.8973C93.7765 26.8931 93.7806 26.8884 93.7851 26.8826C93.794 26.8709 93.8059 26.8556 93.8206 26.8379C93.8499 26.8026 93.8911 26.756 93.9444 26.702C94.0508 26.5941 94.2068 26.4551 94.4172 26.3162C94.8414 26.036 95.4778 25.7611 96.35 25.7289H96.351C97.0209 25.7054 97.7077 25.9845 98.2042 26.2178C98.4461 26.3314 98.7071 26.4663 98.8596 26.5403C98.9467 26.5825 99.0095 26.6106 99.0539 26.6275C99.0572 26.6287 99.0603 26.6295 99.0631 26.6305C99.1211 26.6254 99.1965 26.6091 99.2751 26.5834C99.3183 26.5693 99.355 26.5552 99.3801 26.5448C99.3925 26.5398 99.4017 26.5356 99.407 26.5332C99.4089 26.5324 99.4102 26.5315 99.4111 26.5312ZM94.612 27.5109L94.6115 27.5119C94.6111 27.5124 94.6107 27.513 94.6105 27.5134C94.6099 27.5141 94.6092 27.5146 94.6089 27.5149L94.612 27.5109Z" fill="#51703C"/>
<path d="M86.5059 26.9545C86.5059 26.9545 86.6801 29.1497 87.438 29.0272C88.196 28.9048 88.0642 27.2843 87.9371 26.8462C87.9371 26.8462 86.9861 26.8697 86.5059 26.9545Z" fill="#51703C"/>
<path d="M95.3472 26.469C95.3472 26.469 95.3707 28.8102 96.3217 28.8102C97.2727 28.8102 97.1786 26.3983 97.1786 26.3983C97.1786 26.3983 95.9262 26.3842 95.3472 26.469Z" fill="#51703C"/>
<path d="M93.2218 39.3048C93.705 39.285 94.1028 39.5495 94.3628 39.7393C94.4331 39.7907 94.502 39.8435 94.5652 39.892C94.6301 39.9417 94.6889 39.9871 94.7468 40.0294C94.8645 40.1155 94.9549 40.1722 95.0304 40.2059L95.108 40.2378C95.5048 40.3837 96.0009 40.3475 96.3803 39.895C96.5646 39.6753 96.8925 39.6465 97.1124 39.8306C97.3322 40.0148 97.3611 40.3425 97.1768 40.5623C96.4045 41.4835 95.3316 41.4746 94.6098 41.1556H94.6088C94.4303 41.0762 94.2684 40.9662 94.133 40.8671C94.0641 40.8167 93.9959 40.7642 93.9331 40.716C93.8685 40.6665 93.8089 40.6211 93.7499 40.5781C93.4923 40.39 93.3555 40.3386 93.2644 40.3423C93.1046 40.3491 92.9858 40.4187 92.8241 40.5542C92.7616 40.6067 92.6355 40.7207 92.5354 40.7936C92.4243 40.8745 92.2421 40.9875 92.0028 40.9974H91.9982C91.7576 41.0052 91.5679 40.8941 91.464 40.824C91.3548 40.7503 91.2457 40.6534 91.1743 40.5923C91.0892 40.5193 91.0308 40.4728 90.9806 40.4422C90.9679 40.4345 90.9579 40.4302 90.9511 40.427C90.9399 40.4329 90.9206 40.4448 90.8918 40.468C90.8533 40.4991 90.811 40.5387 90.7533 40.5953C90.7009 40.6467 90.6304 40.7177 90.5575 40.7829C90.4105 40.9145 90.1944 41.0802 89.8985 41.144C89.589 41.2106 89.2703 41.1505 88.9452 40.9817C88.6907 40.8495 88.5914 40.5359 88.7236 40.2814C88.8558 40.027 89.1696 39.9277 89.4241 40.0598C89.5886 40.1453 89.6601 40.133 89.6798 40.1288C89.7131 40.1216 89.7656 40.0977 89.8645 40.0091C89.9146 39.9643 89.9616 39.9174 90.0258 39.8544C90.0846 39.7967 90.158 39.7253 90.2394 39.6597C90.4035 39.5274 90.6501 39.3765 90.9811 39.3854L90.9816 39.3844C91.2052 39.3898 91.3896 39.475 91.5213 39.5553C91.6518 39.6347 91.7675 39.733 91.8501 39.8037C91.9035 39.8495 91.944 39.8833 91.9769 39.9102C92.0194 39.8748 92.068 39.8328 92.1565 39.7586C92.3725 39.5775 92.7125 39.3263 93.2208 39.3048H93.2218Z" fill="#51703C"/>
<path d="M94.1375 41.354C94.3747 41.1929 94.6976 41.2544 94.8589 41.4914C95.0101 41.7137 94.9656 42.0113 94.764 42.1805L94.7214 42.213L94.7209 42.2135C94.7205 42.2137 94.7199 42.2141 94.7194 42.2145C94.7184 42.2152 94.7169 42.216 94.7153 42.217C94.712 42.2193 94.7074 42.2223 94.7016 42.2262C94.6898 42.234 94.6727 42.2454 94.6514 42.2591C94.6088 42.2866 94.5479 42.3249 94.4723 42.3707C94.3215 42.4622 94.1094 42.5847 93.8635 42.7074C93.3938 42.9418 92.7181 43.221 92.0991 43.2211C91.4997 43.2211 91.0208 42.9499 90.7137 42.712C90.5572 42.5907 90.4347 42.4699 90.3505 42.3788C90.3081 42.3329 90.2743 42.2937 90.2505 42.2647C90.2386 42.2502 90.2292 42.2379 90.2221 42.2287C90.2186 42.2241 90.2153 42.2201 90.213 42.217C90.2119 42.2156 90.2108 42.2141 90.2099 42.213C90.2096 42.2125 90.2092 42.2119 90.2089 42.2115L90.2079 42.2104C90.0372 41.98 90.0859 41.6544 90.3165 41.4838C90.547 41.3133 90.8717 41.362 91.0424 41.5923C91.0445 41.5949 91.0489 41.5995 91.0546 41.6065C91.0667 41.6212 91.0865 41.6448 91.1134 41.6739C91.168 41.7329 91.2487 41.8127 91.3504 41.8915C91.5599 42.0539 91.8183 42.1826 92.0991 42.1826C92.4593 42.1825 92.9488 42.0032 93.3994 41.7784C93.6136 41.6715 93.8005 41.564 93.9336 41.4833C93.9998 41.4431 94.0521 41.4096 94.0873 41.3869C94.1048 41.3756 94.1184 41.3667 94.1268 41.3611L94.1375 41.354Z" fill="#51703C"/>
<path d="M100.878 44.795C101.083 44.5943 101.412 44.5974 101.613 44.8021C101.813 45.0068 101.81 45.3356 101.606 45.5364C100.195 46.9181 98.5335 47.938 97.0439 48.6129C95.5706 49.2804 94.2058 49.6372 93.3842 49.6372C93.0973 49.6372 92.8648 49.4047 92.8647 49.118C92.8647 48.8312 93.0973 48.5987 93.3842 48.5987C93.9891 48.5987 95.1951 48.3103 96.6147 47.6672C98.0182 47.0313 99.572 46.0747 100.878 44.795Z" fill="#51703C"/>
<path d="M108.031 6.66564C108.031 6.66564 110.116 3.94288 113.61 6.44895C117.103 8.95503 114.476 11.7485 114.476 11.7485C114.476 11.7485 111.924 8.49339 108.031 6.66093V6.66564Z" fill="#FFF9ED"/>
<path d="M109.231 4.88995C110.447 4.4234 112.117 4.41875 114.064 5.8159C115.032 6.51006 115.632 7.26561 115.943 8.04559C116.255 8.82778 116.251 9.57331 116.114 10.2038C115.979 10.8262 115.713 11.3398 115.489 11.6911C115.376 11.8684 115.27 12.0099 115.191 12.1094C115.151 12.1593 115.117 12.1993 115.092 12.2281C115.079 12.2425 115.069 12.2542 115.06 12.2631C115.056 12.2675 115.053 12.2717 115.05 12.2747L115.044 12.2808L114.476 11.7484L115.044 12.2818C114.888 12.4473 114.668 12.5364 114.441 12.5263C114.214 12.5161 114.003 12.4073 113.863 12.2286L113.84 12.2007C113.823 12.1796 113.797 12.1472 113.761 12.1044C113.689 12.0184 113.58 11.8911 113.437 11.7316C113.15 11.4125 112.726 10.9653 112.183 10.4624C111.107 9.46394 109.583 8.26334 107.759 7.39448C107.455 7.28136 107.251 6.99144 107.251 6.66528V6.66072C107.251 6.45628 107.332 6.26322 107.471 6.11965C107.493 6.09414 107.52 6.06272 107.553 6.02685C107.634 5.93823 107.751 5.81984 107.902 5.68963C108.201 5.43078 108.648 5.11371 109.231 4.88995ZM113.155 7.0816C111.61 5.97281 110.489 6.07605 109.79 6.34429C109.662 6.39338 109.543 6.45059 109.434 6.51062C110.995 7.3899 112.293 8.43902 113.243 9.32042C113.708 9.75101 114.092 10.145 114.388 10.4634C114.471 10.2855 114.545 10.0865 114.591 9.87264C114.674 9.4915 114.673 9.06855 114.495 8.62215C114.316 8.17363 113.934 7.64032 113.155 7.0816ZM108.646 7.14347L108.648 7.14144L108.648 7.14043L108.646 7.14347Z" fill="#51703C"/>
<path d="M109.956 40.8274C109.806 40.8274 109.655 40.7802 109.532 40.686C109.363 40.5588 109.259 40.361 109.25 40.149L109.099 36.1968C109.09 35.9424 109.217 35.7069 109.429 35.5702C110.959 34.6046 111.839 32.221 111.731 29.3427C111.632 26.7943 110.121 26.4127 109.226 26.4127C109.048 26.4127 108.864 26.4268 108.68 26.4598C107.819 26.6011 106.948 27.6375 106.684 28.0237C106.552 28.2216 106.331 28.3346 106.1 28.3346C106.034 28.3346 105.969 28.3252 105.907 28.3064C105.615 28.2216 105.408 27.9578 105.394 27.6563C105.107 20.1569 101.383 16.2329 97.8567 16.2329C97.8002 16.2329 97.739 16.2329 97.6825 16.2329C94.3869 16.3601 91.7175 20.1758 91.6893 20.2134C91.5574 20.4019 91.3409 20.5196 91.1102 20.5196C90.8795 20.5196 90.6629 20.4066 90.5311 20.2182C90.517 20.1993 89.0622 18.1926 86.8683 18.1926C86.8212 18.1926 86.7742 18.1926 86.7271 18.1926C84.5473 18.2774 83.7893 20.2747 83.7564 20.3595C83.6904 20.5432 83.5492 20.6939 83.3656 20.7693C83.2761 20.807 83.182 20.8258 83.0878 20.8258C82.9937 20.8258 82.8948 20.807 82.8053 20.7646C82.7253 20.7269 80.8845 19.8649 81.1246 16.4873C81.5342 10.7733 86.0633 8.73824 90.1686 8.73824C90.2063 8.73824 90.2439 8.73824 90.2769 8.73824C90.9878 7.84322 93.2664 5.50672 98.0215 4.90847C98.6241 4.8331 99.2644 4.79541 99.9235 4.79541C106.383 4.79541 117.465 8.64874 118.026 23.0964C118.619 38.4956 110.479 40.719 110.135 40.8038C110.079 40.8179 110.022 40.8226 109.966 40.8226L109.956 40.8274Z" fill="#DE8459"/>
<path d="M99.9189 5.50678C106.491 5.50678 116.787 9.46375 117.315 23.1247C117.894 38.1282 109.956 40.1208 109.956 40.1208L109.806 36.1686C111.665 34.9956 112.55 32.2775 112.437 29.3145C112.338 26.7095 110.827 25.7061 109.227 25.7061C109.005 25.7061 108.784 25.725 108.563 25.7627C107.207 25.9888 106.1 27.6281 106.1 27.6281C105.78 19.3326 101.501 15.5264 97.8568 15.5264C97.7909 15.5264 97.725 15.5264 97.659 15.5264C93.9727 15.6677 91.115 19.8084 91.115 19.8084C91.115 19.8084 89.4813 17.4813 86.8731 17.4813C86.8166 17.4813 86.7601 17.4813 86.7036 17.4813C83.9966 17.5849 83.0973 20.1146 83.0973 20.1146C83.0973 20.1146 81.6237 19.4551 81.8309 16.5345C82.3064 9.91597 88.4315 9.4449 90.1687 9.4449C90.4606 9.4449 90.6301 9.45903 90.6301 9.45903C90.6301 9.45903 92.5933 6.30759 98.111 5.61041C98.6713 5.53975 99.2786 5.50207 99.9236 5.50207M99.9189 4.09358C99.2268 4.09358 98.5583 4.13597 97.9274 4.21134C93.3654 4.78605 90.9314 6.92469 89.9474 8.03641C85.5831 8.10707 80.8516 10.3446 80.4138 16.4355C80.1407 20.2371 82.2687 21.297 82.5088 21.4053C82.6924 21.4854 82.8902 21.5278 83.0832 21.5278C83.2762 21.5278 83.4598 21.4901 83.6387 21.4147C84.0013 21.2593 84.279 20.9625 84.4156 20.5904C84.4768 20.4349 85.0841 18.9605 86.746 18.8945C86.7837 18.8945 86.8213 18.8945 86.859 18.8945C88.681 18.8945 89.9333 20.6045 89.9474 20.6186C90.2111 20.9955 90.6442 21.2169 91.1009 21.2169H91.1056C91.5669 21.2169 92.0001 20.9861 92.2637 20.6092C92.9511 19.62 95.2768 17.0291 97.7014 16.9349C97.7485 16.9349 97.8003 16.9349 97.8474 16.9349C101.035 16.9349 104.406 20.6233 104.679 27.6799C104.702 28.2923 105.116 28.8152 105.7 28.9848C105.827 29.0225 105.959 29.0413 106.086 29.0413C106.548 29.0413 106.99 28.8152 107.259 28.4195C107.574 27.9626 108.275 27.2418 108.784 27.157C108.93 27.1335 109.076 27.1194 109.217 27.1194C110.352 27.1194 110.959 27.8778 111.016 29.3663C111.114 31.9525 110.342 34.1524 109.043 34.972C108.614 35.2406 108.365 35.7163 108.384 36.2204L108.534 40.1726C108.549 40.5966 108.756 40.9923 109.099 41.2467C109.344 41.4304 109.646 41.5293 109.947 41.5293C110.06 41.5293 110.178 41.5152 110.291 41.4869C110.658 41.3927 119.334 39.0326 118.718 23.0682C118.139 8.08823 106.623 4.08887 99.9094 4.08887L99.9189 4.09358Z" fill="#51703C"/>
<path d="M103.219 135.729C95.3661 135.729 91.3737 132.916 91.209 132.799C91.0677 132.7 90.9689 132.549 90.9312 132.379C89.3258 125.233 84.7685 104.709 84.2788 102.509C83.3325 101.487 78.182 95.6173 77.6406 88.3912C77.2687 83.3884 78.8129 80.3124 79.3826 79.3655C77.9325 74.3487 79.0671 61.0269 79.1189 60.4522C79.1378 60.259 79.2319 60.08 79.3826 59.9623C83.455 56.7166 92.3059 54.7994 92.6826 54.7193C92.7296 54.7099 92.7814 54.7051 92.8285 54.7051C93.0121 54.7051 93.191 54.7758 93.3275 54.9124C93.497 55.082 93.5677 55.3222 93.5206 55.5578C93.5065 55.619 93.2146 57.1924 94.3115 58.5396C95.3802 59.8539 97.3999 60.537 100.309 60.5652H100.455C108.544 60.5652 113.351 53.5604 113.398 53.4945C113.529 53.2967 113.751 53.1836 113.986 53.1836C114.033 53.1836 114.08 53.1836 114.123 53.1977C114.523 53.2778 123.934 55.1903 129.08 58.5443C135.662 62.8405 147.968 84.2034 148.491 85.1125C148.67 85.4234 148.585 85.8191 148.298 86.0311L130.859 98.9525C130.732 99.0467 130.586 99.0891 130.44 99.0891C130.229 99.0891 130.021 98.9949 129.88 98.8159L125.817 93.5823L129.202 130.556C129.23 130.872 129.047 131.169 128.75 131.282C128.656 131.32 118.962 134.975 104.937 135.691C104.358 135.719 103.779 135.733 103.214 135.733L103.219 135.729Z" fill="#FFF9ED"/>
<path d="M113.982 53.8854C113.982 53.8854 123.605 55.812 128.694 59.1331C135.21 63.3821 147.879 85.461 147.879 85.461L130.441 98.3824L124.895 91.2363L128.501 130.618C128.501 130.618 118.977 134.264 104.905 134.984C104.325 135.013 103.761 135.027 103.219 135.027C95.5028 135.027 91.6234 132.229 91.6234 132.229C89.9144 124.626 84.9287 102.17 84.9287 102.17C84.9287 102.17 78.9166 95.9658 78.347 88.3439C77.9138 82.5592 80.1595 79.4737 80.1595 79.4737C78.5824 74.829 79.8253 60.518 79.8253 60.518C83.8129 57.343 92.8334 55.4116 92.8334 55.4116C92.8334 55.4116 91.6328 61.1822 100.305 61.2717C100.357 61.2717 100.404 61.2717 100.456 61.2717C109.038 61.2717 113.982 53.8854 113.982 53.8854ZM113.982 52.4722C113.515 52.4722 113.078 52.703 112.809 53.0987C112.762 53.1646 108.148 59.8632 100.456 59.8632H100.319C97.6779 59.8349 95.7947 59.232 94.8766 58.1156C94.0527 57.1169 94.1798 55.9345 94.2128 55.7225C94.2222 55.6754 94.2316 55.6283 94.2363 55.5765C94.2881 55.1478 94.1422 54.7192 93.8315 54.4083C93.5678 54.1445 93.21 54.0031 92.8428 54.0031C92.7816 54.0031 92.7157 54.0031 92.6545 54.0173C92.6074 54.022 92.5556 54.0314 92.5085 54.0455C91.8164 54.1963 83.0644 56.1371 78.9496 59.4204C78.6483 59.6607 78.4553 60.0187 78.4223 60.4049C78.3705 60.9749 77.2689 73.9199 78.6342 79.2853C77.9374 80.5525 76.5862 83.6804 76.944 88.4617C77.4807 95.6172 82.3864 101.477 83.6387 102.862C84.2978 105.83 88.6809 125.568 90.2487 132.549C90.324 132.888 90.5218 133.185 90.7995 133.387C90.9737 133.515 95.145 136.454 103.224 136.454C103.803 136.454 104.391 136.44 104.98 136.407C119.113 135.686 128.609 132.101 129.009 131.951C129.603 131.725 129.97 131.131 129.913 130.5L126.75 95.9328L129.334 99.2586C129.612 99.6166 130.031 99.805 130.45 99.805C130.742 99.805 131.038 99.7155 131.288 99.5271L148.726 86.6057C149.301 86.177 149.465 85.3903 149.112 84.7685C148.59 83.8547 136.198 62.3457 129.475 57.9648C124.217 54.5354 114.674 52.5946 114.269 52.5146C114.175 52.4957 114.085 52.4863 113.991 52.4863L113.982 52.4722Z" fill="#51703C"/>
<path d="M67.4478 71.9505C67.4478 71.9505 53.703 80.2248 51.9168 82.087C51.9168 82.087 47.4632 82.885 44.3411 84.6887C41.219 86.4924 22.8481 99.576 21.2604 100.513C21.2604 100.513 14.7749 98.4207 9.507 101.415C6.2756 103.251 -0.67161 110.763 0.0523634 112.627C0.88886 114.779 3.50018 113.161 7.84302 111.121C10.3919 109.925 13.3339 109.064 15.3269 108.559C16.0099 108.386 17.6642 108.257 16.2377 109.766C14.7079 111.381 12.6983 113.813 12.2967 115.017C11.8198 116.435 12.5845 117.716 13.3153 117.892C13.921 118.039 16.3803 115.37 18.6543 113.633C19.5826 112.924 20.3868 112.069 21.0085 111.074C21.8937 109.663 23.1274 107.712 23.7805 106.765C24.8731 105.179 50.5106 95.7435 52.6098 94.8341C54.7046 93.9229 68.224 86.4514 71.6244 83.46C75.0247 80.4686 67.4504 71.9566 67.4504 71.9566L67.4478 71.9505Z" fill="#FFB689"/>
<path d="M59.8492 74.218C59.8492 74.218 83.2462 55.7446 91.3169 55.8433C91.3167 62.9941 93.0749 64.4938 93.0749 64.4938C93.0749 64.4938 100.191 72.1589 94.5405 75.8419C91.581 77.7717 70.9584 91.2468 70.9584 91.2468L59.8492 74.218Z" fill="#FFF9ED"/>
<path d="M57.2476 71.9752C57.5982 71.726 58.0848 71.8083 58.3342 72.1589L71.598 90.7973C71.8474 91.1479 71.7651 91.6343 71.4146 91.8836C71.0639 92.1327 70.5773 92.0504 70.3279 91.6998L57.0641 73.0614C56.8148 72.7109 56.897 72.2244 57.2476 71.9752Z" fill="#51703C"/>
<path d="M80.2556 79.2773C80.4786 78.9095 80.9579 78.7917 81.326 79.0147C81.6711 79.2237 81.7959 79.6581 81.6263 80.0147L81.5888 80.0841C81.5883 80.0849 81.5872 80.0867 81.5857 80.0892C81.5827 80.0944 81.5776 80.1033 81.5705 80.1156C81.5562 80.1404 81.534 80.1794 81.5051 80.2322C81.447 80.338 81.3617 80.4989 81.259 80.7099C81.0536 81.1321 80.7786 81.7543 80.5077 82.5395C79.9651 84.1123 79.4451 86.3243 79.5261 88.8893C79.6877 94.0049 81.4738 96.6915 84.9309 101.729C85.1742 102.084 85.0838 102.569 84.729 102.812C84.3741 103.055 83.8893 102.965 83.6459 102.61C80.1917 97.5767 78.1455 94.5537 77.9681 88.9385C77.8797 86.1381 78.4472 83.7336 79.0345 82.0314C79.3285 81.1792 79.629 80.4989 79.8578 80.0283C79.9723 79.7931 80.0689 79.6098 80.1384 79.4832C80.1731 79.4199 80.2012 79.3706 80.2211 79.3362C80.231 79.319 80.2391 79.3054 80.2449 79.2956C80.2478 79.2907 80.2502 79.2865 80.252 79.2834C80.2528 79.2821 80.2535 79.2808 80.2541 79.2799C80.2544 79.2794 80.2548 79.2788 80.2551 79.2784L80.2556 79.2779C80.258 79.279 80.29 79.2982 80.737 79.5689L80.2556 79.2773Z" fill="#51703C"/>
<path d="M119.964 84.8401C120.304 84.5769 120.794 84.6393 121.057 84.9796L131.057 97.9008C131.32 98.241 131.258 98.7304 130.917 98.9936C130.577 99.2567 130.088 99.1943 129.825 98.8541L119.825 85.9329C119.561 85.5927 119.624 85.1033 119.964 84.8401Z" fill="#51703C"/>
</svg>
