<svg width="160" height="310" viewBox="0 0 160 310" fill="none" xmlns="http://www.w3.org/2000/svg">
<g clip-path="url(#clip0_254_11333)">
<path d="M52.5031 166.433C52.5031 166.433 37.706 187.852 36.2277 190.419C34.7494 192.987 33.8596 194.211 33.8596 198.008C33.8596 202.752 37.2823 204.047 39.5233 209.055C40.6956 211.674 56.7026 245.096 57.7902 248.554C58.8777 252.011 61.5377 260.495 61.5377 260.495H68.2842C68.2842 260.495 64.7956 242.68 64.1036 235.378C63.4115 228.076 60.0547 209.173 57.5501 203.185C56.1094 199.742 52.2018 197.575 52.2018 197.575L76.4949 173.513L52.4984 166.433H52.5031Z" fill="#FFB689"/>
<path d="M90.3599 188.21C90.3599 188.21 96.9651 214.369 97.676 216.96C98.3822 219.55 96.3625 225.17 96.5697 230.098C97.1582 244.192 108.038 284.558 108.038 284.558L113.255 284.723C113.255 284.723 116.315 248.488 116.442 244.541C116.569 240.593 117.473 231.794 117.007 226.781C116.531 221.717 114.62 218.712 114.389 216.63C114.159 214.548 116.032 187.833 116.032 187.833L90.3599 188.201V188.21Z" fill="#FFB689"/>
<path d="M62.2109 261.202C61.9143 261.202 61.6506 261.018 61.5471 260.736C61.4765 260.543 54.4946 241.398 50.3186 234.893C50.1774 234.672 50.1679 234.394 50.2951 234.168C50.4222 233.946 50.6576 233.805 50.9118 233.805C50.9165 233.805 51.0342 233.805 51.0342 233.805C51.811 233.805 58.7505 233.692 63.3973 229.702C63.5291 229.589 63.6892 229.532 63.8587 229.532C63.934 229.532 64.014 229.546 64.0894 229.57C64.3248 229.65 64.5037 229.853 64.5508 230.097C64.7014 230.846 68.2371 248.521 68.4772 252.257C68.7173 255.987 68.9951 260.448 68.9951 260.448C69.0092 260.642 68.9386 260.835 68.8067 260.976C68.6749 261.117 68.4866 261.197 68.2936 261.197H62.2156L62.2109 261.202Z" fill="#DE8459"/>
<path d="M63.8587 230.239C63.8587 230.239 67.531 248.573 67.7711 252.304C68.0112 256.035 68.2889 260.496 68.2889 260.496H62.211C62.211 260.496 55.182 241.158 50.9119 234.511C50.9119 234.511 50.9542 234.511 51.0343 234.511C52.0418 234.511 59.0566 234.361 63.8587 230.239ZM63.8587 228.826C63.5245 228.826 63.1996 228.943 62.9407 229.165C58.487 232.99 51.7875 233.098 51.039 233.098H50.9448C50.9448 233.098 50.926 233.098 50.9166 233.098C50.4081 233.098 49.9326 233.376 49.6831 233.824C49.4288 234.281 49.443 234.836 49.7255 235.279C53.859 241.714 60.8174 260.788 60.8833 260.981C61.0858 261.541 61.6178 261.909 62.211 261.909H68.2889C68.6797 261.909 69.0516 261.749 69.32 261.461C69.5883 261.174 69.7249 260.797 69.7013 260.406C69.7013 260.406 69.4235 255.945 69.1834 252.214C68.9386 248.436 65.3982 230.715 65.2429 229.961C65.144 229.471 64.7909 229.066 64.3201 228.901C64.1695 228.849 64.0141 228.826 63.8587 228.826Z" fill="#51703C"/>
<path d="M108.523 288.246C108.203 288.246 107.916 288.025 107.836 287.709L99.3427 253.001C99.2862 252.77 99.3521 252.525 99.5122 252.351C99.6487 252.205 99.8323 252.125 100.03 252.125C100.068 252.125 100.11 252.125 100.152 252.134C100.181 252.139 102.935 252.61 106.292 252.61C109.648 252.61 113.951 252.167 116.527 250.047C116.654 249.939 116.814 249.887 116.974 249.887C117.087 249.887 117.205 249.915 117.308 249.972C117.562 250.109 117.708 250.382 117.675 250.664L113.98 287.073C113.947 287.403 113.688 287.667 113.358 287.705L108.603 288.246C108.575 288.246 108.551 288.246 108.523 288.246Z" fill="#DE8459"/>
<path d="M116.974 250.594L113.278 287.003L108.523 287.544L100.03 252.836C100.03 252.836 102.822 253.321 106.287 253.321C109.926 253.321 114.309 252.789 116.969 250.594M116.974 249.181C116.974 249.181 116.95 249.181 116.941 249.181C116.611 249.19 116.305 249.308 116.07 249.506C114.159 251.074 110.778 251.903 106.292 251.903C103.001 251.903 100.303 251.447 100.275 251.442C100.195 251.428 100.115 251.423 100.035 251.423C99.6487 251.423 99.272 251.583 99.0037 251.87C98.6788 252.219 98.5517 252.709 98.6647 253.171L107.158 287.879C107.313 288.515 107.888 288.958 108.528 288.958C108.58 288.958 108.636 288.958 108.688 288.948L113.443 288.406C114.102 288.331 114.62 287.808 114.691 287.144L118.377 250.796C118.386 250.731 118.391 250.66 118.391 250.594C118.391 249.817 117.765 249.185 116.988 249.181H116.979H116.974Z" fill="#51703C"/>
<path d="M43.2992 279.913C38.2758 279.913 29.7496 279.493 29.0905 276.686C28.6244 274.703 29.3401 273.261 34.4482 271.32C43.7605 267.787 49.6455 264.975 52.329 263.614C54.8195 262.351 56.4014 260.886 56.6698 259.591C56.8581 258.677 56.9475 257.659 57.0276 256.764C57.1735 255.083 57.2677 254.258 57.7573 253.834C57.9786 253.641 58.2469 253.538 58.5341 253.538C59.0944 253.538 59.5699 253.919 60.116 254.362C60.8128 254.923 61.6037 255.563 62.6442 255.563C62.8325 255.563 63.0302 255.54 63.2279 255.497C64.598 255.196 65.5301 254.338 66.4246 253.505C67.258 252.732 68.0489 252.002 69.0988 251.851C69.1317 251.847 69.1647 251.842 69.1976 251.842C69.4754 251.842 69.7296 252.007 69.8426 252.266C70.0969 252.845 76.0665 266.473 76.2407 270.661C76.2972 272.027 76.3302 273.219 76.3302 274.199C76.3349 275.442 75.6664 276.757 74.6259 277.557C73.0958 278.73 70.0451 279.517 67.0367 279.517C66.161 279.517 65.3042 279.451 64.4803 279.324C63.3315 279.145 62.0368 279.06 60.5162 279.06C58.3458 279.06 55.9636 279.23 53.2094 279.427C51.0626 279.583 48.6286 279.757 46.0109 279.861C45.1541 279.894 44.2407 279.913 43.2944 279.913H43.2992Z" fill="#FFF9ED"/>
<path d="M69.1976 252.548C69.1976 252.548 75.365 266.586 75.5345 270.689C75.6004 272.253 75.624 273.393 75.624 274.203C75.6287 275.31 74.9884 276.389 74.1975 276.997C72.8745 278.014 70.0545 278.81 67.0367 278.81C66.2269 278.81 65.403 278.754 64.5885 278.627C63.3221 278.429 61.9709 278.354 60.5161 278.354C56.552 278.354 51.8299 278.919 45.9827 279.154C45.1588 279.187 44.2454 279.206 43.2944 279.206C37.5742 279.206 30.2487 278.547 29.7732 276.526C29.4719 275.244 29.4389 273.982 34.693 271.985C43.1344 268.781 49.1605 266.016 52.6444 264.245C54.4476 263.331 56.9428 261.715 57.3571 259.737C57.8232 257.504 57.6961 254.819 58.2187 254.367C58.3175 254.282 58.4211 254.244 58.5294 254.244C59.3439 254.244 60.5491 256.265 62.6394 256.265C62.8748 256.265 63.1196 256.242 63.3739 256.185C66.241 255.559 67.3709 252.808 69.1976 252.548ZM69.1976 251.135C69.1317 251.135 69.0611 251.14 68.9952 251.149C67.7287 251.333 66.8201 252.172 65.9444 252.987C65.0782 253.792 64.259 254.55 63.0726 254.81C62.9266 254.843 62.7807 254.857 62.6394 254.857C61.8485 254.857 61.1941 254.324 60.5538 253.816C59.9559 253.335 59.3391 252.836 58.5294 252.836C58.0727 252.836 57.6443 252.996 57.2912 253.307C56.5662 253.938 56.472 254.984 56.3213 256.713C56.246 257.589 56.1566 258.578 55.9777 259.454C55.7564 260.519 54.2734 261.843 52.0089 262.992C49.3394 264.349 43.4733 267.147 34.1986 270.67C29.2882 272.536 27.7676 274.156 28.4031 276.856C28.7751 278.452 30.6112 279.428 34.3493 280.026C37.6072 280.549 41.3547 280.624 43.2991 280.624C44.2548 280.624 45.1776 280.605 46.0439 280.572C48.6709 280.464 51.1096 280.29 53.2612 280.139C56.0012 279.941 58.3693 279.771 60.5161 279.771C61.9991 279.771 63.2609 279.856 64.372 280.026C65.2288 280.158 66.1233 280.228 67.0367 280.228C70.2428 280.228 73.3877 279.404 75.0543 278.123C76.2643 277.195 77.0411 275.654 77.0364 274.199C77.0364 273.205 76.9987 272.004 76.9422 270.633C76.768 266.388 71.1279 253.443 70.4876 251.983C70.2616 251.465 69.7484 251.14 69.1976 251.14V251.135Z" fill="#51703C"/>
<path d="M111.414 309.293C106.141 309.223 99.2673 307.324 98.2692 306.26C97.2711 305.2 97.0969 300.918 97.6478 299.896C98.354 298.591 102.808 289.118 102.888 288.001C102.921 286.993 102.431 281.835 102.238 279.932C102.219 279.762 102.266 279.597 102.36 279.456C102.525 279.22 106.428 273.662 110.19 273.459C110.251 273.459 110.317 273.455 110.378 273.455C114.206 273.455 116.498 279.767 116.593 280.035C116.616 280.101 116.63 280.172 116.635 280.238L116.95 286.97C117.69 288.392 123.306 299.189 123.833 300.748C124.074 301.455 124.135 302.454 124.022 303.725C123.852 305.633 122.068 306.618 121.479 306.943C118.815 308.413 115.152 309.293 111.682 309.293H111.414Z" fill="#FFF9ED"/>
<path d="M110.383 274.161C113.758 274.161 115.934 280.271 115.934 280.271L116.254 287.163C116.254 287.163 122.624 299.382 123.165 300.979C123.41 301.704 123.4 302.745 123.32 303.669C123.207 304.917 122.238 305.727 121.141 306.33C118.669 307.696 115.143 308.591 111.687 308.591C111.598 308.591 111.513 308.591 111.423 308.591C106.094 308.521 99.5499 306.594 98.7872 305.779C98.0245 304.964 97.855 301.007 98.274 300.235C98.693 299.457 103.561 289.311 103.599 288.029C103.636 286.748 102.949 279.866 102.949 279.866C102.949 279.866 106.777 274.359 110.237 274.171C110.289 274.171 110.336 274.171 110.388 274.171M110.383 272.748C110.308 272.748 110.232 272.748 110.157 272.753C106.122 272.969 102.219 278.429 101.786 279.051C101.593 279.329 101.508 279.663 101.541 279.998C101.8 282.584 102.2 286.974 102.186 287.935C101.927 289.334 97.5772 298.539 97.0311 299.556C96.3579 300.8 96.5321 305.435 97.7608 306.74C99.0979 308.167 106.499 309.929 111.409 309.995C111.503 309.995 111.598 309.995 111.692 309.995C115.274 309.995 119.064 309.086 121.828 307.56C122.496 307.192 124.53 306.071 124.733 303.787C124.855 302.397 124.785 301.328 124.507 300.517C123.975 298.953 118.758 288.901 117.657 286.781L117.351 280.2C117.346 280.059 117.318 279.922 117.271 279.79C117.012 279.07 114.639 272.743 110.388 272.743L110.383 272.748Z" fill="#51703C"/>
<path d="M88.1658 199.718C87.7938 199.718 87.4831 199.431 87.4596 199.054L85.7035 170.088C85.6705 169.509 85.4869 169.207 85.4163 169.16C85.4163 169.179 85.1621 169.264 84.729 169.881L69.8283 193.406C69.6964 193.618 69.4658 193.736 69.2304 193.736C69.1456 193.736 69.0562 193.722 68.9714 193.684L39.8762 182.138C39.6832 182.063 39.5325 181.903 39.4666 181.705C39.4007 181.507 39.429 181.29 39.5373 181.111C62.8134 143.52 72.1399 132.111 72.2293 132.002C72.3659 131.838 72.5636 131.748 72.7754 131.748H72.7849C73.3875 131.758 73.9901 131.762 74.588 131.762C91.4472 131.762 108.17 127.909 108.339 127.867C108.391 127.852 108.448 127.848 108.499 127.848C108.683 127.848 108.862 127.918 108.998 128.055C109.135 128.192 112.421 131.536 115.326 140.171C119.549 152.734 122.355 195.695 122.473 197.519C122.487 197.707 122.421 197.895 122.294 198.037C122.167 198.178 121.988 198.263 121.799 198.272C121.799 198.272 88.1752 199.728 88.1658 199.728V199.718Z" fill="#FFF9ED"/>
<path d="M108.504 128.554C108.504 128.554 111.776 131.819 114.658 140.397C118.899 153.017 121.767 197.566 121.767 197.566L88.1612 199.021L86.4051 170.06C86.358 169.231 86.019 168.473 85.4494 168.473C85.101 168.473 84.6631 168.755 84.15 169.485L69.2305 193.039L40.1353 181.493C63.6515 143.506 72.7708 132.459 72.7708 132.459C73.3782 132.469 73.9808 132.474 74.5881 132.474C91.7345 132.474 108.5 128.559 108.5 128.559M108.504 127.141C108.396 127.141 108.288 127.155 108.184 127.179C108.019 127.216 91.3673 131.056 74.5928 131.056C73.9949 131.056 73.397 131.051 72.7991 131.042C72.7897 131.042 72.785 131.042 72.7755 131.042C72.3565 131.042 71.9564 131.23 71.688 131.555C71.3114 132.007 62.2391 143.11 38.9394 180.744C38.7182 181.097 38.6664 181.535 38.7982 181.931C38.93 182.327 39.2313 182.647 39.6174 182.802L68.7126 194.348C68.8821 194.414 69.061 194.447 69.2305 194.447C69.7013 194.447 70.1579 194.212 70.4216 193.792L85.0304 170.734L86.7535 199.111C86.8006 199.86 87.422 200.439 88.1612 200.439C88.18 200.439 88.2035 200.439 88.2224 200.439L121.828 198.984C122.209 198.969 122.562 198.8 122.816 198.517C123.071 198.235 123.198 197.862 123.174 197.481C123.057 195.653 120.246 152.607 115.995 139.954C113.038 131.164 109.644 127.706 109.498 127.565C109.229 127.297 108.871 127.151 108.5 127.151L108.504 127.141Z" fill="#51703C"/>
<path d="M112.685 93.3136C112.685 93.3136 120.364 104.549 121.235 105.246C121.235 105.246 123.061 112.189 124.624 114.399C126.192 116.608 140.566 134.433 144.007 138.286C144.007 138.286 143.39 146.271 143.767 148.08C144.144 149.889 146.992 154.345 147.736 155.151C149.61 157.186 150.772 155.551 150.636 153.45C150.514 151.651 147.557 147.142 148.188 145.663C148.819 144.184 151.879 148.97 152.783 150.534C154.2 152.984 154.967 157.525 155.739 158.938C156.511 160.351 160.165 156.686 160 150.44C159.84 144.194 154.977 137.674 150.65 136.035C150.65 136.035 138.673 109.043 135.561 105.594C132.449 102.146 130.627 100.055 130.627 100.055L124.154 84.5376L112.69 93.3042L112.685 93.3136Z" fill="#FFB689"/>
<path d="M65.7466 16.6239C65.7466 16.6239 65.7467 24.3211 66.1092 26.0641C66.4717 27.807 67.6298 29.4652 68.1618 29.9127C68.1618 29.9127 66.1798 31.34 66.3022 34.4114C66.4199 37.4874 72.0365 48.6282 74.5929 48.5293L75.8358 48.4822C75.8358 48.4822 76.4384 53.3059 75.6145 55.2278C75.0072 56.6458 70.9301 65.7515 81.3347 65.7892C91.7393 65.8269 94.0415 53.2776 94.0415 53.2776C94.0415 53.2776 90.181 50.0555 89.9738 44.7136C89.7667 39.3717 89.7902 36.1449 89.7902 36.1449C89.7902 36.1449 93.3259 34.6893 93.1423 30.0069C92.9634 25.3245 88.5944 26.017 87.681 27.0345L87.5586 16.2235C87.5586 16.2235 69.3859 8.42259 65.7419 16.6239H65.7466Z" fill="#FFB689"/>
<path d="M93.0058 6.06714C93.0058 6.06714 94.4747 1.10209 104.277 0.720522C114.079 0.343668 120.651 6.15664 122.963 11.6304C125.095 16.6756 129.295 31.4718 143.729 30.9159C148.31 30.7416 151.761 29.6723 153.96 28.7302C154.892 28.3298 155.805 29.3473 155.292 30.2235C152.472 35.0378 145.311 43.8609 131.145 42.6879C131.145 42.6879 133.668 45.2364 137.449 46.3528C138.913 46.7862 139.134 48.76 137.788 49.4854C135.679 50.6207 132.058 51.7418 125.886 51.9774C112.624 52.4908 106.438 44.0304 105.124 31.5707C103.815 19.111 102.384 6.62299 95.5245 7.72058C95.5245 7.72058 91.6546 8.97362 93.0058 6.06242V6.06714Z" fill="#DE8459"/>
<path d="M104.72 -0.0708154C114.609 -0.259275 121.29 5.66704 123.68 11.3276L123.892 11.8418C124.979 14.5341 126.502 19.0107 129.362 22.9137C132.377 27.0296 136.812 30.4035 143.7 30.1382L144.116 30.1195C148.106 29.9167 151.177 29.0224 153.24 28.1864L153.653 28.0145C155.257 27.3262 156.868 29.0755 155.965 30.6174C153.236 35.2752 146.497 43.6551 133.483 43.5711C134.462 44.2432 135.783 44.9982 137.338 45.5036L137.67 45.6061L137.67 45.6066C139.785 46.2327 140.131 49.1084 138.158 50.1714H138.157C135.911 51.3804 132.164 52.5171 125.916 52.7556C119.1 53.0194 114.004 50.9727 110.455 47.171C106.929 43.3938 105.016 37.9769 104.349 31.6529V31.6524C103.692 25.3993 103.013 19.2443 101.66 14.788C100.983 12.5568 100.162 10.843 99.1617 9.7607C98.2093 8.73028 97.1003 8.27143 95.6917 8.48384C95.6599 8.49334 95.6186 8.50608 95.5689 8.51984C95.4535 8.55182 95.2915 8.59345 95.1017 8.63343C94.7342 8.71086 94.2123 8.7926 93.7092 8.76071C93.2465 8.73138 92.5379 8.58706 92.1588 7.94683C91.7849 7.31516 91.9316 6.53773 92.2867 5.76227C92.2883 5.75756 92.2899 5.75262 92.2917 5.74757C92.3103 5.6962 92.3369 5.62723 92.3734 5.54321C92.4464 5.37518 92.5587 5.14641 92.725 4.87689C93.0582 4.3368 93.6053 3.63629 94.4752 2.93219C96.2225 1.51789 99.2114 0.138367 104.246 -0.057631L104.72 -0.0708154ZM104.748 1.48647L104.307 1.49914C99.5399 1.68473 96.8934 2.97902 95.4558 4.14262C94.7332 4.72748 94.3001 5.29205 94.0516 5.69483C93.9271 5.89664 93.8481 6.05895 93.8025 6.16389C93.7798 6.21626 93.7656 6.25444 93.7579 6.27596C93.7558 6.28177 93.7539 6.2863 93.7528 6.28965L93.7523 6.28914C93.7378 6.33783 93.7187 6.38395 93.696 6.42758C93.4907 6.8808 93.4941 7.08324 93.5022 7.14359C93.5333 7.16006 93.6171 7.19438 93.8076 7.20647C94.103 7.2252 94.4643 7.17563 94.7801 7.10911C94.9319 7.07712 95.0621 7.04351 95.1529 7.01834C95.1981 7.00584 95.2332 6.99579 95.2559 6.98893C95.2673 6.98551 95.2754 6.98284 95.2803 6.98132C95.2822 6.98073 95.2835 6.98007 95.2843 6.9798C95.3225 6.96744 95.3619 6.95825 95.4015 6.95191C97.4016 6.63194 99.0305 7.32304 100.307 8.70392C101.545 10.0438 102.45 12.0248 103.152 14.3357C104.557 18.9639 105.247 25.2831 105.899 31.4896H105.899C106.546 37.6253 108.383 42.6686 111.594 46.1081C114.782 49.5228 119.41 51.4489 125.856 51.1993H125.857C131.952 50.9667 135.446 49.8618 137.418 48.8003L137.483 48.7617C138.131 48.346 138.015 47.3332 137.228 47.1V47.0995C135.233 46.5102 133.58 45.5477 132.431 44.7389C131.854 44.3333 131.4 43.9632 131.087 43.6923C130.931 43.5568 130.81 43.4458 130.727 43.3673C130.685 43.328 130.653 43.2966 130.63 43.2745C130.618 43.2634 130.609 43.2545 130.603 43.2481L130.591 43.2364C130.362 43.0048 130.301 42.6546 130.439 42.3592C130.576 42.0637 130.884 41.885 131.209 41.9119C144.946 43.0493 151.871 34.5226 154.62 29.8304C154.66 29.7616 154.664 29.7081 154.659 29.6666C154.653 29.6191 154.629 29.5652 154.587 29.5175C154.544 29.4699 154.492 29.4394 154.442 29.4268C154.398 29.4156 154.341 29.4142 154.267 29.446L154.267 29.4465C151.992 30.4211 148.448 31.516 143.759 31.6945C136.212 31.9851 131.33 28.2386 128.104 23.834C124.912 19.4769 123.275 14.3724 122.245 11.9341V11.9336C120.084 6.81774 113.957 1.31067 104.748 1.48647Z" fill="#51703C"/>
<path d="M68.3372 24.0709L68.3367 24.0714C69.1777 24.1107 69.9159 24.2417 70.5552 24.5983C71.205 24.9608 71.6986 25.5245 72.1086 26.327H72.108C72.2893 26.6815 72.3774 27.2029 72.4195 27.7621C72.4632 28.3419 72.4616 29.0363 72.4221 29.7854C72.3429 31.2839 72.1096 33.0403 71.757 34.6098C71.671 34.9955 71.7089 35.2252 71.8356 35.3619C71.978 35.5153 72.3996 35.7401 73.5686 35.66L73.5701 35.6595C74.6515 35.588 75.105 35.3629 75.2757 35.1803C75.3972 35.0503 75.4506 34.8506 75.3107 34.4364C75.2189 34.1648 75.3647 33.8701 75.6364 33.7782C75.9081 33.6864 76.203 33.8321 76.2948 34.1038C76.4844 34.6645 76.5427 35.3457 76.0346 35.8892C75.5757 36.3802 74.7653 36.621 73.6391 36.6955L73.6396 36.696C72.4032 36.7807 71.554 36.586 71.0737 36.0682C70.5779 35.5337 70.6413 34.8404 70.7434 34.3832V34.3822C71.0828 32.8711 71.3084 31.1726 71.3846 29.7306C71.4227 29.0094 71.4229 28.3616 71.3836 27.8396C71.3479 27.3649 71.2826 27.0446 71.2132 26.867L71.1832 26.7996C70.8399 26.1276 70.4737 25.7424 70.0489 25.5055C69.668 25.293 69.1981 25.1758 68.5681 25.1257L68.288 25.1084C67.7562 25.0833 67.0636 25.183 66.4775 25.2991C66.19 25.3561 65.9382 25.4149 65.7586 25.4594C65.669 25.4815 65.5975 25.5002 65.5491 25.5131C65.525 25.5195 65.5064 25.5245 65.4943 25.5278C65.4884 25.5294 65.484 25.5306 65.4811 25.5314C65.4798 25.5317 65.4787 25.5322 65.4781 25.5324H65.4776C65.2014 25.6099 64.9144 25.4489 64.8368 25.1728C64.7593 24.8968 64.9204 24.6099 65.1965 24.5324H65.1975L65.1986 24.5319C65.1997 24.5316 65.2016 24.5309 65.2036 24.5304C65.2076 24.5293 65.2133 24.5277 65.2204 24.5258C65.2348 24.5218 65.2556 24.5161 65.2823 24.5091C65.3358 24.4948 65.4131 24.475 65.509 24.4513C65.7005 24.4038 65.9687 24.3412 66.2756 24.2804C66.8782 24.161 67.6734 24.0396 68.3372 24.0709Z" fill="#51703C"/>
<path d="M78.5418 23.5384C79.6257 23.4973 80.4551 23.7335 81.0215 23.9892C81.3038 24.1166 81.5196 24.2485 81.6683 24.3517C81.7427 24.4033 81.8007 24.4475 81.8418 24.481C81.8624 24.4978 81.8787 24.5119 81.891 24.5226C81.8971 24.528 81.9022 24.5326 81.9063 24.5363C81.9083 24.5382 81.9103 24.54 81.9118 24.5414C81.9126 24.5421 81.9133 24.5428 81.9139 24.5434L81.9149 24.5439V24.5444C81.9151 24.5446 81.9155 24.5449 81.6232 24.8573L81.9154 24.5449C82.1249 24.7409 82.1357 25.0693 81.9397 25.2787C81.7443 25.4875 81.4173 25.4991 81.2077 25.3051C81.2082 25.3055 81.2086 25.3065 81.2087 25.3066L81.2057 25.3035V25.303C81.2019 25.2998 81.1951 25.2942 81.1854 25.2863C81.1637 25.2686 81.127 25.2402 81.0758 25.2047C80.9734 25.1336 80.8124 25.0346 80.5939 24.9359C80.1587 24.7394 79.4887 24.5421 78.5814 24.5764C77.6402 24.612 76.8499 24.7924 76.297 24.9633C76.021 25.0486 75.8052 25.1309 75.6608 25.191C75.5887 25.221 75.5344 25.2458 75.4995 25.262C75.4822 25.27 75.4695 25.276 75.462 25.2797C75.4583 25.2815 75.4556 25.2821 75.4544 25.2828C75.1987 25.4128 74.886 25.3116 74.7558 25.0561C74.6257 24.8006 74.7276 24.488 74.9831 24.3578H74.9836V24.3573H74.9846C74.9851 24.3571 74.9855 24.3566 74.9861 24.3563C74.9874 24.3556 74.9892 24.3547 74.9912 24.3538C74.9951 24.3518 75.0004 24.3493 75.0069 24.3462C75.0201 24.3397 75.0388 24.3307 75.0622 24.3198C75.109 24.2981 75.176 24.2682 75.2616 24.2326C75.4328 24.1613 75.6794 24.0669 75.9901 23.9709C76.6105 23.7791 77.4917 23.5781 78.5418 23.5384Z" fill="#51703C"/>
<path d="M67.6985 26.1908C68.656 25.9209 69.9606 25.9398 71.7037 26.8318C71.959 26.9625 72.0602 27.2753 71.9294 27.5306C71.7987 27.7857 71.4857 27.8867 71.2304 27.7562C69.6874 26.9666 68.6521 27.0015 67.9806 27.1908C67.6353 27.2882 67.3611 27.4329 67.1374 27.5676C67.0809 27.6016 67.028 27.6349 66.9761 27.6675C66.926 27.699 66.8732 27.732 66.8244 27.7613C66.746 27.8084 66.6031 27.8936 66.4475 27.9251C66.0608 28.0033 65.7615 27.8857 65.5648 27.7684C65.4914 27.7246 65.4214 27.673 65.3867 27.6477C65.1893 27.5741 65.0483 27.3849 65.0483 27.1619C65.0483 26.8751 65.2809 26.6426 65.5678 26.6426C65.7088 26.6426 65.8149 26.6951 65.8575 26.7177C65.9073 26.7441 65.9506 26.7744 65.9742 26.7912C66.036 26.8352 66.0582 26.8538 66.0969 26.8769C66.1437 26.9048 66.1761 26.9143 66.2202 26.9094C66.2314 26.9036 66.254 26.8928 66.2897 26.8713C66.3277 26.8486 66.3699 26.8214 66.4236 26.7877C66.4758 26.755 66.5361 26.7176 66.6017 26.6781C66.8665 26.5187 67.2294 26.3231 67.6985 26.1908Z" fill="#51703C"/>
<path d="M80.8361 26.456C81.0955 26.3344 81.4044 26.4459 81.5266 26.7049C81.6412 26.9481 81.5507 27.2351 81.3252 27.3708L81.278 27.3961L81.2765 27.3966C81.276 27.3968 81.2755 27.3974 81.2749 27.3976C81.2735 27.3983 81.2715 27.3992 81.2694 27.4002C81.2652 27.4021 81.2597 27.4044 81.2531 27.4073C81.2399 27.4131 81.2218 27.4211 81.1999 27.4301C81.1562 27.448 81.095 27.4714 81.0228 27.495C80.8886 27.5388 80.6806 27.5946 80.4617 27.5959C80.4604 27.5959 80.459 27.5959 80.4577 27.5959C80.4565 27.5959 80.4553 27.5964 80.4541 27.5964V27.5959C80.312 27.5963 80.1817 27.5505 80.1102 27.5234C80.021 27.4896 79.9245 27.4449 79.8312 27.3997C79.6228 27.2986 79.438 27.2 79.1874 27.0822C78.6988 26.8527 78.2113 26.6777 77.8126 26.6918L77.8121 26.6913C77.1502 26.7159 76.6967 26.9215 76.415 27.1076C76.2725 27.2017 76.1715 27.2922 76.1091 27.3555C76.0779 27.3872 76.0565 27.4122 76.0446 27.4265C76.0414 27.4304 76.0388 27.4334 76.037 27.4357C75.8704 27.6686 75.5465 27.7226 75.3131 27.5564C75.0795 27.3899 75.0249 27.0657 75.1913 26.8322L75.6144 27.1334C75.2144 26.8484 75.1929 26.8328 75.1919 26.8317V26.8312L75.1929 26.8302C75.1934 26.8295 75.1938 26.8285 75.1944 26.8277C75.1956 26.826 75.1969 26.8241 75.1984 26.8221C75.2015 26.8179 75.2057 26.8132 75.2101 26.8074C75.2191 26.7957 75.2309 26.7804 75.2456 26.7628C75.275 26.7274 75.3162 26.6808 75.3694 26.6269C75.4759 26.5189 75.6318 26.3799 75.8422 26.241C76.2664 25.9608 76.9029 25.6859 77.775 25.6537H77.7761C78.4459 25.6302 79.1328 25.9093 79.6293 26.1426C79.8712 26.2562 80.1322 26.3911 80.2847 26.4651C80.3718 26.5073 80.4345 26.5354 80.479 26.5523C80.4822 26.5535 80.4854 26.5544 80.4881 26.5554C80.5462 26.5502 80.6216 26.5339 80.7002 26.5082C80.7433 26.4941 80.7801 26.48 80.8052 26.4697C80.8176 26.4646 80.8267 26.4604 80.8321 26.458C80.834 26.4572 80.8353 26.4564 80.8361 26.456ZM76.037 27.4357L76.0365 27.4367C76.0362 27.4372 76.0358 27.4378 76.0355 27.4382C76.035 27.439 76.0342 27.4394 76.034 27.4397L76.037 27.4357Z" fill="#51703C"/>
<path d="M67.9312 26.8793C67.9312 26.8793 68.1054 29.0745 68.8633 28.952C69.6213 28.8296 69.4895 27.2091 69.3624 26.771C69.3624 26.771 68.4114 26.7945 67.9312 26.8793Z" fill="#51703C"/>
<path d="M76.7727 26.3938C76.7727 26.3938 76.7962 28.735 77.7472 28.735C78.6983 28.735 78.6041 26.3231 78.6041 26.3231C78.6041 26.3231 77.3518 26.309 76.7727 26.3938Z" fill="#51703C"/>
<path d="M74.6471 39.2296C75.1303 39.2098 75.5281 39.4744 75.7881 39.6641C75.8584 39.7155 75.9273 39.7683 75.9905 39.8168C76.0554 39.8665 76.1142 39.9119 76.1721 39.9542C76.2898 40.0403 76.3802 40.097 76.4557 40.1307L76.5333 40.1626C76.9301 40.3085 77.4262 40.2723 77.8056 39.8198C77.9899 39.6001 78.3178 39.5713 78.5376 39.7554C78.7575 39.9396 78.7864 40.2674 78.6021 40.4872C77.8298 41.4083 76.7569 41.3994 76.0351 41.0804H76.0341C75.8555 41.001 75.6937 40.891 75.5582 40.7919C75.4893 40.7415 75.4212 40.689 75.3584 40.6408C75.2938 40.5913 75.2342 40.5459 75.1752 40.5029C74.9176 40.3148 74.7808 40.2634 74.6897 40.2671C74.5299 40.274 74.4111 40.3435 74.2494 40.479C74.1869 40.5315 74.0608 40.6455 73.9607 40.7184C73.8496 40.7993 73.6674 40.9123 73.4281 40.9222H73.4235C73.1829 40.93 72.9932 40.8189 72.8893 40.7488C72.7801 40.6751 72.671 40.5782 72.5996 40.5171C72.5145 40.4441 72.4561 40.3976 72.4059 40.367C72.3932 40.3593 72.3832 40.355 72.3764 40.3518C72.3652 40.3577 72.3459 40.3696 72.3171 40.3928C72.2786 40.4239 72.2363 40.4635 72.1786 40.5201C72.1262 40.5715 72.0556 40.6425 71.9828 40.7077C71.8357 40.8393 71.6197 41.005 71.3238 41.0688C71.0143 41.1354 70.6956 41.0753 70.3705 40.9065C70.116 40.7743 70.0167 40.4607 70.1488 40.2062C70.2811 39.9518 70.5949 39.8525 70.8494 39.9846C71.0139 40.0701 71.0854 40.0578 71.1051 40.0536C71.1384 40.0464 71.1909 40.0225 71.2898 39.9339C71.3399 39.8891 71.3869 39.8422 71.4511 39.7792C71.5099 39.7216 71.5833 39.6501 71.6647 39.5845C71.8288 39.4522 72.0754 39.3013 72.4064 39.3102L72.4069 39.3092C72.6305 39.3146 72.8149 39.3998 72.9466 39.4801C73.0771 39.5595 73.1928 39.6578 73.2754 39.7285C73.3288 39.7743 73.3693 39.8081 73.4022 39.835C73.4447 39.7996 73.4933 39.7576 73.5818 39.6834C73.7978 39.5023 74.1378 39.2511 74.6461 39.2296H74.6471Z" fill="#51703C"/>
<path d="M75.5628 41.2788C75.8 41.1177 76.1228 41.1792 76.2842 41.4162C76.4354 41.6385 76.3908 41.9361 76.1893 42.1053L76.1467 42.1378L76.1462 42.1383C76.1458 42.1385 76.1452 42.139 76.1447 42.1393C76.1436 42.14 76.1422 42.1408 76.1406 42.1418C76.1373 42.1441 76.1327 42.1471 76.1269 42.151C76.1151 42.1588 76.098 42.1702 76.0767 42.1839C76.0341 42.2114 75.9732 42.2497 75.8976 42.2955C75.7467 42.387 75.5347 42.5095 75.2888 42.6322C74.8191 42.8666 74.1434 43.1458 73.5244 43.1459C72.925 43.1459 72.4461 42.8747 72.139 42.6368C71.9825 42.5155 71.86 42.3947 71.7758 42.3036C71.7334 42.2577 71.6996 42.2185 71.6758 42.1895C71.6639 42.175 71.6545 42.1627 71.6474 42.1535C71.6439 42.1489 71.6406 42.1449 71.6383 42.1418C71.6372 42.1404 71.6361 42.1389 71.6352 42.1378C71.6348 42.1373 71.6345 42.1367 71.6342 42.1363L71.6332 42.1352C71.4625 41.9048 71.5112 41.5792 71.7418 41.4086C71.9723 41.2381 72.297 41.2869 72.4677 41.5171C72.4698 41.5197 72.4742 41.5243 72.4799 41.5313C72.492 41.546 72.5118 41.5696 72.5387 41.5987C72.5932 41.6577 72.674 41.7375 72.7757 41.8163C72.9852 41.9787 73.2436 42.1074 73.5244 42.1074C73.8846 42.1073 74.3741 41.928 74.8247 41.7032C75.0389 41.5963 75.2258 41.4888 75.3589 41.4081C75.4251 41.3679 75.4774 41.3345 75.5126 41.3117C75.5301 41.3004 75.5437 41.2915 75.5521 41.2859L75.5628 41.2788Z" fill="#51703C"/>
<path d="M82.3034 44.7198C82.5083 44.5191 82.8372 44.5222 83.038 44.7269C83.2388 44.9316 83.2356 45.2604 83.0309 45.4612C81.6207 46.8429 79.9588 47.8628 78.4692 48.5377C76.9959 49.2052 75.6311 49.562 74.8095 49.562C74.5226 49.562 74.2901 49.3295 74.29 49.0428C74.29 48.756 74.5226 48.5235 74.8095 48.5235C75.4144 48.5235 76.6204 48.2351 78.04 47.592C79.4435 46.9561 80.9972 45.9995 82.3034 44.7198Z" fill="#51703C"/>
<path d="M89.4561 6.59045C89.4561 6.59045 91.5417 3.86768 95.035 6.37376C98.5283 8.87984 95.9013 11.6733 95.9013 11.6733C95.9013 11.6733 93.3495 8.41819 89.4561 6.58574V6.59045Z" fill="#FFF9ED"/>
<path d="M90.6563 4.81475C91.8728 4.3482 93.5418 4.34355 95.4894 5.7407C96.457 6.43487 97.0569 7.19042 97.3679 7.97039C97.6798 8.75258 97.6765 9.49812 97.5394 10.1286C97.404 10.751 97.138 11.2646 96.9144 11.6159C96.8014 11.7932 96.6957 11.9347 96.6161 12.0342C96.5762 12.0841 96.5423 12.1241 96.5172 12.1529C96.5046 12.1673 96.4938 12.179 96.4857 12.1879C96.4817 12.1923 96.4784 12.1965 96.4756 12.1995L96.4695 12.2056L95.9013 11.6732L96.469 12.2066C96.3134 12.3721 96.0932 12.4612 95.8663 12.4511C95.6393 12.4409 95.4281 12.3321 95.288 12.1534L95.2656 12.1255C95.2486 12.1044 95.2218 12.072 95.186 12.0292C95.1142 11.9432 95.0051 11.8159 94.8618 11.6564C94.575 11.3373 94.1511 10.8901 93.6088 10.3872C92.532 9.38874 91.0083 8.18814 89.1846 7.31928C88.8802 7.20617 88.6768 6.91624 88.6768 6.59008V6.58552C88.6768 6.38109 88.7575 6.18802 88.8964 6.04445C88.9181 6.01894 88.9452 5.98752 88.9781 5.95165C89.0594 5.86304 89.1764 5.74465 89.3271 5.61444C89.6268 5.35558 90.0728 5.03851 90.6563 4.81475ZM94.5808 7.00641C93.0352 5.89761 91.9144 6.00085 91.2148 6.26909C91.0868 6.31819 90.9683 6.37539 90.8597 6.43542C92.4205 7.31471 93.718 8.36382 94.6685 9.24522C95.1329 9.67582 95.5173 10.0698 95.813 10.3882C95.8959 10.2103 95.9699 10.0113 96.0164 9.79745C96.0994 9.4163 96.0981 8.99335 95.9201 8.54696C95.7411 8.09843 95.3595 7.56512 94.5808 7.00641ZM90.0708 7.06827L90.0729 7.06624L90.0734 7.06523L90.0708 7.06827Z" fill="#51703C"/>
<path d="M91.3814 40.7522C91.2308 40.7522 91.0801 40.7051 90.9577 40.6108C90.7882 40.4837 90.6847 40.2858 90.6753 40.0738L90.5246 36.1216C90.5152 35.8672 90.6423 35.6317 90.8542 35.495C92.3842 34.5294 93.2646 32.1458 93.1563 29.2675C93.0575 26.7191 91.5462 26.3375 90.6517 26.3375C90.4728 26.3375 90.2892 26.3516 90.1056 26.3846C89.244 26.5259 88.3731 27.5623 88.1094 27.9485C87.9776 28.1464 87.7563 28.2595 87.5256 28.2595C87.4597 28.2595 87.3938 28.25 87.3326 28.2312C87.0407 28.1464 86.8336 27.8826 86.8194 27.5811C86.5322 20.0817 82.8082 16.1577 79.282 16.1577C79.2255 16.1577 79.1643 16.1577 79.1078 16.1577C75.8122 16.2849 73.1428 20.1006 73.1146 20.1382C72.9827 20.3267 72.7662 20.4444 72.5355 20.4444C72.3048 20.4444 72.0882 20.3314 71.9564 20.143C71.9423 20.1241 70.4875 18.1174 68.2936 18.1174C68.2465 18.1174 68.1995 18.1174 68.1524 18.1174C65.9726 18.2022 65.2146 20.1995 65.1817 20.2843C65.1157 20.468 64.9745 20.6187 64.7909 20.6941C64.7014 20.7318 64.6073 20.7506 64.5131 20.7506C64.419 20.7506 64.3201 20.7318 64.2306 20.6894C64.1506 20.6517 62.3098 19.7897 62.5499 16.4121C62.9595 10.6981 67.4886 8.66305 71.5939 8.66305C71.6316 8.66305 71.6692 8.66305 71.7022 8.66305C72.4131 7.76802 74.6917 5.43153 79.4468 4.83327C80.0494 4.7579 80.6897 4.72021 81.3488 4.72021C87.8081 4.72021 98.8906 8.57355 99.4509 23.0212C100.044 38.4204 91.904 40.6438 91.5603 40.7286C91.5039 40.7427 91.4474 40.7474 91.3909 40.7474L91.3814 40.7522Z" fill="#DE8459"/>
<path d="M81.3442 5.43158C87.9165 5.43158 98.2128 9.38855 98.7401 23.0495C99.3191 38.053 91.3815 40.0456 91.3815 40.0456L91.2309 36.0934C93.0905 34.9204 93.9756 32.2023 93.8626 29.2393C93.7638 26.6343 92.2525 25.631 90.6518 25.631C90.4305 25.631 90.2092 25.6498 89.988 25.6875C88.6321 25.9136 87.5257 27.5529 87.5257 27.5529C87.2056 19.2574 82.926 15.4512 79.2821 15.4512C79.2162 15.4512 79.1502 15.4512 79.0843 15.4512C75.398 15.5925 72.5403 19.7332 72.5403 19.7332C72.5403 19.7332 70.9066 17.4061 68.2984 17.4061C68.2419 17.4061 68.1854 17.4061 68.1289 17.4061C65.4218 17.5098 64.5226 20.0394 64.5226 20.0394C64.5226 20.0394 63.049 19.3799 63.2562 16.4593C63.7317 9.84077 69.8567 9.36971 71.594 9.36971C71.8859 9.36971 72.0554 9.38384 72.0554 9.38384C72.0554 9.38384 74.0186 6.2324 79.5363 5.53522C80.0966 5.46456 80.7039 5.42687 81.3489 5.42687M81.3442 4.01838C80.6521 4.01838 79.9836 4.06078 79.3527 4.13615C74.7907 4.71085 72.3567 6.8495 71.3727 7.96122C67.0084 8.03188 62.2769 10.2694 61.8391 16.3603C61.566 20.1619 63.694 21.2218 63.9341 21.3301C64.1177 21.4102 64.3155 21.4526 64.5085 21.4526C64.7015 21.4526 64.8851 21.4149 65.064 21.3395C65.4265 21.1841 65.7043 20.8873 65.8409 20.5152C65.9021 20.3597 66.5094 18.8853 68.1713 18.8193C68.209 18.8193 68.2466 18.8193 68.2843 18.8193C70.1063 18.8193 71.3586 20.5293 71.3727 20.5434C71.6364 20.9203 72.0695 21.1417 72.5262 21.1417H72.5309C72.9922 21.1417 73.4254 20.9109 73.689 20.534C74.3764 19.5448 76.7021 16.9539 79.1267 16.8597C79.1738 16.8597 79.2256 16.8597 79.2727 16.8597C82.4599 16.8597 85.8308 20.5481 86.1039 27.6047C86.1274 28.2171 86.5417 28.74 87.1255 28.9096C87.2526 28.9473 87.3845 28.9661 87.5116 28.9661C87.973 28.9661 88.4155 28.74 88.6839 28.3443C88.9993 27.8874 89.7008 27.1666 90.2092 27.0818C90.3552 27.0583 90.5011 27.0442 90.6424 27.0442C91.777 27.0442 92.3843 27.8026 92.4408 29.2911C92.5397 31.8773 91.7676 34.0772 90.4682 34.8968C90.0398 35.1654 89.7902 35.6411 89.8091 36.1452L89.9597 40.0974C89.9739 40.5214 90.181 40.9171 90.5247 41.1715C90.7695 41.3552 91.0708 41.4541 91.3721 41.4541C91.4851 41.4541 91.6028 41.44 91.7158 41.4117C92.083 41.3175 100.76 38.9575 100.143 22.993C99.564 8.01304 88.0483 4.01367 81.3347 4.01367L81.3442 4.01838Z" fill="#51703C"/>
<path d="M84.6445 135.654C76.7916 135.654 72.7993 132.841 72.6345 132.723C72.4933 132.625 72.3944 132.474 72.3567 132.304C70.7513 125.158 66.194 104.634 65.7044 102.434C64.7581 101.412 59.6076 95.5421 59.0662 88.316C58.6942 83.3132 60.2384 80.2372 60.8081 79.2903C59.3581 74.2735 60.4927 60.9517 60.5445 60.377C60.5633 60.1838 60.6575 60.0048 60.8081 59.8871C64.8805 56.6414 73.7315 54.7242 74.1081 54.6441C74.1552 54.6347 74.207 54.6299 74.254 54.6299C74.4377 54.6299 74.6166 54.7006 74.7531 54.8372C74.9226 55.0068 74.9932 55.247 74.9461 55.4826C74.932 55.5438 74.6401 57.1172 75.737 58.4644C76.8058 59.7787 78.8255 60.4618 81.735 60.49H81.8809C89.9692 60.49 94.776 53.4853 94.8231 53.4193C94.9549 53.2215 95.1762 53.1084 95.4116 53.1084C95.4587 53.1084 95.5058 53.1084 95.5481 53.1225C95.9483 53.2026 105.36 55.1151 110.505 58.4691C117.087 62.7653 129.394 84.1282 129.916 85.0373C130.095 85.3483 130.01 85.7439 129.723 85.9559L112.285 98.8773C112.158 98.9715 112.012 99.0139 111.866 99.0139C111.654 99.0139 111.447 98.9197 111.306 98.7407L107.243 93.5071L110.628 130.481C110.656 130.797 110.472 131.094 110.176 131.207C110.082 131.244 100.388 134.9 86.3629 135.616C85.7838 135.644 85.2048 135.658 84.6398 135.658L84.6445 135.654Z" fill="#FFF9ED"/>
<path d="M95.4068 53.8102C95.4068 53.8102 105.03 55.7368 110.119 59.0579C116.635 63.3069 129.304 85.3858 129.304 85.3858L111.866 98.3072L106.32 91.1611L109.926 130.542C109.926 130.542 100.402 134.188 86.3299 134.909C85.7508 134.937 85.1858 134.952 84.6444 134.952C76.9281 134.952 73.0487 132.153 73.0487 132.153C71.3397 124.55 66.354 102.095 66.354 102.095C66.354 102.095 60.3419 95.8906 59.7723 88.2687C59.3391 82.484 61.5848 79.3985 61.5848 79.3985C60.0077 74.7538 61.2506 60.4428 61.2506 60.4428C65.2382 57.2678 74.2587 55.3364 74.2587 55.3364C74.2587 55.3364 73.0581 61.107 81.7302 61.1965C81.782 61.1965 81.8291 61.1965 81.8808 61.1965C90.4635 61.1965 95.4068 53.8102 95.4068 53.8102ZM95.4068 52.397C94.9407 52.397 94.5029 52.6278 94.2345 53.0235C94.1874 53.0894 89.5736 59.788 81.8808 59.788H81.7443C79.1031 59.7598 77.22 59.1568 76.3019 58.0404C75.478 57.0417 75.6051 55.8593 75.6381 55.6473C75.6475 55.6002 75.6569 55.5531 75.6616 55.5013C75.7134 55.0726 75.5675 54.644 75.2567 54.3331C74.9931 54.0693 74.6353 53.9279 74.2681 53.9279C74.2069 53.9279 74.141 53.9279 74.0798 53.9421C74.0327 53.9468 73.9809 53.9562 73.9338 53.9703C73.2417 54.1211 64.4896 56.0619 60.3749 59.3452C60.0736 59.5855 59.8806 59.9435 59.8476 60.3297C59.7958 60.8997 58.6941 73.8447 60.0595 79.2101C59.3627 80.4773 58.0115 83.6052 58.3693 88.3865C58.906 95.542 63.8117 101.402 65.064 102.787C65.7231 105.755 70.1062 125.492 71.674 132.474C71.7493 132.813 71.9471 133.11 72.2248 133.312C72.399 133.439 76.5703 136.379 84.6491 136.379C85.2282 136.379 85.8167 136.365 86.4052 136.332C100.538 135.611 110.034 132.026 110.435 131.875C111.028 131.649 111.395 131.056 111.339 130.425L108.175 95.8576L110.759 99.1834C111.037 99.5414 111.456 99.7298 111.875 99.7298C112.167 99.7298 112.464 99.6403 112.713 99.4519L130.152 86.5305C130.726 86.1018 130.891 85.3151 130.538 84.6933C130.015 83.7795 117.624 62.2705 110.901 57.8896C105.642 54.4602 96.0989 52.5194 95.694 52.4394C95.5998 52.4205 95.5104 52.4111 95.4162 52.4111L95.4068 52.397Z" fill="#51703C"/>
<path d="M47.7199 82.3755C47.7199 82.3755 38.0403 95.1697 37.0752 97.5627C37.0752 97.5627 33.2382 99.9604 31.0113 102.796C28.7845 105.632 16.6003 124.611 15.475 126.072C15.475 126.072 8.67676 126.543 4.90097 131.282C2.58466 134.188 -1.06872 143.746 0.296591 145.206C1.87376 146.893 3.69574 144.42 6.96777 140.91C8.88862 138.852 11.2991 136.958 12.961 135.747C13.5307 135.333 15.0184 134.598 14.2557 136.529C13.4365 138.597 12.4761 141.603 12.5514 142.87C12.6362 144.363 13.8226 145.268 14.5664 145.159C15.1832 145.07 16.4731 141.678 17.9373 139.219C18.5352 138.216 18.9636 137.123 19.1708 135.969C19.4674 134.33 19.8864 132.059 20.1406 130.938C20.5644 129.058 40.8509 110.762 42.4611 109.137C44.0665 107.512 53.8355 95.5465 55.8788 91.5048C57.922 87.463 47.7246 82.3802 47.7246 82.3802L47.7199 82.3755Z" fill="#FFB689"/>
<path d="M41.51 87.3074C41.51 87.3074 56.3542 61.4552 63.8822 58.544C69.6495 56.3112 71.0807 56.3018 71.0807 56.3018C71.0807 56.3018 78.1897 70.3867 74.3151 75.9076C72.2859 78.7999 58.1574 98.9805 58.1574 98.9805L41.51 87.3074Z" fill="#FFF9ED"/>
<path d="M38.2606 86.1935C38.4933 85.8318 38.9756 85.7272 39.3376 85.9597L58.5837 98.3252C58.9456 98.5578 59.0502 99.0399 58.8176 99.4018C58.5849 99.7635 58.1026 99.8681 57.7406 99.6355L38.4944 87.2701C38.1326 87.0374 38.0279 86.5553 38.2606 86.1935Z" fill="#51703C"/>
<path d="M61.6811 79.2021C61.9041 78.8343 62.3835 78.7165 62.7515 78.9395C63.0966 79.1485 63.2215 79.5829 63.0519 79.9395L63.0143 80.0089C63.0139 80.0097 63.0127 80.0115 63.0113 80.014C63.0082 80.0192 63.0031 80.0281 62.996 80.0404C62.9817 80.0652 62.9596 80.1042 62.9306 80.157C62.8725 80.2628 62.7872 80.4237 62.6846 80.6347C62.4792 81.0569 62.2041 81.6791 61.9332 82.4643C61.3906 84.0371 60.8706 86.2491 60.9516 88.8141C61.1132 93.9297 62.8993 96.6163 66.3564 101.654C66.5997 102.009 66.5094 102.494 66.1545 102.737C65.7997 102.98 65.3149 102.89 65.0714 102.535C61.6173 97.5015 59.5711 94.4786 59.3937 88.8633C59.3052 86.0629 59.8727 83.6585 60.46 81.9562C60.754 81.104 61.0545 80.4237 61.2834 79.9532C61.3978 79.7179 61.4945 79.5346 61.5639 79.408C61.5987 79.3447 61.6267 79.2954 61.6466 79.261C61.6566 79.2438 61.6647 79.2302 61.6705 79.2204C61.6734 79.2155 61.6757 79.2113 61.6776 79.2082C61.6784 79.2069 61.679 79.2057 61.6796 79.2047C61.6799 79.2042 61.6804 79.2036 61.6806 79.2032L61.6811 79.2027C61.6835 79.2038 61.7155 79.223 62.1625 79.4937L61.6811 79.2021Z" fill="#51703C"/>
<path d="M101.389 84.7649C101.73 84.5017 102.219 84.5641 102.483 84.9044L112.482 97.8256C112.745 98.1658 112.683 98.6552 112.343 98.9184C112.002 99.1815 111.513 99.1191 111.25 98.7789L101.25 85.8577C100.987 85.5175 101.049 85.0281 101.389 84.7649Z" fill="#51703C"/>
</g>
<defs>
<clipPath id="clip0_254_11333">
<rect width="160" height="310" fill="white"/>
</clipPath>
</defs>
</svg>
