<svg width="58" height="41" viewBox="0 0 58 41" fill="none" xmlns="http://www.w3.org/2000/svg">
<path d="M26.5927 16.5561C19.6436 11.9196 12.6929 7.28679 5.74084 2.65772C4.35377 1.73844 2.92259 0.921583 1.48681 0.140153C1.24836 0.0133315 0.99167 -0.0287571 0.750293 0.0194055C0.50892 0.0675669 0.294064 0.203739 0.133818 0.410113C-0.139777 0.729406 0.0247196 1.55724 0.461579 1.95882C0.883444 2.34742 1.28545 2.77816 1.73013 3.11951C4.56739 5.29696 7.37028 7.55739 10.2665 9.59806C16.2171 13.79 22.2054 17.8944 28.2023 21.973C33.8924 25.8442 39.6171 29.6277 45.3166 33.4778C46.2315 34.096 47.0928 34.8461 47.9692 35.5562C48.023 35.6141 48.0653 35.6855 48.0922 35.7639C48.119 35.8423 48.1296 35.9252 48.1229 36.0051C48.0751 36.1739 47.9271 36.4116 47.8088 36.405C45.6267 36.2826 43.4448 36.2299 41.259 35.9596C36.1766 35.33 31.1502 35.3778 26.1223 35.434C25.2962 35.4436 24.4363 35.4389 23.8152 36.15C23.7024 36.2793 23.5163 36.5058 23.5547 36.6004C23.6787 36.9712 23.8747 37.3103 24.1251 37.5874C24.4119 37.8331 24.7412 37.9865 25.0764 38.0307C26.2585 38.1983 27.4423 38.3405 28.6227 38.43C37.0573 39.0713 45.4904 39.6811 53.9256 40.3363C57.1075 40.5838 58.9202 39.9609 57.169 34.5699C56.6643 33.0166 56.1495 31.457 55.5251 29.9548C52.6294 22.9882 49.7077 16.0342 46.7603 9.09263C46.3415 8.17153 45.8667 7.28251 45.3393 6.43394C45.0039 5.86062 44.4924 5.71865 43.9756 5.78206C43.4069 5.85212 42.7218 6.71383 42.6823 7.27002C42.5945 8.50532 42.9384 9.68899 43.3588 10.8344C44.9774 15.2447 46.6278 19.6422 48.2802 24.0388C49.3569 26.9032 50.4618 29.7539 51.5342 32.6193C51.587 32.7608 51.4859 33.0215 51.3893 33.1507C51.339 33.2019 51.2776 33.236 51.2102 33.2504C51.1429 33.2646 51.0716 33.2587 51.0026 33.2329C50.0588 32.6775 49.1067 32.1414 48.192 31.5137C40.9778 26.563 33.7678 21.6013 26.5623 16.6287L26.5927 16.5561Z" fill="white"/>
</svg>
