<svg width="325" height="150" viewBox="0 0 325 150" fill="none" xmlns="http://www.w3.org/2000/svg">
<path d="M156.805 3C88.2504 3 0 26.5429 0 76.8507C0 133.349 107.463 149.737 157.008 149.737C206.553 149.737 323.125 137.129 323.125 77.6625C323.125 23.524 224.366 3.02538 156.805 3.02538V3Z" fill="url(#paint0_linear_254_10845)"/>
<path d="M274.268 25.6807C337.708 56.7329 298.901 125.155 157.924 123.506C31.3763 122.034 -15.1663 62.0354 40.3846 26.5179C16.3371 38.4923 0 55.1855 0 76.8257C0 133.324 93.0851 149.713 157.008 149.713C215.613 149.713 323.125 137.104 323.125 77.6375C323.125 55.0841 304.982 28.8773 245.793 14.0107L274.268 25.6807Z" fill="url(#paint1_linear_254_10845)"/>
<path d="M161.563 123.556C241.179 123.556 305.72 96.5688 305.72 63.2781C305.72 29.9874 241.179 3 161.563 3C81.9475 3 17.406 29.9874 17.406 63.2781C17.406 96.5688 81.9475 123.556 161.563 123.556Z" stroke="#FCE2C1" stroke-width="0.1" stroke-linecap="round" stroke-linejoin="round"/>
<path d="M161.564 122.186C240.266 122.186 304.068 95.5962 304.068 62.796C304.068 29.9957 240.266 3.40576 161.564 3.40576C82.8614 3.40576 19.0605 29.9957 19.0605 62.796C19.0605 95.5962 82.8614 122.186 161.564 122.186Z" stroke="#FCE2C1" stroke-width="0.1" stroke-linecap="round" stroke-linejoin="round"/>
<path d="M161.564 120.816C239.366 120.816 302.44 94.624 302.44 62.3143C302.44 30.0043 239.366 3.81201 161.564 3.81201C83.7607 3.81201 20.6887 30.0043 20.6887 62.3143C20.6887 94.624 83.7607 120.816 161.564 120.816Z" stroke="#FCE2C1" stroke-width="0.1" stroke-linecap="round" stroke-linejoin="round"/>
<path d="M161.563 119.421C238.466 119.421 300.809 93.6261 300.809 61.8066C300.809 29.9872 238.466 4.19238 161.563 4.19238C84.6594 4.19238 22.3167 29.9872 22.3167 61.8066C22.3167 93.6261 84.6594 119.421 161.563 119.421Z" stroke="#FCE2C1" stroke-width="0.1" stroke-linecap="round" stroke-linejoin="round"/>
<path d="M161.563 118.051C237.553 118.051 299.155 92.6535 299.155 61.3245C299.155 29.9954 237.553 4.59814 161.563 4.59814C85.5734 4.59814 23.9712 29.9954 23.9712 61.3245C23.9712 92.6535 85.5734 118.051 161.563 118.051Z" stroke="#FCE2C1" stroke-width="0.1" stroke-linecap="round" stroke-linejoin="round"/>
<path d="M161.564 116.707C236.655 116.707 297.528 91.6956 297.528 60.8427C297.528 29.9901 236.655 4.979 161.564 4.979C86.4739 4.979 25.6008 29.9901 25.6008 60.8427C25.6008 91.6956 86.4739 116.707 161.564 116.707Z" stroke="#FCE2C1" stroke-width="0.1" stroke-linecap="round" stroke-linejoin="round"/>
<path d="M161.563 115.337C235.74 115.337 295.872 90.723 295.872 60.3606C295.872 29.9983 235.74 5.38477 161.563 5.38477C87.3861 5.38477 27.2537 29.9983 27.2537 60.3606C27.2537 90.723 87.3861 115.337 161.563 115.337Z" stroke="#FCE2C1" stroke-width="0.1" stroke-linecap="round" stroke-linejoin="round"/>
<path d="M161.564 113.966C234.842 113.966 294.245 89.7504 294.245 59.8785C294.245 30.0066 234.842 5.79053 161.564 5.79053C88.2866 5.79053 28.8833 30.0066 28.8833 59.8785C28.8833 89.7504 88.2866 113.966 161.564 113.966Z" stroke="#FCE2C1" stroke-width="0.1" stroke-linecap="round" stroke-linejoin="round"/>
<path d="M161.563 112.597C233.927 112.597 292.59 88.7782 292.59 59.3968C292.59 30.0151 233.927 6.19678 161.563 6.19678C89.1992 6.19678 30.5364 30.0151 30.5364 59.3968C30.5364 88.7782 89.1992 112.597 161.563 112.597Z" stroke="#FCE2C1" stroke-width="0.1" stroke-linecap="round" stroke-linejoin="round"/>
<path d="M161.564 111.201C233.029 111.201 290.962 87.7803 290.962 58.8891C290.962 29.9981 233.029 6.57715 161.564 6.57715C90.0994 6.57715 32.166 29.9981 32.166 58.8891C32.166 87.7803 90.0994 111.201 161.564 111.201Z" stroke="#FCE2C1" stroke-width="0.1" stroke-linecap="round" stroke-linejoin="round"/>
<path d="M161.563 109.831C232.114 109.831 289.307 86.8077 289.307 58.407C289.307 30.0063 232.114 6.98291 161.563 6.98291C91.0119 6.98291 33.8188 30.0063 33.8188 58.407C33.8188 86.8077 91.0119 109.831 161.563 109.831Z" stroke="#FCE2C1" stroke-width="0.1" stroke-linecap="round" stroke-linejoin="round"/>
<path d="M161.564 108.462C231.216 108.462 287.679 85.8358 287.679 57.9253C287.679 30.0151 231.216 7.38916 161.564 7.38916C91.9121 7.38916 35.4485 30.0151 35.4485 57.9253C35.4485 85.8358 91.9121 108.462 161.564 108.462Z" stroke="#FCE2C1" stroke-width="0.1" stroke-linecap="round" stroke-linejoin="round"/>
<defs>
<linearGradient id="paint0_linear_254_10845" x1="0" y1="76.3689" x2="323.125" y2="76.3689" gradientUnits="userSpaceOnUse">
<stop stop-color="#FFEACF"/>
<stop offset="0.15" stop-color="#FFF3E0"/>
<stop offset="0.31" stop-color="#FFF9EC"/>
<stop offset="0.49" stop-color="#FFFBF0"/>
<stop offset="0.77" stop-color="#FFF9EE"/>
<stop offset="0.87" stop-color="#FFF6E7"/>
<stop offset="0.95" stop-color="#FFF0DB"/>
<stop offset="1" stop-color="#FFEACF"/>
</linearGradient>
<linearGradient id="paint1_linear_254_10845" x1="161.97" y1="94.8635" x2="163.109" y2="144.816" gradientUnits="userSpaceOnUse">
<stop stop-color="#FFECD4"/>
<stop offset="1" stop-color="#FCE2C1"/>
</linearGradient>
</defs>
</svg>
