<svg width="43" height="20" viewBox="0 0 43 20" fill="none" xmlns="http://www.w3.org/2000/svg">
<g clip-path="url(#clip0_254_9131)">
<path d="M20.7465 0.399902C11.6762 0.399902 0 3.53896 0 10.2467C0 17.7797 14.2182 19.9649 20.7734 19.9649C27.3286 19.9649 42.752 18.2837 42.752 10.3549C42.752 3.13643 29.6854 0.403286 20.7465 0.403286V0.399902Z" fill="url(#paint0_linear_254_9131)"/>
<path d="M36.2878 3.42416C44.6814 7.56446 39.5469 16.6874 20.8946 16.4675C4.15133 16.2713 -2.00662 8.27146 5.34319 3.53579C2.16153 5.13238 0 7.35814 0 10.2435C0 17.7766 12.3159 19.9617 20.7734 19.9617C28.5272 19.9617 42.752 18.2806 42.752 10.3517C42.752 7.34462 40.3515 3.85037 32.5203 1.86816L36.2878 3.42416Z" fill="url(#paint1_linear_254_9131)"/>
<path d="M21.3761 16.4741C31.9099 16.4741 40.4491 12.8757 40.4491 8.43698C40.4491 3.99823 31.9099 0.399902 21.3761 0.399902C10.8423 0.399902 2.30298 3.99823 2.30298 8.43698C2.30298 12.8757 10.8423 16.4741 21.3761 16.4741Z" stroke="#FCE2C1" stroke-width="0.1" stroke-linecap="round" stroke-linejoin="round"/>
<path d="M21.3762 16.2915C31.7892 16.2915 40.2306 12.7462 40.2306 8.3728C40.2306 3.99942 31.7892 0.454102 21.3762 0.454102C10.9633 0.454102 2.52197 3.99942 2.52197 8.3728C2.52197 12.7462 10.9633 16.2915 21.3762 16.2915Z" stroke="#FCE2C1" stroke-width="0.1" stroke-linecap="round" stroke-linejoin="round"/>
<path d="M21.3761 16.1089C31.6701 16.1089 40.0151 12.6166 40.0151 8.30861C40.0151 4.00061 31.6701 0.508301 21.3761 0.508301C11.0822 0.508301 2.7373 4.00061 2.7373 8.30861C2.7373 12.6166 11.0822 16.1089 21.3761 16.1089Z" stroke="#FCE2C1" stroke-width="0.1" stroke-linecap="round" stroke-linejoin="round"/>
<path d="M21.376 15.9229C31.5509 15.9229 39.7993 12.4836 39.7993 8.24098C39.7993 3.99839 31.5509 0.559082 21.376 0.559082C11.2011 0.559082 2.95264 3.99839 2.95264 8.24098C2.95264 12.4836 11.2011 15.9229 21.376 15.9229Z" stroke="#FCE2C1" stroke-width="0.1" stroke-linecap="round" stroke-linejoin="round"/>
<path d="M21.3761 15.7403C31.4302 15.7403 39.5806 12.354 39.5806 8.1768C39.5806 3.99959 31.4302 0.613281 21.3761 0.613281C11.3221 0.613281 3.17163 3.99959 3.17163 8.1768C3.17163 12.354 11.3221 15.7403 21.3761 15.7403Z" stroke="#FCE2C1" stroke-width="0.1" stroke-linecap="round" stroke-linejoin="round"/>
<path d="M21.3762 15.5611C31.3113 15.5611 39.3652 12.2263 39.3652 8.11255C39.3652 3.99887 31.3113 0.664062 21.3762 0.664062C11.4412 0.664062 3.38721 3.99887 3.38721 8.11255C3.38721 12.2263 11.4412 15.5611 21.3762 15.5611Z" stroke="#FCE2C1" stroke-width="0.1" stroke-linecap="round" stroke-linejoin="round"/>
<path d="M21.3761 15.378C31.1903 15.378 39.1463 12.0962 39.1463 8.04789C39.1463 3.99958 31.1903 0.717773 21.3761 0.717773C11.5619 0.717773 3.60596 3.99958 3.60596 8.04789C3.60596 12.0962 11.5619 15.378 21.3761 15.378Z" stroke="#FCE2C1" stroke-width="0.1" stroke-linecap="round" stroke-linejoin="round"/>
<path d="M21.3762 15.1954C31.0714 15.1954 38.9309 11.9666 38.9309 7.9837C38.9309 4.00078 31.0714 0.771973 21.3762 0.771973C11.681 0.771973 3.82153 4.00078 3.82153 7.9837C3.82153 11.9666 11.681 15.1954 21.3762 15.1954Z" stroke="#FCE2C1" stroke-width="0.1" stroke-linecap="round" stroke-linejoin="round"/>
<path d="M21.3761 15.0128C30.9504 15.0128 38.712 11.837 38.712 7.91951C38.712 4.00195 30.9504 0.826172 21.3761 0.826172C11.8018 0.826172 4.04028 4.00195 4.04028 7.91951C4.04028 11.837 11.8018 15.0128 21.3761 15.0128Z" stroke="#FCE2C1" stroke-width="0.1" stroke-linecap="round" stroke-linejoin="round"/>
<path d="M21.3762 14.8268C30.8315 14.8268 38.4966 11.704 38.4966 7.85188C38.4966 3.99974 30.8315 0.876953 21.3762 0.876953C11.9209 0.876953 4.25586 3.99974 4.25586 7.85188C4.25586 11.704 11.9209 14.8268 21.3762 14.8268Z" stroke="#FCE2C1" stroke-width="0.1" stroke-linecap="round" stroke-linejoin="round"/>
<path d="M21.3761 14.6443C30.7106 14.6443 38.2776 11.5745 38.2776 7.7877C38.2776 4.00094 30.7106 0.931152 21.3761 0.931152C12.0417 0.931152 4.47461 4.00094 4.47461 7.7877C4.47461 11.5745 12.0417 14.6443 21.3761 14.6443Z" stroke="#FCE2C1" stroke-width="0.1" stroke-linecap="round" stroke-linejoin="round"/>
<path d="M21.3762 14.4617C30.5917 14.4617 38.0623 11.4449 38.0623 7.72351C38.0623 4.00215 30.5917 0.985352 21.3762 0.985352C12.1608 0.985352 4.69019 4.00215 4.69019 7.72351C4.69019 11.4449 12.1608 14.4617 21.3762 14.4617Z" stroke="#FCE2C1" stroke-width="0.1" stroke-linecap="round" stroke-linejoin="round"/>
</g>
<defs>
<linearGradient id="paint0_linear_254_9131" x1="0" y1="10.1824" x2="42.752" y2="10.1824" gradientUnits="userSpaceOnUse">
<stop stop-color="#FFEACF"/>
<stop offset="0.15" stop-color="#FFF3E0"/>
<stop offset="0.31" stop-color="#FFF9EC"/>
<stop offset="0.49" stop-color="#FFFBF0"/>
<stop offset="0.77" stop-color="#FFF9EE"/>
<stop offset="0.87" stop-color="#FFF6E7"/>
<stop offset="0.95" stop-color="#FFF0DB"/>
<stop offset="1" stop-color="#FFEACF"/>
</linearGradient>
<linearGradient id="paint1_linear_254_9131" x1="21.4299" y1="12.6485" x2="21.5829" y2="19.3089" gradientUnits="userSpaceOnUse">
<stop stop-color="#FFECD4"/>
<stop offset="1" stop-color="#FCE2C1"/>
</linearGradient>
<clipPath id="clip0_254_9131">
<rect width="43" height="20" fill="white"/>
</clipPath>
</defs>
</svg>
