<svg width="109" height="109" viewBox="0 0 109 109" fill="none" xmlns="http://www.w3.org/2000/svg">
<path d="M53.9095 108.092C83.6829 108.092 107.819 83.9561 107.819 54.1827C107.819 24.4093 83.6829 0.273193 53.9095 0.273193C24.1361 0.273193 0 24.4093 0 54.1827C0 83.9561 24.1361 108.092 53.9095 108.092Z" fill="#5D965B"/>
<path d="M99.7719 62.5667C104.576 37.6199 88.2468 13.5022 63.3 8.69831C38.3532 3.89441 14.2355 20.2234 9.43164 45.1702C4.62773 70.117 20.9568 94.2347 45.9035 99.0386C70.8503 103.842 94.968 87.5135 99.7719 62.5667Z" fill="#79B177"/>
<path d="M84.2672 32.3676C80.9484 29.57 77.9658 33.5489 75.1709 36.8677L50.11 66.3676L32.6709 49.8677C29.5564 46.8449 27.6348 44.7558 24.612 47.8677C21.5891 50.9822 22.441 54.4865 25.5529 57.5093L44.2451 75.6489C45.7146 77.0764 47.6791 77.8675 49.717 77.8675C49.848 77.8675 49.979 77.8649 50.11 77.857C52.2867 77.747 54.322 76.7385 55.726 75.0726L84.2672 41.2008C87.0674 37.8846 87.5861 35.1625 84.2672 32.3676Z" fill="#5D965B"/>
</svg>
