<svg width="477" height="564" viewBox="0 0 477 564" fill="none" xmlns="http://www.w3.org/2000/svg">
<g filter="url(#filter0_d_373_2026)">
<g clip-path="url(#clip0_373_2026)">
<g clip-path="url(#clip1_373_2026)">
<path d="M-12.0806 475.402C-12.0806 475.402 1.68869 383.845 99.5701 375.97C197.445 368.095 335.163 356.279 335.163 356.279C335.163 356.279 402.543 380.396 449.763 463.586C496.978 546.776 485.177 614.701 485.177 614.701C485.177 614.701 77.435 695.429 -12.0806 565.479C-12.0806 565.479 -17.4902 527.576 -12.0806 475.402Z" fill="#977A67"/>
<path d="M194.822 46.174C194.822 46.174 188.098 41.2452 170.561 46.174C144.107 53.6127 98.098 111.807 80.064 173.499C62.03 235.192 73.1763 283.759 73.1763 283.759C73.1763 283.759 43.0086 309.028 41.373 340.856C39.7314 372.684 49.5692 395 83.0141 404.846C116.459 414.692 171.573 372.436 171.573 372.436L214.498 358.577L194.822 46.174Z" fill="#392419"/>
<path d="M170.479 45.882C179.283 43.4076 185.393 43.4019 189.316 44.0259C191.277 44.3379 192.689 44.807 193.616 45.2017C194.08 45.399 194.422 45.5776 194.65 45.7085C194.764 45.774 194.85 45.828 194.908 45.866C194.937 45.8849 194.96 45.8997 194.975 45.9104C194.983 45.9158 194.989 45.9203 194.994 45.9234C194.996 45.9249 194.998 45.926 194.999 45.927C195 45.9275 195 45.9284 195.001 45.9288C195.001 45.9289 195.001 45.9306 194.85 46.1366L195.002 45.9293L195.116 46.0134L214.8 358.557L214.816 358.793L214.591 358.865L171.715 372.708C171.688 372.728 171.649 372.759 171.597 372.799C171.491 372.879 171.333 372.997 171.127 373.151C170.714 373.459 170.104 373.909 169.317 374.478C167.742 375.616 165.455 377.23 162.607 379.136C156.911 382.948 148.967 387.929 139.975 392.602C130.984 397.274 120.938 401.644 111.038 404.228C101.142 406.812 91.3647 407.62 82.929 405.137C66.1522 400.198 55.2595 392.119 48.7766 381.25C42.2985 370.389 40.2483 356.784 41.0707 340.84C41.893 324.839 49.884 310.506 57.6461 300.19C61.5295 295.028 65.3617 290.864 68.223 287.99C69.6537 286.553 70.8422 285.438 71.6736 284.682C72.0892 284.304 72.4157 284.016 72.6385 283.822C72.7204 283.751 72.7882 283.692 72.8414 283.646C72.8211 283.553 72.7933 283.424 72.7592 283.26C72.6815 282.887 72.5702 282.333 72.435 281.607C72.1646 280.154 71.7992 278.011 71.4169 275.248C70.6524 269.721 69.8211 261.711 69.5546 251.772C69.0216 231.894 70.7459 204.297 79.7735 173.414C88.8018 142.53 104.83 112.526 121.911 89.312C130.452 77.7044 139.261 67.7879 147.594 60.3054C155.923 52.8282 163.8 47.7603 170.479 45.882ZM189.221 44.6251C185.397 44.0169 179.376 44.0112 170.643 46.4657C164.095 48.3069 156.301 53.303 147.999 60.7571C139.703 68.206 130.921 78.0891 122.399 89.6714C105.354 112.837 89.3608 142.777 80.3551 173.584C71.3487 204.394 69.6287 231.927 70.1604 251.756C70.4262 261.67 71.2549 269.657 72.0168 275.164C72.3977 277.918 72.762 280.052 73.0307 281.496C73.1651 282.218 73.2757 282.768 73.3525 283.136C73.3909 283.321 73.421 283.46 73.4413 283.553C73.4514 283.599 73.4592 283.634 73.4644 283.657C73.4669 283.668 73.4684 283.677 73.4697 283.683C73.4703 283.686 73.4711 283.688 73.4715 283.689V283.69L73.472 283.691L73.5135 283.872L73.3709 283.991L73.3697 283.992C73.3689 283.993 73.3677 283.994 73.3662 283.995C73.3627 283.998 73.3573 284.003 73.3502 284.009C73.336 284.021 73.3144 284.039 73.2863 284.063C73.2299 284.111 73.1458 284.183 73.0361 284.279C72.8162 284.47 72.493 284.756 72.0807 285.131C71.2559 285.881 70.0749 286.989 68.6519 288.419C65.8056 291.277 61.993 295.42 58.13 300.554C50.3996 310.829 42.4892 325.045 41.6759 340.871C40.8566 356.756 42.9049 370.223 49.2966 380.939C55.6834 391.647 66.4321 399.649 83.1 404.555C91.3867 406.995 101.041 406.212 110.885 403.642C120.725 401.073 130.728 396.724 139.696 392.064C148.663 387.404 156.587 382.435 162.27 378.632C165.112 376.73 167.393 375.121 168.962 373.986C169.747 373.419 170.354 372.971 170.765 372.665C170.97 372.512 171.126 372.394 171.231 372.315L171.379 372.202C171.382 372.2 171.385 372.198 171.387 372.197C171.387 372.196 171.388 372.196 171.388 372.195C171.39 372.196 171.402 372.212 171.573 372.436L171.388 372.195L171.43 372.163L171.48 372.147L214.181 358.36L194.53 46.3444C194.484 46.3153 194.424 46.2779 194.349 46.2348C194.141 46.1155 193.82 45.9472 193.379 45.7594C192.497 45.3841 191.133 44.9292 189.221 44.6251Z" fill="#564234"/>
<path d="M190.557 92.1157C173.184 92.5219 153.175 98.0206 142.356 119.355C131.537 140.683 121.372 168.576 122.353 173.827C123.334 179.077 129.895 196.798 129.895 196.798C129.895 196.798 123.334 219.441 124.649 230.269C125.964 241.097 152.194 297.211 152.848 299.837C153.502 302.462 159.36 315.514 169.24 317.23C172.99 317.879 177.109 317.23 177.109 317.23C177.109 317.23 190.551 337.903 197.439 343.481C197.439 343.481 196.458 358.576 197.439 363.827C197.439 363.827 138.418 382.53 116.447 394.345C116.447 394.345 126.812 403.821 145.276 419.808C182.688 452.194 237.802 454.413 277.208 424.488C277.62 424.173 278.026 423.864 278.425 423.549L258.75 279.654C258.75 279.654 279.407 250.942 280.061 205.328C280.715 159.713 246.943 90.8002 190.545 92.1157H190.557Z" fill="#BF835B"/>
<path d="M192.514 90.103C192.514 90.103 226.026 92.1037 237.778 118.373C246.677 138.264 238.432 167.267 238.432 167.267C238.432 167.267 251.22 162.672 256.793 172.19C262.366 181.708 268.267 222.727 261.058 262.758C253.843 302.795 228.922 343.487 239.086 380.565C249.251 417.644 304.008 451.776 361.066 421.912C361.066 421.912 414.186 435.062 443.366 406.337C472.547 377.613 474.843 351.689 467.628 319.528C460.413 287.366 430.578 215.501 415.161 188.595C399.75 161.683 331.195 43.8762 264.002 35.6735C216.951 29.9323 192.508 47.3803 192.508 47.3803V90.097L192.514 90.103Z" fill="#392419"/>
<path d="M210.171 37.9237C222.163 34.2795 239.875 31.3638 263.076 34.0375L264.185 34.169L264.991 34.2726C281.904 36.5515 298.763 45.5461 314.734 58.0497C330.972 70.7633 346.403 87.1928 360.175 104.163C387.721 138.104 408.762 174.373 416.475 187.841L417.213 189.143C424.943 202.933 435.901 226.946 445.874 251.52C456.165 276.878 465.469 302.984 469.105 319.196C472.737 335.384 474.013 350.162 470.619 364.569C467.22 378.998 459.174 392.903 444.428 407.418C429.429 422.183 408.377 426.106 391.3 426.412C382.736 426.565 375.1 425.81 369.605 425.018C366.857 424.622 364.641 424.215 363.107 423.907C362.34 423.753 361.743 423.623 361.336 423.531C361.312 423.525 361.289 423.52 361.267 423.515C303.552 453.357 248.023 418.89 237.626 380.966C232.425 361.994 236.227 342.201 242.103 322.341C248.021 302.335 255.978 282.407 259.567 262.489C263.144 242.624 263.471 222.493 262.208 206.149C261.577 197.978 260.551 190.774 259.342 185.04C258.124 179.256 256.749 175.112 255.486 172.956C253.072 168.833 249.111 167.712 245.506 167.674C243.706 167.656 242.052 167.913 240.841 168.178C240.239 168.31 239.753 168.443 239.423 168.541C239.258 168.59 239.133 168.63 239.051 168.657C239.01 168.671 238.98 168.681 238.962 168.687C238.953 168.69 238.947 168.692 238.944 168.693H238.942L238.942 168.694H238.942C238.408 168.885 237.812 168.762 237.398 168.374C236.983 167.986 236.82 167.399 236.975 166.852C236.975 166.852 236.976 166.851 236.976 166.85C236.977 166.847 236.978 166.843 236.98 166.837C236.983 166.825 236.989 166.805 236.996 166.779C237.01 166.728 237.032 166.648 237.06 166.544C237.116 166.334 237.198 166.021 237.3 165.614C237.504 164.799 237.786 163.608 238.099 162.114C238.724 159.125 239.467 154.933 239.935 150.132C240.876 140.478 240.682 128.574 236.396 118.992C230.746 106.364 219.843 99.509 210.196 95.802C205.383 93.9523 200.922 92.9034 197.666 92.3178C196.04 92.0253 194.717 91.8492 193.807 91.7465C193.352 91.6952 193.001 91.6623 192.765 91.6423C192.648 91.6324 192.56 91.6251 192.502 91.621C192.474 91.6189 192.453 91.6177 192.439 91.6169C192.433 91.6164 192.428 91.6164 192.425 91.6163C192.424 91.6162 192.424 91.6157 192.423 91.6157L192.424 91.6151C192.054 91.593 191.704 91.4363 191.442 91.1734L191.436 91.1675C191.153 90.8834 190.994 90.4984 190.994 90.0971V47.3804C190.994 46.8907 191.23 46.4311 191.628 46.1466L192.508 47.3804C191.669 46.2026 191.631 46.1484 191.63 46.1454C191.631 46.1452 191.632 46.1442 191.633 46.1437C191.634 46.1425 191.636 46.1411 191.638 46.1395C191.643 46.1362 191.649 46.1318 191.657 46.1265C191.672 46.1157 191.694 46.1009 191.721 46.0821C191.776 46.0444 191.855 45.9903 191.957 45.9222C192.163 45.7861 192.464 45.5918 192.859 45.3491C193.651 44.8638 194.824 44.1853 196.374 43.3936C199.474 41.8103 204.082 39.774 210.171 37.9237ZM263.818 37.1771C240.514 34.3336 222.853 37.2375 211.051 40.8241C205.148 42.6182 200.705 44.5852 197.751 46.0939C196.274 46.8483 195.17 47.4882 194.441 47.9346C194.284 48.0309 194.145 48.1182 194.023 48.1957V88.7206C194.063 88.7251 194.105 88.7294 194.147 88.7342C195.115 88.8435 196.503 89.029 198.202 89.3345C201.596 89.945 206.249 91.038 211.282 92.972C221.329 96.8327 233.057 104.112 239.16 117.753C243.772 128.062 243.906 140.605 242.949 150.426C242.468 155.362 241.706 159.665 241.064 162.735C240.871 163.654 240.688 164.463 240.528 165.147C241.856 164.874 243.612 164.623 245.538 164.643C249.721 164.687 254.941 166.028 258.1 171.423C259.624 174.026 261.076 178.579 262.306 184.415C263.546 190.3 264.589 197.637 265.228 205.915C266.507 222.467 266.179 242.862 262.548 263.027C258.922 283.147 250.811 303.583 245.007 323.202C239.159 342.967 235.583 362.058 240.547 380.164C250.45 416.288 304.141 449.996 360.364 420.569L360.489 420.51C360.786 420.388 361.115 420.363 361.429 420.44H361.429L361.43 420.441C361.431 420.441 361.433 420.442 361.435 420.442C361.44 420.443 361.449 420.445 361.46 420.448C361.483 420.454 361.519 420.462 361.567 420.474C361.663 420.496 361.809 420.531 362.002 420.574C362.387 420.661 362.961 420.785 363.703 420.935C365.189 421.233 367.35 421.63 370.037 422.018C375.415 422.793 382.883 423.53 391.246 423.38C408.025 423.08 428.124 419.216 442.304 405.257C456.739 391.048 464.431 377.628 467.671 363.873C470.916 350.098 469.733 335.833 466.15 319.86C462.572 303.91 453.351 278.002 443.067 252.661C432.786 227.328 421.504 202.711 413.847 189.349V189.349C406.149 175.906 385.207 139.815 357.824 106.074C344.132 89.2031 328.862 72.9606 312.867 60.4374C296.857 47.9027 280.231 39.1814 263.818 37.1777V37.1771Z" fill="#392419"/>
<path d="M46.6191 376.479C46.6191 376.479 59.7281 404.033 92.8399 406.319C119.67 408.174 156.786 401.239 177.443 351.689" fill="#392419"/>
<path d="M176.045 351.106C176.367 350.333 177.254 349.968 178.026 350.291C178.798 350.613 179.163 351.501 178.84 352.273C168.388 377.345 153.71 391.758 138.139 399.633C123.086 407.247 107.332 408.684 94.0164 407.913L92.7356 407.831C75.7437 406.659 63.8685 398.992 56.2601 391.632C52.4596 387.955 49.7191 384.352 47.9253 381.662C47.0279 380.316 46.3658 379.196 45.9252 378.407C45.7049 378.012 45.5393 377.7 45.4277 377.483C45.3719 377.375 45.3298 377.29 45.3005 377.23C45.2859 377.201 45.2743 377.178 45.2662 377.161C45.2621 377.153 45.2591 377.146 45.2567 377.141C45.2555 377.138 45.2546 377.136 45.2538 377.134C45.2534 377.134 45.2528 377.133 45.2526 377.133C45.2522 377.132 45.2518 377.131 46.6191 376.479L45.252 377.131C44.8925 376.375 45.2128 375.471 45.9678 375.111C46.7226 374.751 47.6257 375.072 47.9857 375.827L47.991 375.837C47.9957 375.847 48.0041 375.864 48.0152 375.886C48.0376 375.932 48.0729 376.002 48.1211 376.095C48.2177 376.283 48.3662 376.565 48.569 376.928C48.9746 377.655 49.5953 378.706 50.4443 379.979C52.1432 382.527 54.7493 385.955 58.3649 389.453C65.5889 396.441 76.8241 403.695 92.9439 404.807H92.9445C106.194 405.723 121.882 404.46 136.773 396.928C151.632 389.412 165.84 375.583 176.045 351.106Z" fill="#564234"/>
<path d="M177.906 232.485C178.244 231.722 179.136 231.376 179.9 231.712C180.665 232.049 181.013 232.944 180.676 233.71L179.29 233.1L180.676 233.712L180.673 233.717C180.672 233.719 180.672 233.721 180.67 233.724C180.668 233.729 180.665 233.735 180.662 233.743C180.655 233.757 180.647 233.775 180.637 233.795C180.617 233.837 180.59 233.89 180.556 233.955C180.488 234.084 180.391 234.258 180.26 234.461C180.001 234.864 179.606 235.396 179.048 235.928C177.916 237.008 176.122 238.078 173.553 238.078C171.143 238.078 169.043 237.346 167.35 236.644C166.926 236.468 166.518 236.29 166.141 236.126C165.759 235.959 165.412 235.808 165.083 235.674C164.407 235.398 163.916 235.242 163.54 235.19C163.032 235.12 162.808 235.191 162.734 235.23C162.566 235.986 161.848 236.504 161.065 236.404C160.235 236.299 159.648 235.54 159.753 234.71L161.247 234.899C159.754 234.71 159.754 234.709 159.754 234.708C159.754 234.707 159.754 234.706 159.754 234.705C159.754 234.704 159.754 234.702 159.755 234.701C159.755 234.697 159.756 234.694 159.756 234.691C159.757 234.684 159.758 234.677 159.759 234.669C159.762 234.654 159.764 234.636 159.768 234.618C159.774 234.58 159.783 234.535 159.795 234.485C159.819 234.385 159.856 234.258 159.912 234.115C160.023 233.831 160.218 233.463 160.559 233.116C161.301 232.358 162.441 231.979 163.952 232.187C164.723 232.293 165.506 232.573 166.225 232.866C166.593 233.016 166.974 233.182 167.351 233.346C167.733 233.513 168.114 233.68 168.509 233.843C170.091 234.499 171.747 235.046 173.553 235.046C175.2 235.046 176.275 234.385 176.958 233.734C177.307 233.401 177.555 233.067 177.713 232.821C177.791 232.7 177.845 232.603 177.876 232.543C177.892 232.513 177.902 232.492 177.907 232.483L177.907 232.482C177.907 232.482 177.907 232.484 177.906 232.485ZM162.741 235.189C162.741 235.188 162.742 235.187 162.742 235.187C162.744 235.177 162.747 235.165 162.75 235.15C162.751 235.142 162.752 235.133 162.754 235.124C162.755 235.119 162.756 235.114 162.756 235.108C162.757 235.106 162.757 235.103 162.757 235.1L162.741 235.189Z" fill="#564234"/>
<path d="M197.282 158.858C204.129 158.858 210.969 160.419 216.06 161.957C218.613 162.729 220.745 163.501 222.242 164.081C222.99 164.371 223.581 164.614 223.987 164.785C224.19 164.871 224.347 164.939 224.454 164.985C224.508 165.009 224.55 165.027 224.578 165.04C224.593 165.046 224.604 165.051 224.611 165.055C224.615 165.057 224.619 165.058 224.621 165.059C224.622 165.059 224.623 165.06 224.624 165.06L224.624 165.061C224.625 165.061 224.625 165.061 224.182 166.045L224.625 165.061C225.387 165.405 225.727 166.303 225.383 167.066C225.039 167.829 224.142 168.168 223.38 167.824L223.379 167.824C223.378 167.823 223.376 167.822 223.374 167.821C223.369 167.819 223.36 167.816 223.349 167.811C223.326 167.8 223.29 167.784 223.242 167.763C223.146 167.721 223.001 167.659 222.811 167.579C222.43 167.418 221.867 167.186 221.148 166.908C219.709 166.35 217.651 165.605 215.184 164.859C210.234 163.363 203.713 161.89 197.282 161.89C189.585 161.89 184.228 163.173 180.835 164.422C179.137 165.047 177.925 165.665 177.153 166.114C176.767 166.339 176.491 166.521 176.318 166.641C176.232 166.702 176.172 166.746 176.137 166.773C176.122 166.784 176.111 166.792 176.105 166.797C175.458 167.326 174.506 167.232 173.976 166.585C173.445 165.938 173.54 164.983 174.186 164.452L175.083 165.546C174.186 164.452 174.187 164.451 174.188 164.451C174.188 164.451 174.189 164.45 174.189 164.45C174.19 164.449 174.192 164.448 174.193 164.447C174.195 164.445 174.198 164.442 174.202 164.44C174.209 164.434 174.217 164.427 174.227 164.419C174.247 164.403 174.275 164.382 174.308 164.357C174.374 164.307 174.466 164.239 174.586 164.155C174.825 163.989 175.171 163.761 175.63 163.494C176.55 162.958 177.922 162.264 179.79 161.576C183.53 160.2 189.241 158.858 197.282 158.858ZM176.106 166.797L176.104 166.798C176.104 166.799 176.103 166.799 176.103 166.799C176.101 166.8 176.1 166.801 176.1 166.801C176.1 166.802 176.101 166.801 176.103 166.799C176.104 166.798 176.104 166.797 176.105 166.797L176.106 166.797Z" fill="#564234"/>
<path d="M194.132 172.809C196.077 172.762 198.532 173.23 201.023 173.893C203.545 174.563 206.227 175.468 208.67 176.369C211.115 177.272 213.34 178.178 214.953 178.859C215.76 179.199 216.416 179.484 216.87 179.683C217.097 179.783 217.274 179.862 217.395 179.916C217.455 179.943 217.502 179.964 217.533 179.978C217.549 179.985 217.562 179.99 217.57 179.994L217.582 180H217.583C217.583 180 217.578 180.011 216.958 181.381L217.583 180.001C218.345 180.347 218.682 181.245 218.337 182.007C217.991 182.769 217.093 183.107 216.331 182.761L216.33 182.76C216.328 182.76 216.325 182.758 216.322 182.757C216.315 182.754 216.304 182.748 216.29 182.742C216.261 182.729 216.217 182.709 216.159 182.683C216.044 182.632 215.872 182.555 215.651 182.458C215.209 182.264 214.568 181.986 213.777 181.652C212.193 180.984 210.012 180.095 207.622 179.213C205.228 178.33 202.642 177.46 200.246 176.823C197.818 176.177 195.703 175.804 194.204 175.839C191.288 175.909 188.509 177.6 186.345 179.47C185.285 180.386 184.424 181.3 183.829 181.986C183.532 182.328 183.303 182.61 183.151 182.804C183.075 182.901 183.018 182.975 182.982 183.024C182.963 183.048 182.95 183.066 182.942 183.076C182.939 183.082 182.936 183.086 182.934 183.088C182.444 183.766 181.498 183.918 180.82 183.427C180.142 182.937 179.99 181.989 180.48 181.311L181.581 182.107C180.541 181.355 180.484 181.313 180.481 181.31L180.481 181.309C180.482 181.308 180.483 181.308 180.483 181.307C180.485 181.305 180.486 181.302 180.488 181.3C180.492 181.294 180.498 181.287 180.505 181.278C180.518 181.259 180.537 181.234 180.561 181.201C180.61 181.137 180.68 181.045 180.77 180.931C180.949 180.702 181.21 180.381 181.543 179.997C182.207 179.232 183.171 178.209 184.365 177.176C186.71 175.15 190.16 172.903 194.132 172.809Z" fill="#564234"/>
<path d="M189.734 175.524C189.734 175.524 188.801 186.795 194.38 187.286C199.959 187.777 198.481 174.797 198.481 174.797C198.481 174.797 194.435 173.772 189.734 175.524Z" fill="#564234"/>
<path d="M254.419 282.558C254.419 282.558 213.038 313.98 177.116 317.236C177.116 317.236 187.608 334.793 197.446 343.487C197.446 343.487 197.009 356.285 197.446 363.833C197.446 363.833 222.955 351.356 241.589 323.196C241.589 323.196 252.117 288.021 254.419 282.558Z" fill="url(#paint0_linear_373_2026)"/>
<path d="M287.337 90.0364C300.446 87.4295 314.5 90.5699 325.331 98.3967C336.162 106.223 343.583 119.367 347.509 132.456C349.756 139.955 351.119 147.697 352.118 155.457C353.136 163.399 353.966 171.408 354.051 179.416C354.093 183.466 353.936 187.522 353.481 191.542C353.136 194.579 352.688 197.665 351.192 200.381C350.029 202.484 348.06 204.455 345.449 203.952C342.432 203.363 340.645 200.126 339.476 197.58C334.593 186.904 337.301 173.16 345.903 165.176C348.399 162.86 351.458 160.938 354.875 160.429C358.534 159.883 362.277 161.12 365.53 162.702C371.267 165.497 376.083 169.959 379.73 175.167C383.831 181.023 386.436 187.771 388.053 194.712C388.913 198.398 389.507 202.151 389.907 205.916C390.264 209.238 390.488 212.572 390.361 215.913C390.234 219.253 389.767 222.333 388.689 225.364C388.162 226.838 387.466 228.256 386.617 229.572C386.218 230.19 385.781 230.784 385.303 231.342C385.055 231.627 384.794 231.997 384.449 232.179C383.934 232.458 383.492 232.179 383.074 231.851C378.47 228.268 377.494 221.218 379.263 215.974C381.256 210.081 386.836 206.061 392.724 204.661C394.214 204.303 395.74 204.109 397.273 204.097C399.139 204.085 400.665 204.588 401.883 206.049C402.931 207.316 403.694 208.862 404.464 210.305C405.294 211.863 406.057 213.458 406.766 215.076C412.472 228.153 414.144 242.594 415.047 256.708C415.271 260.2 415.44 263.692 415.61 267.184C415.664 268.348 417.482 268.354 417.427 267.184C416.7 252.015 415.913 236.55 411.273 221.982C410.152 218.465 408.807 215.022 407.202 211.699C406.384 210.002 405.499 208.323 404.53 206.71C403.652 205.255 402.58 203.782 401.017 203.006C399.357 202.187 397.431 202.199 395.625 202.363C393.959 202.515 392.306 202.83 390.706 203.333C387.605 204.309 384.703 205.934 382.322 208.153C377.585 212.56 375.544 219.241 377.179 225.534C377.943 228.475 379.572 231.409 381.995 233.3C382.68 233.834 383.486 234.228 384.382 234.107C385.279 233.985 386 233.318 386.587 232.633C387.69 231.348 388.623 229.923 389.368 228.402C392.403 222.212 392.53 215.01 391.954 208.274C391.276 200.375 389.883 192.439 386.981 185.036C384.394 178.434 380.596 172.281 375.411 167.407C372.921 165.066 370.122 163.023 367.075 161.459C363.713 159.725 359.909 158.349 356.074 158.513C349.114 158.81 343.201 164.218 339.755 169.91C336.514 175.258 334.963 181.641 335.32 187.88C335.496 190.996 336.126 194.1 337.277 197.01C338.428 199.92 340.039 203.066 342.771 204.806C345.34 206.437 348.484 206.067 350.695 204.042C352.773 202.139 353.918 199.265 354.542 196.573C355.456 192.657 355.68 188.48 355.82 184.473C355.971 180.12 355.844 175.761 355.553 171.42C354.99 163.005 354.021 154.566 352.573 146.26C349.956 131.268 344.982 116.239 334.787 104.623C325.289 93.8013 311.447 87.472 297.041 87.3386C293.625 87.3083 290.214 87.6357 286.864 88.3025C285.719 88.5329 286.204 90.285 287.349 90.0546L287.337 90.0364Z" fill="#564234"/>
<path d="M299.294 223.424C291.746 235.762 286.264 249.336 282.957 263.407C279.643 277.496 278.468 292.101 279.48 306.536C280.491 320.958 283.653 335.248 289.045 348.676C290.377 351.993 291.837 355.26 293.431 358.461C294.218 360.038 295.072 361.65 296.762 362.402C298.295 363.087 300.04 362.881 301.566 362.275C304.819 360.989 307.43 358.316 309.835 355.854C312.24 353.393 314.493 350.683 316.511 347.852C324.67 336.394 329.274 322.353 329.317 308.263C329.317 306.524 329.256 304.784 329.117 303.044C329.068 302.437 328.578 302.031 327.966 302.165C319.006 304.159 312.67 311.731 309.326 319.916C305.813 328.506 305.425 338.297 307.382 347.306C309.338 356.315 313.918 365.112 320.539 371.756C322.181 373.405 324.113 375.479 326.518 375.873C328.923 376.267 331.364 374.588 333.382 373.399C337.404 371.023 341.16 368.155 344.473 364.863C350.973 358.401 355.874 350.046 356.686 340.783C356.783 339.667 356.813 338.546 356.789 337.418C356.783 337.061 356.516 336.594 356.122 336.539C351.094 335.854 346.327 338.443 343.322 342.396C340.045 346.706 339.106 352.362 339.039 357.649C338.967 363.069 339.706 368.683 342.232 373.545C344.473 377.855 348.181 381.178 352.476 383.36C357.322 385.828 362.731 386.973 368.123 387.349C369.292 387.428 369.286 385.609 368.123 385.531C359.642 384.942 350.174 382.166 345.109 374.812C342.25 370.659 341.142 365.585 340.905 360.614C340.669 355.642 341.014 350.307 343.328 345.803C345.642 341.298 350.398 337.582 355.638 338.297L354.971 337.418C355.153 346.173 351.343 354.381 345.685 360.905C342.771 364.263 339.403 367.222 335.744 369.738C333.921 370.987 332.031 372.132 330.08 373.163C328.978 373.745 327.796 374.363 326.524 374.024C325.343 373.709 324.368 372.86 323.483 372.054C316.917 366.106 312.24 358.225 309.853 349.713C307.491 341.298 307.321 332.144 309.883 323.747C312.282 315.884 317.504 307.9 325.446 304.82C326.421 304.444 327.427 304.147 328.45 303.917L327.3 303.038C328.36 316.727 324.949 330.586 317.922 342.353C314.433 348.197 310.059 353.502 304.928 357.982C302.887 359.765 298.81 362.644 296.387 359.898C295.284 358.643 294.636 356.837 293.927 355.339C293.158 353.726 292.425 352.09 291.722 350.447C286.258 337.594 282.878 323.838 281.569 309.937C280.255 295.969 280.988 281.807 283.787 268.057C286.585 254.307 291.413 240.994 298.265 228.759C299.101 227.268 299.967 225.795 300.857 224.34C301.469 223.339 299.9 222.424 299.288 223.424H299.294Z" fill="#564234"/>
<path d="M93.4882 231.766C91.8889 245.225 91.6648 258.842 92.846 272.349C93.1126 275.392 93.3307 278.49 93.9061 281.491C94.3241 283.674 95.0329 285.935 96.3656 287.742C97.6983 289.548 99.5217 290.676 101.727 290.567C104.083 290.452 105.961 288.912 107.209 287.002C108.826 284.529 109.378 281.503 109.45 278.587C109.541 275.059 108.808 271.585 107.391 268.366C107.161 267.845 106.319 267.778 105.961 268.184C101.066 273.743 100.224 281.607 101.672 288.639C102.514 292.743 104.077 296.66 105.804 300.467C107.439 304.074 109.135 307.694 111.031 311.174C113.073 314.92 115.508 318.503 118.749 321.316C119.627 322.08 120.918 320.801 120.033 320.031C114.448 315.187 111.401 308.148 108.318 301.595C105.234 295.041 102.157 287.457 102.975 279.776C103.374 276.023 104.737 272.325 107.251 269.475L105.822 269.294C106.979 271.919 107.591 274.78 107.639 277.648C107.675 280.133 107.391 282.752 106.264 285.002C105.386 286.748 103.92 288.578 101.83 288.748C99.9215 288.906 98.4252 287.699 97.4742 286.147C96.402 284.401 95.8628 282.352 95.5417 280.345C95.0692 277.417 94.833 274.428 94.5907 271.47C94.0758 265.262 93.8516 259.024 93.9304 252.791C94.0152 245.765 94.4816 238.75 95.3116 231.772C95.4509 230.614 93.6336 230.621 93.4942 231.772L93.4882 231.766Z" fill="#564234"/>
<path d="M123.456 166.443C123.456 166.443 136.619 162.314 143.731 166.988C150.389 171.359 152.406 173.033 153.92 178.956C155.435 184.879 151.764 210.129 143.743 225.001C143.743 225.001 146.542 232.488 154.902 238.393C154.902 238.393 153.672 248.845 151.334 251.003C151.334 251.003 146.082 248.238 144.713 259.066C144.713 259.066 150.474 276.047 162.522 281.461C162.522 281.461 155.968 288.597 158.016 292.168C160.063 295.738 160.499 310.27 177.873 317.182C177.873 317.182 161.899 322.329 152.848 299.837C141.126 270.718 125.025 238.726 124.595 229.76C124.116 219.769 129.895 196.798 129.895 196.798C129.895 196.798 119.518 172.681 123.45 166.443H123.456Z" fill="url(#paint1_linear_373_2026)"/>
<path d="M133.243 161.896C139.082 161.98 144.66 164.135 148.97 167.176C153.242 170.19 156.482 174.231 157.329 178.262C158.139 182.115 157.622 188.832 155.787 196.716C153.937 204.669 150.697 214.013 145.878 223.201V223.202C144.98 224.913 145.083 226.368 145.695 227.683C146.347 229.08 147.616 230.388 149.16 231.54C150.685 232.679 152.363 233.582 153.678 234.204C154.331 234.513 154.886 234.748 155.274 234.905C155.468 234.984 155.62 235.043 155.721 235.081C155.771 235.1 155.809 235.114 155.833 235.123C155.845 235.127 155.854 235.131 155.859 235.132C155.862 235.133 155.863 235.134 155.864 235.134L156.007 235.193C156.701 235.523 157.046 236.331 156.783 237.07C156.502 237.859 155.636 238.27 154.848 237.99L155.356 236.562C154.878 237.904 154.849 237.984 154.847 237.989H154.845C154.844 237.989 154.843 237.988 154.842 237.987C154.839 237.986 154.835 237.985 154.83 237.983C154.82 237.98 154.807 237.975 154.79 237.969C154.757 237.957 154.709 237.939 154.649 237.916C154.528 237.87 154.354 237.803 154.138 237.716C153.705 237.54 153.097 237.282 152.384 236.944C150.965 236.273 149.092 235.272 147.348 233.97C145.623 232.682 143.905 231.011 142.951 228.965C141.958 226.835 141.837 224.383 143.196 221.792C147.888 212.847 151.041 203.746 152.838 196.028C154.649 188.243 155.033 182.065 154.364 178.886C153.733 175.884 151.151 172.422 147.225 169.653C143.338 166.91 138.342 165 133.199 164.927C128.043 164.853 124.149 166.429 121.547 168.012C120.244 168.805 119.265 169.6 118.619 170.188C118.297 170.482 118.059 170.723 117.905 170.885C117.829 170.967 117.773 171.028 117.74 171.066C117.723 171.085 117.712 171.098 117.706 171.105C117.705 171.106 117.703 171.107 117.703 171.108C117.169 171.752 116.215 171.841 115.572 171.308C114.928 170.774 114.838 169.818 115.372 169.174L116.358 169.992C115.398 169.196 115.373 169.174 115.372 169.173L115.373 169.172C115.374 169.171 115.375 169.169 115.376 169.168C115.378 169.166 115.38 169.163 115.383 169.16C115.388 169.154 115.395 169.146 115.403 169.137C115.419 169.118 115.441 169.092 115.469 169.061C115.524 168.998 115.602 168.911 115.703 168.804C115.904 168.591 116.197 168.295 116.58 167.946C117.347 167.248 118.48 166.331 119.974 165.422C122.968 163.6 127.416 161.812 133.243 161.896Z" fill="#564234"/>
<path d="M139.131 228.061C139.349 227.253 140.18 226.775 140.988 226.993C141.795 227.211 142.272 228.042 142.055 228.849L142.056 228.85C142.055 228.852 142.054 228.856 142.053 228.859C142.048 228.88 142.04 228.918 142.03 228.969C142.01 229.074 141.984 229.234 141.966 229.432C141.929 229.837 141.93 230.358 142.051 230.881C142.171 231.394 142.399 231.883 142.806 232.293C143.209 232.698 143.874 233.113 145.011 233.342C145.831 233.508 146.362 234.306 146.197 235.127C146.032 235.947 145.234 236.479 144.414 236.314C142.783 235.985 141.548 235.325 140.659 234.431C139.775 233.541 139.32 232.507 139.101 231.567C138.885 230.636 138.894 229.773 138.95 229.158C138.978 228.846 139.02 228.586 139.056 228.399C139.074 228.305 139.09 228.228 139.104 228.171C139.11 228.143 139.116 228.119 139.121 228.101C139.123 228.092 139.125 228.084 139.127 228.077C139.128 228.074 139.128 228.071 139.129 228.068C139.129 228.067 139.13 228.065 139.13 228.064L139.131 228.063C139.136 228.064 139.215 228.084 140.593 228.456L139.131 228.061ZM142.057 228.843C142.057 228.844 142.057 228.845 142.057 228.846L142.056 228.85L142.057 228.843Z" fill="#564234"/>
<path d="M136.376 176.745C138.127 176.842 140.218 177.538 142.256 178.417C144.331 179.311 146.502 180.462 148.461 181.586C150.423 182.713 152.195 183.828 153.475 184.66C154.116 185.077 154.635 185.423 154.995 185.667C155.175 185.788 155.315 185.884 155.411 185.95C155.459 185.983 155.496 186.009 155.521 186.026C155.534 186.035 155.544 186.041 155.55 186.046C155.553 186.048 155.556 186.05 155.558 186.051C155.559 186.052 155.56 186.053 155.56 186.053L155.561 186.054L155.684 186.149C156.266 186.649 156.387 187.52 155.939 188.164C155.461 188.851 154.517 189.02 153.83 188.542C153.83 188.541 153.83 188.541 153.829 188.54C153.828 188.54 153.826 188.539 153.823 188.537C153.818 188.533 153.81 188.527 153.799 188.52C153.776 188.504 153.742 188.48 153.697 188.449C153.607 188.387 153.472 188.296 153.299 188.179C152.952 187.944 152.449 187.608 151.825 187.202C150.576 186.391 148.854 185.307 146.953 184.216C145.048 183.121 142.987 182.032 141.058 181.201C139.093 180.354 137.407 179.838 136.209 179.772C134.167 179.658 132.48 181.215 131.157 183.428C130.53 184.477 130.064 185.549 129.753 186.367C129.599 186.774 129.486 187.111 129.412 187.344C129.375 187.46 129.348 187.549 129.331 187.607C129.322 187.636 129.316 187.658 129.312 187.671C129.311 187.677 129.31 187.682 129.309 187.684H129.308L129.309 187.684L129.308 187.686L129.261 187.831C128.986 188.548 128.207 188.954 127.45 188.748C126.643 188.528 126.167 187.695 126.387 186.887L127.542 187.202C126.418 186.896 126.387 186.888 126.387 186.887L126.387 186.886C126.387 186.885 126.387 186.884 126.388 186.883C126.388 186.88 126.389 186.877 126.39 186.874C126.392 186.867 126.395 186.858 126.398 186.847C126.404 186.824 126.413 186.793 126.424 186.754C126.447 186.675 126.481 186.564 126.526 186.425C126.614 186.147 126.745 185.757 126.921 185.291C127.272 184.366 127.811 183.12 128.558 181.871C129.982 179.488 132.517 176.531 136.376 176.745Z" fill="#564234"/>
<path d="M132.512 180.229C132.512 180.229 131.7 191.875 135.959 192.208C140.224 192.536 140.078 178.84 140.078 178.84C140.078 178.84 134.687 177.222 132.506 180.235L132.512 180.229Z" fill="#564234"/>
<path d="M148.129 268.554C148.129 268.554 156.18 280.012 164.588 280.37C172.996 280.728 186.596 263.716 186.596 263.716C178.903 261.57 164.231 250.827 161.729 251.003C159.227 251.185 157.973 254.762 155.289 254.762C152.606 254.762 151.891 251.003 148.85 251.003C145.809 251.003 145.094 261.746 145.094 261.746" fill="#AE4D41"/>
<path d="M161.623 249.491C162.036 249.462 162.437 249.547 162.746 249.634C163.079 249.728 163.435 249.862 163.797 250.017C164.52 250.328 165.379 250.769 166.317 251.285C168.193 252.317 170.536 253.73 172.988 255.185C177.993 258.154 183.393 261.249 187.003 262.256C187.493 262.393 187.882 262.767 188.038 263.251C188.194 263.735 188.096 264.266 187.779 264.663L186.596 263.716L187.778 264.663L187.777 264.665C187.777 264.665 187.776 264.666 187.775 264.668C187.773 264.67 187.77 264.674 187.767 264.678C187.759 264.687 187.749 264.701 187.735 264.718C187.707 264.752 187.667 264.802 187.614 264.866C187.509 264.995 187.355 265.182 187.157 265.419C186.761 265.893 186.187 266.567 185.474 267.373C184.048 268.984 182.053 271.135 179.785 273.279C177.524 275.417 174.955 277.584 172.38 279.202C169.851 280.792 167.098 281.994 164.524 281.884C159.731 281.68 155.265 278.373 152.163 275.427C150.574 273.918 149.262 272.426 148.348 271.312C147.89 270.754 147.53 270.288 147.283 269.959C147.159 269.795 147.063 269.665 146.997 269.574C146.964 269.529 146.938 269.493 146.921 269.468C146.912 269.456 146.905 269.446 146.9 269.439C146.897 269.435 146.895 269.432 146.893 269.43C146.893 269.429 146.892 269.428 146.892 269.428L146.891 269.426C146.892 269.425 146.932 269.396 148.129 268.554L146.89 269.426C146.409 268.741 146.574 267.796 147.258 267.314C147.942 266.833 148.886 266.998 149.367 267.682H149.368C149.368 267.682 149.369 267.684 149.371 267.686C149.374 267.69 149.379 267.696 149.385 267.705C149.398 267.724 149.419 267.753 149.447 267.792C149.503 267.869 149.588 267.985 149.701 268.135C149.926 268.434 150.261 268.866 150.689 269.388C151.547 270.434 152.773 271.828 154.248 273.229C157.273 276.102 161.037 278.702 164.653 278.855C166.283 278.925 168.383 278.135 170.769 276.635C173.108 275.165 175.515 273.146 177.705 271.075C179.888 269.011 181.819 266.931 183.206 265.364C183.503 265.028 183.774 264.716 184.017 264.434C180.203 262.932 175.509 260.205 171.443 257.793C168.953 256.315 166.678 254.942 164.859 253.942C163.949 253.441 163.192 253.056 162.604 252.804C162.31 252.678 162.086 252.597 161.925 252.552C161.857 252.533 161.813 252.524 161.79 252.52C161.543 252.548 161.27 252.657 160.918 252.905C160.519 253.187 160.134 253.56 159.622 254.048C158.733 254.897 157.326 256.277 155.29 256.277C153.181 256.277 151.88 254.74 151.107 253.928C150.202 252.977 149.677 252.542 148.909 252.521C148.897 252.53 148.878 252.545 148.856 252.566C148.727 252.688 148.545 252.932 148.34 253.35C147.93 254.185 147.586 255.38 147.315 256.683C147.048 257.965 146.87 259.258 146.758 260.239C146.703 260.727 146.664 261.133 146.64 261.416C146.627 261.556 146.619 261.666 146.613 261.74C146.61 261.777 146.608 261.805 146.607 261.823C146.606 261.832 146.606 261.838 146.606 261.842C146.606 261.844 146.605 261.846 146.605 261.847C146.55 262.682 145.828 263.314 144.994 263.258C144.159 263.202 143.528 262.48 143.583 261.645L145.094 261.746C143.657 261.65 143.587 261.645 143.583 261.645V261.642C143.584 261.64 143.584 261.637 143.584 261.634C143.585 261.628 143.585 261.619 143.586 261.607C143.587 261.585 143.59 261.552 143.593 261.51C143.599 261.427 143.609 261.306 143.623 261.153C143.649 260.848 143.69 260.415 143.749 259.896C143.867 258.862 144.057 257.469 144.349 256.065C144.637 254.683 145.042 253.192 145.621 252.013C145.911 251.424 146.283 250.829 146.776 250.363C147.284 249.882 147.982 249.488 148.85 249.488L149.057 249.492C151.174 249.577 152.467 250.961 153.301 251.837C154.317 252.905 154.714 253.246 155.29 253.246C155.937 253.246 156.499 252.839 157.533 251.853C157.982 251.425 158.549 250.868 159.172 250.428C159.819 249.972 160.628 249.563 161.62 249.491H161.623Z" fill="#564234"/>
<path d="M165.81 288.809C169.226 288.736 172.797 289.733 175.441 290.696C176.778 291.184 177.911 291.675 178.712 292.045C179.113 292.23 179.432 292.386 179.653 292.497C179.763 292.552 179.85 292.596 179.91 292.627C179.939 292.642 179.963 292.655 179.979 292.664C179.988 292.668 179.994 292.671 179.999 292.674C180.001 292.675 180.003 292.676 180.005 292.677C180.005 292.677 180.006 292.678 180.007 292.678L180.008 292.679C180.007 292.68 179.984 292.724 179.368 293.883L180.008 292.679C180.747 293.072 181.026 293.99 180.633 294.729C180.24 295.468 179.323 295.747 178.584 295.354L178.583 295.353C178.581 295.352 178.577 295.35 178.572 295.347C178.561 295.342 178.543 295.333 178.519 295.32C178.47 295.295 178.397 295.257 178.299 295.208C178.103 295.11 177.812 294.968 177.441 294.797C176.7 294.454 175.646 293.997 174.404 293.545C171.89 292.628 168.734 291.778 165.874 291.839L165.875 291.84C163.021 291.902 160.967 292.503 159.656 293.06C158.999 293.34 158.525 293.61 158.226 293.8C158.077 293.895 157.972 293.971 157.911 294.017C157.88 294.039 157.86 294.055 157.851 294.063C157.847 294.065 157.845 294.067 157.845 294.067C157.845 294.067 157.846 294.066 157.848 294.064C157.849 294.064 157.85 294.063 157.851 294.062C157.852 294.062 157.852 294.061 157.853 294.06H157.853C157.217 294.602 156.263 294.528 155.72 293.893C155.176 293.257 155.25 292.3 155.886 291.756L156.771 292.79C155.888 291.757 155.886 291.755 155.887 291.754L155.888 291.754C155.889 291.753 155.89 291.752 155.891 291.751C155.893 291.75 155.895 291.748 155.897 291.746C155.902 291.742 155.907 291.737 155.913 291.732C155.925 291.723 155.94 291.711 155.958 291.696C155.993 291.668 156.041 291.63 156.1 291.586C156.219 291.498 156.385 291.381 156.6 291.244C157.028 290.971 157.65 290.62 158.472 290.271C160.119 289.57 162.551 288.88 165.809 288.809H165.81Z" fill="#564234"/>
<path d="M185.164 263.14C185.977 262.944 186.795 263.446 186.99 264.26C187.185 265.074 186.684 265.891 185.871 266.087C176.716 268.285 167.998 268.281 161.584 267.735C158.373 267.462 155.729 267.051 153.881 266.708C152.957 266.536 152.231 266.381 151.733 266.267C151.484 266.211 151.291 266.165 151.159 266.132C151.093 266.116 151.042 266.103 151.006 266.094C150.989 266.089 150.975 266.086 150.965 266.083C150.96 266.082 150.956 266.081 150.953 266.08C150.952 266.08 150.951 266.079 150.95 266.079H150.948C150.948 266.079 150.947 266.079 151.333 264.613L150.947 266.079C150.138 265.865 149.656 265.036 149.869 264.227C150.083 263.418 150.91 262.935 151.719 263.148H151.72C151.721 263.148 151.723 263.148 151.726 263.149C151.732 263.151 151.741 263.153 151.755 263.157C151.782 263.164 151.825 263.175 151.882 263.189C151.998 263.217 152.173 263.259 152.404 263.311C152.866 263.416 153.552 263.564 154.434 263.727C156.199 264.056 158.744 264.451 161.841 264.715C168.044 265.243 176.418 265.24 185.164 263.14Z" fill="#564234"/>
<path d="M179.212 173.487C179.67 172.787 180.608 172.592 181.308 173.051C181.309 173.052 181.311 173.052 181.314 173.054C181.32 173.058 181.33 173.065 181.344 173.074C181.374 173.093 181.42 173.121 181.48 173.159C181.602 173.233 181.784 173.342 182.011 173.469C182.469 173.726 183.101 174.053 183.805 174.344C184.517 174.638 185.259 174.877 185.946 174.984C186.646 175.092 187.167 175.045 187.522 174.899C188.296 174.58 189.181 174.95 189.499 175.724C189.817 176.498 189.448 177.384 188.674 177.702C187.615 178.138 186.477 178.134 185.482 177.98C184.475 177.824 183.49 177.494 182.649 177.147C181.803 176.797 181.06 176.41 180.53 176.114C180.265 175.964 180.049 175.836 179.898 175.743C179.822 175.697 179.762 175.659 179.72 175.632C179.699 175.619 179.682 175.608 179.67 175.6C179.664 175.596 179.659 175.593 179.655 175.59C179.653 175.589 179.651 175.588 179.65 175.587C179.65 175.587 179.649 175.586 179.648 175.586L179.648 175.585C179.649 175.583 179.683 175.53 180.478 174.318L179.647 175.585C178.948 175.126 178.753 174.186 179.212 173.487Z" fill="#564234"/>
<path d="M120.928 181.351C121.396 180.658 122.337 180.475 123.031 180.943L123.03 180.942C123.031 180.943 123.033 180.944 123.035 180.946C123.041 180.949 123.05 180.956 123.063 180.964C123.089 180.981 123.131 181.009 123.186 181.043C123.295 181.113 123.459 181.215 123.664 181.335C124.076 181.576 124.644 181.887 125.276 182.17C125.914 182.456 126.577 182.695 127.185 182.819C127.812 182.946 128.245 182.923 128.507 182.833C129.298 182.561 130.159 182.983 130.431 183.774C130.702 184.566 130.281 185.428 129.49 185.7C128.508 186.037 127.466 185.969 126.581 185.789C125.678 185.605 124.793 185.274 124.039 184.937C123.278 184.596 122.609 184.229 122.133 183.95C121.893 183.809 121.699 183.689 121.562 183.603C121.494 183.559 121.44 183.524 121.402 183.499C121.383 183.487 121.367 183.476 121.356 183.469C121.351 183.465 121.347 183.462 121.343 183.46C121.342 183.459 121.34 183.458 121.339 183.457L121.337 183.455C121.34 183.451 121.387 183.379 122.183 182.199L121.336 183.455C120.643 182.987 120.46 182.045 120.928 181.351Z" fill="#564234"/>
<path d="M194.167 169.08C200.304 169.071 206.29 171.814 210.639 174.441C212.834 175.768 214.659 177.093 215.937 178.088C216.576 178.586 217.081 179.002 217.427 179.296C217.601 179.443 217.735 179.561 217.827 179.642C217.874 179.683 217.91 179.714 217.934 179.737C217.947 179.748 217.956 179.756 217.963 179.763C217.967 179.766 217.97 179.768 217.972 179.77C217.973 179.771 217.974 179.772 217.975 179.773L217.976 179.774C217.975 179.776 217.941 179.814 217.03 180.817L217.976 179.775C218.595 180.338 218.641 181.296 218.078 181.915C217.516 182.535 216.557 182.58 215.938 182.017C215.938 182.016 215.936 182.015 215.935 182.014C215.931 182.01 215.924 182.004 215.915 181.996C215.896 181.979 215.867 181.953 215.827 181.918C215.748 181.848 215.627 181.744 215.468 181.609C215.15 181.339 214.679 180.949 214.077 180.48C212.87 179.541 211.145 178.287 209.074 177.036C204.891 174.509 199.482 172.103 194.171 172.111H194.17C193.072 172.112 191.83 172.589 190.502 173.478C189.189 174.356 187.914 175.556 186.781 176.801C185.655 178.04 184.704 179.286 184.033 180.225C183.698 180.693 183.436 181.082 183.258 181.351C183.17 181.486 183.102 181.591 183.058 181.66C183.036 181.695 183.019 181.721 183.009 181.738C183.004 181.746 183 181.752 182.998 181.756L182.996 181.759C182.996 181.759 182.996 181.759 182.995 181.758C182.556 182.471 181.623 182.692 180.912 182.252C180.2 181.813 179.98 180.879 180.419 180.166L181.707 180.962C180.459 180.191 180.42 180.167 180.419 180.166L180.42 180.165C180.42 180.164 180.421 180.163 180.421 180.162C180.422 180.16 180.424 180.158 180.426 180.155C180.43 180.148 180.436 180.139 180.443 180.128C180.457 180.105 180.477 180.073 180.504 180.032C180.556 179.95 180.632 179.832 180.729 179.683C180.925 179.386 181.209 178.965 181.569 178.462C182.286 177.458 183.312 176.113 184.542 174.761C185.766 173.415 187.227 172.023 188.819 170.958C190.396 169.902 192.23 169.082 194.167 169.08V169.08Z" fill="#564234"/>
<path d="M134.966 172.784C138.226 172.589 142.353 173.852 146.127 176.057C150.054 178.352 153.83 181.799 156.043 186.121C156.425 186.866 156.131 187.78 155.387 188.162C154.642 188.543 153.73 188.249 153.348 187.504C151.46 183.818 148.16 180.756 144.599 178.675C141.118 176.641 137.602 175.667 135.159 175.81L134.926 175.827C132.821 176.017 131.067 177.817 129.735 180.066C129.1 181.139 128.626 182.207 128.309 183.012C128.152 183.413 128.036 183.743 127.96 183.97C127.922 184.083 127.895 184.17 127.877 184.227C127.868 184.255 127.862 184.276 127.858 184.288C127.856 184.295 127.855 184.299 127.854 184.301V184.302L127.853 184.301C127.62 185.105 126.781 185.567 125.977 185.334C125.174 185.101 124.712 184.259 124.946 183.455L126.076 183.784C124.989 183.468 124.947 183.456 124.946 183.455L124.946 183.454C124.947 183.453 124.947 183.452 124.947 183.451C124.948 183.449 124.948 183.446 124.949 183.442C124.951 183.436 124.954 183.427 124.957 183.416C124.964 183.395 124.973 183.364 124.985 183.326C125.008 183.25 125.043 183.143 125.088 183.008C125.178 182.738 125.312 182.358 125.491 181.903C125.846 180.997 126.388 179.773 127.129 178.521C128.551 176.12 130.992 173.139 134.654 172.808L134.966 172.784Z" fill="#564234"/>
</g>
</g>
</g>
<defs>
<filter id="filter0_d_373_2026" x="-20" y="-20" width="517" height="604" filterUnits="userSpaceOnUse" color-interpolation-filters="sRGB">
<feFlood flood-opacity="0" result="BackgroundImageFix"/>
<feColorMatrix in="SourceAlpha" type="matrix" values="0 0 0 0 0 0 0 0 0 0 0 0 0 0 0 0 0 0 127 0" result="hardAlpha"/>
<feOffset/>
<feGaussianBlur stdDeviation="10"/>
<feComposite in2="hardAlpha" operator="out"/>
<feColorMatrix type="matrix" values="0 0 0 0 0.584615 0 0 0 0 0.496818 0 0 0 0 0.383935 0 0 0 0.15 0"/>
<feBlend mode="normal" in2="BackgroundImageFix" result="effect1_dropShadow_373_2026"/>
<feBlend mode="normal" in="SourceGraphic" in2="effect1_dropShadow_373_2026" result="shape"/>
</filter>
<linearGradient id="paint0_linear_373_2026" x1="211.585" y1="372.711" x2="215.383" y2="304.134" gradientUnits="userSpaceOnUse">
<stop stop-color="#BF835B"/>
<stop offset="1" stop-color="#8D5B39"/>
</linearGradient>
<linearGradient id="paint1_linear_373_2026" x1="84.5273" y1="225.394" x2="199.965" y2="226.907" gradientUnits="userSpaceOnUse">
<stop stop-color="#BF835B"/>
<stop offset="1" stop-color="#8D5B39"/>
</linearGradient>
<clipPath id="clip0_373_2026">
<rect width="477" height="564" rx="20" fill="white"/>
</clipPath>
<clipPath id="clip1_373_2026">
<rect width="504" height="608" fill="white" transform="translate(-16 33)"/>
</clipPath>
</defs>
</svg>
