<svg width="477" height="564" viewBox="0 0 477 564" fill="none" xmlns="http://www.w3.org/2000/svg">
<g filter="url(#filter0_d_373_1825)">
<g clip-path="url(#clip0_373_1825)">
<g clip-path="url(#clip1_373_1825)">
<path d="M182.698 284.66C165.212 276.093 160.547 262.939 159.705 253.418C158.962 244.976 160.995 237.982 161.811 235.58L138.765 204.273L138.726 204.207C138.384 203.641 130.279 190.126 126.252 172.644C120.904 149.443 125.509 130.46 139.561 117.708C140.206 114.806 143.594 101.285 153.383 87.4144C163.35 73.294 182.08 56.285 214.75 55.298C217.717 53.6793 237.072 43.645 261.42 43.645C268.459 43.645 275.314 44.507 281.794 46.2112C306.438 52.6792 324.806 66.1943 333.523 84.2626C340.437 98.6002 340.78 115.024 334.471 129.322L334.352 129.591L183.771 285.192L182.698 284.666V284.66Z" fill="#DE8459"/>
<path d="M261.42 45.2899C267.821 45.2899 274.551 46.0071 281.38 47.7969C331.523 60.9566 345.622 99.9753 332.971 128.65L183.429 283.179C150.916 267.242 163.659 235.31 163.659 235.31L140.134 203.358C140.134 203.358 107.082 148.726 141.061 118.577C141.061 118.577 152.791 58.5681 215.197 56.9363C215.197 56.9363 235.638 45.2899 261.42 45.2899ZM261.42 42C237.513 42 218.316 51.5276 214.309 53.6661C199.829 54.1596 186.81 57.7785 175.606 64.4176C166.468 69.8329 158.541 77.255 152.035 86.4602C142.574 99.8635 138.976 112.99 138.068 116.833C123.845 130.006 119.207 149.397 124.641 173.005C128.726 190.745 136.963 204.477 137.311 205.056L137.39 205.181L137.476 205.299L159.982 235.863C159.028 238.936 157.37 245.647 158.067 253.55C158.942 263.499 163.797 277.218 181.975 286.127L184.119 287.18L185.784 285.462L335.326 130.934L335.734 130.513L335.971 129.973C342.477 115.234 342.122 98.304 334.997 83.5388C330.714 74.6625 324.234 66.8588 315.734 60.3513C306.57 53.3371 295.287 48.0403 282.202 44.6056C275.584 42.8685 268.591 41.9868 261.407 41.9868L261.42 42Z" fill="#977A67"/>
<path d="M298.345 360.305L298.836 360.324L299.295 360.5L298.222 363.302C299.285 360.525 299.295 360.501 299.296 360.501L299.298 360.502C299.3 360.503 299.304 360.503 299.308 360.505C299.316 360.508 299.328 360.513 299.345 360.52C299.378 360.532 299.428 360.551 299.493 360.576C299.623 360.626 299.817 360.701 300.07 360.799C300.577 360.994 301.325 361.283 302.289 361.657C304.218 362.407 307.016 363.499 310.491 364.872C317.442 367.618 327.109 371.489 337.974 375.986C359.675 384.97 386.253 396.497 405.499 406.578C430.376 419.609 448.5 442.739 454.484 470.238C460.105 496.08 464.98 527.956 468.445 553.325C470.179 566.019 471.563 577.103 472.514 585.014C472.989 588.969 473.356 592.133 473.604 594.308C473.729 595.395 473.822 596.235 473.886 596.805C473.917 597.089 473.942 597.306 473.958 597.452C473.966 597.525 473.972 597.58 473.976 597.617C473.978 597.635 473.979 597.65 473.98 597.659C473.981 597.663 473.981 597.667 473.981 597.67L473.982 597.673L474.345 601H-32.041L-32 597.959L-29 598C-31.9897 597.959 -32 597.958 -32 597.956C-32 597.955 -32 597.952 -32 597.95C-31.9999 597.946 -31.9991 597.939 -31.999 597.931C-31.9988 597.914 -31.9986 597.888 -31.998 597.856C-31.997 597.792 -31.9956 597.697 -31.9932 597.573C-31.9882 597.325 -31.9796 596.957 -31.9668 596.479C-31.9412 595.524 -31.8968 594.122 -31.8223 592.329C-31.6731 588.743 -31.4029 583.586 -30.917 577.285C-29.9456 564.689 -28.1106 547.492 -24.6562 529.108C-21.2045 510.739 -16.1188 491.096 -8.61133 473.647C-1.11981 456.237 8.89674 440.743 22.3643 430.993L23.8115 429.963C39.3395 419.067 72.4854 400.701 101.947 384.949C117.199 376.795 131.534 369.303 142.055 363.852C147.315 361.126 151.624 358.909 154.617 357.374C156.114 356.606 157.282 356.008 158.076 355.603C158.473 355.4 158.777 355.245 158.981 355.141C159.084 355.089 159.162 355.049 159.214 355.022C159.24 355.009 159.259 354.999 159.272 354.992C159.279 354.989 159.284 354.987 159.287 354.985C159.289 354.985 159.29 354.984 159.291 354.983C159.292 354.983 159.308 355.012 160.51 357.374L159.292 354.982L159.992 354.627L298.345 360.305ZM-27.0498 567.531C-27.555 572.67 -27.9293 577.344 -28.208 581.403C-27.9292 577.344 -27.555 572.67 -27.0498 567.531ZM-26.7539 564.619C-26.797 565.032 -26.8384 565.442 -26.8799 565.849C-26.8384 565.442 -26.797 565.032 -26.7539 564.619ZM-26.1172 558.865C-26.1741 559.352 -26.2285 559.836 -26.2832 560.316C-26.2285 559.836 -26.1741 559.352 -26.1172 558.865ZM-25.7412 555.738C-25.4982 553.776 -25.2373 551.772 -24.957 549.731C-25.2373 551.772 -25.4982 553.776 -25.7412 555.738ZM-24.5088 546.558C-24.5614 546.921 -24.6117 547.283 -24.6631 547.645C-24.6117 547.283 -24.5614 546.921 -24.5088 546.558ZM-24.0156 543.243C-24.0906 543.734 -24.1626 544.224 -24.2354 544.712C-24.1626 544.224 -24.0906 543.734 -24.0156 543.243ZM-23.4971 539.935C-23.6025 540.59 -23.7033 541.243 -23.8047 541.893C-23.7033 541.243 -23.6025 540.59 -23.4971 539.935ZM-22.9385 536.553C-23.0653 537.301 -23.187 538.047 -23.3086 538.789C-23.187 538.047 -23.0653 537.301 -22.9385 536.553ZM-22.3516 533.177C-22.4861 533.931 -22.615 534.683 -22.7441 535.433C-22.615 534.683 -22.4861 533.931 -22.3516 533.177ZM-22.0762 531.65C-22.1231 531.908 -22.1695 532.165 -22.2158 532.422C-22.1695 532.165 -22.1231 531.908 -22.0762 531.65ZM-21.7539 529.904C-21.7912 530.104 -21.8273 530.303 -21.8643 530.502C-21.8273 530.303 -21.7912 530.104 -21.7539 529.904ZM-21.4082 528.084C-21.4739 528.426 -21.5379 528.767 -21.6025 529.108C-21.5379 528.767 -21.4739 528.426 -21.4082 528.084ZM-21.0732 526.367C-21.1401 526.706 -21.2058 527.045 -21.2715 527.383C-21.2058 527.045 -21.1401 526.706 -21.0732 526.367ZM-20.7656 524.823C-20.8161 525.073 -20.8662 525.323 -20.916 525.573C-20.8662 525.323 -20.8161 525.073 -20.7656 524.823ZM-20.376 522.916C-20.4422 523.235 -20.5071 523.554 -20.5723 523.873C-20.5071 523.554 -20.4422 523.235 -20.376 522.916ZM-20.0176 521.211C-20.0982 521.59 -20.1777 521.969 -20.2568 522.348C-20.1777 521.969 -20.0982 521.59 -20.0176 521.211ZM-19.6553 519.529C-19.7198 519.826 -19.783 520.122 -19.8467 520.418C-19.783 520.122 -19.7198 519.826 -19.6553 519.529ZM-19.2285 517.597C-19.3202 518.006 -19.411 518.415 -19.501 518.824C-19.411 518.415 -19.3202 518.006 -19.2285 517.597ZM-18.5039 514.433C-18.5471 514.617 -18.589 514.801 -18.6318 514.985C-18.589 514.801 -18.5471 514.617 -18.5039 514.433ZM-18.0498 512.526C-18.1153 512.798 -18.1804 513.07 -18.2451 513.342C-18.1804 513.07 -18.1153 512.798 -18.0498 512.526ZM-17.5898 510.64C-17.6707 510.966 -17.7493 511.293 -17.8291 511.62C-17.7493 511.293 -17.6707 510.966 -17.5898 510.64ZM-16.7822 507.453C-16.8371 507.665 -16.8899 507.877 -16.9443 508.089C-16.8899 507.877 -16.8371 507.665 -16.7822 507.453ZM-16.2881 505.572C-16.3547 505.822 -16.4194 506.073 -16.4854 506.323C-16.4194 506.073 -16.3547 505.822 -16.2881 505.572ZM-15.8037 503.779C-15.9 504.131 -15.995 504.484 -16.0898 504.836C-15.995 504.484 -15.9 504.131 -15.8037 503.779ZM-15.3496 502.141C-15.4107 502.359 -15.4707 502.577 -15.5312 502.795C-15.4707 502.577 -15.4107 502.359 -15.3496 502.141ZM-14.8428 500.354C-14.9078 500.581 -14.9717 500.807 -15.0361 501.033C-14.9717 500.807 -14.9078 500.581 -14.8428 500.354ZM-14.3252 498.577C-14.435 498.949 -14.5432 499.322 -14.6514 499.694C-14.5432 499.322 -14.435 498.949 -14.3252 498.577ZM456.085 493.741C456.365 495.278 456.64 496.823 456.914 498.373C456.639 496.823 456.365 495.277 456.085 493.74V493.741ZM-13.8594 497.019C-13.9097 497.185 -13.9588 497.352 -14.0088 497.519C-13.9588 497.352 -13.9097 497.185 -13.8594 497.019ZM-13.2939 495.173C-13.3796 495.449 -13.4641 495.725 -13.5488 496.001C-13.4641 495.725 -13.3796 495.449 -13.2939 495.173ZM-12.7607 493.477C-12.858 493.782 -12.9537 494.088 -13.0498 494.394C-12.9537 494.088 -12.858 493.782 -12.7607 493.477ZM-12.1729 491.658C-12.2902 492.016 -12.4058 492.375 -12.5215 492.734C-12.4058 492.375 -12.2902 492.016 -12.1729 491.658ZM-11.6016 489.938C-11.7328 490.328 -11.8619 490.719 -11.9912 491.11C-11.8619 490.719 -11.7328 490.328 -11.6016 489.938ZM-11.0449 488.303C-11.1735 488.675 -11.3 489.049 -11.4268 489.423C-11.3 489.049 -11.1735 488.675 -11.0449 488.303ZM-10.46 486.631C-10.5848 486.983 -10.7088 487.337 -10.832 487.69C-10.7088 487.337 -10.5848 486.983 -10.46 486.631ZM-9.85938 484.956C-9.97384 485.271 -10.0861 485.587 -10.1992 485.902C-10.0861 485.587 -9.97384 485.271 -9.85938 484.956ZM-9.24609 483.294C-9.36165 483.603 -9.47661 483.913 -9.59082 484.224C-9.47661 483.913 -9.36165 483.603 -9.24609 483.294ZM-8.58105 481.537C-8.7273 481.918 -8.87147 482.299 -9.01562 482.682C-8.87146 482.299 -8.7273 481.918 -8.58105 481.537ZM-7.96582 479.957C-8.10685 480.315 -8.24659 480.673 -8.38574 481.032C-8.24659 480.673 -8.10686 480.315 -7.96582 479.957ZM-7.32812 478.361C-7.45179 478.667 -7.57403 478.973 -7.69629 479.279C-7.57403 478.973 -7.45179 478.667 -7.32812 478.361ZM-6.6543 476.721C-6.77887 477.02 -6.9022 477.32 -7.02539 477.62C-6.9022 477.32 -6.77887 477.02 -6.6543 476.721ZM-5.93848 475.026C-6.08369 475.365 -6.2277 475.705 -6.37109 476.045C-6.2277 475.705 -6.08369 475.365 -5.93848 475.026ZM-5.2793 473.512C-5.42125 473.834 -5.56188 474.157 -5.70215 474.481C-5.56188 474.157 -5.42126 473.834 -5.2793 473.512ZM-4.56543 471.912C-4.69603 472.2 -4.8249 472.49 -4.9541 472.779C-4.82489 472.49 -4.69603 472.2 -4.56543 471.912ZM-3.84961 470.356C-3.98145 470.639 -4.11271 470.923 -4.24316 471.207C-4.1127 470.923 -3.98145 470.639 -3.84961 470.356ZM-3.08105 468.731C-3.22475 469.031 -3.36668 469.331 -3.50879 469.632C-3.36668 469.331 -3.22475 469.031 -3.08105 468.731ZM-2.31641 467.164C-2.48674 467.508 -2.65605 467.854 -2.82422 468.2C-2.65605 467.854 -2.48674 467.508 -2.31641 467.164ZM-1.59375 465.725C-1.73565 466.003 -1.87715 466.283 -2.01758 466.563C-1.87715 466.283 -1.73565 466.003 -1.59375 465.725ZM450.102 465.135C450.067 465.015 450.033 464.894 449.998 464.774C450.033 464.894 450.067 465.015 450.102 465.135ZM-0.819336 464.225C-0.954424 464.482 -1.08886 464.741 -1.22266 465C-1.08886 464.741 -0.954424 464.482 -0.819336 464.225ZM0.0341797 462.624C-0.121967 462.912 -0.277166 463.202 -0.431641 463.492C-0.277166 463.202 -0.121967 462.912 0.0341797 462.624ZM449.312 462.537C449.296 462.489 449.28 462.44 449.265 462.392C449.28 462.44 449.296 462.489 449.312 462.537ZM0.78418 461.257C0.640015 461.516 0.497265 461.776 0.354492 462.036C0.497269 461.776 0.640015 461.516 0.78418 461.257ZM1.63184 459.76C1.48166 460.021 1.33231 460.283 1.18359 460.546C1.33231 460.283 1.48166 460.021 1.63184 459.76ZM448.489 460.094C448.483 460.077 448.478 460.061 448.472 460.044C448.478 460.061 448.483 460.077 448.489 460.094ZM2.45312 458.354C2.30543 458.603 2.15901 458.853 2.0127 459.104C2.15901 458.853 2.30543 458.603 2.45312 458.354ZM447.721 458.004C447.682 457.903 447.644 457.801 447.605 457.7C447.644 457.801 447.682 457.903 447.721 458.004ZM3.28906 456.966C3.16821 457.163 3.04866 457.362 2.92871 457.561C3.04866 457.362 3.16821 457.163 3.28906 456.966ZM447.314 456.957C447.258 456.814 447.203 456.671 447.146 456.528C447.203 456.671 447.258 456.814 447.314 456.957ZM4.16895 455.551C4.0299 455.771 3.89178 455.991 3.75391 456.213C3.89178 455.991 4.0299 455.771 4.16895 455.551ZM446.853 455.812C446.792 455.665 446.732 455.517 446.671 455.37C446.732 455.517 446.792 455.665 446.853 455.812ZM446.436 454.814C446.344 454.6 446.253 454.385 446.16 454.171C446.253 454.385 446.344 454.6 446.436 454.814ZM5.05469 454.174C4.9167 454.385 4.77945 454.597 4.64258 454.81C4.77945 454.597 4.9167 454.385 5.05469 454.174ZM445.924 453.635C445.841 453.447 445.757 453.259 445.673 453.071C445.757 453.259 445.841 453.447 445.924 453.635ZM5.98535 452.773C5.81885 453.02 5.65418 453.267 5.48926 453.516C5.65418 453.267 5.81885 453.019 5.98535 452.773ZM445.369 452.408C445.304 452.266 445.239 452.124 445.173 451.982C445.239 452.124 445.304 452.266 445.369 452.408ZM6.86523 451.495C6.72051 451.702 6.57715 451.91 6.43359 452.119C6.57715 451.91 6.72051 451.702 6.86523 451.495ZM444.792 451.177C444.735 451.059 444.679 450.94 444.622 450.822C444.679 450.94 444.735 451.059 444.792 451.177ZM7.86523 450.091C7.68647 450.337 7.50907 450.585 7.33203 450.834C7.50907 450.585 7.68647 450.337 7.86523 450.091ZM444.316 450.2C444.241 450.048 444.166 449.895 444.09 449.743C444.166 449.895 444.241 450.048 444.316 450.2ZM8.84375 448.769C8.63431 449.047 8.42588 449.327 8.21875 449.608C8.42588 449.327 8.63431 449.047 8.84375 448.769ZM443.737 449.048C443.671 448.918 443.604 448.787 443.537 448.657C443.604 448.787 443.671 448.918 443.737 449.048ZM9.73633 447.602C9.56127 447.827 9.38735 448.053 9.21387 448.28C9.38735 448.053 9.56127 447.827 9.73633 447.602ZM443.207 448.026C443.114 447.85 443.02 447.673 442.926 447.497C443.02 447.673 443.114 447.85 443.207 448.026ZM10.7188 446.362C10.5546 446.566 10.3913 446.77 10.2285 446.976C10.3913 446.77 10.5546 446.566 10.7188 446.362ZM442.623 446.94C442.537 446.783 442.452 446.625 442.365 446.468C442.452 446.625 442.537 446.783 442.623 446.94ZM11.7539 445.104C11.5606 445.335 11.3683 445.567 11.1768 445.8C11.3683 445.567 11.5606 445.335 11.7539 445.104ZM441.977 445.773C441.907 445.65 441.837 445.527 441.767 445.403C441.837 445.527 441.907 445.65 441.977 445.773ZM441.396 444.761C441.293 444.585 441.191 444.409 441.088 444.233C441.191 444.409 441.293 444.585 441.396 444.761ZM13.2949 443.318C12.9248 443.734 12.56 444.157 12.1963 444.583C12.56 444.157 12.9248 443.734 13.2949 443.318ZM440.737 443.646C440.662 443.52 440.586 443.394 440.51 443.269C440.586 443.394 440.662 443.52 440.737 443.646ZM23.5234 433.863C19.9997 436.482 16.7128 439.529 13.6455 442.929C16.7129 439.529 19.9996 436.482 23.5234 433.863ZM440.127 442.646C440.026 442.482 439.925 442.32 439.823 442.157C439.925 442.32 440.026 442.482 440.127 442.646ZM439.501 441.647C439.388 441.47 439.274 441.292 439.159 441.115C439.274 441.292 439.388 441.47 439.501 441.647ZM438.858 440.652C438.727 440.452 438.595 440.253 438.463 440.054C438.596 440.253 438.727 440.452 438.858 440.652ZM438.146 439.583C438.033 439.415 437.92 439.248 437.806 439.081C437.92 439.248 438.033 439.415 438.146 439.583ZM437.434 438.542C437.318 438.376 437.202 438.21 437.085 438.045C437.202 438.21 437.318 438.376 437.434 438.542ZM436.753 437.577C436.618 437.389 436.483 437.201 436.347 437.014C436.483 437.201 436.618 437.389 436.753 437.577ZM436.013 436.558C435.895 436.397 435.776 436.237 435.657 436.077C435.776 436.237 435.895 436.397 436.013 436.558ZM435.253 435.539C435.132 435.379 435.011 435.22 434.889 435.062C435.011 435.22 435.132 435.379 435.253 435.539ZM434.494 434.552C434.394 434.423 434.294 434.295 434.193 434.167C434.294 434.295 434.394 434.423 434.494 434.552ZM433.704 433.551C433.589 433.408 433.474 433.265 433.358 433.123C433.474 433.265 433.589 433.408 433.704 433.551ZM433.013 432.699C432.844 432.494 432.674 432.29 432.504 432.086C432.674 432.29 432.844 432.494 433.013 432.699ZM432.241 431.772C432.066 431.565 431.89 431.358 431.713 431.152C431.89 431.358 432.066 431.565 432.241 431.772ZM431.412 430.804C431.247 430.613 431.08 430.423 430.913 430.233C431.08 430.423 431.247 430.613 431.412 430.804ZM430.534 429.807C430.411 429.668 430.287 429.53 430.162 429.393C430.287 429.53 430.411 429.668 430.534 429.807ZM429.732 428.92C429.597 428.772 429.461 428.625 429.325 428.479C429.461 428.625 429.597 428.772 429.732 428.92ZM428.874 427.996C428.733 427.846 428.591 427.698 428.449 427.549C428.591 427.698 428.733 427.846 428.874 427.996ZM428.039 427.121C427.889 426.966 427.738 426.811 427.587 426.657C427.738 426.811 427.889 426.966 428.039 427.121ZM427.162 426.226C427.017 426.079 426.871 425.934 426.725 425.789C426.871 425.934 427.017 426.079 427.162 426.226ZM426.294 425.364C426.113 425.187 425.931 425.009 425.748 424.833C425.931 425.009 426.113 425.187 426.294 425.364ZM425.456 424.553C425.251 424.357 425.045 424.163 424.839 423.969C425.045 424.163 425.251 424.357 425.456 424.553ZM424.534 423.683C424.339 423.501 424.142 423.321 423.945 423.141C424.142 423.321 424.339 423.501 424.534 423.683ZM423.608 422.833C423.422 422.664 423.233 422.496 423.045 422.328C423.233 422.496 423.422 422.664 423.608 422.833ZM422.679 422.002C422.506 421.85 422.333 421.7 422.159 421.549C422.333 421.7 422.506 421.85 422.679 422.002ZM421.706 421.157C421.529 421.005 421.351 420.855 421.173 420.704C421.351 420.855 421.529 421.005 421.706 421.157ZM420.774 420.368C420.606 420.228 420.437 420.089 420.268 419.949C420.437 420.089 420.606 420.228 420.774 420.368ZM419.805 419.569C419.639 419.435 419.473 419.302 419.307 419.169C419.473 419.302 419.639 419.435 419.805 419.569ZM418.834 418.792C418.655 418.651 418.476 418.511 418.296 418.371C418.476 418.511 418.655 418.651 418.834 418.792ZM417.871 418.04C417.677 417.891 417.482 417.744 417.287 417.597C417.482 417.744 417.677 417.891 417.871 418.04ZM416.849 417.266C416.684 417.142 416.518 417.02 416.352 416.897C416.518 417.02 416.684 417.142 416.849 417.266ZM415.839 416.52C415.667 416.394 415.493 416.271 415.319 416.146C415.493 416.271 415.667 416.394 415.839 416.52ZM414.817 415.787C414.694 415.7 414.57 415.614 414.446 415.527C414.57 415.614 414.694 415.7 414.817 415.787ZM413.785 415.067C413.645 414.971 413.504 414.877 413.363 414.781C413.504 414.877 413.645 414.971 413.785 415.067ZM412.779 414.386C412.636 414.29 412.492 414.195 412.349 414.101C412.492 414.195 412.636 414.29 412.779 414.386ZM408.898 411.928C409.838 412.491 410.766 413.069 411.683 413.663C410.766 413.069 409.838 412.491 408.898 411.928ZM405.232 409.836V409.835V409.836ZM401.56 407.916C401.244 407.754 400.927 407.591 400.607 407.429C400.927 407.591 401.244 407.754 401.56 407.916ZM399.996 407.118C399.621 406.928 399.244 406.737 398.864 406.546C399.244 406.737 399.621 406.928 399.996 407.118ZM398.101 406.162C397.771 405.997 397.44 405.83 397.106 405.664C397.44 405.83 397.771 405.997 398.101 406.162ZM396.252 405.239C395.961 405.095 395.669 404.951 395.376 404.807C395.669 404.951 395.961 405.095 396.252 405.239ZM387.254 400.883C387.13 400.824 387.006 400.766 386.882 400.707C387.006 400.766 387.13 400.824 387.254 400.883ZM383.695 399.211C382.993 398.883 382.287 398.557 381.578 398.229C382.287 398.557 382.993 398.883 383.695 399.211ZM379.864 397.435C379.006 397.04 378.143 396.647 377.278 396.253C378.143 396.647 379.006 397.04 379.864 397.435ZM374.159 394.838C373.326 394.462 372.492 394.085 371.655 393.71C372.492 394.085 373.326 394.462 374.159 394.838ZM370.097 393.016C369.296 392.659 368.496 392.302 367.693 391.946C368.496 392.302 369.296 392.659 370.097 393.016ZM365.552 391.002C364.86 390.697 364.168 390.392 363.476 390.089C364.168 390.392 364.86 390.697 365.552 391.002ZM361.48 389.218C360.734 388.892 359.988 388.568 359.242 388.245C359.988 388.568 360.734 388.892 361.48 389.218ZM357.346 387.425C356.552 387.082 355.76 386.742 354.97 386.402C355.76 386.742 356.552 387.082 357.346 387.425ZM349.37 384.013C346.57 382.826 343.808 381.664 341.104 380.536C343.808 381.664 346.57 382.826 349.37 384.013ZM340.125 380.129C339.16 379.727 338.204 379.33 337.256 378.938C338.204 379.33 339.16 379.727 340.125 380.129ZM335.82 378.344C335.052 378.026 334.29 377.711 333.535 377.4C334.29 377.711 335.052 378.026 335.82 378.344ZM331.878 376.719C331.324 376.491 330.774 376.267 330.229 376.044C330.774 376.267 331.324 376.491 331.878 376.719ZM320.064 371.921C318.762 371.397 317.501 370.891 316.287 370.406C317.501 370.891 318.761 371.397 320.064 371.921ZM314.02 369.501C312.847 369.034 311.726 368.589 310.662 368.168C311.726 368.589 312.847 369.034 314.02 369.501ZM308.78 367.423C307.559 366.941 306.428 366.497 305.395 366.092C306.428 366.497 307.559 366.941 308.78 367.423ZM304.551 365.76C303.249 365.25 302.126 364.813 301.203 364.454C302.126 364.813 303.249 365.25 304.551 365.76ZM-26.4551 561.836C-26.5044 562.283 -26.5512 562.727 -26.5986 563.168C-26.5512 562.727 -26.5044 562.283 -26.4551 561.836ZM-25.7412 555.738C-25.8337 556.485 -25.9224 557.226 -26.0098 557.961C-25.9224 557.226 -25.8337 556.485 -25.7412 555.738ZM-17.1768 508.993C-17.2824 509.41 -17.3865 509.827 -17.4902 510.243C-17.3865 509.827 -17.2824 509.41 -17.1768 508.993ZM407.452 411.075C407.235 410.95 407.016 410.828 406.798 410.704C407.016 410.828 407.235 410.95 407.452 411.075ZM353.309 385.69C352.117 385.181 350.93 384.676 349.75 384.175C350.93 384.676 352.117 385.181 353.309 385.69Z" fill="#977A67"/>
<path d="M255.94 413.691C226.677 413.691 201.961 399.854 189.83 391.602C173.435 380.449 160.482 366.296 159.034 357.94C158.962 357.512 159.061 357.065 159.311 356.709C159.495 356.453 177.488 330.574 179.29 300.616C180.863 274.454 168.475 250.477 166.679 247.154C162.955 245.042 137.897 230.198 134.838 211.939C133.673 204.997 135.831 198.45 141.252 192.469C145.568 187.712 150.41 185.297 155.646 185.297C170.225 185.297 183.343 203.892 188.31 211.893C188.507 212.208 188.757 212.373 189.06 212.373C189.547 212.373 190.093 211.978 190.198 211.221C192.593 193.614 185.586 161.418 185.514 161.089C185.382 160.497 185.586 159.885 186.047 159.49C186.257 159.313 207.119 141.113 210.257 116.629C210.329 116.057 210.698 115.57 211.224 115.333C211.625 115.155 251.927 97.4685 286.814 97.4685C290.018 97.4685 293.13 97.6198 296.057 97.9159C321.155 100.443 327.484 111.523 334.181 123.248L334.51 123.821C345.299 142.692 336.813 178.743 334.951 185.981C336.339 186.981 338.477 189.166 340.036 193.719C343.016 202.404 342.655 215.663 338.951 233.126C329.451 277.928 321.912 313.526 298.208 319.579C299.228 325.527 302.471 347.346 299.682 370.027C296.281 397.676 284.143 411.882 262.571 413.454C260.394 413.612 258.163 413.698 255.946 413.698L255.94 413.691Z" fill="#FFCDAE"/>
<path d="M286.814 99.1068C289.893 99.1068 292.926 99.245 295.893 99.5411C320.55 102.022 326.405 112.957 333.076 124.624C344.648 144.863 333.03 186.757 333.03 186.757C333.03 186.757 346.108 191.37 337.332 232.771C327.444 279.435 319.767 313.743 296.301 318.302C296.301 318.302 301.3 343.293 298.037 369.81C295.156 393.247 285.663 410.105 262.44 411.796C260.262 411.954 258.091 412.033 255.933 412.033C206.658 412.033 163.146 372.007 160.646 357.644C160.646 357.644 179.067 331.502 180.922 300.701C182.659 271.796 167.883 245.937 167.883 245.937C167.883 245.937 119.213 219.209 142.462 193.561C146.739 188.843 151.212 186.929 155.64 186.929C168.271 186.929 180.54 202.49 186.902 212.741C187.442 213.61 188.244 213.998 189.047 213.998C190.323 213.998 191.599 213.024 191.816 211.419C194.283 193.311 187.113 160.714 187.113 160.714C187.113 160.714 208.625 142.245 211.882 116.813C211.882 116.813 251.861 99.0871 286.801 99.0871M286.814 95.8169C251.585 95.8169 212.217 113.089 210.559 113.826C209.507 114.293 208.777 115.274 208.632 116.419C205.566 140.317 185.185 158.063 184.981 158.24C184.06 159.03 183.652 160.26 183.909 161.445C183.975 161.754 190.54 191.916 188.744 209.504C183.034 200.661 170.172 183.658 155.653 183.658C149.929 183.658 144.673 186.251 140.035 191.37C134.259 197.739 131.969 204.753 133.219 212.215C136.298 230.606 160.462 245.463 165.455 248.352C167.791 252.773 179.146 275.671 177.652 300.524C175.883 329.988 158.153 355.518 157.969 355.768C157.469 356.479 157.271 357.367 157.416 358.229C160.298 374.791 205.691 415.343 255.946 415.343C258.203 415.343 260.466 415.257 262.69 415.099C274.623 414.224 283.979 409.473 290.491 400.979C296.136 393.609 299.675 383.555 301.314 370.231C303.965 348.642 301.314 328.33 300.083 320.763C310.55 317.506 318.517 308.452 324.964 292.582C331.372 276.816 336.043 254.78 340.563 233.468C344.326 215.709 344.674 202.154 341.595 193.186C340.194 189.106 338.332 186.731 336.806 185.363C339.102 176.098 346.589 141.626 335.944 123.005L335.615 122.433C329.004 110.859 322.168 98.8897 296.228 96.2775C293.248 95.9748 290.077 95.8235 286.821 95.8235L286.814 95.8169Z" fill="#977A67"/>
<path d="M146.713 216.104C146.713 216.104 141.818 204.22 150.206 197.93C158.594 191.64 174.778 204.22 178.166 224.493C181.468 244.239 156.844 234.139 163.837 216.637" fill="url(#paint0_linear_373_1825)"/>
<path d="M172.883 236.962C170.574 236.962 168.061 235.949 165.877 234.021C162.028 230.632 159.074 224.131 162.311 216.031C162.646 215.189 163.607 214.775 164.449 215.117C165.291 215.459 165.705 216.413 165.363 217.255C162.765 223.769 165.048 228.915 168.048 231.56C170.284 233.527 172.942 234.205 174.672 233.244C176.587 232.178 177.264 229.092 176.547 224.769C174.205 210.748 165.923 201.47 159.219 198.792C157.015 197.91 153.831 197.272 151.193 199.253C143.91 204.714 148.186 215.38 148.232 215.485C148.581 216.327 148.18 217.288 147.338 217.63C146.495 217.979 145.535 217.578 145.193 216.735C143.331 212.215 141.778 202.2 149.219 196.614C152.232 194.357 156.212 194.041 160.436 195.732C167.962 198.746 177.231 208.945 179.784 224.223C181.106 232.132 178.146 235.067 176.264 236.113C175.238 236.686 174.087 236.962 172.876 236.962H172.883Z" fill="#977A67"/>
<path d="M218.809 284.482C218.809 284.482 252.703 323.744 296.307 318.309C296.307 318.309 298.86 330.672 298.702 339.154C298.702 339.154 281.216 365.658 263.427 369.671C263.427 369.671 255.604 326.501 218.809 284.482Z" fill="url(#paint1_linear_373_1825)"/>
<path d="M167.896 245.95C167.896 245.95 173.765 249.858 179.699 247.977C186.317 245.878 189.876 236.824 189.876 236.824L194.297 267.249C194.297 267.249 179.784 266.828 175.166 262.88C175.166 262.88 171.337 250.852 167.896 245.95Z" fill="url(#paint2_linear_373_1825)"/>
<path d="M307.254 250.845C307.254 250.845 318.465 240.443 319.912 235.804C321.359 231.165 310.958 227.691 303.399 230.007C294.735 232.665 280.722 236.975 282.498 242.621C282.498 242.621 295.695 244.18 307.254 250.845Z" fill="url(#paint3_linear_373_1825)"/>
<path d="M177.778 249.766C169.699 249.766 154.699 244.081 144.055 232.014C143.456 231.329 143.522 230.29 144.199 229.691C144.884 229.092 145.923 229.158 146.522 229.836C157.66 242.463 173.863 247.299 179.422 246.351C185.58 245.305 186.896 237.442 186.909 237.357C187.054 236.462 187.889 235.85 188.79 235.988C189.685 236.126 190.297 236.968 190.159 237.863C190.093 238.284 188.481 248.141 179.975 249.595C179.317 249.707 178.58 249.766 177.778 249.766Z" fill="#977A67"/>
<path d="M290.215 321.52C277.255 321.52 262.341 316.644 246.309 307.07C229.848 297.247 217.796 285.784 217.678 285.673C217.02 285.048 217 284.001 217.625 283.35C218.25 282.699 219.296 282.672 219.947 283.297C220.414 283.745 267.078 327.804 302.814 316.361C303.675 316.085 304.603 316.559 304.879 317.427C305.156 318.289 304.682 319.217 303.814 319.493C299.577 320.849 295.031 321.52 290.215 321.52Z" fill="#977A67"/>
<path d="M240.795 182.671C240.361 182.671 239.934 182.5 239.611 182.165C238.98 181.507 238.999 180.467 239.657 179.835C240.078 179.427 250.157 169.887 263.558 169.393C274.327 169.011 278.209 177.394 278.367 177.749C278.735 178.579 278.367 179.552 277.538 179.921C276.709 180.289 275.735 179.921 275.367 179.092C275.242 178.822 272.183 172.367 263.683 172.676C251.525 173.124 242.032 182.112 241.94 182.204C241.624 182.513 241.21 182.665 240.802 182.665L240.795 182.671Z" fill="#977A67"/>
<path d="M254.506 174.157C254.506 174.157 254.506 184.066 261.782 184.047C268.426 184.027 269.966 174.71 268.782 173.071C268.782 173.071 266.15 172.255 263.426 172.209C259.565 172.144 254.506 174.157 254.506 174.157Z" fill="#977A67"/>
<path d="M233.789 171.722C233.315 171.722 232.842 171.518 232.513 171.117C231.94 170.413 232.039 169.38 232.743 168.801C233.348 168.307 247.762 156.655 266.538 156.648C280.077 156.648 283.722 165.616 283.873 165.998C284.202 166.847 283.781 167.801 282.939 168.13C282.09 168.459 281.136 168.038 280.808 167.195C280.689 166.913 277.735 159.944 266.538 159.944C248.973 159.944 234.967 171.236 234.828 171.347C234.526 171.597 234.151 171.716 233.789 171.716V171.722Z" fill="#977A67"/>
<path d="M279.755 239.613C279.156 239.613 278.578 239.284 278.288 238.719C274.972 232.218 278.696 227.684 281.13 226.191C281.906 225.717 282.92 225.96 283.393 226.737C283.867 227.507 283.623 228.52 282.86 228.994C282.4 229.283 278.525 231.948 281.222 237.225C281.637 238.034 281.314 239.028 280.505 239.436C280.268 239.561 280.012 239.613 279.762 239.613H279.755Z" fill="#977A67"/>
<path d="M337.642 160.905C337.642 160.905 330.017 156.102 324.813 157.832C320.912 159.135 312.432 162.425 306.846 167.044C303.991 169.406 303.195 173.236 304.077 176.835C307.471 190.659 316.932 219.762 317.662 233.771C317.787 236.106 316.951 238.383 315.353 240.081L305.202 250.839C305.202 250.839 302.682 256.84 305.202 260.952C305.202 260.952 317.03 271.684 316.721 274.461C316.412 277.237 321.905 287.778 321.905 287.778C321.905 287.778 352.121 202.595 333.03 186.757C333.03 186.757 337.694 169.314 337.642 160.892V160.905Z" fill="url(#paint4_linear_373_1825)"/>
<path d="M306.971 243.239C305.169 243.239 303.129 242.89 300.879 241.949C299.59 241.41 298.518 240.818 297.57 240.291C295.682 239.252 294.32 238.495 292.057 238.462C288.478 238.429 285.15 241.272 285.117 241.298C284.432 241.89 283.393 241.824 282.794 241.14C282.196 240.456 282.268 239.423 282.946 238.824C283.117 238.673 287.163 235.172 291.965 235.172C292.011 235.172 292.057 235.172 292.103 235.172C295.195 235.218 297.123 236.284 299.162 237.409C300.077 237.916 301.024 238.436 302.149 238.909C307.603 241.193 311.425 239.1 312.813 238.094C314.524 236.857 315.379 235.291 315.313 234.448C314.833 228.388 306.781 196.449 302.096 178.532C300.715 173.255 302.485 167.689 306.596 164.353C313.175 159.023 323.379 157.293 327.458 156.799C338.069 155.509 340.885 162.445 340.997 162.741C341.326 163.59 340.905 164.544 340.056 164.866C339.214 165.195 338.267 164.781 337.931 163.945C337.832 163.715 335.793 159.102 327.846 160.069C324.05 160.53 314.576 162.122 308.655 166.912C305.544 169.432 304.215 173.67 305.267 177.703C306.563 182.671 317.971 226.447 318.583 234.192C318.754 236.37 317.241 238.949 314.734 240.765C313.484 241.666 310.767 243.239 306.958 243.239H306.971Z" fill="#977A67"/>
<path d="M309.971 179.776C309.491 179.776 309.011 179.566 308.688 179.158C308.123 178.447 308.234 177.414 308.945 176.848C309.327 176.539 318.399 169.354 328.05 170.084C336.582 170.729 338.431 175.769 338.503 175.986C338.799 176.842 338.346 177.783 337.49 178.079C336.635 178.375 335.694 177.921 335.398 177.065C335.359 176.967 334.05 173.841 327.806 173.367C319.432 172.736 311.09 179.349 311.004 179.414C310.701 179.658 310.34 179.776 309.978 179.776H309.971Z" fill="#977A67"/>
<path d="M320.254 172.644C320.254 172.644 318.162 181.553 324.892 181.882C331.109 182.184 331.004 173.788 331.004 173.788C331.004 173.788 330.497 172.637 326.635 172.216C323.3 171.847 320.247 172.637 320.247 172.637L320.254 172.644Z" fill="#977A67"/>
<path d="M278.091 269.973C275.643 269.973 273.242 269.736 271.084 269.098C270.216 268.841 269.716 267.927 269.972 267.058C270.229 266.19 271.143 265.683 272.012 265.946C277.294 267.499 284.689 266.269 290.09 265.367C292.748 264.926 295.044 264.538 296.715 264.525C298.491 264.512 300.064 265.018 301.452 265.466C302.425 265.782 303.346 266.084 304.004 266.058C304.715 266.045 305.346 265.782 306.136 265.453C307.109 265.051 308.208 264.591 309.675 264.525C311.261 264.446 312.484 265.084 313.563 265.637C314.432 266.084 315.175 266.473 316.004 266.44C316.912 266.413 317.675 267.124 317.701 268.032C317.734 268.94 317.017 269.703 316.109 269.73C314.425 269.789 313.109 269.105 312.057 268.565C311.208 268.124 310.53 267.775 309.827 267.808C308.938 267.848 308.228 268.144 307.399 268.486C306.465 268.874 305.412 269.309 304.083 269.341C302.866 269.368 301.689 268.993 300.445 268.591C299.241 268.203 297.991 267.795 296.741 267.808C295.333 267.821 293.156 268.183 290.63 268.605C286.972 269.216 282.452 269.967 278.091 269.967V269.973Z" fill="#977A67"/>
<path d="M299.333 278.882C294.419 278.882 290.452 277.757 290.275 277.705C289.4 277.455 288.9 276.54 289.15 275.671C289.4 274.796 290.314 274.296 291.182 274.546C291.248 274.566 295.419 275.737 300.235 275.579C305.465 275.408 308.577 274.23 309.965 273.54C310.781 273.138 311.767 273.467 312.169 274.283C312.57 275.099 312.241 276.086 311.425 276.487C309.439 277.474 305.899 278.692 300.34 278.869C299.998 278.882 299.662 278.882 299.327 278.882H299.333Z" fill="#977A67"/>
<path d="M303.906 261.103C301.82 261.103 300.235 260.439 300.057 260.36C299.228 259.998 298.847 259.024 299.208 258.195C299.57 257.366 300.537 256.984 301.366 257.346C301.399 257.359 302.623 257.86 304.116 257.813C304.879 257.787 305.478 257.629 305.761 257.537C306.116 257.274 306.577 257.149 307.044 257.234C307.873 257.386 308.465 258.149 308.399 258.985C308.274 260.702 305.728 261.044 304.228 261.097C304.116 261.097 304.011 261.097 303.906 261.097V261.103Z" fill="#977A67"/>
</g>
</g>
</g>
<defs>
<filter id="filter0_d_373_1825" x="-20" y="-20" width="517" height="604" filterUnits="userSpaceOnUse" color-interpolation-filters="sRGB">
<feFlood flood-opacity="0" result="BackgroundImageFix"/>
<feColorMatrix in="SourceAlpha" type="matrix" values="0 0 0 0 0 0 0 0 0 0 0 0 0 0 0 0 0 0 127 0" result="hardAlpha"/>
<feOffset/>
<feGaussianBlur stdDeviation="10"/>
<feComposite in2="hardAlpha" operator="out"/>
<feColorMatrix type="matrix" values="0 0 0 0 0.584615 0 0 0 0 0.496818 0 0 0 0 0.383935 0 0 0 0.15 0"/>
<feBlend mode="normal" in2="BackgroundImageFix" result="effect1_dropShadow_373_1825"/>
<feBlend mode="normal" in="SourceGraphic" in2="effect1_dropShadow_373_1825" result="shape"/>
</filter>
<linearGradient id="paint0_linear_373_1825" x1="177.462" y1="209.53" x2="157.468" y2="218.654" gradientUnits="userSpaceOnUse">
<stop stop-color="#E2AE8E"/>
<stop offset="1" stop-color="#FFCDAE"/>
</linearGradient>
<linearGradient id="paint1_linear_373_1825" x1="258.756" y1="311.821" x2="256.15" y2="375.712" gradientUnits="userSpaceOnUse">
<stop stop-color="#E2AE8E"/>
<stop offset="1" stop-color="#FFCDAE"/>
</linearGradient>
<linearGradient id="paint2_linear_373_1825" x1="180.409" y1="239.521" x2="181.831" y2="275.112" gradientUnits="userSpaceOnUse">
<stop stop-color="#E2AE8E"/>
<stop offset="1" stop-color="#FFCDAE"/>
</linearGradient>
<linearGradient id="paint3_linear_373_1825" x1="299.353" y1="245.66" x2="302.834" y2="231.751" gradientUnits="userSpaceOnUse">
<stop stop-color="#E2AE8E"/>
<stop offset="1" stop-color="#FFCDAE"/>
</linearGradient>
<linearGradient id="paint4_linear_373_1825" x1="304" y1="226.5" x2="375" y2="222.993" gradientUnits="userSpaceOnUse">
<stop stop-color="#E2AE8E"/>
<stop offset="1" stop-color="#FFCDAE"/>
</linearGradient>
<clipPath id="clip0_373_1825">
<rect width="477" height="564" rx="20" fill="white"/>
</clipPath>
<clipPath id="clip1_373_1825">
<rect width="500" height="556" fill="white" transform="translate(-29 42)"/>
</clipPath>
</defs>
</svg>
