<svg width="477" height="564" viewBox="0 0 477 564" fill="none" xmlns="http://www.w3.org/2000/svg">
<g filter="url(#filter0_d_373_2305)">
<g clip-path="url(#clip0_373_2305)">
<g clip-path="url(#clip1_373_2305)">
<path d="M234.707 36.7453C195.942 34.6522 150.341 56.575 137.821 101.477C129.858 130.026 134.171 159.24 134.171 159.24C134.171 159.24 127.412 156.586 121.56 160.238C117.653 162.679 108.95 169.203 116.584 196.091C124.219 222.979 139.481 227.294 146.781 226.631C146.781 226.631 164.696 306.304 168.018 321.239C171.333 336.18 177.641 357.755 177.641 357.755C177.641 357.755 157.203 425.211 155.208 452.762C153.212 480.314 261.621 408.324 288.169 346.246L285.478 268.441C285.478 268.441 300.438 250.048 302.897 239.911C305.633 228.621 310.364 152.606 311.027 134.348C311.69 116.09 300.734 40.3132 234.707 36.7453Z" fill="#FFC398"/>
<path d="M136.576 99.9743C149.773 54.8773 195.802 33.0321 234.794 35.1374C268.556 36.9618 288.233 57.3011 299.314 79.3138C310.36 101.258 312.976 125.042 312.636 134.407C312.303 143.564 310.953 167.154 309.345 189.857C308.541 201.211 307.671 212.355 306.831 221.371C306.048 229.768 305.281 236.446 304.597 239.688L304.461 240.29C303.795 243.037 302.315 246.238 300.545 249.427C298.763 252.638 296.631 255.935 294.59 258.892C292.547 261.853 290.584 264.491 289.132 266.388C288.405 267.337 287.806 268.102 287.387 268.631C287.283 268.763 287.188 268.88 287.107 268.982L289.777 346.191C289.785 346.427 289.741 346.662 289.648 346.88C276.206 378.314 242.189 412.041 211.941 434.41C196.805 445.604 182.472 454.06 171.97 457.981C166.78 459.919 162.244 460.86 158.953 460.223C157.248 459.893 155.759 459.114 154.77 457.723C153.793 456.35 153.461 454.603 153.603 452.646C154.613 438.696 160.265 414.797 165.617 394.516C168.301 384.347 170.921 375.042 172.87 368.28C173.845 364.898 174.653 362.151 175.217 360.25C175.498 359.299 175.72 358.559 175.87 358.057C175.905 357.941 175.936 357.837 175.963 357.746C175.923 357.609 175.875 357.442 175.818 357.246C175.639 356.626 175.378 355.722 175.056 354.592C174.412 352.332 173.518 349.163 172.521 345.526C170.528 338.259 168.114 329.099 166.447 321.588L164.581 313.237C162.158 302.415 158.255 285.027 154.584 268.687C152.137 257.795 149.794 247.369 148.063 239.666C147.197 235.815 146.484 232.644 145.987 230.437C145.793 229.571 145.631 228.853 145.507 228.301C141.542 228.329 136.174 227.068 130.83 222.971C124.811 218.356 118.925 210.225 115.037 196.531C111.174 182.928 111.367 174.221 113.213 168.502C115.086 162.699 118.59 160.195 120.708 158.872H120.709C124.029 156.8 127.567 156.541 130.197 156.765C130.969 156.831 131.672 156.941 132.283 157.061C132.202 156.319 132.111 155.417 132.019 154.37C131.735 151.15 131.442 146.562 131.401 141.076C131.317 130.117 132.235 115.514 136.271 101.044L136.576 99.9743ZM234.621 38.3531C196.39 36.2889 151.635 57.9274 139.371 101.91C135.444 115.989 134.537 130.267 134.619 141.052C134.66 146.438 134.948 150.939 135.225 154.088C135.363 155.662 135.499 156.898 135.599 157.737C135.649 158.156 135.691 158.477 135.719 158.69C135.734 158.797 135.745 158.877 135.752 158.93C135.756 158.956 135.759 158.976 135.761 158.989C135.762 158.995 135.762 158.999 135.763 159.002C135.763 159.003 135.763 159.004 135.763 159.004C135.847 159.572 135.622 160.142 135.172 160.5C134.724 160.856 134.12 160.948 133.587 160.74C133.587 160.74 133.585 160.74 133.583 160.739H133.584L133.585 160.739C133.584 160.739 133.584 160.739 133.583 160.739V160.738H133.582C133.575 160.736 133.562 160.731 133.543 160.724C133.505 160.71 133.443 160.688 133.36 160.66C133.193 160.604 132.938 160.525 132.612 160.439C131.957 160.266 131.022 160.068 129.923 159.974C127.71 159.785 124.944 160.025 122.412 161.604L122.412 161.604C120.622 162.722 117.822 164.701 116.276 169.492C114.702 174.367 114.36 182.366 118.133 195.651C121.879 208.845 127.442 216.316 132.787 220.415C138.14 224.518 143.376 225.323 146.636 225.027C147.44 224.954 148.174 225.489 148.352 226.278L146.781 226.631C148.314 226.286 148.351 226.278 148.352 226.278C148.352 226.279 148.352 226.28 148.352 226.281C148.353 226.284 148.354 226.287 148.355 226.292C148.357 226.302 148.36 226.316 148.364 226.335C148.373 226.374 148.386 226.431 148.403 226.507C148.437 226.658 148.488 226.882 148.554 227.176C148.686 227.763 148.879 228.627 149.127 229.73C149.624 231.938 150.337 235.109 151.203 238.96C152.934 246.663 155.277 257.089 157.724 267.981C161.394 284.319 165.298 301.709 167.722 312.534L169.589 320.889V320.89C171.238 328.321 173.635 337.419 175.625 344.674C176.619 348.298 177.51 351.457 178.152 353.709C178.473 354.835 178.731 355.735 178.91 356.352C178.999 356.661 179.069 356.899 179.115 357.06C179.139 357.14 179.156 357.201 179.168 357.242C179.174 357.262 179.179 357.278 179.182 357.288C179.183 357.293 179.184 357.297 179.185 357.3C179.185 357.301 179.186 357.302 179.186 357.302L179.186 357.303C179.274 357.603 179.272 357.923 179.181 358.223L177.642 357.755L179.181 358.223C179.181 358.224 179.181 358.224 179.181 358.225C179.18 358.227 179.179 358.23 179.178 358.234C179.176 358.242 179.172 358.254 179.167 358.27C179.157 358.302 179.143 358.351 179.123 358.414C179.085 358.542 179.028 358.733 178.953 358.982C178.803 359.481 178.583 360.218 178.302 361.165C177.741 363.06 176.936 365.799 175.963 369.172C174.018 375.919 171.405 385.199 168.729 395.338C163.363 415.672 157.798 439.278 156.813 452.879C156.705 454.366 156.987 455.286 157.392 455.855C157.783 456.406 158.445 456.845 159.565 457.062C161.925 457.518 165.738 456.871 170.845 454.964C180.938 451.196 194.993 442.94 210.028 431.821C240.016 409.643 273.346 376.492 286.548 345.939L283.87 268.497C283.857 268.108 283.984 267.727 284.23 267.425H284.23C284.231 267.425 284.231 267.424 284.232 267.423C284.234 267.421 284.236 267.418 284.239 267.414C284.246 267.406 284.256 267.393 284.27 267.376C284.297 267.342 284.338 267.291 284.392 267.224C284.5 267.089 284.659 266.889 284.864 266.631C285.273 266.115 285.862 265.364 286.576 264.43C288.006 262.562 289.936 259.968 291.941 257.063C293.948 254.155 296.017 250.952 297.731 247.864C299.458 244.753 300.77 241.853 301.334 239.531C301.984 236.847 302.784 230.113 303.626 221.072C304.463 212.09 305.331 200.972 306.134 189.629C307.742 166.938 309.089 143.391 309.419 134.29C309.742 125.396 307.211 102.162 296.439 80.7622C285.701 59.4301 266.886 40.0967 234.621 38.3531Z" fill="#977A67"/>
<path d="M169.621 143.023C168.295 143.358 188.205 133.73 193.844 133.73C199.483 133.73 219.394 132.068 219.394 132.068C219.394 132.068 224.202 135.552 226.861 137.549C226.861 137.549 178.916 140.698 169.621 143.023Z" fill="#977A67"/>
<path d="M219.259 130.464C219.643 130.432 220.026 130.538 220.337 130.764L220.338 130.765C220.339 130.765 220.34 130.766 220.341 130.767C220.344 130.768 220.347 130.771 220.351 130.774C220.361 130.781 220.374 130.791 220.392 130.804C220.428 130.83 220.481 130.869 220.55 130.918C220.687 131.018 220.886 131.162 221.132 131.341C221.625 131.699 222.311 132.198 223.079 132.759C224.614 133.88 226.488 135.256 227.826 136.261C228.365 136.665 228.595 137.362 228.403 138.008C228.223 138.613 227.708 139.053 227.091 139.142L226.966 139.155C226.965 139.155 226.965 139.155 226.964 139.155C226.963 139.156 226.96 139.156 226.958 139.156C226.952 139.156 226.943 139.157 226.932 139.157C226.909 139.159 226.875 139.161 226.829 139.164C226.739 139.17 226.603 139.18 226.427 139.191C226.074 139.215 225.556 139.25 224.892 139.295C223.564 139.386 221.657 139.517 219.339 139.683C214.702 140.014 208.425 140.48 201.858 141.018C195.29 141.557 188.44 142.167 182.658 142.788C176.83 143.412 172.206 144.036 170.011 144.585L170.01 144.584C169.962 144.597 169.818 144.632 169.642 144.64C169.57 144.643 169.325 144.652 169.035 144.552C168.695 144.434 168.064 144.054 167.961 143.225C167.886 142.62 168.171 142.199 168.226 142.117C168.322 141.975 168.42 141.879 168.464 141.837C168.559 141.747 168.649 141.683 168.689 141.655C168.851 141.541 169.079 141.414 169.286 141.303C169.746 141.055 170.461 140.694 171.352 140.262C173.142 139.396 175.706 138.214 178.487 137.022C181.264 135.831 184.282 134.62 186.976 133.704C189.594 132.814 192.133 132.12 193.844 132.12C196.592 132.12 202.911 131.71 208.616 131.293C211.453 131.086 214.114 130.878 216.067 130.723C217.043 130.645 217.841 130.58 218.396 130.535C218.673 130.512 218.889 130.494 219.036 130.482C219.109 130.476 219.165 130.471 219.203 130.468C219.222 130.466 219.236 130.466 219.246 130.465C219.25 130.464 219.254 130.464 219.256 130.464H219.259ZM169.227 141.462L169.231 141.461C169.233 141.461 169.236 141.46 169.238 141.459C169.231 141.461 169.227 141.462 169.227 141.462ZM218.658 133.744C218.101 133.79 217.301 133.855 216.322 133.933C214.365 134.089 211.696 134.296 208.85 134.504C203.19 134.918 196.736 135.34 193.844 135.34C192.736 135.34 190.671 135.849 188.012 136.753C185.541 137.593 182.75 138.705 180.116 139.828C180.831 139.747 181.565 139.666 182.314 139.586C188.136 138.961 195.015 138.349 201.595 137.81C208.176 137.27 214.466 136.803 219.109 136.471C220.321 136.385 221.421 136.309 222.384 136.242C221.972 135.94 221.567 135.641 221.181 135.36C220.415 134.8 219.732 134.303 219.241 133.946C219.127 133.863 219.023 133.788 218.931 133.721C218.848 133.728 218.756 133.736 218.658 133.744Z" fill="#977A67"/>
<path d="M262.858 132.068C262.858 132.068 285.092 129.743 291.722 130.741L300.02 137.549C300.02 137.549 263.353 137.845 260.701 138.669L262.858 132.068Z" fill="#977A67"/>
<path d="M284.373 128.918C287.202 128.845 289.804 128.873 291.611 129.101L291.962 129.149L292.068 129.169C292.315 129.223 292.546 129.335 292.743 129.496L301.04 136.304C301.564 136.733 301.763 137.446 301.537 138.085C301.312 138.724 300.71 139.153 300.033 139.159H300.006C299.989 139.159 299.962 139.159 299.928 139.16C299.859 139.16 299.755 139.161 299.621 139.162C299.352 139.165 298.958 139.168 298.454 139.173C297.447 139.183 296.006 139.198 294.268 139.218C290.791 139.259 286.129 139.322 281.385 139.41C276.639 139.499 271.819 139.612 268.024 139.755C266.125 139.827 264.495 139.905 263.263 139.991C262.646 140.033 262.143 140.077 261.763 140.121C261.573 140.142 261.424 140.163 261.314 140.182C261.192 140.202 261.159 140.213 261.179 140.207C260.604 140.386 259.977 140.228 259.555 139.799C259.132 139.37 258.984 138.742 259.171 138.169L261.328 131.568C261.525 130.964 262.059 130.533 262.69 130.467H262.694C262.697 130.466 262.702 130.465 262.707 130.465C262.718 130.464 262.735 130.462 262.756 130.46C262.799 130.455 262.862 130.449 262.945 130.441C263.111 130.424 263.355 130.399 263.667 130.368C264.291 130.306 265.189 130.218 266.287 130.117C268.482 129.914 271.481 129.654 274.689 129.424C277.894 129.195 281.322 128.997 284.373 128.918ZM291.056 132.278C289.527 132.1 287.203 132.066 284.456 132.137C281.473 132.214 278.1 132.409 274.918 132.636C271.739 132.864 268.764 133.122 266.583 133.324C265.538 133.42 264.675 133.504 264.062 133.565L263.011 136.78C263.021 136.78 263.031 136.779 263.041 136.779C264.322 136.69 265.991 136.61 267.903 136.538C271.728 136.393 276.572 136.278 281.325 136.19C286.079 136.101 290.749 136.039 294.23 135.998C294.701 135.993 295.15 135.988 295.574 135.984L291.056 132.278Z" fill="#977A67"/>
<path d="M218.003 131.257C218.451 130.489 219.436 130.23 220.204 130.678H220.205L220.205 130.678L220.207 130.679C220.208 130.68 220.21 130.681 220.212 130.682C220.216 130.685 220.222 130.688 220.23 130.693C220.246 130.702 220.269 130.716 220.3 130.734C220.36 130.769 220.45 130.822 220.564 130.89C220.791 131.025 221.119 131.221 221.52 131.466C222.323 131.954 223.426 132.638 224.625 133.417C226.977 134.945 229.851 136.938 231.481 138.568C231.903 138.99 232.185 139.564 232.385 140.058C232.602 140.594 232.8 141.235 232.982 141.943C233.349 143.362 233.69 145.185 234.008 147.259C234.645 151.417 235.209 156.724 235.68 162.129C236.623 172.936 237.207 184.263 237.263 187.816V187.816C237.311 190.943 237.272 192.692 237.216 193.675C237.189 194.166 237.155 194.487 237.123 194.706C237.107 194.816 237.089 194.912 237.068 194.999C237.058 195.044 237.045 195.09 237.03 195.138C237.023 195.162 237.014 195.187 237.004 195.213C237 195.226 236.995 195.24 236.989 195.254C236.986 195.261 236.983 195.268 236.98 195.276C236.979 195.279 236.977 195.283 236.975 195.286C236.975 195.288 236.974 195.291 236.974 195.292C236.973 195.293 236.972 195.295 236.787 195.216L235.492 194.662L236.971 195.298C236.62 196.114 235.673 196.492 234.857 196.14C234.119 195.823 233.741 195.019 233.935 194.264C233.936 194.258 233.937 194.249 233.939 194.235C233.952 194.147 233.978 193.93 234.003 193.494C234.052 192.622 234.093 190.96 234.045 187.866C233.991 184.418 233.413 173.173 232.474 162.409C232.005 157.029 231.448 151.802 230.827 147.748C230.515 145.716 230.193 144.015 229.866 142.748C229.702 142.113 229.546 141.622 229.402 141.267C229.282 140.97 229.203 140.853 229.192 140.834L229.205 140.845C227.847 139.487 225.247 137.661 222.871 136.117C221.706 135.36 220.631 134.694 219.848 134.217C219.456 133.979 219.138 133.788 218.918 133.658C218.809 133.592 218.724 133.542 218.666 133.508C218.638 133.492 218.617 133.479 218.602 133.471C218.595 133.467 218.59 133.463 218.587 133.461C218.585 133.46 218.584 133.46 218.583 133.459L218.582 133.459C217.815 133.011 217.555 132.025 218.003 131.257ZM233.938 194.247C233.937 194.252 233.937 194.256 233.936 194.259C233.94 194.243 233.943 194.227 233.948 194.211C233.944 194.226 233.941 194.239 233.938 194.247ZM233.962 194.162C233.977 194.118 233.994 194.074 234.012 194.031L234.01 194.037C234.008 194.04 234.007 194.044 234.005 194.047C234.002 194.054 233.999 194.061 233.996 194.068C233.991 194.081 233.986 194.094 233.982 194.106C233.974 194.126 233.968 194.145 233.962 194.162Z" fill="#977A67"/>
<path d="M260.12 211.838C260.122 211.839 260.124 211.84 260.127 211.842C260.138 211.847 260.158 211.858 260.186 211.872C260.244 211.901 260.335 211.945 260.454 211.997C260.695 212.103 261.04 212.237 261.445 212.349C262.289 212.581 263.215 212.665 264.001 212.391C264.84 212.098 265.758 212.541 266.051 213.381C266.344 214.22 265.901 215.138 265.062 215.431C263.395 216.013 261.727 215.766 260.59 215.453C260.296 215.372 260.026 215.283 259.785 215.195C259.352 215.62 258.755 216.124 257.961 216.622C256.087 217.8 253.189 218.916 248.929 219.005C244.632 219.096 241.557 217.974 239.525 216.77C238.515 216.171 237.776 215.56 237.277 215.083C237.276 215.082 237.275 215.081 237.274 215.08C236.301 215.377 235.184 215.717 234.065 215.998C232.557 216.378 230.9 216.691 229.359 216.661H229.358C225.065 216.573 221.543 213.196 221.326 208.885L221.327 208.885L221.282 208.018V208.014C221.095 204.23 222.561 201.03 223.994 198.838C224.716 197.734 225.447 196.856 226.002 196.251C226.279 195.948 226.515 195.711 226.684 195.547C226.769 195.465 226.838 195.401 226.888 195.355C226.913 195.332 226.933 195.314 226.948 195.3L226.973 195.278C226.974 195.277 226.975 195.276 226.975 195.276L226.976 195.274C226.976 195.274 226.977 195.274 227.996 196.434L226.977 195.274C227.645 194.687 228.662 194.753 229.249 195.422C229.835 196.09 229.768 197.106 229.101 197.693L229.101 197.693C229.101 197.694 229.099 197.695 229.098 197.696C229.093 197.701 229.082 197.71 229.067 197.724C229.036 197.752 228.988 197.798 228.924 197.86C228.795 197.985 228.605 198.176 228.374 198.427C227.911 198.932 227.294 199.672 226.687 200.6C225.463 202.473 224.356 204.997 224.496 207.851L224.541 208.721V208.724C224.672 211.33 226.803 213.387 229.423 213.441C230.535 213.463 231.863 213.232 233.281 212.876C234.7 212.519 236.06 212.077 237.314 211.705L237.437 211.673C238.049 211.543 238.687 211.78 239.064 212.288L239.07 212.295C239.081 212.31 239.104 212.338 239.139 212.379C239.21 212.461 239.33 212.592 239.502 212.756C239.844 213.083 240.39 213.54 241.166 213.999C242.703 214.91 245.19 215.863 248.861 215.786C252.565 215.708 254.89 214.749 256.249 213.895C256.935 213.464 257.392 213.05 257.665 212.763C257.801 212.619 257.892 212.507 257.943 212.441C257.968 212.408 257.983 212.386 257.989 212.378C257.991 212.374 257.992 212.373 257.99 212.376C257.989 212.377 257.988 212.38 257.986 212.383C257.985 212.384 257.984 212.386 257.982 212.388C257.982 212.389 257.981 212.39 257.981 212.391C258.436 211.668 259.375 211.426 260.123 211.84L260.12 211.838Z" fill="#977A67"/>
<path d="M208.585 145.586C214.395 145.586 218.863 147.686 221.864 149.774C223.364 150.817 224.504 151.862 225.275 152.652C225.661 153.048 225.956 153.382 226.159 153.622C226.26 153.742 226.338 153.839 226.394 153.909C226.421 153.944 226.444 153.972 226.46 153.993C226.468 154.004 226.474 154.012 226.479 154.019C226.482 154.022 226.484 154.025 226.485 154.028C226.486 154.029 226.487 154.03 226.488 154.031L226.489 154.032C226.49 154.033 226.49 154.034 225.199 154.996L226.49 154.033C227.021 154.747 226.874 155.756 226.161 156.287C225.448 156.818 224.44 156.67 223.909 155.957C223.908 155.956 223.907 155.954 223.906 155.953C223.899 155.944 223.887 155.929 223.87 155.907C223.835 155.863 223.778 155.792 223.699 155.699C223.542 155.513 223.299 155.237 222.972 154.901C222.317 154.229 221.33 153.324 220.027 152.418C217.423 150.606 213.583 148.806 208.585 148.806C201.609 148.81 195.123 150.458 190.359 152.123C187.982 152.953 186.049 153.782 184.714 154.401C184.047 154.711 183.531 154.968 183.184 155.145C183.011 155.233 182.881 155.302 182.795 155.348C182.753 155.371 182.721 155.387 182.701 155.398C182.691 155.404 182.684 155.407 182.68 155.41C182.678 155.411 182.677 155.412 182.676 155.412L182.676 155.411C181.899 155.842 180.92 155.562 180.489 154.784C180.058 154.007 180.338 153.027 181.116 152.596L181.819 153.864C181.116 152.596 181.116 152.595 181.117 152.595L181.117 152.594C181.118 152.594 181.119 152.594 181.121 152.593C181.123 152.592 181.126 152.59 181.13 152.587C181.138 152.583 181.149 152.577 181.163 152.57C181.19 152.555 181.229 152.534 181.28 152.507C181.381 152.453 181.528 152.375 181.718 152.278C182.099 152.083 182.652 151.808 183.36 151.48C184.774 150.824 186.806 149.953 189.298 149.082C194.269 147.345 201.128 145.59 208.584 145.586H208.585Z" fill="#977A67"/>
<path d="M250.35 114.863C251.237 114.919 251.91 115.685 251.853 116.572V116.573C251.853 116.574 251.853 116.575 251.853 116.576C251.853 116.578 251.852 116.581 251.852 116.585C251.852 116.593 251.851 116.605 251.85 116.621C251.848 116.651 251.845 116.697 251.841 116.756C251.833 116.875 251.821 117.048 251.804 117.269C251.772 117.712 251.723 118.35 251.656 119.131C251.522 120.694 251.318 122.837 251.035 125.155C250.752 127.47 250.389 129.978 249.935 132.265C249.488 134.523 248.931 136.676 248.23 138.221C247.862 139.03 246.908 139.389 246.099 139.021C245.29 138.654 244.932 137.699 245.299 136.889C245.84 135.697 246.34 133.846 246.778 131.638C247.211 129.458 247.563 127.036 247.84 124.764C248.117 122.495 248.317 120.393 248.449 118.857C248.514 118.09 248.563 117.465 248.595 117.033C248.61 116.817 248.622 116.649 248.63 116.536C248.634 116.48 248.637 116.437 248.639 116.409C248.639 116.394 248.64 116.383 248.64 116.377C248.641 116.373 248.641 116.371 248.641 116.369V116.367C248.698 115.48 249.463 114.806 250.35 114.863Z" fill="#977A67"/>
<path d="M261.384 133.933C261.741 133.119 262.69 132.748 263.504 133.105C264.318 133.462 264.688 134.412 264.332 135.226C264.331 135.227 264.331 135.227 264.33 135.228C264.329 135.231 264.327 135.237 264.324 135.244C264.318 135.259 264.307 135.282 264.294 135.314C264.267 135.379 264.226 135.478 264.173 135.608C264.068 135.868 263.916 136.253 263.736 136.744C263.376 137.727 262.905 139.128 262.464 140.783C261.772 143.38 261.174 146.53 261.159 149.655C262.605 148.829 264.675 147.793 267.321 146.847C272.824 144.88 280.806 143.299 290.797 144.766H290.798C294.499 145.311 296.434 148.392 297.405 150.798C297.909 152.048 298.213 153.254 298.392 154.14C298.482 154.585 298.542 154.957 298.58 155.221C298.598 155.353 298.612 155.459 298.62 155.535C298.625 155.572 298.628 155.603 298.631 155.625C298.632 155.635 298.632 155.644 298.633 155.651C298.633 155.654 298.634 155.658 298.634 155.66V155.664C298.634 155.665 298.634 155.666 297.033 155.82L298.635 155.666C298.72 156.551 298.072 157.337 297.187 157.423C296.303 157.508 295.517 156.86 295.431 155.976L295.43 155.966C295.429 155.955 295.427 155.937 295.424 155.911C295.418 155.859 295.408 155.779 295.393 155.674C295.363 155.463 295.313 155.154 295.237 154.777C295.084 154.019 294.829 153.016 294.421 152.004C293.566 149.887 292.267 148.238 290.329 147.952V147.952C280.932 146.572 273.484 148.064 268.404 149.88C265.861 150.789 263.91 151.781 262.605 152.537C261.953 152.914 261.463 153.232 261.142 153.452C260.982 153.561 260.864 153.646 260.789 153.701C260.752 153.728 260.725 153.748 260.709 153.76C260.702 153.766 260.697 153.769 260.694 153.771C260.236 154.129 259.621 154.213 259.084 153.989C258.547 153.766 258.173 153.269 258.105 152.691C257.575 148.168 258.419 143.46 259.354 139.953C259.825 138.186 260.328 136.692 260.714 135.636C260.908 135.109 261.072 134.689 261.19 134.399C261.248 134.253 261.295 134.14 261.329 134.062C261.345 134.023 261.358 133.992 261.368 133.97C261.372 133.96 261.376 133.951 261.378 133.945C261.38 133.942 261.381 133.94 261.382 133.938C261.382 133.937 261.382 133.936 261.383 133.935L261.383 133.934C261.384 133.934 261.403 133.942 262.857 134.58L261.384 133.933ZM260.695 153.772H260.694H260.695Z" fill="#977A67"/>
<path d="M273.803 238.863C274.598 238.466 275.565 238.789 275.962 239.585C276.359 240.38 276.036 241.347 275.241 241.745C274.59 242.069 273.742 242.299 272.867 242.477C271.963 242.66 270.912 242.81 269.789 242.935C267.541 243.183 264.917 243.337 262.433 243.433C259.944 243.529 257.573 243.568 255.827 243.583C254.953 243.59 254.234 243.592 253.733 243.591C253.548 243.591 253.393 243.59 253.271 243.589C253.199 243.618 253.118 243.652 253.026 243.688C252.675 243.825 252.176 244.009 251.578 244.204C250.391 244.591 248.758 245.037 247.067 245.221C245.118 245.433 242.925 244.763 241.392 244.168C240.589 243.857 239.893 243.536 239.397 243.293C239.249 243.221 239.12 243.152 239.009 243.095C238.871 243.103 238.704 243.113 238.51 243.124C237.907 243.158 237.044 243.205 236.001 243.263C233.913 243.378 231.101 243.53 228.205 243.678C222.481 243.971 216.246 244.261 214.811 244.199C212.001 244.077 210.159 243.809 208.989 243.556C208.403 243.429 207.98 243.305 207.684 243.203C207.537 243.152 207.42 243.106 207.33 243.067C207.286 243.048 207.247 243.03 207.215 243.015C207.199 243.007 207.184 243 207.171 242.994C207.165 242.99 207.158 242.987 207.153 242.984C207.15 242.983 207.147 242.981 207.144 242.98L207.138 242.977C207.138 242.974 207.165 242.922 207.89 241.553L207.136 242.976C206.351 242.56 206.052 241.585 206.468 240.799C206.884 240.014 207.856 239.715 208.641 240.13L208.642 240.129C208.641 240.129 208.64 240.129 208.64 240.128C208.639 240.128 208.637 240.127 208.636 240.126C208.634 240.125 208.631 240.124 208.629 240.123C208.625 240.121 208.621 240.119 208.617 240.117C208.61 240.113 208.605 240.111 208.602 240.109L208.6 240.109C208.614 240.115 208.658 240.133 208.737 240.16C208.896 240.215 209.192 240.305 209.668 240.408C210.622 240.614 212.277 240.866 214.951 240.982C216.188 241.035 222.193 240.762 228.041 240.462C230.931 240.314 233.739 240.162 235.824 240.048C236.866 239.99 237.728 239.942 238.329 239.909C238.63 239.892 238.865 239.878 239.025 239.869C239.105 239.865 239.167 239.861 239.208 239.859C239.228 239.858 239.244 239.857 239.254 239.857C239.26 239.856 239.264 239.856 239.266 239.856C239.267 239.856 239.268 239.855 239.269 239.855H239.27C239.575 239.838 239.879 239.909 240.146 240.058C240.147 240.058 240.149 240.059 240.152 240.06C240.158 240.064 240.168 240.069 240.182 240.077C240.209 240.092 240.253 240.115 240.31 240.145C240.425 240.206 240.597 240.295 240.814 240.401C241.25 240.615 241.86 240.896 242.555 241.166C244.019 241.734 245.591 242.143 246.719 242.02C248.105 241.869 249.505 241.493 250.581 241.143C251.113 240.969 251.554 240.806 251.859 240.687C252.011 240.628 252.128 240.58 252.206 240.548C252.244 240.532 252.273 240.52 252.291 240.512C252.3 240.508 252.306 240.505 252.31 240.504C252.312 240.503 252.313 240.503 252.313 240.502C252.52 240.412 252.744 240.366 252.97 240.368L252.971 240.368H253.019C253.052 240.369 253.102 240.369 253.167 240.369C253.297 240.37 253.489 240.371 253.736 240.371C254.228 240.371 254.937 240.37 255.8 240.363C257.526 240.348 259.862 240.31 262.308 240.216C264.759 240.121 267.298 239.97 269.436 239.734C270.505 239.616 271.453 239.479 272.227 239.321C273.03 239.158 273.541 238.994 273.803 238.863Z" fill="#977A67"/>
<path d="M225.089 247.825C225.428 247.003 226.367 246.612 227.188 246.949C227.19 246.95 227.193 246.95 227.198 246.952C227.208 246.956 227.226 246.963 227.251 246.973C227.3 246.992 227.379 247.022 227.487 247.062C227.703 247.14 228.032 247.256 228.471 247.394C229.348 247.67 230.66 248.039 232.358 248.392C235.756 249.1 240.701 249.746 246.823 249.476H246.823C251.381 249.277 254.619 248.756 256.693 248.295C257.729 248.065 258.476 247.849 258.951 247.696C259.189 247.62 259.359 247.559 259.464 247.52C259.516 247.5 259.553 247.486 259.573 247.478L259.586 247.473C260.403 247.123 261.348 247.502 261.698 248.32C262.048 249.137 261.669 250.083 260.852 250.433L260.218 248.953C260.82 250.359 260.85 250.43 260.851 250.433L260.847 250.435C260.845 250.436 260.842 250.437 260.84 250.438C260.835 250.44 260.829 250.443 260.822 250.445C260.809 250.451 260.791 250.459 260.77 250.467C260.726 250.485 260.666 250.508 260.59 250.536C260.439 250.593 260.221 250.67 259.936 250.762C259.365 250.945 258.523 251.187 257.391 251.438C255.125 251.942 251.701 252.486 246.963 252.693L246.964 252.693C240.54 252.977 235.326 252.3 231.703 251.545C229.891 251.168 228.476 250.771 227.504 250.465C227.018 250.312 226.643 250.181 226.384 250.087C226.255 250.04 226.155 250.002 226.085 249.974C226.05 249.961 226.022 249.95 226.002 249.942C225.992 249.938 225.984 249.935 225.978 249.932C225.975 249.931 225.972 249.929 225.97 249.928C225.969 249.928 225.968 249.928 225.967 249.928L225.966 249.927C225.965 249.927 225.965 249.927 226.577 248.438L225.964 249.926C225.143 249.588 224.751 248.647 225.089 247.825ZM259.586 247.473V247.472L259.588 247.471C259.589 247.471 259.59 247.471 259.591 247.47L259.586 247.473Z" fill="#977A67"/>
<path d="M245.724 265.531C248 265.525 249.475 265.586 250.396 265.652C250.858 265.685 251.184 265.72 251.404 265.748C251.514 265.762 251.599 265.775 251.662 265.785C251.693 265.79 251.719 265.795 251.74 265.799C251.751 265.801 251.761 265.803 251.769 265.804C251.773 265.805 251.777 265.806 251.781 265.807C251.782 265.807 251.784 265.808 251.786 265.808H251.788L251.789 265.809C251.789 265.812 251.776 265.878 251.493 267.242L251.79 265.809C252.66 265.989 253.219 266.841 253.039 267.712C252.859 268.58 252.013 269.139 251.145 268.963L251.156 268.966C251.156 268.966 251.151 268.964 251.141 268.963C251.118 268.959 251.071 268.952 250.995 268.942C250.842 268.922 250.576 268.893 250.165 268.864C249.445 268.812 248.289 268.759 246.526 268.751L245.733 268.751C243.698 268.756 241.155 269.378 239.028 270.049C237.984 270.379 237.076 270.709 236.431 270.956C236.109 271.079 235.854 271.181 235.681 271.251C235.594 271.287 235.528 271.314 235.485 271.332C235.463 271.341 235.447 271.348 235.437 271.353C235.432 271.355 235.428 271.356 235.426 271.357L235.425 271.358C234.608 271.708 233.662 271.329 233.312 270.511C232.962 269.694 233.341 268.747 234.157 268.397L234.662 269.575C234.164 268.412 234.158 268.397 234.158 268.397H234.159C234.159 268.397 234.16 268.397 234.161 268.397C234.162 268.396 234.164 268.395 234.166 268.394C234.17 268.392 234.175 268.39 234.182 268.387C234.196 268.381 234.217 268.372 234.243 268.361C234.295 268.34 234.37 268.309 234.466 268.27C234.659 268.191 234.936 268.08 235.281 267.948C235.972 267.684 236.941 267.331 238.059 266.978C240.255 266.285 243.182 265.538 245.724 265.531V265.531Z" fill="#977A67"/>
<path d="M245.239 288.245C246.127 288.245 246.848 288.966 246.848 289.855H245.239C246.785 289.855 246.846 289.855 246.848 289.856V289.882C246.848 289.895 246.848 289.913 246.847 289.934C246.847 289.978 246.845 290.038 246.842 290.112C246.837 290.262 246.826 290.472 246.806 290.729C246.765 291.24 246.683 291.95 246.519 292.744C246.202 294.279 245.528 296.376 244.014 297.891C243.386 298.52 242.367 298.52 241.738 297.891C241.11 297.262 241.11 296.243 241.738 295.614C242.587 294.766 243.094 293.415 243.367 292.092C243.498 291.457 243.565 290.885 243.598 290.472C243.614 290.267 243.622 290.104 243.626 289.997C243.628 289.943 243.629 289.903 243.629 289.879V289.852C243.631 288.964 244.351 288.245 245.239 288.245Z" fill="#977A67"/>
<path d="M197.011 149.167C197.011 149.167 194.623 159.446 204.188 158.525C213.754 157.604 211.572 147.654 211.572 147.654C211.572 147.654 201.234 147.956 197.011 149.167Z" fill="#977A67"/>
<path d="M211.886 147.584V147.585L211.887 147.586C211.887 147.586 211.887 147.587 211.887 147.587C211.887 147.589 211.888 147.591 211.889 147.594C211.89 147.599 211.891 147.608 211.893 147.618C211.897 147.638 211.904 147.668 211.911 147.706C211.925 147.783 211.944 147.894 211.965 148.035C212.008 148.317 212.057 148.719 212.085 149.204C212.141 150.171 212.115 151.479 211.78 152.822C211.444 154.166 210.795 155.558 209.597 156.673C208.397 157.791 206.67 158.61 204.219 158.845C201.772 159.081 200.042 158.604 198.839 157.71C197.64 156.817 197.011 155.542 196.7 154.267C196.39 152.995 196.391 151.701 196.466 150.733C196.504 150.248 196.562 149.84 196.61 149.554C196.634 149.41 196.656 149.297 196.671 149.218C196.679 149.179 196.686 149.149 196.69 149.128C196.692 149.118 196.694 149.109 196.695 149.104C196.696 149.101 196.697 149.099 196.697 149.097C196.697 149.096 196.697 149.096 196.697 149.095L196.698 149.094C196.7 149.095 196.727 149.101 197 149.164L196.698 149.094L196.74 148.91L196.922 148.857C199.071 148.241 202.744 147.862 205.852 147.635C207.412 147.522 208.839 147.446 209.876 147.398C210.395 147.374 210.816 147.358 211.108 147.347C211.254 147.342 211.367 147.338 211.444 147.335C211.483 147.334 211.512 147.333 211.532 147.333C211.542 147.332 211.55 147.332 211.555 147.332C211.557 147.332 211.559 147.332 211.561 147.332H211.562L211.829 147.324L211.886 147.584ZM211.131 147.991C210.841 148.001 210.422 148.018 209.905 148.042C208.872 148.089 207.451 148.164 205.898 148.277C202.873 148.498 199.386 148.861 197.287 149.426C197.275 149.489 197.26 149.568 197.245 149.66C197.199 149.932 197.145 150.32 197.108 150.784C197.035 151.714 197.037 152.933 197.325 154.115C197.613 155.295 198.181 156.417 199.224 157.193C200.264 157.967 201.822 158.429 204.158 158.204C206.49 157.979 208.078 157.209 209.159 156.202C210.242 155.193 210.841 153.924 211.155 152.666C211.47 151.406 211.496 150.169 211.442 149.242C211.415 148.779 211.368 148.396 211.329 148.13C211.321 148.077 211.311 148.028 211.304 147.984C211.253 147.986 211.195 147.988 211.131 147.991Z" fill="#977A67"/>
<path d="M275.758 146.417C275.758 146.417 271.869 159.6 281.796 159.027C291.722 158.454 289.894 146.321 289.894 146.321C289.894 146.321 281.3 145.058 275.758 146.417Z" fill="#977A67"/>
<path d="M275.682 146.105C278.5 145.414 282.073 145.391 284.921 145.537C286.349 145.611 287.603 145.727 288.499 145.824C288.948 145.873 289.308 145.917 289.556 145.949C289.679 145.965 289.775 145.979 289.84 145.988C289.873 145.992 289.898 145.996 289.914 145.998C289.923 146 289.93 146 289.934 146.001C289.936 146.001 289.938 146.001 289.939 146.001H289.94L289.941 146.002L290.177 146.037L290.212 146.273V146.274C290.213 146.274 290.213 146.275 290.213 146.276C290.213 146.277 290.213 146.28 290.214 146.283C290.215 146.29 290.216 146.299 290.218 146.312C290.221 146.336 290.226 146.371 290.231 146.417C290.243 146.509 290.258 146.643 290.273 146.813C290.305 147.153 290.338 147.638 290.346 148.221C290.363 149.385 290.28 150.949 289.879 152.538C289.478 154.126 288.755 155.756 287.476 157.028C286.191 158.306 284.368 159.201 281.814 159.349C279.257 159.496 277.535 158.757 276.425 157.513C275.327 156.283 274.871 154.609 274.734 152.964C274.597 151.314 274.776 149.655 274.988 148.414C275.094 147.792 275.209 147.272 275.297 146.907C275.342 146.724 275.379 146.58 275.406 146.481C275.42 146.431 275.43 146.393 275.438 146.367C275.441 146.354 275.444 146.344 275.446 146.337C275.447 146.334 275.448 146.331 275.448 146.329C275.449 146.328 275.449 146.328 275.449 146.327V146.326L275.502 146.149L275.682 146.105ZM284.888 146.181C282.116 146.039 278.713 146.063 276.017 146.688C275.993 146.78 275.96 146.905 275.923 147.058C275.837 147.412 275.726 147.917 275.622 148.522C275.415 149.735 275.244 151.336 275.375 152.91C275.507 154.49 275.94 156.003 276.905 157.084C277.857 158.151 279.372 158.845 281.777 158.706C284.187 158.567 285.858 157.729 287.022 156.571C288.192 155.408 288.872 153.897 289.255 152.38C289.638 150.864 289.719 149.359 289.703 148.23C289.695 147.666 289.663 147.198 289.633 146.873C289.623 146.768 289.612 146.679 289.604 146.605C289.565 146.6 289.521 146.595 289.473 146.588C289.229 146.557 288.873 146.513 288.43 146.464C287.542 146.368 286.301 146.253 284.888 146.181Z" fill="#977A67"/>
<path d="M168.011 321.245L133.501 355.772L136.488 381.668C136.488 381.668 63.3613 419.376 56.5249 425.823C40.258 441.144 24.77 480.636 13.2538 515.169C-0.373791 556.026 -4.39062 601.314 -4.39062 601.314C-4.39062 601.314 72 660.275 215.486 657.287C358.972 654.299 451.546 607.246 451.546 607.246C451.546 607.246 477.674 464.58 419.443 410.057C361.212 355.533 311.04 342.833 311.04 342.833L306.708 299.973L286.92 298.556L287.293 314.451L203.68 375.949L157.892 444.171C157.892 444.171 174.236 367.982 177.635 357.775L168.011 321.258V321.245Z" fill="#977A67"/>
<path d="M287.035 296.95L306.823 298.367L306.967 298.384C307.679 298.5 308.235 299.081 308.309 299.811L312.53 341.575C312.87 341.673 313.288 341.795 313.78 341.946C315.291 342.407 317.505 343.125 320.339 344.156C326.008 346.219 334.158 349.535 344.129 354.561C364.073 364.613 391.303 381.504 420.543 408.881C435.396 422.789 444.794 442.24 450.578 463.446C456.364 484.661 458.566 507.75 458.941 529.07C459.315 550.396 457.863 570.003 456.319 584.276C455.546 591.413 454.75 597.221 454.146 601.248C453.844 603.261 453.591 604.83 453.412 605.896C453.323 606.43 453.253 606.838 453.204 607.113C453.18 607.251 453.161 607.356 453.148 607.427C453.142 607.462 453.137 607.489 453.134 607.507C453.132 607.516 453.131 607.523 453.13 607.528C453.13 607.53 453.13 607.532 453.129 607.534L451.546 607.245L452.273 608.682C452.272 608.682 452.271 608.684 452.269 608.684C452.265 608.686 452.261 608.688 452.254 608.691C452.242 608.698 452.224 608.707 452.2 608.718C452.153 608.742 452.083 608.777 451.991 608.823C451.807 608.914 451.534 609.049 451.173 609.224C450.45 609.574 449.375 610.086 447.96 610.737C445.128 612.038 440.93 613.897 435.447 616.135C424.482 620.612 408.375 626.605 387.779 632.69C346.588 644.859 287.43 657.399 215.519 658.897C143.545 660.396 88.3672 646.357 51.1588 631.922C32.5561 624.706 18.4471 617.391 8.97728 611.871C4.24234 609.112 0.666846 606.8 -1.73091 605.174C-2.92972 604.362 -3.83437 603.72 -4.44221 603.279C-4.74614 603.059 -4.97586 602.889 -5.1312 602.772C-5.20885 602.714 -5.26806 602.67 -5.30847 602.639C-5.32868 602.624 -5.34411 602.612 -5.35499 602.603C-5.36041 602.599 -5.36446 602.596 -5.36757 602.593C-5.36897 602.592 -5.37052 602.591 -5.37134 602.591C-5.3725 602.59 -5.37367 602.589 -4.39067 601.314C-5.95982 601.175 -5.99303 601.172 -5.99369 601.171C-5.99366 601.171 -5.99375 601.17 -5.99369 601.169C-5.99355 601.168 -5.99332 601.165 -5.99306 601.162C-5.99253 601.156 -5.99158 601.147 -5.99055 601.136C-5.98848 601.113 -5.98519 601.08 -5.98112 601.035C-5.97293 600.947 -5.96057 600.815 -5.94403 600.642C-5.91091 600.297 -5.86055 599.786 -5.7919 599.123C-5.65458 597.796 -5.44347 595.858 -5.14754 593.406C-4.55574 588.503 -3.62468 581.542 -2.26651 573.301C0.448389 556.828 4.87583 535.2 11.7269 514.659C17.4927 497.37 24.265 478.803 31.644 462.623C38.9983 446.498 47.043 432.542 55.4215 424.651C56.414 423.715 58.4464 422.339 61.0749 420.707C63.7543 419.043 67.1922 417.029 71.1085 414.804C78.9434 410.352 88.7392 405.026 98.3115 399.908C107.886 394.788 117.245 389.871 124.211 386.233C127.693 384.415 130.578 382.916 132.592 381.872C133.501 381.401 134.232 381.022 134.762 380.748L131.903 355.956C131.846 355.468 132.016 354.981 132.363 354.633L166.873 320.107C167.333 319.646 168.026 319.508 168.627 319.757C169.127 319.965 169.481 320.405 169.587 320.922L179.191 357.364C179.271 357.667 179.261 357.986 179.162 358.284C177.496 363.285 172.584 384.765 168.06 405.15C165.805 415.308 163.657 425.148 162.072 432.449C161.772 433.826 161.494 435.114 161.239 436.295L202.344 375.052L202.426 374.94C202.513 374.831 202.614 374.734 202.727 374.652L285.665 313.65L285.311 298.594C285.301 298.14 285.482 297.704 285.81 297.391C286.138 297.078 286.583 296.918 287.035 296.95ZM288.902 314.413C288.914 314.938 288.67 315.437 288.246 315.748L204.859 377.08L159.228 445.069C158.798 445.71 157.973 445.955 157.263 445.653C156.553 445.352 156.156 444.588 156.318 443.833L157.892 444.171C156.398 443.85 156.323 443.834 156.319 443.832C156.319 443.832 156.319 443.831 156.32 443.83C156.32 443.828 156.32 443.824 156.321 443.819C156.323 443.81 156.326 443.796 156.33 443.778C156.338 443.741 156.35 443.686 156.365 443.614C156.396 443.47 156.443 443.255 156.503 442.975C156.624 442.414 156.801 441.59 157.028 440.538C157.482 438.434 158.134 435.417 158.926 431.765C160.512 424.461 162.662 414.616 164.918 404.452C169.292 384.745 174.104 363.66 175.959 357.73L167.166 324.368L135.189 356.36L138.087 381.484C138.164 382.149 137.82 382.793 137.225 383.099L136.488 381.668C137.187 383.025 137.223 383.095 137.225 383.099C137.224 383.1 137.223 383.1 137.222 383.101C137.22 383.102 137.217 383.104 137.212 383.106C137.203 383.111 137.19 383.117 137.173 383.126C137.137 383.145 137.085 383.171 137.016 383.207C136.878 383.278 136.673 383.385 136.404 383.523C135.868 383.801 135.079 384.209 134.073 384.73C132.062 385.773 129.18 387.271 125.7 389.088C118.74 392.722 109.391 397.635 99.829 402.748C90.265 407.862 80.4969 413.172 72.6977 417.604C68.7971 419.82 65.4003 421.81 62.7722 423.442C60.0935 425.106 58.3455 426.319 57.6287 426.995L57.6281 426.995C49.7399 434.425 41.9076 447.876 34.5722 463.96C27.2615 479.99 20.5306 498.435 14.7802 515.678V515.679C8.0038 535.995 3.60977 557.44 0.909365 573.825C-0.440072 582.013 -1.36498 588.927 -1.95219 593.793C-2.24576 596.225 -2.4553 598.144 -2.59088 599.454C-2.63634 599.893 -2.67282 600.264 -2.70215 600.562C-2.65471 600.597 -2.60538 600.634 -2.55316 600.672C-1.97197 601.093 -1.09499 601.716 0.0751643 602.509C2.41549 604.096 5.92882 606.368 10.5973 609.089C19.9347 614.531 33.8916 621.77 52.3224 628.92C89.1807 643.219 143.941 657.167 215.452 655.677C287.028 654.187 345.9 641.705 386.867 629.602C407.351 623.55 423.355 617.593 434.231 613.154C439.669 610.934 443.824 609.093 446.616 607.81C448.011 607.169 449.066 606.667 449.77 606.326C449.891 606.267 450.001 606.213 450.101 606.164C450.139 605.942 450.186 605.675 450.238 605.364C450.413 604.315 450.664 602.765 450.963 600.771C451.561 596.782 452.352 591.018 453.119 583.929C454.654 569.748 456.094 550.281 455.722 529.126C455.35 507.964 453.165 485.163 447.473 464.294C441.778 443.415 432.606 424.587 418.344 411.232C389.352 384.087 362.381 367.365 342.681 357.436C332.831 352.472 324.798 349.205 319.239 347.183C316.46 346.172 314.3 345.471 312.84 345.025C312.11 344.802 311.555 344.643 311.186 344.54C311.002 344.489 310.863 344.451 310.773 344.427C310.728 344.415 310.694 344.407 310.673 344.401L310.645 344.394H310.645V344.393C309.989 344.227 309.507 343.669 309.439 342.995L305.243 301.482L288.57 300.288L288.902 314.413ZM453.129 607.536C453.038 608.03 452.722 608.454 452.275 608.681L451.546 607.245L453.129 607.536ZM-4.39067 601.314L-5.37385 602.589C-5.80852 602.253 -6.04222 601.719 -5.99369 601.172L-4.39067 601.314Z" fill="#977A67"/>
<path d="M133.102 354.212C133.963 353.991 134.84 354.51 135.06 355.372V355.373C135.061 355.374 135.061 355.374 135.061 355.375C135.062 355.378 135.063 355.382 135.064 355.387C135.067 355.396 135.07 355.411 135.075 355.43C135.085 355.467 135.099 355.523 135.118 355.596C135.155 355.743 135.21 355.959 135.28 356.238C135.42 356.797 135.623 357.609 135.873 358.623C136.372 360.652 137.058 363.491 137.806 366.737C139.301 373.218 141.053 381.359 142.057 387.896C143.039 394.283 146.124 406.755 149.124 419.356C151.565 429.606 153.959 439.977 155.02 446.962L159.133 430.809C159.352 429.948 160.228 429.427 161.09 429.646C161.951 429.866 162.471 430.743 162.252 431.604L155.894 456.576C155.912 456.914 155.927 457.214 155.937 457.48C155.961 458.104 155.966 458.569 155.954 458.9C155.949 459.059 155.937 459.235 155.91 459.401C155.897 459.481 155.872 459.612 155.821 459.759C155.792 459.84 155.654 460.241 155.246 460.547C154.997 460.733 154.649 460.881 154.235 460.872C153.843 460.863 153.544 460.717 153.361 460.595C153.043 460.382 152.884 460.11 152.843 460.04C152.729 459.847 152.665 459.653 152.639 459.572C152.572 459.365 152.515 459.122 152.474 458.932C152.43 458.728 152.393 458.526 152.366 458.379C152.352 458.304 152.341 458.241 152.333 458.196C152.329 458.174 152.326 458.156 152.324 458.143C152.323 458.137 152.322 458.133 152.322 458.129C152.321 458.127 152.32 458.126 152.32 458.125V458.123C152.32 458.123 152.32 458.122 152.732 458.054L152.32 458.123C152.283 457.902 152.293 457.676 152.348 457.459L152.653 456.259C152.585 455.072 152.475 453.449 152.303 451.259C151.817 445.066 148.994 432.704 145.993 420.102C143.02 407.617 139.883 394.943 138.876 388.385C137.891 381.971 136.161 373.926 134.67 367.461C133.926 364.234 133.243 361.41 132.747 359.393C132.499 358.385 132.298 357.578 132.159 357.025C132.089 356.748 132.035 356.534 131.998 356.389C131.98 356.317 131.966 356.262 131.956 356.226C131.952 356.208 131.948 356.194 131.946 356.185C131.945 356.18 131.944 356.177 131.943 356.175C131.943 356.174 131.943 356.173 131.942 356.172C131.722 355.311 132.241 354.433 133.102 354.212Z" fill="#977A67"/>
<path d="M287.035 296.937L306.822 298.354C307.493 298.402 308.064 298.862 308.252 299.508C308.441 300.154 308.209 300.849 307.67 301.251L288.261 315.729C287.779 316.089 287.136 316.149 286.595 315.885C286.054 315.622 285.705 315.078 285.691 314.477L285.311 298.582C285.3 298.128 285.481 297.691 285.809 297.378C286.137 297.065 286.582 296.905 287.035 296.937ZM288.833 311.285L302.277 301.256L288.57 300.275L288.833 311.285Z" fill="#977A67"/>
<path d="M249.959 231.371C250.766 230.998 251.722 231.351 252.094 232.159C252.467 232.966 252.114 233.923 251.307 234.295C248.99 235.364 246.707 235.35 245.054 235.096C244.223 234.968 243.53 234.776 243.038 234.614C242.792 234.533 242.594 234.458 242.452 234.402C242.382 234.373 242.325 234.349 242.283 234.33C242.262 234.321 242.244 234.314 242.231 234.308C242.224 234.305 242.218 234.302 242.213 234.3C242.211 234.299 242.209 234.298 242.207 234.297C242.206 234.297 242.204 234.296 242.204 234.296L242.203 234.295C242.202 234.295 242.201 234.295 242.876 232.833L242.202 234.295C241.395 233.922 241.043 232.965 241.415 232.158C241.788 231.351 242.743 230.999 243.549 231.371L243.549 231.37L243.547 231.369H243.546C243.548 231.37 243.553 231.372 243.559 231.374C243.575 231.382 243.605 231.394 243.648 231.412C243.734 231.446 243.869 231.497 244.046 231.556C244.403 231.673 244.921 231.817 245.543 231.913C246.799 232.106 248.394 232.092 249.959 231.371Z" fill="#977A67"/>
<path d="M309 168.398L309.656 159.24C309.656 159.24 313.976 156.921 316.409 159.343C320.393 163.303 312.901 191.415 312.675 196.046C312.456 200.676 310.989 217.46 309.315 218.999C307.641 220.538 305.626 219.437 305.626 219.437L309 168.398Z" fill="#FFC398"/>
<path d="M311.805 156.804C313.37 156.491 315.751 156.418 317.543 158.201C318.423 159.075 318.804 160.387 318.993 161.625C319.191 162.929 319.221 164.488 319.146 166.169C318.996 169.539 318.411 173.65 317.707 177.718C317 181.795 316.162 185.892 315.492 189.231C314.805 192.656 314.332 195.121 314.283 196.124C314.171 198.485 313.746 203.876 313.138 208.876C312.835 211.375 312.481 213.811 312.093 215.734C311.899 216.692 311.689 217.56 311.461 218.26C311.347 218.61 311.218 218.949 311.07 219.25C310.934 219.527 310.725 219.89 310.404 220.185C309.136 221.351 307.704 221.516 306.658 221.395C306.146 221.335 305.715 221.208 305.412 221.096C305.258 221.04 305.132 220.985 305.039 220.942C304.992 220.92 304.953 220.901 304.922 220.885C304.907 220.878 304.893 220.87 304.882 220.865C304.877 220.862 304.872 220.859 304.867 220.856C304.865 220.855 304.862 220.854 304.86 220.853C304.859 220.853 304.859 220.852 304.858 220.851L304.857 220.851C304.856 220.85 304.855 220.85 305.627 219.437L304.855 220.85C304.305 220.549 303.98 219.956 304.021 219.331L307.394 168.291L308.051 159.125L308.062 159.022C308.131 158.513 308.44 158.065 308.896 157.821L309.656 159.24C308.907 157.842 308.896 157.821 308.896 157.82L308.906 157.815C308.911 157.813 308.917 157.81 308.923 157.806C308.937 157.799 308.954 157.79 308.976 157.779C309.019 157.757 309.079 157.727 309.153 157.692C309.301 157.621 309.51 157.526 309.765 157.423C310.271 157.218 310.987 156.968 311.805 156.804ZM315.274 160.484C314.634 159.847 313.639 159.721 312.436 159.962C311.972 160.054 311.542 160.192 311.192 160.323L310.605 168.513L307.32 218.207C307.593 218.194 307.876 218.107 308.158 217.873C308.164 217.86 308.173 217.846 308.183 217.827C308.24 217.711 308.315 217.527 308.401 217.261C308.574 216.731 308.756 216 308.938 215.095C309.302 213.294 309.644 210.955 309.943 208.487C310.543 203.555 310.961 198.241 311.068 195.97V195.968C311.132 194.656 311.68 191.869 312.336 188.598C313.01 185.24 313.838 181.193 314.535 177.168C315.234 173.134 315.79 169.185 315.931 166.025C316.001 164.442 315.965 163.119 315.811 162.11C315.648 161.034 315.391 160.601 315.275 160.485L315.274 160.484ZM306.384 218.016L306.383 218.016C306.38 218.014 306.378 218.013 306.377 218.013C306.378 218.013 306.38 218.014 306.384 218.016Z" fill="#977A67"/>
<path d="M161.709 65.1277C161.709 65.1277 159.875 89.6072 166.473 98.5721C173.071 107.537 169.621 143.023 169.621 143.023C169.621 143.023 160.248 170.278 162.372 178.496C164.496 186.714 176.804 213.338 178.298 219.817C179.791 226.296 177.455 267.14 177.455 267.14C177.455 267.14 177.525 285.482 228.676 299.96C228.676 299.96 197.268 312.944 196.741 325.638C196.213 338.331 210.548 368.388 210.548 368.388C210.548 368.388 175.717 333.108 168.134 314.438L148.146 225.665C148.146 225.665 151.86 178.85 140.067 163.361L135.986 158.409C135.986 158.409 125.139 100.813 161.703 65.1277H161.709Z" fill="url(#paint0_linear_373_2305)"/>
<path d="M175.246 261.506C176.12 261.346 176.959 261.924 177.119 262.798V262.798L177.125 262.825C177.131 262.856 177.143 262.909 177.161 262.982C177.196 263.128 177.256 263.357 177.349 263.658C177.535 264.26 177.853 265.148 178.371 266.242C179.404 268.427 181.237 271.436 184.412 274.613C187.568 277.77 193.774 281.918 200.483 285.82C207.152 289.698 214.141 293.233 218.739 295.18C221.484 296.343 225.863 297.753 230.441 298.068C235.03 298.384 239.591 297.587 242.997 294.618L243.1 294.535C243.629 294.145 244.348 294.115 244.912 294.47H244.912L244.911 294.469C244.911 294.469 244.91 294.469 244.909 294.468C244.909 294.468 244.908 294.467 244.908 294.467C244.908 294.467 244.909 294.468 244.91 294.468C244.914 294.471 244.923 294.477 244.938 294.485C244.966 294.502 245.016 294.531 245.084 294.568C245.221 294.644 245.437 294.757 245.724 294.89C246.299 295.156 247.159 295.501 248.256 295.795C250.448 296.381 253.582 296.756 257.314 295.881H257.315C258.829 295.527 260.817 294.357 263.159 292.424C265.461 290.524 267.954 288.014 270.47 285.195C275.5 279.561 280.518 272.809 284.145 267.529C284.648 266.796 285.651 266.611 286.383 267.115C287.115 267.618 287.301 268.62 286.797 269.353C283.125 274.699 278.023 281.569 272.871 287.341C270.296 290.225 267.682 292.865 265.207 294.908C262.771 296.918 260.31 298.487 258.048 299.015C253.708 300.033 250.029 299.602 247.426 298.906C246.125 298.559 245.091 298.144 244.372 297.812C244.328 297.791 244.286 297.769 244.244 297.749C240.074 300.903 234.916 301.604 230.219 301.281C225.18 300.934 220.444 299.398 217.485 298.146H217.484C212.73 296.132 205.618 292.53 198.866 288.603C192.153 284.7 185.617 280.372 182.136 276.89C178.674 273.427 176.637 270.105 175.461 267.619C174.874 266.377 174.502 265.345 174.275 264.61C174.161 264.243 174.083 263.949 174.033 263.74C174.007 263.636 173.989 263.553 173.976 263.493C173.97 263.462 173.965 263.437 173.961 263.418C173.959 263.409 173.957 263.401 173.956 263.394C173.955 263.391 173.955 263.388 173.955 263.386C173.954 263.384 173.954 263.383 173.954 263.382L173.953 263.381C173.953 263.38 173.953 263.379 175.536 263.089L173.953 263.379C173.793 262.505 174.372 261.666 175.246 261.506Z" fill="#977A67"/>
<path d="M133.338 158.559C133.763 157.778 134.741 157.491 135.521 157.917L134.837 159.17C135.492 157.97 135.52 157.919 135.522 157.917L135.523 157.918C135.524 157.919 135.525 157.919 135.526 157.92C135.529 157.921 135.532 157.923 135.535 157.924C135.542 157.928 135.55 157.933 135.559 157.938C135.578 157.949 135.605 157.964 135.636 157.982C135.7 158.019 135.789 158.072 135.899 158.141C136.121 158.278 136.431 158.479 136.811 158.749C137.57 159.288 138.608 160.102 139.767 161.223C142.085 163.466 144.892 166.948 146.897 171.924C147.229 172.749 146.83 173.687 146.005 174.019C145.181 174.352 144.244 173.953 143.911 173.128C142.105 168.644 139.585 165.527 137.529 163.538C136.501 162.543 135.59 161.831 134.947 161.374C134.626 161.146 134.372 160.982 134.204 160.878C134.12 160.826 134.058 160.789 134.02 160.766C134.001 160.755 133.987 160.748 133.981 160.744C133.98 160.743 133.979 160.743 133.978 160.743C133.199 160.316 132.912 159.339 133.338 158.559ZM133.976 160.741L133.978 160.742C133.976 160.741 133.975 160.741 133.975 160.741H133.976Z" fill="#977A67"/>
<path d="M127.405 165.951C129.882 165.56 132.247 166.801 134.246 168.548C136.284 170.33 138.225 172.878 139.946 175.728C143.385 181.425 146.148 188.678 147.057 194.402C147.942 199.97 148.126 204.437 147.712 207.747C147.505 209.403 147.141 210.834 146.595 211.988C146.05 213.141 145.276 214.114 144.205 214.674L144.204 214.676C142.648 215.488 140.936 215.33 139.459 214.523C138.012 213.734 136.772 212.328 135.868 210.53C134.049 206.914 133.431 201.443 135.319 194.74C135.56 193.884 136.449 193.385 137.304 193.626C138.16 193.868 138.658 194.757 138.417 195.613C136.694 201.732 137.366 206.344 138.743 209.082C139.436 210.46 140.271 211.298 141.001 211.697C141.699 212.078 142.265 212.055 142.714 211.821C142.972 211.686 143.332 211.359 143.685 210.611C144.038 209.865 144.337 208.793 144.518 207.347C144.879 204.455 144.738 200.32 143.878 194.908C143.043 189.651 140.447 182.787 137.19 177.392C135.563 174.697 133.822 172.454 132.127 170.973C130.394 169.458 128.977 168.962 127.907 169.131H127.907C124.227 169.712 121.319 173.15 119.237 176.993C118.229 178.852 117.484 180.679 116.99 182.047C116.744 182.728 116.563 183.29 116.444 183.679C116.384 183.873 116.34 184.023 116.312 184.123C116.297 184.172 116.287 184.21 116.28 184.233C116.277 184.245 116.274 184.254 116.273 184.258C116.273 184.26 116.272 184.261 116.272 184.262L116.273 184.262C116.044 185.122 115.162 185.633 114.303 185.404C113.444 185.175 112.933 184.293 113.162 183.433L114.689 183.84C113.243 183.455 113.167 183.434 113.163 183.433V183.431C113.163 183.43 113.164 183.429 113.164 183.428C113.165 183.425 113.166 183.421 113.167 183.416C113.17 183.407 113.173 183.394 113.178 183.377C113.187 183.345 113.2 183.298 113.217 183.238C113.251 183.119 113.301 182.948 113.367 182.732C113.5 182.301 113.698 181.689 113.964 180.952C114.494 179.483 115.301 177.499 116.407 175.458C118.551 171.502 122.111 166.787 127.405 165.951Z" fill="#977A67"/>
<path d="M114.717 183.848C114.717 183.848 118.683 168.958 127.656 167.541C134.75 166.421 143.723 183.674 145.468 194.655C147.212 205.636 146.118 211.857 143.46 213.248C139.449 215.341 133.257 207.999 136.868 195.177" fill="url(#paint1_linear_373_2305)"/>
<path d="M127.405 165.951C129.882 165.56 132.247 166.801 134.246 168.548C136.284 170.33 138.225 172.878 139.946 175.728C143.385 181.425 146.148 188.678 147.057 194.402C147.942 199.97 148.126 204.437 147.712 207.747C147.505 209.403 147.141 210.834 146.595 211.988C146.05 213.141 145.276 214.114 144.205 214.674L144.204 214.676C142.648 215.488 140.936 215.33 139.459 214.523C138.012 213.734 136.772 212.328 135.868 210.53C134.049 206.914 133.431 201.443 135.319 194.74C135.56 193.884 136.449 193.385 137.304 193.626C138.16 193.868 138.658 194.757 138.417 195.613C136.694 201.732 137.366 206.344 138.743 209.082C139.436 210.46 140.271 211.298 141.001 211.697C141.699 212.078 142.265 212.055 142.714 211.821C142.972 211.686 143.332 211.359 143.685 210.611C144.038 209.865 144.337 208.793 144.518 207.347C144.879 204.455 144.738 200.32 143.878 194.908C143.043 189.651 140.447 182.787 137.19 177.392C135.563 174.697 133.822 172.454 132.127 170.973C130.394 169.458 128.977 168.962 127.907 169.131H127.907C124.227 169.712 121.319 173.15 119.237 176.993C118.229 178.852 117.484 180.679 116.99 182.047C116.744 182.728 116.563 183.29 116.444 183.679C116.384 183.873 116.34 184.023 116.312 184.123C116.297 184.172 116.287 184.21 116.28 184.233C116.277 184.245 116.274 184.254 116.273 184.258C116.273 184.26 116.272 184.261 116.272 184.262L116.273 184.262C116.044 185.122 115.162 185.633 114.303 185.404C113.444 185.175 112.933 184.293 113.162 183.433L114.689 183.84C113.243 183.455 113.167 183.434 113.163 183.433V183.431C113.163 183.43 113.164 183.429 113.164 183.428C113.165 183.425 113.166 183.421 113.167 183.416C113.17 183.407 113.173 183.394 113.178 183.377C113.187 183.345 113.2 183.298 113.217 183.238C113.251 183.119 113.301 182.948 113.367 182.732C113.5 182.301 113.698 181.689 113.964 180.952C114.494 179.483 115.301 177.499 116.407 175.458C118.551 171.502 122.111 166.787 127.405 165.951Z" fill="#977A67"/>
<path d="M309.682 341.957C310.158 341.206 311.153 340.984 311.903 341.461C312.654 341.938 312.875 342.933 312.399 343.684L269.076 411.906C268.635 412.6 267.741 412.851 267.004 412.486L208.177 383.355L176.742 418.929C176.154 419.595 175.136 419.658 174.47 419.069C173.805 418.48 173.742 417.462 174.331 416.796L206.581 380.299L206.675 380.202C207.161 379.737 207.89 379.62 208.501 379.922L267.135 408.957L309.682 341.957Z" fill="#977A67"/>
</g>
</g>
</g>
<defs>
<filter id="filter0_d_373_2305" x="-20" y="-20" width="517" height="604" filterUnits="userSpaceOnUse" color-interpolation-filters="sRGB">
<feFlood flood-opacity="0" result="BackgroundImageFix"/>
<feColorMatrix in="SourceAlpha" type="matrix" values="0 0 0 0 0 0 0 0 0 0 0 0 0 0 0 0 0 0 127 0" result="hardAlpha"/>
<feOffset/>
<feGaussianBlur stdDeviation="10"/>
<feComposite in2="hardAlpha" operator="out"/>
<feColorMatrix type="matrix" values="0 0 0 0 0.584615 0 0 0 0 0.496818 0 0 0 0 0.383935 0 0 0 0.15 0"/>
<feBlend mode="normal" in2="BackgroundImageFix" result="effect1_dropShadow_373_2305"/>
<feBlend mode="normal" in="SourceGraphic" in2="effect1_dropShadow_373_2305" result="shape"/>
</filter>
<linearGradient id="paint0_linear_373_2305" x1="129.606" y1="195.984" x2="181.09" y2="197.489" gradientUnits="userSpaceOnUse">
<stop stop-color="#FFC398"/>
<stop offset="1" stop-color="#EAAE82"/>
</linearGradient>
<linearGradient id="paint1_linear_373_2305" x1="115.11" y1="176.5" x2="141.609" y2="198.992" gradientUnits="userSpaceOnUse">
<stop stop-color="#FFCBA3"/>
<stop offset="1" stop-color="#EAAE82"/>
</linearGradient>
<clipPath id="clip0_373_2305">
<path d="M0 20C0 8.95431 8.95431 0 20 0H457C468.046 0 477 8.95431 477 20V544C477 555.046 468.046 564 457 564H20C8.9543 564 0 555.046 0 544V20Z" fill="white"/>
</clipPath>
<clipPath id="clip1_373_2305">
<rect width="465" height="624" fill="white" transform="translate(-6 35)"/>
</clipPath>
</defs>
</svg>
