<svg width="477" height="564" viewBox="0 0 477 564" fill="none" xmlns="http://www.w3.org/2000/svg">
<g filter="url(#filter0_d_373_1942)">
<g clip-path="url(#clip0_373_1942)">
<g clip-path="url(#clip1_373_1942)">
<path d="M-42.3901 575.548C-42.3901 574.241 -28.0242 489.39 -18.0047 455.443C-7.99171 421.502 -0.155151 397.131 15.0865 382.336C30.3282 367.541 153.955 324.893 177.703 319.024C201.451 313.155 321.62 305.754 321.62 305.754C321.62 305.754 415.517 328.169 435.698 334.038C476.993 346.047 495.782 361.891 495.782 361.891L498.397 581.398L-42.3901 575.548Z" fill="#977A67"/>
<path d="M321.521 304.149C321.68 304.139 321.839 304.152 321.994 304.189L321.62 305.754C321.994 304.189 321.995 304.189 321.995 304.189C321.996 304.19 321.997 304.19 321.999 304.191C322.001 304.191 322.006 304.192 322.011 304.194C322.022 304.197 322.04 304.2 322.062 304.206C322.107 304.217 322.175 304.233 322.265 304.254C322.443 304.297 322.708 304.36 323.054 304.443C323.747 304.608 324.766 304.852 326.07 305.164C328.677 305.789 332.424 306.688 336.984 307.784C346.103 309.978 358.472 312.963 371.473 316.132C397.451 322.465 426.014 329.546 436.147 332.493C456.915 338.533 472.047 345.543 482.006 351.061C486.985 353.819 490.67 356.204 493.12 357.907C494.345 358.758 495.261 359.439 495.876 359.911C496.183 360.147 496.414 360.331 496.571 360.458C496.65 360.521 496.71 360.57 496.752 360.604C496.772 360.621 496.789 360.634 496.8 360.644C496.806 360.648 496.81 360.653 496.813 360.655C496.815 360.657 496.817 360.658 496.818 360.659C496.818 360.659 496.819 360.66 496.82 360.66C496.82 360.66 496.821 360.661 495.799 361.872L496.82 360.661C497.178 360.963 497.386 361.404 497.392 361.872L500.006 581.378C500.012 581.811 499.842 582.228 499.535 582.535C499.229 582.841 498.812 583.011 498.379 583.007L-42.4078 577.156C-43.2349 577.147 -43.9107 576.516 -43.9918 575.711L-44 575.548C-44 575.369 -43.9631 575.109 -43.9434 574.965C-43.9142 574.753 -43.872 574.467 -43.8176 574.113C-43.7087 573.403 -43.5482 572.402 -43.3416 571.144C-42.9283 568.626 -42.3275 565.067 -41.5752 560.73C-40.0707 552.054 -37.9602 540.256 -35.5365 527.437C-30.6946 501.827 -24.5851 472.05 -19.5491 454.988C-14.5458 438.028 -10.0599 423.367 -4.90425 411.088C0.254288 398.802 6.12705 388.791 13.9651 381.182C16.0501 379.158 19.8319 376.783 24.7207 374.188C29.6563 371.567 35.8696 368.647 42.9404 365.554C57.0852 359.366 74.7419 352.452 92.6459 345.824C128.426 332.579 165.346 320.421 177.317 317.463C183.382 315.964 195.461 314.391 210.042 312.875C224.667 311.354 241.93 309.877 258.441 308.584C274.954 307.292 290.723 306.183 302.364 305.397C308.184 305.004 312.973 304.692 316.307 304.479C317.974 304.372 319.277 304.289 320.164 304.233C320.607 304.206 320.946 304.184 321.175 304.17C321.289 304.163 321.375 304.157 321.433 304.154C321.462 304.152 321.485 304.151 321.499 304.15C321.506 304.149 321.512 304.149 321.516 304.149C321.517 304.148 321.518 304.149 321.519 304.149C321.52 304.149 321.521 304.148 321.617 305.707L321.521 304.149ZM321.375 307.381C321.147 307.396 320.808 307.416 320.365 307.444C319.48 307.5 318.178 307.582 316.513 307.689C313.183 307.903 308.397 308.215 302.581 308.607C290.948 309.393 275.19 310.501 258.693 311.793C242.193 313.084 224.961 314.558 210.375 316.075C195.746 317.597 183.898 319.15 178.09 320.586C166.313 323.497 129.544 335.597 93.7639 348.842C75.8875 355.459 58.2955 362.348 44.2314 368.501C37.1979 371.578 31.0665 374.463 26.2311 377.029C21.3491 379.621 17.9337 381.815 16.2082 383.49C8.80455 390.677 3.13789 400.249 -1.93553 412.333C-7.01175 424.423 -11.4513 438.917 -16.4609 455.898V455.898C-21.4443 472.783 -27.5271 502.405 -32.3729 528.034C-34.7931 540.835 -36.9006 552.617 -38.4028 561.279C-39.1539 565.61 -39.7533 569.159 -40.1648 571.665C-40.3137 572.572 -40.437 573.34 -40.5345 573.959L496.767 579.771L494.182 362.673C494.101 362.61 494.012 362.538 493.913 362.462C493.338 362.021 492.464 361.37 491.282 360.548C488.918 358.905 485.325 356.579 480.445 353.875C470.686 348.468 455.775 341.552 435.248 335.583C425.201 332.661 396.725 325.6 370.71 319.258C357.714 316.09 345.347 313.106 336.23 310.913C331.672 309.816 327.925 308.918 325.319 308.293C324.016 307.981 322.997 307.738 322.305 307.572C321.959 307.49 321.694 307.426 321.516 307.383C321.503 307.38 321.492 307.377 321.48 307.374C321.448 307.376 321.413 307.379 321.375 307.381Z" fill="#977A67"/>
<path d="M228 47.6089C192.732 47.6089 152.049 60.9303 134.47 117.89C126.511 143.684 132.178 161.343 130.877 175.7C130.877 175.7 127.954 188.043 127.954 201.204C127.954 214.364 131.611 252.263 140.716 274.71C149.152 295.509 155.224 300.233 167.368 305.214C178.869 309.931 191.831 345.738 204.49 357.534C210.64 363.261 276.256 351.691 308.986 288.778C308.986 288.778 305.065 275.289 305.065 267.457C305.065 259.625 306.024 240.891 306.024 240.891C306.024 240.891 314.318 240.621 320.352 236.065C327.86 230.395 337.113 208.733 341.466 189.588C345.819 170.442 342.033 161.278 335.793 157.494C331.633 154.972 327.57 156.136 327.57 156.136C327.57 140.376 328.227 127.042 322.747 106.841C315.612 80.5134 279.372 47.6089 228 47.6089Z" fill="#FFC29B"/>
<path d="M126.344 201.204C126.344 194.514 127.086 188.05 127.824 183.271C128.194 180.879 128.564 178.901 128.842 177.518C128.981 176.826 129.097 176.283 129.179 175.911C129.22 175.725 129.252 175.581 129.275 175.483C129.277 175.472 129.279 175.461 129.282 175.451C129.584 172.015 129.481 168.349 129.26 164.326C129.039 160.295 128.698 155.873 128.567 151.128C128.305 141.58 128.886 130.53 132.932 117.417L133.353 116.074C142.284 88.0546 156.874 70.5366 173.75 60.0241C190.863 49.3643 210.177 46 228 46C254.037 46 276.26 54.3399 292.889 66.0366C309.485 77.7101 320.611 92.8052 324.301 106.42C329.627 126.053 329.224 139.33 329.184 154.281C329.48 154.264 329.802 154.255 330.147 154.261C331.895 154.288 334.248 154.675 336.628 156.119C343.807 160.472 347.427 170.63 343.036 189.944C340.836 199.617 337.402 209.919 333.563 218.534C331.643 222.842 329.61 226.754 327.564 229.967C325.535 233.153 323.426 235.76 321.322 237.349C318.051 239.818 314.223 241.093 311.28 241.756C309.797 242.09 308.511 242.275 307.592 242.377C307.582 242.378 307.572 242.378 307.562 242.379C307.54 242.833 307.513 243.385 307.483 244.018C307.393 245.894 307.273 248.478 307.153 251.305C306.913 256.973 306.675 263.58 306.675 267.457C306.675 271.179 307.618 276.356 308.596 280.701C309.081 282.852 309.566 284.763 309.93 286.135C310.112 286.821 310.263 287.372 310.368 287.75C310.421 287.939 310.462 288.085 310.49 288.183C310.504 288.232 310.515 288.269 310.522 288.294C310.526 288.306 310.528 288.315 310.53 288.321C310.531 288.323 310.531 288.326 310.532 288.327L310.532 288.328C310.648 288.725 310.606 289.153 310.415 289.52C293.858 321.345 268.978 340.189 247.458 350.35C236.702 355.43 226.759 358.353 219.076 359.641C215.239 360.284 211.925 360.527 209.332 360.412C208.037 360.354 206.882 360.206 205.913 359.954C205.033 359.726 204.174 359.379 203.521 358.825L203.393 358.711C200.065 355.61 196.789 351.008 193.601 345.897C190.402 340.771 187.211 334.996 184.095 329.514C180.962 324.002 177.907 318.785 174.934 314.66C171.911 310.466 169.172 307.693 166.757 306.702C160.603 304.178 155.796 301.644 151.471 296.988C147.18 292.369 143.466 285.772 139.224 275.314C134.599 263.911 131.386 248.675 129.328 234.709C127.267 220.731 126.344 207.884 126.344 201.204ZM129.563 201.204C129.563 207.684 130.468 220.367 132.513 234.24C134.56 248.125 137.728 263.061 142.208 274.105C146.402 284.447 149.941 290.611 153.831 294.799C157.687 298.95 161.989 301.268 167.979 303.725L168.292 303.859C171.514 305.311 174.604 308.697 177.546 312.78C180.634 317.063 183.767 322.421 186.895 327.924C190.039 333.458 193.181 339.142 196.333 344.195C199.494 349.262 202.586 353.56 205.587 356.357C205.689 356.451 206.009 356.654 206.722 356.839C207.406 357.017 208.324 357.146 209.475 357.197C211.776 357.299 214.853 357.086 218.543 356.467C225.915 355.231 235.575 352.403 246.083 347.441C266.965 337.581 291.089 319.344 307.262 288.595C307.153 288.206 307 287.649 306.817 286.959C306.446 285.558 305.951 283.607 305.455 281.408C304.473 277.049 303.455 271.567 303.455 267.457C303.455 263.502 303.696 256.827 303.936 251.169C304.056 248.334 304.176 245.745 304.266 243.864C304.311 242.923 304.349 242.16 304.376 241.632C304.389 241.367 304.399 241.162 304.406 241.023C304.409 240.953 304.412 240.899 304.414 240.864C304.415 240.846 304.415 240.832 304.416 240.823C304.416 240.818 304.416 240.815 304.416 240.813V240.809C304.459 239.975 305.135 239.311 305.971 239.284C305.973 239.284 305.977 239.283 305.982 239.283C305.994 239.282 306.013 239.282 306.039 239.28C306.092 239.278 306.174 239.273 306.283 239.265C306.501 239.25 306.826 239.224 307.237 239.179C308.062 239.087 309.227 238.92 310.571 238.617C313.283 238.006 316.619 236.868 319.381 234.781C321.031 233.535 322.894 231.308 324.848 228.24C326.785 225.198 328.746 221.435 330.622 217.225C334.374 208.806 337.743 198.704 339.896 189.232C344.211 170.255 340.258 162.084 334.958 158.87C333.179 157.791 331.42 157.499 330.096 157.478C329.434 157.468 328.889 157.526 328.519 157.583C328.334 157.612 328.195 157.641 328.108 157.661C328.064 157.671 328.034 157.678 328.018 157.682C328.01 157.684 328.005 157.685 328.005 157.685C328.005 157.685 328.005 157.685 328.006 157.685C328.007 157.684 328.008 157.684 328.01 157.684C328.01 157.684 328.011 157.684 328.011 157.683H328.013L328.012 157.683C327.527 157.821 327.004 157.725 326.601 157.421C326.197 157.117 325.96 156.641 325.96 156.136C325.96 140.34 326.607 127.222 321.193 107.262C317.748 94.5492 307.187 80.0284 291.036 68.668C274.918 57.3307 253.336 49.2177 228 49.2177C210.555 49.2177 191.894 52.514 175.454 62.7548C159.045 72.9762 144.698 90.2086 136.008 118.365C132.096 131.044 131.53 141.721 131.786 151.039C131.914 155.728 132.249 160.025 132.475 164.149C132.7 168.24 132.817 172.133 132.481 175.845C132.474 175.921 132.461 175.997 132.443 176.071C132.443 176.072 132.443 176.074 132.442 176.077C132.441 176.082 132.439 176.09 132.437 176.1C132.431 176.122 132.423 176.156 132.413 176.2C132.393 176.29 132.362 176.425 132.323 176.602C132.245 176.956 132.133 177.48 131.998 178.151C131.728 179.494 131.367 181.424 131.006 183.762C130.283 188.445 129.563 194.734 129.563 201.204Z" fill="#977A67"/>
<path d="M178.879 132.973C179.157 132.129 180.068 131.671 180.912 131.949C181.756 132.228 182.214 133.137 181.936 133.98V133.982C181.935 133.984 181.934 133.988 181.932 133.994C181.929 134.007 181.922 134.027 181.914 134.053C181.897 134.107 181.871 134.189 181.839 134.296C181.775 134.51 181.685 134.824 181.585 135.212C181.383 135.99 181.144 137.048 180.985 138.185C180.826 139.331 180.757 140.498 180.865 141.511C180.975 142.55 181.251 143.238 181.605 143.631C182.086 144.166 182.15 144.95 181.778 145.552L181.697 145.67C181.697 145.67 181.696 145.672 181.695 145.673C181.693 145.676 181.689 145.681 181.684 145.688C181.674 145.702 181.657 145.725 181.635 145.755C181.591 145.815 181.526 145.905 181.441 146.024C181.273 146.261 181.03 146.609 180.738 147.045C180.155 147.919 179.383 149.137 178.627 150.517C177.869 151.902 177.143 153.422 176.636 154.901C176.123 156.401 175.874 157.746 175.96 158.82C175.982 159.092 175.934 159.366 175.821 159.614L174.355 158.949L175.82 159.614L175.82 159.615C175.819 159.616 175.819 159.618 175.818 159.62C175.816 159.624 175.814 159.629 175.81 159.637C175.803 159.652 175.793 159.675 175.779 159.705C175.752 159.765 175.711 159.855 175.658 159.971C175.552 160.204 175.396 160.548 175.196 160.987C174.796 161.865 174.221 163.128 173.52 164.666C172.118 167.742 170.211 171.918 168.194 176.319C164.167 185.108 159.682 194.83 157.905 198.449L157.906 198.449C155.835 202.672 156.555 205.716 157.974 207.866C159.473 210.138 161.87 211.568 163.252 212.126H163.251C166.048 213.255 168.884 213.241 171.069 212.918C172.155 212.758 173.059 212.525 173.685 212.333C173.998 212.238 174.239 212.154 174.398 212.095C174.477 212.066 174.535 212.043 174.571 212.029C174.588 212.022 174.601 212.017 174.607 212.015C174.608 212.014 174.609 212.014 174.61 212.013H174.611C174.612 212.013 174.613 212.013 174.613 212.013H174.612C175.43 211.669 176.373 212.051 176.719 212.868C177.066 213.686 176.683 214.63 175.865 214.977L175.237 213.495C175.851 214.943 175.864 214.976 175.864 214.977L175.863 214.978C175.862 214.978 175.861 214.979 175.86 214.979C175.858 214.98 175.855 214.981 175.852 214.982C175.846 214.985 175.839 214.988 175.83 214.991C175.812 214.998 175.788 215.008 175.759 215.02C175.699 215.044 175.616 215.076 175.511 215.114C175.301 215.192 175.002 215.296 174.626 215.411C173.876 215.64 172.813 215.914 171.54 216.102C169.006 216.476 165.546 216.522 162.046 215.109H162.045C160.272 214.393 157.253 212.619 155.286 209.637C153.239 206.534 152.443 202.277 155.015 197.033C156.767 193.463 161.23 183.789 165.267 174.979C167.283 170.581 169.189 166.407 170.59 163.332C171.291 161.795 171.866 160.532 172.265 159.654C172.465 159.215 172.621 158.873 172.727 158.639C172.727 158.639 172.727 158.638 172.728 158.637C172.684 157.063 173.061 155.406 173.59 153.859C174.177 152.148 174.992 150.454 175.803 148.973C176.616 147.488 177.44 146.186 178.061 145.258C178.203 145.045 178.334 144.852 178.453 144.679C177.989 143.786 177.763 142.79 177.663 141.852C177.517 140.478 177.618 139.025 177.797 137.741C177.977 136.446 178.246 135.261 178.468 134.405C178.58 133.975 178.68 133.623 178.754 133.376C178.791 133.252 178.821 133.155 178.842 133.087C178.853 133.053 178.862 133.026 178.868 133.007C178.871 132.998 178.873 132.99 178.875 132.984C178.876 132.982 178.877 132.979 178.878 132.977C178.878 132.977 178.878 132.976 178.878 132.975L178.879 132.974C178.883 132.975 178.96 133 180.408 133.477L178.879 132.973Z" fill="#977A67"/>
<path d="M204.121 203.02C204.999 202.88 205.824 203.478 205.964 204.355C206.47 207.525 205.475 210.039 204.113 211.864C202.014 214.677 198.382 215.799 195.064 214.922C192.131 214.148 189.02 213.877 186.613 213.805C185.416 213.769 184.408 213.783 183.702 213.806C183.35 213.817 183.073 213.831 182.888 213.841C182.795 213.846 182.724 213.851 182.679 213.854C182.656 213.855 182.639 213.856 182.629 213.857C182.624 213.857 182.62 213.857 182.618 213.857C182.617 213.857 182.617 213.857 182.616 213.857V213.858H182.617C181.731 213.926 180.957 213.263 180.889 212.377C180.821 211.491 181.484 210.718 182.371 210.65L182.474 211.998C182.377 210.729 182.371 210.654 182.371 210.65L182.372 210.649H182.379C182.384 210.649 182.39 210.648 182.398 210.647C182.414 210.646 182.436 210.645 182.464 210.643C182.521 210.639 182.603 210.634 182.708 210.628C182.917 210.617 183.22 210.601 183.6 210.589C184.36 210.565 185.436 210.551 186.71 210.589C189.245 210.665 192.625 210.951 195.886 211.811L195.887 211.812C198.017 212.375 200.269 211.632 201.532 209.94H201.532C202.476 208.676 203.129 207.02 202.784 204.862C202.644 203.984 203.243 203.159 204.121 203.02Z" fill="#977A67"/>
<path d="M145.127 142.983C150.069 142.983 155.945 144.507 161.414 147.097C166.886 149.689 172.099 153.418 175.632 157.961C176.178 158.663 176.051 159.674 175.349 160.219C174.647 160.764 173.636 160.638 173.09 159.936C169.947 155.894 165.187 152.445 160.035 150.005C154.879 147.563 149.477 146.2 145.127 146.2H145.126C138.653 146.197 135.593 148.36 134.106 150.235C133.336 151.205 132.927 152.174 132.711 152.893C132.604 153.252 132.546 153.544 132.515 153.737C132.5 153.833 132.492 153.903 132.487 153.944C132.486 153.957 132.485 153.968 132.484 153.974V153.972L132.484 153.971C132.436 154.857 131.679 155.538 130.791 155.491C129.904 155.443 129.222 154.685 129.27 153.798L130.877 153.884C129.269 153.799 129.27 153.797 129.27 153.796C129.27 153.795 129.27 153.794 129.27 153.793C129.27 153.791 129.27 153.789 129.27 153.787C129.271 153.783 129.271 153.778 129.271 153.773C129.272 153.762 129.273 153.749 129.274 153.733C129.276 153.703 129.28 153.663 129.285 153.615C129.295 153.519 129.31 153.39 129.335 153.232C129.385 152.916 129.474 152.482 129.627 151.969C129.935 150.945 130.509 149.589 131.583 148.236C133.782 145.463 137.846 142.98 145.127 142.983ZM132.484 153.974C132.484 153.975 132.484 153.976 132.484 153.977C132.484 153.979 132.484 153.981 132.484 153.982C132.483 153.983 132.483 153.983 132.484 153.981L132.484 153.974Z" fill="#977A67"/>
<path d="M218.336 157.723C222.736 156.01 229.016 154.573 236.522 155.677L236.522 155.678C240.285 156.232 243.188 157.912 245.134 159.431C246.11 160.193 246.856 160.922 247.364 161.467C247.618 161.74 247.813 161.969 247.949 162.134C248.016 162.216 248.069 162.283 248.107 162.332C248.126 162.356 248.141 162.376 248.152 162.391C248.158 162.398 248.163 162.404 248.167 162.41C248.169 162.412 248.171 162.415 248.172 162.416C248.173 162.417 248.173 162.418 248.174 162.419L248.174 162.42C248.171 162.423 248.109 162.47 247.104 163.211L248.176 162.421C248.704 163.136 248.551 164.143 247.836 164.671C247.12 165.198 246.112 165.046 245.584 164.331C245.581 164.326 245.574 164.317 245.565 164.306C245.544 164.279 245.509 164.235 245.461 164.176C245.364 164.058 245.211 163.88 245.006 163.659C244.594 163.216 243.972 162.607 243.153 161.967C241.561 160.724 239.264 159.396 236.338 158.905L236.053 158.861C229.219 157.855 223.509 159.162 219.504 160.721C217.501 161.501 215.931 162.342 214.869 162.981C214.339 163.301 213.937 163.57 213.672 163.754C213.54 163.847 213.443 163.918 213.381 163.964C213.35 163.987 213.329 164.004 213.316 164.013C213.311 164.017 213.307 164.019 213.304 164.021C212.606 164.571 211.594 164.453 211.044 163.755C210.493 163.057 210.612 162.045 211.31 161.495L212.235 162.667C211.345 161.539 211.312 161.496 211.312 161.494L211.313 161.493C211.314 161.492 211.315 161.492 211.317 161.491C211.319 161.489 211.322 161.486 211.326 161.483C211.334 161.477 211.344 161.469 211.356 161.46C211.381 161.441 211.415 161.415 211.458 161.383C211.545 161.319 211.668 161.229 211.828 161.117C212.147 160.895 212.61 160.586 213.207 160.226C214.401 159.507 216.136 158.579 218.336 157.723Z" fill="#977A67"/>
<path d="M157.779 157.449L158.122 157.459C161.651 157.614 164.572 159.518 166.534 161.242C167.565 162.148 168.38 163.047 168.939 163.72C169.22 164.058 169.438 164.342 169.589 164.545C169.664 164.646 169.723 164.728 169.764 164.787C169.785 164.816 169.802 164.839 169.813 164.856C169.819 164.865 169.824 164.872 169.828 164.878C169.83 164.88 169.831 164.883 169.832 164.885C169.833 164.886 169.834 164.886 169.834 164.887L169.835 164.888C169.833 164.891 169.777 164.929 168.587 165.732L169.835 164.889C170.333 165.625 170.139 166.625 169.402 167.123C168.666 167.619 167.667 167.427 167.169 166.692L167.164 166.685C167.158 166.677 167.148 166.663 167.135 166.643C167.107 166.604 167.062 166.542 167.003 166.461C166.883 166.3 166.701 166.063 166.462 165.775C165.982 165.197 165.283 164.427 164.408 163.658C162.623 162.09 160.3 160.696 157.742 160.667C151.95 160.602 148.245 161.872 146.037 163.075C144.928 163.679 144.181 164.274 143.725 164.697C143.497 164.909 143.342 165.079 143.25 165.184C143.205 165.237 143.175 165.274 143.16 165.293C143.153 165.302 143.15 165.308 143.15 165.308C143.15 165.308 143.15 165.306 143.152 165.303C143.153 165.302 143.155 165.301 143.156 165.299C143.157 165.298 143.157 165.297 143.158 165.296C143.158 165.295 143.159 165.294 143.159 165.294C143.159 165.294 143.159 165.294 143.159 165.293C142.647 166.019 141.645 166.194 140.918 165.684C140.19 165.173 140.015 164.17 140.526 163.443L141.8 164.337C140.573 163.476 140.528 163.443 140.527 163.441C140.527 163.441 140.528 163.439 140.528 163.439C140.529 163.437 140.531 163.436 140.532 163.434C140.534 163.431 140.537 163.427 140.539 163.423C140.545 163.416 140.551 163.407 140.559 163.396C140.574 163.376 140.594 163.35 140.617 163.319C140.665 163.258 140.729 163.178 140.812 163.083C140.977 162.892 141.215 162.636 141.534 162.34C142.174 161.746 143.138 160.989 144.497 160.249C147.139 158.81 151.214 157.465 157.194 157.447L157.779 157.449Z" fill="#977A67"/>
<path d="M212.39 245.177V245.178C213.157 244.73 214.141 244.988 214.591 245.753C215.041 246.519 214.784 247.505 214.018 247.954L213.203 246.567C214.018 247.955 214.017 247.955 214.017 247.956L214.015 247.956C214.014 247.957 214.013 247.958 214.012 247.958C214.01 247.959 214.008 247.961 214.005 247.962C214 247.965 213.995 247.968 213.989 247.971C213.977 247.978 213.962 247.986 213.946 247.995C213.911 248.014 213.868 248.038 213.813 248.065C213.705 248.12 213.557 248.19 213.367 248.271C212.987 248.432 212.442 248.635 211.721 248.833C210.279 249.229 208.144 249.605 205.237 249.605C202.322 249.605 197.872 248.994 193.754 248.31C189.598 247.619 185.649 246.829 183.682 246.433V246.432C183.048 246.305 182.414 246.448 181.948 246.798L181.947 246.799C181.705 246.98 181.459 247.194 181.086 247.503C180.74 247.79 180.325 248.124 179.855 248.434C178.908 249.059 177.664 249.639 176.116 249.617V249.617L176.116 249.617L176.115 249.617V249.617C174.554 249.595 173.311 249.052 172.323 248.462C171.838 248.172 171.395 247.858 171.021 247.594C170.627 247.316 170.322 247.102 170.033 246.933L170.025 246.929C169.39 246.553 168.647 246.364 167.88 246.382L155.469 248.702C154.595 248.866 153.754 248.29 153.59 247.417C153.427 246.543 154.002 245.703 154.876 245.539L167.407 243.197C167.48 243.183 167.554 243.175 167.628 243.171C169.025 243.106 170.43 243.432 171.658 244.156L171.658 244.155C172.09 244.408 172.513 244.708 172.878 244.966C173.264 245.238 173.611 245.482 173.975 245.7C174.683 246.123 175.365 246.389 176.16 246.4H176.162C176.835 246.41 177.445 246.168 178.081 245.749C178.402 245.537 178.71 245.293 179.031 245.026C179.324 244.784 179.688 244.47 180.013 244.226C181.182 243.348 182.645 243.022 184.04 243.23L184.318 243.278L184.319 243.279C186.28 243.674 190.184 244.454 194.282 245.136C198.417 245.823 202.622 246.387 205.237 246.387C207.863 246.387 209.71 246.048 210.867 245.73C211.447 245.571 211.856 245.417 212.105 245.311C212.23 245.257 212.315 245.217 212.362 245.193L212.39 245.177ZM212.397 245.175C212.396 245.176 212.394 245.176 212.392 245.177H212.39L212.397 245.175Z" fill="#977A67"/>
<path d="M160.584 250.392V250.391C160.583 250.39 160.582 250.389 160.581 250.388L160.593 250.399C160.612 250.415 160.647 250.444 160.699 250.486C160.804 250.569 160.978 250.7 161.227 250.866C161.726 251.198 162.525 251.669 163.665 252.166C165.942 253.158 169.6 254.264 174.966 254.563C181.827 254.945 187.702 254.1 191.857 253.16C193.932 252.69 195.574 252.198 196.689 251.827C197.246 251.641 197.672 251.485 197.954 251.378C198.094 251.325 198.199 251.283 198.267 251.256C198.3 251.242 198.325 251.232 198.34 251.226C198.347 251.223 198.353 251.221 198.355 251.22H198.357C199.175 250.873 200.119 251.254 200.466 252.072C200.814 252.89 200.432 253.834 199.614 254.181L198.985 252.7C199.596 254.14 199.613 254.18 199.613 254.182L199.612 254.182C199.611 254.183 199.61 254.183 199.609 254.184C199.606 254.185 199.603 254.186 199.6 254.187C199.593 254.19 199.583 254.194 199.572 254.199C199.548 254.209 199.514 254.223 199.47 254.24C199.384 254.275 199.26 254.324 199.099 254.385C198.778 254.508 198.31 254.679 197.708 254.879C196.503 255.281 194.758 255.803 192.567 256.298C188.325 257.258 182.393 258.122 175.461 257.809L174.787 257.775C169.052 257.456 165.018 256.266 162.378 255.115C161.06 254.54 160.095 253.978 159.443 253.544C159.118 253.328 158.872 253.144 158.699 253.007C158.612 252.939 158.544 252.882 158.494 252.839C158.469 252.817 158.449 252.799 158.433 252.785C158.425 252.777 158.417 252.771 158.411 252.766C158.409 252.763 158.406 252.761 158.403 252.759C158.402 252.758 158.401 252.757 158.4 252.756C158.4 252.755 158.399 252.754 158.399 252.754C158.402 252.749 158.461 252.684 159.493 251.574L158.397 252.753C157.746 252.148 157.709 251.13 158.314 250.479C158.918 249.83 159.933 249.791 160.584 250.392Z" fill="#977A67"/>
<path d="M171.571 268.649C174.278 267.769 177.534 267.793 179.984 267.992C181.234 268.093 182.326 268.245 183.107 268.372C183.497 268.436 183.812 268.493 184.032 268.535C184.141 268.556 184.227 268.573 184.287 268.586C184.317 268.592 184.341 268.597 184.357 268.601C184.366 268.603 184.373 268.604 184.377 268.605C184.38 268.605 184.382 268.606 184.383 268.606C184.384 268.606 184.385 268.606 184.386 268.606H184.386C184.387 268.607 184.387 268.607 184.045 270.179L184.387 268.607C185.256 268.795 185.807 269.652 185.619 270.52C185.43 271.388 184.574 271.939 183.705 271.751C183.705 271.751 183.704 271.751 183.703 271.751C183.701 271.751 183.698 271.75 183.693 271.749C183.682 271.747 183.664 271.743 183.64 271.738C183.593 271.728 183.52 271.714 183.423 271.695C183.231 271.658 182.947 271.606 182.59 271.548C181.873 271.432 180.869 271.292 179.723 271.199C177.383 271.009 174.65 271.032 172.567 271.709L172.566 271.709C170.619 272.344 168.962 273.539 167.766 274.622C167.175 275.158 166.713 275.65 166.402 276.005C166.246 276.182 166.13 276.324 166.055 276.418C166.017 276.465 165.99 276.499 165.973 276.521C165.965 276.531 165.96 276.539 165.957 276.543L165.956 276.543V276.544L165.955 276.545L165.853 276.67C165.303 277.273 164.375 277.373 163.705 276.878C162.991 276.349 162.841 275.341 163.37 274.627L164.664 275.585C163.37 274.627 163.37 274.627 163.371 274.627L163.371 274.626C163.372 274.625 163.372 274.625 163.373 274.624C163.374 274.623 163.375 274.621 163.376 274.619C163.379 274.615 163.383 274.61 163.387 274.605C163.396 274.593 163.407 274.578 163.422 274.559C163.45 274.522 163.49 274.471 163.541 274.407C163.643 274.28 163.79 274.101 163.979 273.886C164.357 273.455 164.906 272.871 165.605 272.238C166.99 270.983 169.036 269.476 171.569 268.65L171.571 268.649Z" fill="#977A67"/>
<path d="M228.045 157.378C228.045 157.378 227.143 166.15 233.692 165.706C238.914 165.352 238.386 157.797 238.386 157.797C238.386 157.797 233.299 156.297 228.045 157.378Z" fill="#977A67"/>
<path d="M152.654 159.399C152.654 159.399 151.753 168.171 158.302 167.727C163.524 167.373 162.996 159.817 162.996 159.817C162.996 159.817 157.909 158.318 152.654 159.399Z" fill="#977A67"/>
<path d="M333.674 157.848C323.552 153.916 311.626 177.779 311.626 177.759C311.337 173.84 314.028 169.921 317.248 166.819C325.625 158.756 326.018 155.879 326.018 155.879C326.018 155.879 328.285 111.719 314.176 92.7342C303.783 78.7435 293.178 63.0281 261.175 54.3274C261.175 54.3274 295.052 77.9391 270.885 125.594C259.791 147.474 256.326 149.488 256.326 149.488C256.326 149.488 282.907 161.349 277.595 184.349C273.513 202.021 244.858 225.704 244.858 225.704C244.858 225.704 254.839 234.507 229.597 290.92C226.513 292.278 211.876 302.594 209.139 303.354C188.894 309.01 177.697 305.188 177.697 305.188C177.697 305.188 170.304 306.752 170.671 307.125C182.797 319.526 193.363 345.178 205.688 356.408C207.497 358.055 217.24 356.659 217.24 356.659C252.031 344.309 306 283 306 283C306 283 303.552 277.475 303.5 269C303.418 255.5 304.5 239.5 304.5 239.5C304.5 239.5 311.298 239.115 318.645 235.151C326.121 231.109 331.601 213.56 336.759 204.512C340.996 197.079 351.679 164.843 333.674 157.855V157.848Z" fill="url(#paint0_linear_373_1942)"/>
<path d="M318.008 184.986C318.008 184.986 324.614 164.264 333.32 165.789C342.026 167.315 330.474 198.038 328.517 204.132C326.559 210.226 319.154 226.54 313.165 225.671C307.177 224.803 313.056 207.176 320.892 201.519" fill="url(#paint1_linear_373_1942)"/>
<path d="M326.153 166.972C328.167 165.085 330.704 163.698 333.598 164.205C335.259 164.496 336.42 165.518 337.125 166.89C337.795 168.191 338.067 169.812 338.126 171.511C338.245 174.925 337.513 179.271 336.483 183.618C334.419 192.332 330.997 201.671 330.049 204.624C329.036 207.779 326.646 213.495 323.732 218.342C322.278 220.76 320.645 223.046 318.929 224.691C317.275 226.276 315.202 227.592 312.934 227.263C311.731 227.089 310.776 226.465 310.131 225.529C309.521 224.644 309.239 223.561 309.141 222.471C308.944 220.299 309.432 217.6 310.314 214.893C312.07 209.501 315.647 203.321 319.95 200.215C320.671 199.695 321.677 199.857 322.197 200.577C322.718 201.297 322.555 202.303 321.834 202.823C318.301 205.374 315.02 210.836 313.375 215.889C312.556 218.404 312.207 220.628 312.347 222.182C312.417 222.956 312.598 223.436 312.782 223.704C312.932 223.92 313.102 224.036 313.396 224.079C314.123 224.184 315.22 223.787 316.7 222.368C318.119 221.008 319.582 218.998 320.972 216.685C323.748 212.068 326.039 206.58 326.983 203.64C327.992 200.499 331.325 191.429 333.35 182.877C334.365 178.591 335.011 174.589 334.909 171.623C334.857 170.133 334.619 169.056 334.261 168.361C333.94 167.736 333.557 167.464 333.042 167.374C331.584 167.119 330.03 167.75 328.356 169.319C326.693 170.879 325.147 173.156 323.81 175.59C322.484 178.005 321.414 180.481 320.674 182.362C320.304 183.3 320.019 184.084 319.827 184.631C319.731 184.905 319.659 185.119 319.611 185.263C319.587 185.335 319.569 185.39 319.557 185.425C319.552 185.443 319.547 185.457 319.544 185.465C319.543 185.469 319.542 185.472 319.542 185.474L319.541 185.475C319.271 186.322 318.366 186.789 317.519 186.52C316.672 186.25 316.204 185.344 316.474 184.498L318.007 184.987C316.48 184.5 316.474 184.498 316.474 184.497L316.474 184.496C316.475 184.495 316.475 184.494 316.476 184.492C316.477 184.489 316.478 184.484 316.48 184.478C316.484 184.467 316.489 184.45 316.496 184.429C316.51 184.386 316.53 184.324 316.557 184.245C316.61 184.087 316.688 183.857 316.789 183.567C316.993 182.987 317.292 182.164 317.678 181.183C318.448 179.227 319.574 176.617 320.987 174.042C322.391 171.486 324.13 168.869 326.153 166.972Z" fill="#977A67"/>
<path d="M307.552 240.665C308.012 239.905 305.073 240.283 305.833 240.743C306.594 241.203 306.837 242.192 306.377 242.952V242.953L306.375 242.956C306.373 242.959 306.371 242.964 306.367 242.969C306.36 242.981 306.348 243 306.334 243.024C303.854 244.085 306.26 243.146 305.342 239.734C305.227 239.926 305.057 240.21 304.839 240.578C304.401 241.313 306.118 245.089 305.342 246.424C303.79 249.093 303.242 249.492 300.938 253.718C296.315 262.198 291.037 272.598 288.254 280.516C287.959 281.354 287.04 281.795 286.201 281.5C285.363 281.206 284.922 280.287 285.216 279.449C288.093 271.266 293.482 260.67 298.111 252.179C300.432 247.921 302.576 244.168 304.139 241.48C304.921 240.135 306.419 242.563 306.861 241.82C307.082 241.448 307.254 241.161 307.371 240.965C307.43 240.868 305 240.307 307.505 240.743C305 239.931 306.195 240.319 306.203 240.307C306.207 240.3 307.547 240.674 307.549 240.67L307.551 240.667L307.552 240.665C307.552 240.665 303.623 241.286 305 242.119L307.552 240.665Z" fill="#977A67"/>
<path d="M228.695 227.364C229.432 226.866 230.432 227.059 230.93 227.795L229.822 228.544C230.872 227.834 230.927 227.797 230.931 227.796L230.932 227.797C230.932 227.798 230.933 227.799 230.933 227.799C230.934 227.801 230.936 227.804 230.938 227.806C230.942 227.812 230.946 227.818 230.951 227.826C230.962 227.843 230.977 227.866 230.995 227.894C231.031 227.95 231.081 228.028 231.143 228.129C231.266 228.33 231.437 228.62 231.638 228.992C232.041 229.734 232.569 230.806 233.088 232.155C234.126 234.847 235.143 238.672 235.044 243.185V243.186C234.918 248.868 232.815 255.455 230.818 260.511C229.81 263.063 228.811 265.27 228.063 266.841C227.689 267.627 227.378 268.256 227.158 268.689C227.049 268.906 226.962 269.074 226.902 269.189C226.872 269.246 226.849 269.29 226.833 269.321C226.825 269.336 226.819 269.348 226.815 269.356C226.813 269.36 226.811 269.364 226.81 269.366C226.809 269.367 226.808 269.368 226.808 269.368L226.807 269.37C226.39 270.154 225.416 270.453 224.63 270.036C223.845 269.62 223.547 268.645 223.964 267.861L223.968 267.853C223.971 267.847 223.976 267.838 223.983 267.825C223.996 267.799 224.017 267.759 224.044 267.707C224.099 267.601 224.181 267.443 224.285 267.237C224.494 266.824 224.794 266.22 225.156 265.459C225.88 263.938 226.849 261.798 227.824 259.329C229.792 254.345 231.713 248.199 231.825 243.114C231.913 239.121 231.011 235.719 230.084 233.311C229.62 232.109 229.154 231.163 228.808 230.525C228.635 230.206 228.492 229.965 228.396 229.808C228.348 229.73 228.312 229.672 228.289 229.637C228.278 229.619 228.269 229.607 228.265 229.601C228.263 229.597 228.262 229.595 228.261 229.595H228.262L228.262 229.596L228.263 229.597C227.766 228.861 227.959 227.861 228.695 227.364Z" fill="#977A67"/>
<path d="M232.49 286.342C233.21 285.821 234.216 285.981 234.738 286.701C235.26 287.42 235.099 288.426 234.38 288.948C219.791 299.516 209.127 304.233 200.263 306.163C191.415 308.088 184.451 307.2 177.602 306.794C170.926 306.399 165.586 302.047 162.029 298.07C160.228 296.056 158.823 294.07 157.869 292.59C157.391 291.849 157.024 291.23 156.774 290.793C156.649 290.575 156.554 290.402 156.488 290.281C156.455 290.22 156.43 290.173 156.412 290.139C156.403 290.123 156.396 290.109 156.391 290.1C156.389 290.095 156.387 290.091 156.385 290.088L156.382 290.083C156.382 290.083 156.382 290.082 157.812 289.344L156.382 290.082C155.974 289.293 156.284 288.322 157.074 287.914C157.863 287.507 158.834 287.816 159.242 288.605C159.243 288.605 159.244 288.607 159.245 288.61C159.248 288.615 159.252 288.623 159.258 288.635C159.271 288.659 159.291 288.697 159.318 288.747C159.373 288.848 159.457 289.001 159.569 289.197C159.794 289.59 160.132 290.16 160.576 290.848C161.464 292.227 162.769 294.069 164.43 295.926C167.799 299.693 172.401 303.263 177.792 303.582H177.792C184.839 304 191.268 304.827 199.578 303.018C207.871 301.213 218.128 296.747 232.49 286.342Z" fill="#977A67"/>
<path d="M273.484 273.831C273.97 273.087 274.967 272.876 275.712 273.362C276.457 273.847 276.667 274.844 276.181 275.588C274.596 278.018 271.689 280.857 267.849 283.8C263.98 286.766 259.067 289.911 253.37 292.933C241.979 298.975 227.373 304.564 211.583 307.212C200.707 309.036 189.581 308.927 181.203 308.371C177.008 308.093 173.486 307.701 171.01 307.378C169.772 307.217 168.795 307.073 168.125 306.969C167.789 306.916 167.531 306.874 167.355 306.845C167.267 306.83 167.2 306.818 167.154 306.81C167.131 306.806 167.113 306.804 167.101 306.801C167.095 306.8 167.09 306.799 167.086 306.799C167.085 306.799 167.083 306.798 167.082 306.798L167.081 306.798C167.081 306.794 167.094 306.72 167.362 305.214L167.08 306.798C166.205 306.642 165.621 305.807 165.777 304.932C165.932 304.057 166.768 303.474 167.644 303.63L167.645 303.63C167.647 303.631 167.651 303.631 167.656 303.632C167.666 303.634 167.681 303.636 167.701 303.64C167.741 303.647 167.803 303.657 167.886 303.671C168.05 303.698 168.297 303.739 168.62 303.789C169.266 303.89 170.217 304.03 171.427 304.188C173.847 304.503 177.3 304.888 181.417 305.161C189.663 305.709 200.515 305.806 211.05 304.039C226.451 301.455 240.728 295.995 251.86 290.091C257.425 287.139 262.183 284.088 265.889 281.247C269.623 278.385 272.194 275.809 273.484 273.831Z" fill="#977A67"/>
<path d="M165.99 304.371C166.456 303.614 167.447 303.377 168.204 303.842V303.843C168.205 303.843 168.206 303.843 168.206 303.844C168.208 303.844 168.21 303.846 168.214 303.849C168.221 303.853 168.233 303.86 168.249 303.87C168.281 303.889 168.329 303.918 168.393 303.957C168.521 304.034 168.713 304.148 168.963 304.295C169.463 304.59 170.199 305.017 171.132 305.538C172.998 306.583 175.651 308.007 178.788 309.526C185.084 312.575 193.239 315.956 200.876 317.438C201.749 317.608 202.319 318.452 202.149 319.324C201.98 320.197 201.135 320.766 200.262 320.597C192.22 319.036 183.771 315.515 177.384 312.422C174.179 310.87 171.469 309.415 169.559 308.346C168.604 307.812 167.848 307.374 167.328 307.068C167.069 306.915 166.869 306.796 166.732 306.714C166.664 306.673 166.611 306.64 166.576 306.619C166.558 306.608 166.544 306.6 166.535 306.594C166.53 306.591 166.527 306.589 166.524 306.587C166.523 306.587 166.522 306.586 166.521 306.585L166.52 306.585C166.519 306.585 166.519 306.584 167.362 305.214L166.519 306.584C165.762 306.119 165.525 305.128 165.99 304.371Z" fill="#977A67"/>
<path d="M218.238 357.843C218.238 357.843 287.653 307.273 307.486 283.011L308.819 280.946L353.366 313.702L251.297 437.604L218.238 357.843Z" fill="#FFF9EC"/>
<path d="M308.528 279.363C308.965 279.283 309.415 279.387 309.773 279.65L354.32 312.406C354.676 312.668 354.909 313.065 354.963 313.503C355.018 313.941 354.89 314.383 354.609 314.725L252.54 438.626C252.181 439.062 251.619 439.278 251.06 439.195C250.501 439.111 250.026 438.741 249.81 438.219L216.751 358.458C216.467 357.772 216.689 356.98 217.29 356.543L218.238 357.843C217.29 356.543 217.29 356.542 217.291 356.542C217.291 356.542 217.292 356.541 217.293 356.541C217.295 356.539 217.298 356.537 217.302 356.534C217.31 356.528 217.323 356.519 217.34 356.507C217.373 356.483 217.422 356.446 217.488 356.398C217.619 356.302 217.815 356.159 218.07 355.972C218.582 355.597 219.336 355.042 220.303 354.328C222.237 352.901 225.022 350.833 228.427 348.276C235.238 343.161 244.523 336.09 254.426 328.263C274.254 312.592 296.373 294.03 306.185 282.058L307.466 280.074L307.563 279.939C307.804 279.639 308.146 279.433 308.528 279.363ZM308.839 283.883C308.806 283.933 308.771 283.983 308.733 284.029C298.685 296.321 276.225 315.136 256.423 330.787C246.494 338.635 237.186 345.723 230.361 350.848C226.949 353.411 224.156 355.484 222.216 356.916C221.384 357.531 220.709 358.026 220.209 358.393L251.758 434.513L351.042 313.991L309.243 283.255L308.839 283.883Z" fill="#977A67"/>
<path d="M175.861 311.405L170.961 317.499L147.014 423.021L204.49 357.528C204.49 357.528 187.993 333.832 175.861 311.398V311.405Z" fill="#FFF9EC"/>
<path d="M175.466 309.838C176.181 309.658 176.927 309.985 177.277 310.633C183.315 321.798 190.447 333.291 196.078 342.002C198.891 346.356 201.326 350.01 203.058 352.575C203.923 353.857 204.612 354.867 205.085 355.555C205.321 355.899 205.504 356.164 205.626 356.341C205.688 356.43 205.734 356.497 205.765 356.542C205.781 356.564 205.793 356.581 205.801 356.592C205.804 356.598 205.807 356.602 205.809 356.605C205.81 356.606 205.811 356.607 205.811 356.608V356.608C205.808 356.611 205.742 356.657 204.49 357.527L205.812 356.608C206.235 357.215 206.188 358.032 205.701 358.588L148.224 424.082C147.738 424.636 146.939 424.789 146.282 424.454C145.626 424.12 145.281 423.383 145.443 422.666L169.391 317.143L169.414 317.054C169.473 316.849 169.572 316.658 169.706 316.491L174.547 310.471C174.763 310.166 175.083 309.935 175.466 309.838ZM172.449 318.217L149.987 417.192L202.453 357.409C202.445 357.398 202.438 357.387 202.43 357.376C201.953 356.681 201.259 355.664 200.388 354.374C198.647 351.795 196.2 348.123 193.373 343.748C188.077 335.553 181.436 324.876 175.606 314.29L172.449 318.217Z" fill="#977A67"/>
<path d="M196.139 133.671C196.138 133.674 196.138 133.68 196.137 133.687C196.135 133.703 196.132 133.729 196.129 133.763C196.121 133.832 196.11 133.938 196.098 134.077C196.073 134.356 196.041 134.768 196.016 135.284C195.967 136.319 195.946 137.764 196.061 139.398C196.259 142.221 196.851 145.442 198.263 148.092C198.792 147.754 199.462 147.34 200.259 146.873C202.433 145.598 205.566 143.924 209.418 142.313C217.106 139.098 227.746 136.101 239.384 137.126H239.385C244.773 137.604 249.105 140.286 252.038 142.76C253.513 144.004 254.662 145.218 255.444 146.125C255.835 146.579 256.137 146.957 256.344 147.227C256.447 147.362 256.527 147.47 256.583 147.546C256.61 147.584 256.632 147.615 256.648 147.637C256.656 147.648 256.662 147.656 256.667 147.663C256.669 147.667 256.671 147.67 256.673 147.672C256.673 147.673 256.675 147.674 256.675 147.675L256.676 147.676C256.676 147.676 256.676 147.677 255.469 148.514L256.676 147.677C257.183 148.407 257.002 149.41 256.271 149.916C255.541 150.423 254.538 150.241 254.031 149.511V149.51C254.029 149.508 254.027 149.505 254.023 149.5C254.015 149.488 254 149.468 253.98 149.44C253.939 149.384 253.875 149.297 253.789 149.185C253.616 148.959 253.353 148.629 253.005 148.226C252.309 147.42 251.281 146.331 249.962 145.218C247.307 142.979 243.583 140.728 239.1 140.331V140.33C228.163 139.367 218.066 142.185 210.66 145.281C206.965 146.826 203.963 148.432 201.888 149.649C200.851 150.256 200.048 150.766 199.508 151.12C199.238 151.298 199.034 151.436 198.899 151.529C198.832 151.575 198.783 151.61 198.751 151.633C198.735 151.644 198.723 151.652 198.716 151.657C198.713 151.659 198.711 151.661 198.709 151.662C198.361 151.913 197.926 152.015 197.503 151.944C197.079 151.874 196.701 151.636 196.453 151.286C193.932 147.721 193.096 143.145 192.849 139.623C192.723 137.836 192.746 136.261 192.8 135.131C192.827 134.565 192.862 134.108 192.891 133.789C192.905 133.63 192.918 133.505 192.927 133.417C192.932 133.374 192.936 133.339 192.939 133.315C192.941 133.303 192.941 133.292 192.942 133.285C192.943 133.282 192.943 133.279 192.944 133.276C192.944 133.275 192.943 133.274 192.944 133.273L192.944 133.273C192.949 133.273 193.03 133.282 194.541 133.471L192.944 133.271C193.054 132.39 193.859 131.764 194.741 131.874C195.623 131.984 196.248 132.787 196.139 133.669C196.139 133.669 196.139 133.67 196.139 133.671Z" fill="#977A67"/>
<path d="M215.261 144.23C221.876 140.602 231.001 137.057 241.024 137.365C241.913 137.392 242.611 138.134 242.584 139.022C242.557 139.91 241.814 140.608 240.925 140.581C231.695 140.297 223.155 143.57 216.81 147.05C213.649 148.784 211.062 150.554 209.244 151.92C208.336 152.603 207.624 153.182 207.132 153.602C206.886 153.812 206.699 153.979 206.573 154.096C206.393 154.262 206.427 154.246 206.506 154.141C205.972 154.852 204.963 154.996 204.252 154.463C203.541 153.93 203.397 152.921 203.93 152.21C204.062 152.035 204.271 151.841 204.383 151.737C204.549 151.584 204.77 151.387 205.041 151.155C205.585 150.691 206.349 150.07 207.309 149.349C209.227 147.907 211.944 146.049 215.261 144.23Z" fill="#977A67"/>
<path opacity="0.3" d="M163.601 71.6968C163.601 71.6968 178.147 75.9507 198.985 74.2453C219.822 72.5399 256.803 57.6096 281.355 76.5106C310.712 99.1119 311.697 139.449 311.697 151.767V174.091C311.697 174.091 312.972 166.633 326.018 155.879C326.018 155.879 326.585 138.954 325.026 127.241C323.494 115.735 320.603 104.292 317.512 97.9084C311.678 85.8484 287.84 51.7984 230.176 49.4495C184.947 47.6089 163.608 71.6968 163.608 71.6968H163.601Z" fill="#8D7E77"/>
<path d="M330.861 157.423C330.857 157.424 330.851 157.427 330.843 157.429C330.819 157.437 330.775 157.452 330.712 157.475C330.586 157.52 330.384 157.597 330.115 157.716C329.578 157.953 328.77 158.355 327.757 158.994C325.734 160.272 322.878 162.509 319.715 166.298C316.902 169.671 315.267 172.662 314.339 174.782C313.875 175.842 313.588 176.686 313.419 177.252C313.335 177.535 313.28 177.748 313.247 177.884C313.231 177.952 313.22 178.001 313.214 178.029C313.211 178.043 313.209 178.052 313.209 178.056C313.209 178.056 313.209 178.055 313.209 178.054V178.054C313.209 178.054 313.209 178.053 313.209 178.053C313.047 178.926 312.207 179.503 311.333 179.341C310.459 179.18 309.882 178.34 310.044 177.467L311.627 177.76C310.044 177.467 310.044 177.466 310.044 177.465L310.044 177.464C310.045 177.463 310.044 177.462 310.044 177.461C310.045 177.459 310.046 177.456 310.046 177.453C310.047 177.447 310.049 177.439 310.051 177.431C310.054 177.414 310.059 177.391 310.065 177.364C310.076 177.308 310.093 177.231 310.116 177.135C310.162 176.944 310.232 176.673 310.334 176.331C310.538 175.648 310.87 174.68 311.389 173.493C312.429 171.116 314.22 167.861 317.241 164.238V164.238C320.62 160.189 323.731 157.731 326.037 156.274C327.19 155.547 328.138 155.07 328.816 154.772C329.154 154.622 329.425 154.517 329.619 154.447C329.716 154.412 329.795 154.386 329.853 154.368C329.881 154.358 329.905 154.351 329.924 154.345C329.933 154.342 329.941 154.34 329.948 154.338C329.951 154.337 329.954 154.336 329.957 154.335C329.958 154.334 329.96 154.334 329.961 154.334H329.963C329.963 154.333 329.964 154.333 330.374 155.755L329.965 154.333C330.819 154.087 331.711 154.58 331.957 155.434C332.202 156.287 331.71 157.178 330.857 157.424H330.858C330.859 157.424 330.86 157.424 330.861 157.424V157.423Z" fill="#977A67"/>
</g>
</g>
</g>
<defs>
<filter id="filter0_d_373_1942" x="-20" y="-20" width="517" height="604" filterUnits="userSpaceOnUse" color-interpolation-filters="sRGB">
<feFlood flood-opacity="0" result="BackgroundImageFix"/>
<feColorMatrix in="SourceAlpha" type="matrix" values="0 0 0 0 0 0 0 0 0 0 0 0 0 0 0 0 0 0 127 0" result="hardAlpha"/>
<feOffset/>
<feGaussianBlur stdDeviation="10"/>
<feComposite in2="hardAlpha" operator="out"/>
<feColorMatrix type="matrix" values="0 0 0 0 0.584615 0 0 0 0 0.496818 0 0 0 0 0.383935 0 0 0 0.15 0"/>
<feBlend mode="normal" in2="BackgroundImageFix" result="effect1_dropShadow_373_1942"/>
<feBlend mode="normal" in="SourceGraphic" in2="effect1_dropShadow_373_1942" result="shape"/>
</filter>
<linearGradient id="paint0_linear_373_1942" x1="358.136" y1="223.821" x2="192.614" y2="142.669" gradientUnits="userSpaceOnUse">
<stop stop-color="#E5AB85"/>
<stop offset="1" stop-color="#FFC29B"/>
</linearGradient>
<linearGradient id="paint1_linear_373_1942" x1="320.617" y1="222.778" x2="338.249" y2="148.753" gradientUnits="userSpaceOnUse">
<stop stop-color="#D79C76"/>
<stop offset="1" stop-color="#F3BF9D"/>
</linearGradient>
<clipPath id="clip0_373_1942">
<rect width="477" height="564" rx="20" fill="white"/>
</clipPath>
<clipPath id="clip1_373_1942">
<rect width="544" height="537" fill="white" transform="translate(-44 46)"/>
</clipPath>
</defs>
</svg>
