<svg width="477" height="564" viewBox="0 0 477 564" fill="none" xmlns="http://www.w3.org/2000/svg">
<g filter="url(#filter0_d_373_1862)">
<g clip-path="url(#clip0_373_1862)">
<g clip-path="url(#clip1_373_1862)">
<path d="M318.973 301.168L181.967 337.335L181.32 337.525L167.624 314.591C167.624 314.591 113.821 340.821 67.0472 362.238C9.75066 388.475 18.3163 403.749 1.64303 482.37C-5.05771 513.978 -15.364 618.365 -15.364 618.365L506.364 612.203V386.101L318.973 301.168Z" fill="#977A67"/>
<path d="M318.692 299.557C319.015 299.501 319.348 299.542 319.648 299.678L507.039 384.612C507.624 384.877 508 385.459 508 386.101V612.203C508 613.098 507.279 613.828 506.383 613.838L-15.3449 620C-15.81 620.005 -16.2556 619.813 -16.5699 619.47C-16.8843 619.127 -17.038 618.667 -16.9923 618.204L-15.3641 618.365C-16.9921 618.204 -16.9918 618.203 -16.9917 618.202C-16.9916 618.202 -16.9918 618.201 -16.9917 618.199C-16.9914 618.196 -16.991 618.191 -16.9904 618.185C-16.9892 618.172 -16.9872 618.153 -16.9847 618.128C-16.9797 618.077 -16.9722 618.002 -16.9623 617.903C-16.9426 617.704 -16.9133 617.408 -16.8748 617.022C-16.7976 616.249 -16.6836 615.112 -16.5361 613.653C-16.241 610.735 -15.8115 606.533 -15.2759 601.391C-14.2046 591.108 -12.7067 577.066 -10.9989 562.036C-7.58759 532.013 -3.32776 497.927 0.0423412 482.03C4.20602 462.397 6.78625 446.76 9.23162 433.817C11.6686 420.919 13.9768 410.666 17.6029 402.027C24.9452 384.536 37.5835 373.931 66.3655 360.751H66.3662C89.7412 350.048 114.876 338.141 134.169 328.908C143.815 324.292 152 320.345 157.773 317.552C160.66 316.155 162.944 315.047 164.506 314.289C165.286 313.909 165.886 313.617 166.292 313.42C166.494 313.321 166.648 313.247 166.751 313.196C166.803 313.171 166.841 313.152 166.867 313.14C166.88 313.133 166.89 313.129 166.897 313.126C166.9 313.124 166.902 313.122 166.904 313.122C166.905 313.121 166.905 313.121 166.906 313.121C166.906 313.121 166.906 313.121 167.476 314.289L166.906 313.121C167.67 312.749 168.592 313.023 169.028 313.752L182.083 335.613L318.555 299.587L318.692 299.557ZM182.414 338.908L181.779 339.094C181.064 339.304 180.297 339.003 179.915 338.363L166.989 316.718C166.686 316.865 166.334 317.037 165.936 317.23C164.372 317.99 162.087 319.099 159.199 320.496C153.423 323.291 145.233 327.239 135.582 331.858C116.281 341.094 91.1278 353.011 67.7286 363.725C39.2144 376.782 27.4871 386.933 20.6198 403.293C17.1411 411.58 14.8834 421.527 12.4466 434.424C10.1699 446.474 7.74068 461.074 4.00753 479.065L3.24325 482.709C-0.0873775 498.42 -4.33103 532.332 -7.7481 562.405C-9.45443 577.422 -10.9514 591.453 -12.0219 601.73C-12.5572 606.868 -12.9861 611.067 -13.2808 613.982C-13.3917 615.078 -13.4834 615.993 -13.555 616.708L504.728 610.586V387.155L318.827 302.897L182.414 338.908Z" fill="#977A67"/>
<path d="M118.232 128.26C118.232 128.26 123.526 196.114 132.451 205.533C132.451 205.533 129.219 222.233 132.451 239.247C134.355 249.288 151.591 288.661 160.393 299.323C166.282 306.46 175.273 308.494 177.753 310.483L182.713 340.73C182.713 340.73 196.677 379.566 237.275 376.433C276.838 373.378 307.593 305.649 307.593 305.649L303.556 236.356C303.556 236.356 308.476 237.344 312.776 232.549C316.931 227.918 327.676 207.339 328.271 183.299C328.899 158.292 317.925 150.108 311.473 151.593C305.028 153.078 292.215 176.777 292.215 176.777L259.582 66.5294C259.582 66.5294 106.754 34.9935 118.232 128.26Z" fill="#FFC29B"/>
<path d="M184.436 60.793C202.978 58.8899 221.847 59.9276 236.054 61.4331C243.164 62.1865 249.12 63.0581 253.302 63.7424C255.393 64.0846 257.041 64.3798 258.169 64.5901C258.732 64.6952 259.166 64.7795 259.46 64.8373C259.606 64.8662 259.718 64.8884 259.794 64.9037C259.832 64.9114 259.862 64.9176 259.881 64.9216L259.91 64.9274C259.911 64.9283 259.906 64.9602 259.582 66.5295L259.913 64.928C260.503 65.0499 260.979 65.4868 261.15 66.0651L292.687 172.607C292.757 172.484 292.829 172.359 292.903 172.231C294.214 169.97 296.033 166.934 298.059 163.846C300.08 160.765 302.332 157.594 304.509 155.084C305.597 153.829 306.694 152.706 307.76 151.835C308.8 150.986 309.938 150.269 311.106 149.999C315.198 149.058 320.161 151.249 323.87 156.577C327.603 161.939 330.226 170.617 329.906 183.34C329.603 195.583 326.718 206.92 323.39 215.777C320.081 224.581 316.27 231.102 313.993 233.64C311.58 236.332 308.944 237.441 306.873 237.854C306.293 237.97 305.76 238.029 305.293 238.056L309.226 305.553C309.241 305.818 309.192 306.083 309.082 306.324L307.593 305.649C308.992 306.283 309.077 306.323 309.082 306.326C309.081 306.326 309.081 306.328 309.08 306.329C309.079 306.331 309.078 306.335 309.076 306.34C309.072 306.349 309.065 306.362 309.057 306.379C309.042 306.414 309.019 306.464 308.988 306.53C308.927 306.662 308.836 306.857 308.717 307.109C308.478 307.614 308.125 308.351 307.661 309.289C306.734 311.165 305.367 313.843 303.604 317.064C300.08 323.503 294.962 332.129 288.592 340.859C282.226 349.582 274.576 358.457 265.976 365.359C257.384 372.255 247.738 377.265 237.401 378.063H237.4C216.481 379.677 202.38 370.451 193.566 360.863C189.17 356.081 186.081 351.206 184.091 347.527C183.095 345.686 182.37 344.139 181.893 343.047C181.655 342.5 181.477 342.067 181.358 341.767C181.299 341.616 181.254 341.499 181.223 341.418C181.208 341.377 181.197 341.345 181.188 341.323C181.184 341.311 181.18 341.302 181.178 341.296C181.177 341.293 181.176 341.29 181.176 341.288C181.175 341.286 181.174 341.285 181.174 341.285C181.174 341.284 181.186 341.278 182.713 340.73L181.174 341.283C181.14 341.189 181.115 341.093 181.099 340.994L176.252 311.437C175.778 311.156 175.089 310.82 174.147 310.393C172.897 309.826 171.303 309.139 169.619 308.296C166.34 306.654 162.53 304.335 159.429 300.718L159.131 300.364C154.571 294.84 147.981 282.132 142.346 269.729C139.511 263.488 136.89 257.262 134.855 251.956C132.962 247.019 131.538 242.784 130.95 240.073L130.844 239.552C129.193 230.864 129.197 222.288 129.606 215.906C129.811 212.709 130.119 210.049 130.376 208.185C130.504 207.253 130.621 206.518 130.705 206.014C130.706 206.01 130.706 206.006 130.707 206.003C129.584 204.552 128.61 202.466 127.74 200.065C126.709 197.22 125.752 193.725 124.869 189.849C123.101 182.092 121.595 172.672 120.373 163.582C119.15 154.486 118.207 145.689 117.57 139.169C117.252 135.908 117.009 133.214 116.847 131.335C116.765 130.396 116.704 129.659 116.663 129.158C116.642 128.907 116.627 128.715 116.617 128.585C116.612 128.521 116.607 128.471 116.605 128.438C116.604 128.433 116.604 128.428 116.604 128.424C113.684 104.62 121.261 88.5326 134.454 77.9903C147.531 67.5409 165.932 62.6923 184.436 60.793ZM235.709 64.6853C221.62 63.1924 203 62.1753 184.77 64.0465C166.501 65.9216 148.847 70.6766 136.497 80.5455C124.27 90.3162 117.048 105.251 119.855 128.06C119.858 128.085 119.861 128.109 119.863 128.133L118.232 128.26C119.862 128.133 119.863 128.133 119.863 128.134C119.863 128.134 119.863 128.135 119.863 128.136L119.866 128.18C119.869 128.213 119.873 128.261 119.878 128.325C119.888 128.452 119.903 128.642 119.924 128.891C119.964 129.388 120.026 130.119 120.106 131.053C120.268 132.922 120.509 135.603 120.827 138.85C121.461 145.347 122.399 154.102 123.615 163.147C124.832 172.198 126.324 181.507 128.059 189.122C128.927 192.932 129.848 196.283 130.815 198.952C131.802 201.675 132.769 203.491 133.639 204.408C134.001 204.791 134.157 205.326 134.057 205.844V205.844C134.057 205.846 134.056 205.848 134.056 205.851C134.055 205.858 134.053 205.868 134.05 205.883C134.045 205.912 134.036 205.956 134.025 206.016C134.004 206.136 133.972 206.317 133.932 206.554C133.852 207.03 133.741 207.733 133.617 208.632C133.369 210.43 133.071 213.009 132.872 216.114C132.473 222.336 132.477 230.616 134.058 238.942V238.943C134.504 241.293 135.887 245.512 137.91 250.786C139.917 256.02 142.513 262.186 145.325 268.376C150.985 280.834 157.413 293.144 161.654 298.283C164.391 301.598 167.881 303.768 171.084 305.371C172.693 306.177 174.181 306.817 175.498 307.414C176.736 307.976 177.966 308.557 178.777 309.207C179.092 309.459 179.302 309.82 179.368 310.218L184.302 340.309C184.326 340.372 184.359 340.458 184.401 340.564C184.507 340.831 184.669 341.229 184.892 341.738C185.337 342.757 186.021 344.22 186.968 345.971C188.865 349.477 191.805 354.114 195.974 358.65C204.291 367.697 217.471 376.321 237.148 374.802C246.592 374.073 255.627 369.471 263.928 362.809C272.222 356.152 279.679 347.523 285.948 338.932C292.212 330.348 297.255 321.85 300.734 315.494C302.472 312.318 303.818 309.681 304.727 307.84C305.182 306.92 305.528 306.2 305.759 305.711C305.828 305.564 305.887 305.437 305.936 305.332L301.923 236.451C301.893 235.945 302.1 235.454 302.482 235.121C302.864 234.789 303.379 234.653 303.875 234.752H303.874C303.873 234.752 303.872 234.752 303.872 234.752C303.87 234.751 303.868 234.751 303.867 234.751C303.865 234.75 303.863 234.75 303.863 234.75C303.863 234.75 303.868 234.751 303.876 234.752C303.893 234.755 303.927 234.76 303.976 234.766C304.075 234.778 304.235 234.794 304.446 234.801C304.87 234.815 305.492 234.795 306.233 234.647C307.698 234.355 309.672 233.56 311.557 231.457H311.558C313.437 229.363 317.075 223.281 320.327 214.627C323.558 206.027 326.344 195.055 326.636 183.259V183.258C326.944 170.974 324.394 163.056 321.184 158.446C317.951 153.802 314.201 152.644 311.84 153.187L311.84 153.186C311.396 153.289 310.725 153.637 309.831 154.368C308.962 155.077 308.001 156.05 306.981 157.226C304.943 159.576 302.783 162.609 300.795 165.639C298.813 168.661 297.026 171.643 295.734 173.872C295.088 174.985 294.567 175.908 294.208 176.552C294.028 176.874 293.889 177.126 293.795 177.297C293.749 177.382 293.713 177.448 293.689 177.491C293.677 177.513 293.668 177.529 293.662 177.54C293.66 177.545 293.657 177.549 293.656 177.552C293.655 177.553 293.655 177.554 293.655 177.554V177.555C293.34 178.137 292.704 178.473 292.046 178.404C291.387 178.335 290.835 177.876 290.647 177.241L258.295 67.9438C258.085 67.9037 257.843 67.857 257.569 67.8058C256.463 67.5997 254.839 67.3082 252.773 66.9703C248.642 66.2942 242.748 65.4311 235.709 64.6853Z" fill="#977A67"/>
<path d="M210.251 231.475C210.849 230.797 211.882 230.731 212.56 231.328C213.616 232.258 214.375 233.635 214.852 235.035C215.338 236.457 215.59 238.064 215.511 239.584C215.433 241.081 215.022 242.673 213.994 243.875C212.896 245.159 211.277 245.781 209.308 245.577C206.086 245.244 204.044 245.613 202.871 246C202.283 246.194 201.902 246.397 201.692 246.527C201.586 246.593 201.521 246.641 201.494 246.663C201.486 246.669 201.481 246.673 201.479 246.675C201.481 246.673 201.485 246.669 201.49 246.664C201.493 246.661 201.497 246.658 201.501 246.654C201.503 246.653 201.505 246.65 201.508 246.648C201.509 246.647 201.51 246.646 201.511 246.645C201.512 246.644 201.512 246.643 201.513 246.643C201.513 246.643 201.513 246.643 201.512 246.642C200.868 247.273 199.834 247.264 199.201 246.621C198.568 245.976 198.577 244.941 199.222 244.308L200.343 245.448C199.222 244.308 199.223 244.307 199.224 244.306L199.238 244.292C199.245 244.286 199.252 244.279 199.259 244.272C199.274 244.258 199.292 244.242 199.312 244.224C199.352 244.189 199.403 244.146 199.465 244.097C199.588 244 199.754 243.88 199.968 243.747C200.397 243.482 201.012 243.17 201.846 242.894C203.517 242.343 206.03 241.951 209.645 242.324H209.646C210.674 242.431 211.188 242.122 211.507 241.749C211.896 241.295 212.186 240.506 212.243 239.414C212.299 238.346 212.119 237.155 211.756 236.091C211.385 235.005 210.877 234.204 210.398 233.783C209.72 233.186 209.654 232.152 210.251 231.475Z" fill="#977A67"/>
<path d="M223.938 176.686C229.679 176.153 235.159 177.459 239.154 178.86C241.162 179.564 242.819 180.3 243.979 180.863C244.559 181.145 245.016 181.384 245.332 181.555C245.49 181.641 245.613 181.709 245.699 181.757C245.741 181.781 245.775 181.8 245.798 181.814C245.81 181.821 245.819 181.826 245.826 181.83C245.83 181.832 245.832 181.834 245.835 181.835C245.836 181.836 245.837 181.836 245.838 181.837L245.839 181.838C245.837 181.842 245.798 181.909 245.136 183.032L245.84 181.838C246.618 182.296 246.877 183.299 246.419 184.077C245.96 184.855 244.958 185.114 244.18 184.656C244.179 184.656 244.179 184.655 244.178 184.655C244.175 184.653 244.169 184.65 244.162 184.646C244.146 184.637 244.121 184.623 244.088 184.604C244.02 184.565 243.916 184.507 243.777 184.432C243.499 184.282 243.084 184.065 242.549 183.806C241.48 183.287 239.939 182.601 238.071 181.946C234.315 180.629 229.336 179.469 224.241 179.943H224.24C218.63 180.462 214.294 183.052 211.331 185.559C209.853 186.809 208.732 188.027 207.984 188.927C207.611 189.376 207.333 189.744 207.151 189.994C207.06 190.12 206.993 190.215 206.951 190.277C206.93 190.308 206.915 190.33 206.907 190.343C206.902 190.35 206.9 190.354 206.898 190.356L206.897 190.357L206.898 190.355C206.898 190.355 206.899 190.355 206.898 190.355C206.408 191.113 205.396 191.331 204.638 190.842C203.878 190.352 203.66 189.34 204.15 188.581L205.332 189.343C204.15 188.581 204.15 188.58 204.151 188.579L204.152 188.578C204.152 188.577 204.153 188.576 204.154 188.575C204.156 188.572 204.158 188.569 204.16 188.565C204.165 188.557 204.172 188.547 204.181 188.535C204.197 188.51 204.22 188.475 204.249 188.433C204.308 188.347 204.393 188.225 204.503 188.074C204.722 187.771 205.044 187.346 205.467 186.837C206.312 185.821 207.566 184.46 209.218 183.062C212.515 180.272 217.462 177.286 223.938 176.687V176.686Z" fill="#977A67"/>
<path d="M220.617 158.936C228.402 158.071 235.224 159.982 240.069 162.08C242.496 163.131 244.444 164.236 245.79 165.083C246.464 165.506 246.989 165.866 247.35 166.124C247.531 166.253 247.67 166.356 247.767 166.429C247.816 166.466 247.854 166.495 247.88 166.516C247.894 166.526 247.905 166.534 247.913 166.541C247.917 166.544 247.92 166.546 247.923 166.548C247.924 166.549 247.926 166.55 247.926 166.551L247.928 166.552C247.928 166.553 247.911 166.575 246.939 167.803L247.928 166.553C248.637 167.113 248.757 168.141 248.196 168.85C247.636 169.558 246.607 169.678 245.898 169.117H245.898C245.895 169.115 245.889 169.11 245.881 169.104C245.864 169.091 245.837 169.07 245.799 169.042C245.724 168.985 245.606 168.898 245.45 168.787C245.136 168.563 244.664 168.238 244.048 167.851C242.816 167.077 241.016 166.054 238.768 165.081C234.263 163.13 228.028 161.403 220.979 162.186C214.982 162.853 209.765 165.698 205.998 168.446C204.125 169.813 202.635 171.137 201.618 172.117C201.11 172.606 200.721 173.007 200.462 173.282C200.333 173.42 200.236 173.526 200.174 173.596C200.142 173.631 200.119 173.657 200.105 173.673C200.098 173.681 200.094 173.686 200.091 173.689L200.089 173.692C199.499 174.375 198.466 174.452 197.782 173.862C197.098 173.273 197.021 172.241 197.611 171.556L198.809 172.588C197.611 171.556 197.611 171.556 197.612 171.555L197.612 171.554C197.613 171.553 197.614 171.552 197.615 171.551C197.617 171.549 197.619 171.546 197.623 171.542C197.629 171.535 197.637 171.525 197.648 171.513C197.669 171.489 197.7 171.455 197.739 171.411C197.817 171.325 197.93 171.201 198.076 171.045C198.369 170.733 198.797 170.292 199.349 169.761C200.45 168.7 202.053 167.275 204.07 165.804C208.084 162.875 213.84 159.689 220.617 158.936Z" fill="#977A67"/>
<path d="M133.119 135.161C133.119 135.161 134.84 172.623 136.279 172.623C154.87 172.623 166.668 180.977 169.705 182.92C173.304 185.222 182.674 187.014 178.682 200.274C178.682 200.274 180.528 226.845 178.82 248.778C178.637 251.146 188.505 254.927 191.966 253.534C193.753 252.814 193.681 261.377 191.102 266.361C188.38 271.614 182.89 273.282 174.462 271.823C174.462 271.823 183.538 283.055 197.26 282.054C203.313 281.609 203.85 283.277 203.85 283.277C203.85 283.277 209.261 291.67 205.525 298.832L188.426 304.994C192.176 318.175 206.467 322.996 212.69 321.701L214.156 323.86C214.156 323.86 204.595 331.121 192.542 323.284C183.957 317.704 178.709 308.88 178.709 308.88C178.709 308.88 167.224 306.793 160.903 297.289C147.894 277.723 136.711 250.825 133.819 237.37C130.076 219.944 133.963 206.403 133.963 206.403C133.963 206.403 112.899 183.345 113.547 137.614L133.106 135.168L133.119 135.161Z" fill="url(#paint0_linear_373_1862)"/>
<path d="M176.556 246.482C176.556 244.443 177.278 230.339 177.994 216.846C178.353 210.077 178.713 203.433 178.982 198.48C179.117 196.004 179.229 193.951 179.307 192.517C179.328 192.147 179.345 191.818 179.361 191.534C179.026 191.433 178.625 191.315 178.167 191.186C176.659 190.762 174.535 190.219 172.075 189.744C167.112 188.785 160.959 188.138 155.768 189.18H155.767C152.016 189.932 148.768 192.024 146.412 194.002C145.244 194.983 144.32 195.916 143.691 196.6C143.377 196.941 143.138 197.218 142.98 197.407C142.901 197.502 142.843 197.574 142.806 197.62C142.787 197.643 142.774 197.66 142.766 197.67C142.762 197.675 142.76 197.678 142.758 197.68H142.758C142.207 198.395 141.18 198.529 140.464 197.979C139.748 197.428 139.614 196.402 140.165 195.686L141.126 196.424C140.224 195.731 140.169 195.688 140.166 195.685L140.167 195.684C140.167 195.683 140.168 195.682 140.168 195.681C140.17 195.679 140.172 195.677 140.174 195.674C140.179 195.669 140.184 195.661 140.191 195.652C140.206 195.634 140.226 195.609 140.251 195.577C140.302 195.514 140.375 195.424 140.469 195.311C140.657 195.086 140.93 194.769 141.282 194.386C141.986 193.621 143.011 192.587 144.307 191.498C146.88 189.338 150.623 186.877 155.124 185.974L155.672 185.87C161.36 184.852 167.761 185.579 172.695 186.532C175.263 187.028 177.478 187.595 179.053 188.037C179.841 188.259 180.47 188.45 180.905 188.587C181.123 188.655 181.292 188.71 181.408 188.748C181.466 188.767 181.511 188.782 181.542 188.792C181.557 188.798 181.57 188.802 181.578 188.805C181.583 188.806 181.586 188.807 181.589 188.808C181.59 188.809 181.591 188.809 181.592 188.809L181.592 188.81C181.592 188.814 181.566 188.888 181.064 190.357L182.698 190.448C182.698 190.448 182.697 190.449 182.697 190.449C182.697 190.451 182.698 190.453 182.697 190.456C182.697 190.463 182.696 190.472 182.695 190.485C182.694 190.51 182.692 190.547 182.69 190.596C182.684 190.695 182.676 190.842 182.665 191.033C182.644 191.416 182.613 191.979 182.574 192.695C182.495 194.129 182.383 196.182 182.249 198.658C181.979 203.61 181.62 210.253 181.261 217.02C180.541 230.598 179.827 244.557 179.827 246.482C179.828 247.673 180.68 249.001 182.374 250.13C184.031 251.235 186.142 251.892 187.883 251.892C189.469 251.891 190.885 251.187 192.211 250.186C192.871 249.688 193.474 249.144 194.05 248.611C194.592 248.111 195.183 247.551 195.708 247.156C196.43 246.614 197.456 246.76 197.999 247.482C198.541 248.204 198.396 249.23 197.673 249.772C197.318 250.038 196.892 250.441 196.271 251.014C195.685 251.555 194.981 252.193 194.183 252.796C192.592 253.997 190.485 255.162 187.883 255.162C185.436 255.162 182.701 254.279 180.559 252.852C178.455 251.449 176.556 249.255 176.556 246.482ZM181.594 188.81C182.287 189.047 182.738 189.716 182.698 190.447L181.064 190.357L181.594 188.81Z" fill="#977A67"/>
<path d="M141.809 169.551C148.984 169.148 155.291 170.166 159.802 171.281C162.059 171.84 163.874 172.424 165.132 172.873C165.761 173.097 166.251 173.287 166.588 173.423C166.757 173.491 166.887 173.546 166.977 173.584C167.022 173.603 167.057 173.619 167.082 173.63C167.095 173.635 167.105 173.639 167.112 173.642C167.116 173.644 167.119 173.646 167.121 173.647C167.122 173.647 167.124 173.648 167.124 173.648L167.126 173.649C167.125 173.651 167.099 173.708 166.514 175.017L167.126 173.649C167.951 174.017 168.321 174.985 167.953 175.809C167.584 176.633 166.617 177.003 165.793 176.635C165.792 176.635 165.791 176.635 165.79 176.635C165.787 176.633 165.782 176.63 165.774 176.627C165.757 176.62 165.731 176.609 165.696 176.594C165.624 176.563 165.512 176.516 165.363 176.456C165.065 176.336 164.617 176.162 164.033 175.954C162.864 175.537 161.154 174.985 159.016 174.456C154.867 173.43 149.133 172.496 142.625 172.785L141.993 172.817C137.725 173.058 135.153 175.536 133.582 178.114C132.793 179.408 132.279 180.698 131.963 181.67C131.806 182.154 131.7 182.552 131.634 182.823C131.601 182.959 131.579 183.062 131.565 183.128L131.549 183.208L131.511 183.371C131.283 184.168 130.484 184.679 129.65 184.529C128.761 184.37 128.169 183.52 128.328 182.631L129.939 182.92C128.413 182.647 128.333 182.631 128.329 182.63V182.628C128.329 182.627 128.329 182.625 128.329 182.624C128.33 182.621 128.331 182.617 128.332 182.612C128.334 182.603 128.336 182.592 128.338 182.577C128.344 182.549 128.352 182.509 128.362 182.46C128.382 182.363 128.413 182.225 128.454 182.054C128.537 181.712 128.665 181.232 128.851 180.66C129.222 179.519 129.831 177.981 130.788 176.412C132.707 173.264 136.116 169.873 141.808 169.551H141.809Z" fill="#977A67"/>
<path d="M172.228 235.776C172.523 234.923 173.455 234.469 174.309 234.764C175.163 235.059 175.616 235.991 175.321 236.844L175.32 236.847C175.319 236.85 175.317 236.855 175.315 236.862C175.31 236.875 175.303 236.898 175.293 236.927C175.273 236.985 175.245 237.073 175.208 237.187C175.134 237.414 175.03 237.745 174.912 238.148C174.674 238.959 174.382 240.049 174.154 241.189C173.923 242.343 173.773 243.477 173.787 244.398C173.795 244.856 173.842 245.206 173.911 245.453C173.947 245.578 173.981 245.655 174.005 245.698L174.031 245.742L174.032 245.742C174.658 246.337 175.349 246.451 176.349 246.483C176.777 246.496 177.473 246.493 178.056 246.595C178.672 246.703 179.433 246.965 180.017 247.657L180.132 247.801L180.225 247.94C180.65 248.652 180.476 249.583 179.797 250.089C179.101 250.608 178.127 250.489 177.573 249.834C177.554 249.83 177.527 249.823 177.491 249.817C177.209 249.767 176.897 249.773 176.244 249.752C175.083 249.715 173.323 249.583 171.776 248.112L171.777 248.111C170.734 247.12 170.534 245.595 170.516 244.449C170.496 243.192 170.695 241.797 170.945 240.547C171.198 239.283 171.518 238.094 171.772 237.227C171.9 236.792 172.013 236.433 172.094 236.182C172.134 236.056 172.167 235.957 172.19 235.889C172.202 235.854 172.211 235.827 172.217 235.808C172.22 235.799 172.223 235.791 172.225 235.786C172.226 235.783 172.227 235.781 172.227 235.779C172.228 235.779 172.228 235.778 172.228 235.778V235.776Z" fill="#977A67"/>
<path d="M180.593 317.076L181.457 322.767C181.457 322.767 192.693 354.526 226.988 350.202C261.277 345.878 287.733 292.33 292.032 274.662C292.032 274.662 275.536 301.619 252.842 311.967C252.842 311.967 243.334 322.695 235.41 324.789C225.247 327.464 215.177 326.908 215.177 326.908C215.177 326.908 211.597 330.767 200.911 329.969C189.388 329.106 180.593 317.076 180.593 317.076Z" fill="url(#paint1_linear_373_1862)"/>
<path d="M306.775 291.663C306.775 291.663 302.404 312.635 282.805 336.02C265.812 356.298 239.741 375.818 239.532 376.014C238.74 376.21 237.988 376.354 237.275 376.433C235.815 376.583 234.389 376.655 232.995 376.668C200.453 364.815 177.033 310.483 177.033 310.483L169.416 313.838L163.436 316.331L194.132 444.509L233.034 376.681C237.504 377.571 239.526 376.014 239.526 376.014L279.429 446.34L328.271 305.642C328.271 305.642 306.991 293.632 306.775 291.657V291.663Z" fill="#FFF9EC"/>
<path d="M306.686 290.024C307.417 289.984 308.065 290.433 308.308 291.091C308.4 291.197 308.566 291.36 308.827 291.585C309.365 292.047 310.16 292.641 311.157 293.332C313.141 294.707 315.788 296.373 318.454 297.993C321.114 299.61 323.77 301.166 325.762 302.32C326.758 302.896 327.587 303.371 328.167 303.702C328.457 303.867 328.685 303.997 328.839 304.085C328.917 304.129 328.976 304.162 329.016 304.184C329.036 304.196 329.051 304.204 329.061 304.21C329.066 304.213 329.07 304.215 329.072 304.216C329.073 304.217 329.074 304.217 329.075 304.218L329.075 304.218L329.2 304.296C329.8 304.71 330.059 305.478 329.817 306.178L280.975 446.877C280.764 447.483 280.217 447.911 279.578 447.969C278.938 448.027 278.323 447.705 278.006 447.147L238.843 378.125C238.695 378.173 238.537 378.219 238.37 378.263C237.274 378.549 235.788 378.714 233.891 378.475L195.551 445.322C195.218 445.903 194.563 446.223 193.9 446.127C193.236 446.032 192.697 445.541 192.541 444.889L161.844 316.711C161.658 315.931 162.065 315.13 162.806 314.821L168.768 312.337L176.373 308.986C176.773 308.81 177.226 308.801 177.632 308.961C178.038 309.12 178.363 309.435 178.536 309.836L178.537 309.837C178.537 309.838 178.538 309.84 178.539 309.843C178.542 309.849 178.545 309.858 178.551 309.87C178.561 309.895 178.577 309.932 178.599 309.981C178.643 310.081 178.709 310.231 178.797 310.428C178.973 310.822 179.238 311.403 179.586 312.15C180.282 313.642 181.315 315.793 182.657 318.412C185.342 323.653 189.257 330.761 194.178 338.231C204.021 353.175 217.661 369.21 233.281 375.028C234.53 375.009 235.803 374.94 237.1 374.806C237.631 374.747 238.201 374.644 238.816 374.501C242.193 371.878 265.721 353.86 281.552 334.97C291.235 323.416 297.149 312.466 300.639 304.421C302.384 300.399 303.522 297.105 304.222 294.826C304.572 293.686 304.812 292.801 304.964 292.206C305.04 291.909 305.093 291.684 305.128 291.537C305.145 291.463 305.156 291.408 305.164 291.374C305.165 291.368 305.166 291.362 305.167 291.358C305.302 290.629 305.92 290.066 306.686 290.024ZM307.637 294.822C307.55 295.121 307.455 295.443 307.349 295.785C306.617 298.169 305.438 301.579 303.64 305.723C300.045 314.01 293.975 325.239 284.059 337.071C268.988 355.054 246.618 372.631 241.651 376.445L279.068 442.39L326.279 306.39C325.718 306.069 324.982 305.648 324.123 305.15C322.119 303.99 319.441 302.421 316.754 300.788C314.073 299.158 311.359 297.451 309.293 296.019C308.69 295.602 308.131 295.199 307.637 294.822ZM170.076 315.335C170.066 315.339 170.056 315.344 170.046 315.348L165.351 317.304L194.763 440.121L230.669 377.517C214.631 370.889 201.039 354.596 191.445 340.03C186.443 332.436 182.468 325.219 179.745 319.903C178.383 317.244 177.332 315.057 176.621 313.532C176.466 313.201 176.328 312.901 176.206 312.634L170.076 315.335ZM308.401 291.479C308.397 291.439 308.39 291.401 308.383 291.366C308.39 291.403 308.397 291.441 308.401 291.479Z" fill="#977A67"/>
<path d="M221.637 171.204C227.992 170.05 232.694 170.715 236.679 172.806C240.584 174.856 243.63 178.198 246.81 181.971C247.392 182.661 247.304 183.693 246.613 184.275C245.922 184.857 244.89 184.769 244.308 184.078C241.114 180.289 238.431 177.42 235.158 175.702C231.964 174.026 228.038 173.366 222.222 174.422C215.396 175.663 211.665 179.474 209.601 182.976C208.56 184.743 207.942 186.438 207.585 187.69C207.408 188.314 207.297 188.823 207.231 189.168C207.198 189.34 207.177 189.471 207.164 189.555C207.158 189.597 207.153 189.627 207.151 189.645C207.15 189.65 207.149 189.655 207.149 189.658C207.044 190.555 206.231 191.197 205.334 191.091C204.436 190.986 203.794 190.174 203.9 189.277L205.525 189.468C203.9 189.277 203.9 189.276 203.9 189.275V189.273C203.9 189.271 203.901 189.27 203.901 189.268C203.901 189.264 203.902 189.259 203.903 189.254C203.904 189.242 203.906 189.228 203.908 189.21C203.913 189.175 203.92 189.126 203.929 189.065C203.947 188.942 203.976 188.771 204.017 188.556C204.099 188.127 204.231 187.523 204.438 186.795C204.851 185.343 205.567 183.377 206.782 181.316C209.23 177.161 213.701 172.646 221.637 171.204Z" fill="#977A67"/>
<path d="M154.168 179.793C160.856 178.703 167.189 180.324 172.038 182.497C174.548 183.622 176.694 184.909 178.329 186.086C179.905 187.221 181.163 188.364 181.735 189.242C182.228 189.999 182.014 191.012 181.257 191.505C180.5 191.998 179.487 191.784 178.993 191.027C178.77 190.685 177.936 189.834 176.417 188.74C174.956 187.689 173.001 186.513 170.699 185.481C166.078 183.41 160.189 181.975 154.127 183.12C148.594 184.165 145.885 187.504 144.504 190.634C143.803 192.22 143.449 193.753 143.272 194.893C143.183 195.46 143.14 195.923 143.118 196.237C143.108 196.394 143.102 196.514 143.1 196.59C143.098 196.628 143.098 196.655 143.098 196.671V196.686L143.089 196.85C143.006 197.675 142.309 198.318 141.462 198.318C140.558 198.318 139.826 197.586 139.826 196.683H141.462C139.826 196.683 139.826 196.682 139.826 196.681V196.661C139.826 196.65 139.826 196.637 139.827 196.621C139.827 196.588 139.828 196.542 139.83 196.486C139.833 196.373 139.841 196.214 139.854 196.016C139.881 195.619 139.934 195.061 140.039 194.389C140.247 193.05 140.666 191.227 141.51 189.313C143.219 185.442 146.691 181.196 153.519 179.906L154.168 179.793Z" fill="#977A67"/>
<path d="M309.608 215.757C309.608 215.757 319.116 204.624 319.98 190.41C320.844 176.195 319.725 162.74 314.935 162.753C308.974 162.772 303.68 179.44 302.037 190.239C300.526 200.202 308.45 201.785 311.866 187.015" fill="#FFC29B"/>
<path d="M314.931 161.117C317.048 161.112 318.448 162.632 319.319 164.32C320.206 166.037 320.801 168.37 321.196 171.004C321.991 176.305 322.048 183.352 321.613 190.509C321.162 197.939 318.459 204.515 315.907 209.196C314.628 211.545 313.375 213.437 312.439 214.746C311.97 215.402 311.58 215.912 311.304 216.263C311.166 216.438 311.056 216.573 310.98 216.667C310.941 216.713 310.911 216.75 310.89 216.775C310.879 216.788 310.871 216.798 310.865 216.805C310.862 216.809 310.859 216.812 310.857 216.814C310.856 216.815 310.855 216.817 310.854 216.817L310.853 216.819C310.851 216.818 310.808 216.781 309.608 215.758L310.853 216.819C310.266 217.506 309.233 217.588 308.546 217.001C307.859 216.415 307.777 215.383 308.364 214.696C308.364 214.695 308.365 214.695 308.366 214.693C308.369 214.69 308.375 214.684 308.382 214.675C308.397 214.657 308.42 214.629 308.451 214.591C308.514 214.514 308.61 214.397 308.734 214.24C308.981 213.926 309.34 213.455 309.776 212.845C310.65 211.623 311.828 209.843 313.034 207.631C315.452 203.193 317.935 197.095 318.347 190.311C318.776 183.253 318.706 176.465 317.96 171.488C317.584 168.983 317.055 167.066 316.412 165.82C315.754 164.545 315.218 164.387 314.94 164.388C314.228 164.391 313.2 164.918 311.923 166.546C310.695 168.112 309.49 170.38 308.38 173.077C306.164 178.454 304.46 185.189 303.655 190.484L303.655 190.485C303.305 192.794 303.537 194.418 303.951 195.354C304.349 196.254 304.759 196.291 304.953 196.273C305.343 196.237 306.232 195.845 307.322 194.234C308.374 192.679 309.447 190.214 310.272 186.647C310.476 185.767 311.355 185.218 312.235 185.421C313.115 185.625 313.663 186.503 313.46 187.383C312.577 191.2 311.379 194.076 310.032 196.067C308.723 198.002 307.084 199.361 305.255 199.53C303.229 199.717 301.728 198.415 300.959 196.678C300.206 194.976 300.014 192.666 300.42 189.995L300.42 189.994C301.258 184.489 303.022 177.492 305.354 171.831C306.517 169.008 307.856 166.43 309.348 164.528C310.791 162.689 312.661 161.125 314.93 161.117H314.931Z" fill="#977A67"/>
<path d="M166.459 192.47C166.459 196.225 163.409 199.273 159.653 199.273C155.897 199.273 152.848 196.225 152.848 192.47C152.848 188.303 155.897 187.015 159.653 187.015C163.409 187.015 166.459 187.78 166.459 192.47Z" fill="#977A67"/>
<path d="M233.82 182.92C233.82 186.674 230.77 189.723 227.014 189.723C223.258 189.723 220.209 186.674 220.209 182.92C220.209 178.197 222.787 177.628 226.543 177.628C230.299 177.628 233.82 178.602 233.82 182.92Z" fill="#977A67"/>
<path d="M220.203 271.365C220.803 270.69 221.837 270.629 222.513 271.229C223.188 271.828 223.249 272.862 222.649 273.537C222.024 274.24 220.936 275.067 219.638 275.903C218.303 276.763 216.627 277.708 214.73 278.631C210.945 280.473 206.195 282.273 201.422 283.128L201.421 283.127C196.516 284.009 192.164 283.275 189.055 282.334C187.497 281.862 186.24 281.334 185.364 280.921C184.926 280.714 184.583 280.534 184.343 280.404C184.224 280.339 184.13 280.286 184.063 280.247C184.03 280.228 184.004 280.212 183.984 280.201C183.975 280.195 183.967 280.19 183.961 280.187C183.957 280.185 183.954 280.183 183.952 280.181C183.951 280.181 183.95 280.18 183.95 280.18L183.948 280.179C183.948 280.179 183.947 280.178 184.801 278.783L183.947 280.178C183.176 279.707 182.934 278.7 183.405 277.93C183.877 277.16 184.883 276.918 185.653 277.388H185.654L185.653 277.387L185.652 277.387C185.653 277.387 185.655 277.389 185.659 277.391C185.667 277.396 185.682 277.405 185.704 277.417C185.747 277.442 185.816 277.482 185.91 277.533C186.099 277.636 186.386 277.786 186.763 277.964C187.517 278.321 188.624 278.786 190.004 279.203C192.769 280.041 196.583 280.674 200.844 279.908H200.846C205.24 279.121 209.697 277.443 213.297 275.691C215.093 274.817 216.654 273.935 217.866 273.154C219.117 272.348 219.889 271.719 220.203 271.365Z" fill="#977A67"/>
<path d="M232.68 259.104C233.328 258.475 234.364 258.491 234.993 259.139C235.622 259.787 235.607 260.822 234.959 261.451C233.243 263.116 230.811 264.474 228.16 265.583C225.486 266.701 222.475 267.613 219.506 268.334C213.585 269.771 207.66 270.49 204.626 270.534H204.624C203.145 270.555 201.703 271.14 200.506 272.159C200.503 272.161 200.501 272.164 200.498 272.166C199.595 272.925 198.35 273.668 196.732 273.973L196.732 273.972C195.641 274.179 194.471 273.899 193.61 273.644C193.147 273.507 192.687 273.348 192.281 273.208C191.86 273.063 191.506 272.941 191.193 272.85L191.186 272.848C190.479 272.638 189.765 272.656 189.15 272.892L189.149 272.891C186.522 273.903 182.881 274.105 180.079 274.092C178.641 274.086 177.355 274.022 176.428 273.96C175.965 273.929 175.589 273.898 175.328 273.875C175.197 273.864 175.095 273.853 175.024 273.846C174.989 273.843 174.961 273.841 174.942 273.839C174.933 273.838 174.925 273.837 174.92 273.836C174.917 273.836 174.915 273.836 174.913 273.836C174.913 273.836 174.912 273.836 174.911 273.836L174.911 273.835C174.911 273.83 174.92 273.744 175.083 272.209L174.91 273.835C174.012 273.739 173.361 272.934 173.456 272.036C173.552 271.138 174.358 270.487 175.256 270.583C175.257 270.583 175.258 270.583 175.26 270.583C175.263 270.584 175.268 270.584 175.276 270.585C175.29 270.586 175.313 270.589 175.343 270.592C175.405 270.598 175.497 270.607 175.617 270.617C175.857 270.639 176.21 270.667 176.648 270.697C177.525 270.755 178.74 270.816 180.093 270.822C182.871 270.834 185.969 270.612 187.974 269.839L187.976 269.839C189.335 269.317 190.791 269.32 192.11 269.71C192.514 269.828 192.948 269.979 193.347 270.117C193.762 270.259 194.155 270.394 194.539 270.508C195.372 270.755 195.873 270.807 196.123 270.76L196.125 270.759C197.073 270.58 197.817 270.146 198.393 269.662C200.099 268.213 202.253 267.297 204.578 267.264L205.125 267.249C208.025 267.136 213.351 266.462 218.734 265.156C221.595 264.461 224.431 263.598 226.897 262.566C229.386 261.525 231.389 260.357 232.68 259.104Z" fill="#977A67"/>
<path d="M213.909 324.099V324.099C214.272 323.798 214.748 323.668 215.215 323.743H215.214C215.214 323.743 215.215 323.743 215.216 323.744C215.219 323.744 215.225 323.745 215.232 323.746C215.246 323.748 215.27 323.752 215.301 323.756C215.365 323.766 215.461 323.78 215.588 323.797C215.844 323.832 216.224 323.88 216.711 323.933C217.685 324.037 219.083 324.158 220.761 324.218C224.13 324.339 228.575 324.214 232.976 323.262C237.297 322.327 241.6 320.207 245.062 317.684C248.57 315.126 250.99 312.32 251.817 310.149C252.139 309.305 253.083 308.882 253.928 309.203C254.772 309.524 255.196 310.469 254.875 311.313C253.719 314.349 250.707 317.617 246.99 320.327C243.226 323.07 238.509 325.412 233.669 326.459C228.909 327.489 224.17 327.613 220.644 327.487C218.876 327.424 217.4 327.297 216.361 327.185C215.972 327.143 215.643 327.102 215.384 327.069C215.25 327.16 215.096 327.262 214.92 327.372C214.256 327.787 213.292 328.319 212.052 328.818C209.568 329.818 205.978 330.683 201.498 330.209H201.498C193.929 329.406 187.612 324.55 183.291 320.117C181.108 317.878 179.381 315.69 178.199 314.063C177.607 313.248 177.149 312.571 176.837 312.094C176.681 311.855 176.561 311.665 176.48 311.534C176.439 311.469 176.407 311.417 176.385 311.381C176.374 311.364 176.366 311.349 176.36 311.339C176.357 311.334 176.354 311.33 176.352 311.327C176.352 311.326 176.351 311.324 176.35 311.323L176.349 311.322C176.349 311.321 176.348 311.321 177.753 310.483L176.349 311.321C175.886 310.545 176.139 309.541 176.915 309.079C177.691 308.616 178.695 308.869 179.158 309.645C179.158 309.645 179.16 309.647 179.162 309.65C179.165 309.656 179.171 309.666 179.179 309.679C179.195 309.706 179.221 309.749 179.256 309.805C179.327 309.918 179.434 310.087 179.576 310.306C179.862 310.743 180.289 311.375 180.846 312.141C181.96 313.675 183.588 315.735 185.634 317.835C189.772 322.08 195.415 326.274 201.843 326.956L202.203 326.991C205.896 327.318 208.823 326.592 210.83 325.784C211.868 325.366 212.661 324.927 213.184 324.6C213.445 324.436 213.638 324.302 213.76 324.212C213.821 324.168 213.864 324.135 213.889 324.115C213.899 324.108 213.905 324.102 213.909 324.099ZM213.912 324.097L213.91 324.099H213.909C213.91 324.098 213.911 324.097 213.912 324.097Z" fill="#977A67"/>
<path d="M291.709 269.144C292.173 268.37 293.178 268.118 293.953 268.582C294.728 269.047 294.979 270.051 294.515 270.826L293.111 269.985C294.428 270.774 294.509 270.823 294.514 270.826C294.514 270.827 294.514 270.828 294.514 270.828C294.513 270.829 294.512 270.831 294.51 270.833C294.508 270.837 294.505 270.843 294.5 270.851C294.491 270.866 294.477 270.888 294.46 270.916C294.425 270.974 294.374 271.058 294.306 271.167C294.172 271.385 293.974 271.703 293.714 272.111C293.194 272.927 292.429 274.102 291.44 275.549C289.464 278.442 286.593 282.427 283.004 286.802C275.849 295.525 265.748 305.919 254.128 312.239C253.334 312.671 252.34 312.378 251.909 311.585C251.477 310.791 251.77 309.798 252.564 309.367C263.636 303.344 273.419 293.329 280.474 284.729C283.99 280.442 286.804 276.536 288.739 273.705C289.705 272.289 290.452 271.144 290.954 270.354C291.205 269.96 291.396 269.654 291.522 269.449C291.585 269.347 291.633 269.269 291.664 269.218C291.68 269.192 291.691 269.173 291.699 269.16C291.702 269.154 291.705 269.15 291.707 269.148C291.708 269.146 291.708 269.145 291.708 269.144H291.709Z" fill="#977A67"/>
<path d="M132.451 205.54C132.451 205.54 126.372 206.24 123.892 200.784C121.412 195.329 95.4141 141.428 103.967 108.185C115.752 62.3821 152.429 39.2584 206.271 36.7792C253.712 34.5944 267.107 57.9994 267.107 57.9994C267.107 57.9994 309.268 57.9994 317.703 98.8305C325.477 136.476 328.474 165.742 322.231 157.395C315.334 148.179 306.729 152.45 302.947 163.04C293.583 189.258 289.264 184.542 286.823 176.777C279.704 154.151 269.941 132.44 258.738 111.534L247.673 90.8828C247.673 90.8828 211.61 118.638 170.32 128.757C132.111 138.124 120.221 137.765 120.221 137.765C120.221 137.765 119.443 180.244 132.458 205.533L132.451 205.54Z" fill="#B0988D"/>
<path d="M206.195 35.1457C230.206 34.04 245.74 39.4082 255.322 45.1685C260.105 48.0439 263.382 51.0028 265.475 53.2666C266.521 54.3981 267.271 55.3553 267.766 56.041C267.856 56.1663 267.937 56.2838 268.01 56.3904C268.294 56.4028 268.642 56.4203 269.047 56.4479C270.257 56.5304 271.985 56.6943 274.079 57.0215C278.264 57.6751 283.942 58.9834 289.902 61.6069C301.863 66.8722 314.957 77.4518 319.305 98.4997C323.198 117.348 325.904 134.148 326.853 145.221C327.321 150.687 327.384 154.977 326.848 157.412C326.711 158.033 326.51 158.658 326.188 159.178C325.859 159.707 325.287 160.303 324.39 160.437C323.533 160.565 322.812 160.203 322.324 159.843C321.822 159.474 321.357 158.958 320.921 158.375V158.374C319.325 156.242 317.719 155.01 316.235 154.419C314.776 153.839 313.346 153.842 311.969 154.331C309.139 155.338 306.297 158.523 304.488 163.591C302.133 170.183 300.071 174.902 298.246 178.142C296.471 181.292 294.756 183.352 292.95 184.149C291.963 184.584 290.941 184.646 289.971 184.294C289.051 183.96 288.332 183.312 287.775 182.612C286.682 181.237 285.883 179.24 285.263 177.268L284.591 175.161C277.573 153.412 268.115 132.496 257.296 112.306L247.126 93.3273C247.087 93.356 247.048 93.3865 247.007 93.4161C245.929 94.2035 244.345 95.3365 242.318 96.7264C238.264 99.5058 232.43 103.314 225.299 107.44C211.052 115.685 191.564 125.234 170.709 130.345C151.564 135.039 138.983 137.303 131.168 138.394C127.26 138.939 124.54 139.191 122.783 139.307C122.435 139.329 122.124 139.346 121.849 139.359C121.849 139.447 121.849 139.539 121.849 139.634C121.853 140.832 121.873 142.576 121.938 144.749C122.067 149.096 122.374 155.155 123.086 161.997C124.513 175.73 127.549 192.421 133.913 204.785C134.238 205.418 134.117 206.188 133.614 206.69L133.607 206.697C133.346 206.958 133.005 207.122 132.638 207.164L132.451 205.54C132.635 207.135 132.638 207.164 132.637 207.165H132.635C132.634 207.165 132.633 207.165 132.631 207.165C132.629 207.166 132.625 207.166 132.622 207.166C132.615 207.167 132.606 207.168 132.596 207.169C132.576 207.171 132.551 207.173 132.52 207.176C132.457 207.181 132.372 207.187 132.266 207.192C132.056 207.203 131.764 207.21 131.41 207.199C130.706 207.176 129.734 207.08 128.665 206.783C126.503 206.185 123.895 204.742 122.403 201.461C121.17 198.749 114.007 183.819 108.231 165.394C102.482 147.054 97.9825 124.879 102.382 107.778C108.367 84.5166 120.705 66.9376 138.427 54.8834C156.121 42.8493 179.071 36.3946 206.195 35.1457ZM253.637 47.9716C244.661 42.5757 229.777 37.3341 206.346 38.4132C179.629 39.6434 157.32 45.9902 140.268 57.5881C123.245 69.1663 111.351 86.0507 105.551 108.592C101.398 124.734 105.621 146.132 111.353 164.416C117.058 182.616 124.134 197.364 125.382 200.108C126.37 202.281 128.041 203.217 129.538 203.632C129.606 203.65 129.673 203.667 129.739 203.683C123.954 191.114 121.174 175.256 119.832 162.335C119.11 155.396 118.799 149.254 118.667 144.846C118.602 142.642 118.581 140.869 118.577 139.645C118.575 139.033 118.577 138.558 118.58 138.235C118.581 138.074 118.582 137.95 118.584 137.866C118.584 137.824 118.584 137.791 118.585 137.77C118.585 137.759 118.585 137.75 118.585 137.745V137.736C118.587 137.735 118.642 137.736 120.221 137.765L118.585 137.735C118.593 137.298 118.776 136.882 119.093 136.581C119.409 136.28 119.832 136.118 120.269 136.13H120.283C120.3 136.131 120.329 136.131 120.37 136.131C120.452 136.131 120.585 136.131 120.772 136.127C121.146 136.119 121.735 136.098 122.569 136.043C124.236 135.933 126.876 135.69 130.716 135.154C138.398 134.083 150.867 131.843 169.93 127.169C190.366 122.161 209.553 112.773 223.66 104.61C230.706 100.532 236.469 96.7703 240.467 94.0294C242.466 92.6592 244.023 91.5446 245.077 90.7747C245.605 90.3897 246.007 90.0909 246.276 89.8893C246.41 89.7885 246.511 89.712 246.578 89.6612C246.611 89.6359 246.636 89.6168 246.652 89.6044C246.66 89.5982 246.666 89.5938 246.67 89.591C246.672 89.5896 246.673 89.5884 246.674 89.5878L246.674 89.5871L246.822 89.4856C247.177 89.2693 247.604 89.1955 248.016 89.2837C248.486 89.3845 248.888 89.6874 249.115 90.1109L260.18 110.762C271.067 131.077 280.612 152.177 287.705 174.157L288.384 176.287C288.984 178.197 289.641 179.701 290.336 180.576C290.674 181 290.933 181.163 291.086 181.218C291.19 181.256 291.337 181.285 291.628 181.157C292.378 180.826 293.651 179.633 295.395 176.537C297.09 173.53 299.079 169.007 301.406 162.491C303.378 156.968 306.731 152.722 310.873 151.25C312.982 150.5 315.233 150.501 317.445 151.381C319.632 152.251 321.688 153.94 323.541 156.416L323.542 156.416C323.588 156.478 323.632 156.537 323.675 156.591C324.065 154.67 324.056 150.9 323.593 145.5C322.661 134.614 319.982 117.959 316.101 99.1615C312.014 79.3785 299.811 69.5428 288.583 64.6003C282.948 62.1199 277.559 60.8756 273.574 60.2532C271.585 59.9424 269.952 59.7878 268.824 59.7109C268.26 59.6724 267.823 59.6532 267.53 59.6438C267.384 59.6391 267.275 59.6373 267.203 59.6361C267.168 59.6356 267.141 59.635 267.125 59.6349H267.106V59.6342C266.521 59.6338 265.982 59.3221 265.69 58.8159L265.687 58.8121C265.684 58.8067 265.678 58.7957 265.668 58.7795C265.649 58.7472 265.616 58.6937 265.569 58.6204C265.474 58.4737 265.324 58.2477 265.112 57.9548C264.689 57.3691 264.023 56.5149 263.072 55.4865C261.171 53.4302 258.132 50.6743 253.637 47.9716Z" fill="#977A67"/>
<path d="M209.26 296.824C209.261 296.825 209.261 296.858 209.261 297.68V296.824C210.164 296.824 210.897 297.556 210.897 298.46C210.897 299.363 210.164 300.094 209.261 300.094L209.262 300.095H209.257C209.245 300.095 209.223 300.096 209.191 300.097C209.127 300.099 209.02 300.103 208.868 300.112C208.564 300.129 208.08 300.166 207.393 300.241C206.017 300.39 203.83 300.694 200.645 301.308C197.692 301.877 194.908 303.258 192.823 304.538C191.79 305.173 190.949 305.77 190.37 306.206C190.081 306.424 189.858 306.601 189.71 306.721C189.636 306.78 189.581 306.826 189.546 306.855C189.529 306.87 189.516 306.881 189.509 306.887C189.505 306.89 189.502 306.891 189.501 306.892C188.817 307.483 187.784 307.407 187.194 306.724C186.604 306.04 186.679 305.007 187.363 304.417L188.195 305.38C187.363 304.417 187.364 304.417 187.364 304.416L187.365 304.416C187.365 304.415 187.366 304.415 187.367 304.414C187.368 304.413 187.37 304.412 187.372 304.41C187.376 304.406 187.381 304.402 187.388 304.396C187.402 304.384 187.421 304.369 187.444 304.349C187.492 304.309 187.561 304.251 187.649 304.18C187.825 304.038 188.079 303.837 188.402 303.594C189.047 303.108 189.974 302.449 191.111 301.751C193.366 300.366 196.533 298.77 200.026 298.097C203.286 297.468 205.562 297.15 207.038 296.989C207.776 296.909 208.315 296.868 208.678 296.847C208.859 296.836 208.996 296.83 209.092 296.827C209.14 296.826 209.178 296.825 209.206 296.825C209.22 296.825 209.232 296.824 209.241 296.824H209.26Z" fill="#977A67"/>
<path opacity="0.42" d="M294.257 181.082C290.776 186.55 286.843 181.082 286.843 181.082C286.843 181.082 286.686 203.741 281.222 212.735C270.039 231.143 256.775 245.259 245.578 255.202C233.976 245.285 224.671 249.439 218.69 250.904C212.206 252.487 200.826 257.386 194.341 258.25C187.857 259.113 179.932 257.674 174.311 260.265C171.838 261.403 169.286 265.72 167.198 270.208C151.114 265.02 136.273 246.299 136.273 246.299C138.871 257.864 156.022 291.199 161.917 298.466C166.452 304.052 178.813 309.096 178.813 309.096C178.813 309.096 186.993 322.493 198.843 328.079C204.052 330.532 214.947 325.364 214.947 325.364C214.947 325.364 221.138 326.81 233.316 324.867C245.493 322.924 252.358 312.641 252.358 312.641L263.076 304.353C269.149 300.062 279.992 287.85 290.056 274.669C300.12 261.488 301.848 239.012 301.848 239.012C301.848 239.012 297.732 175.613 294.25 181.082H294.257ZM221.432 273.223C221.432 273.223 210.956 281.02 202.128 281.89C193.301 282.754 187.215 279.921 183.865 278.737C181.274 277.822 177.524 274.741 173.768 272.458L174.324 271.503C180.953 273.517 190.029 269.992 190.029 269.992C190.029 269.992 194.309 272.131 196.442 272.366C198.575 272.595 203.123 268.625 203.123 268.625C203.123 268.625 215.209 267.591 218.049 266.996C220.889 266.4 234.834 260.271 234.834 260.271L234.33 261.782C226.549 271.163 221.432 273.23 221.432 273.23V273.223Z" fill="#B0988D"/>
</g>
</g>
</g>
<defs>
<filter id="filter0_d_373_1862" x="-20" y="-20" width="517" height="604" filterUnits="userSpaceOnUse" color-interpolation-filters="sRGB">
<feFlood flood-opacity="0" result="BackgroundImageFix"/>
<feColorMatrix in="SourceAlpha" type="matrix" values="0 0 0 0 0 0 0 0 0 0 0 0 0 0 0 0 0 0 127 0" result="hardAlpha"/>
<feOffset/>
<feGaussianBlur stdDeviation="10"/>
<feComposite in2="hardAlpha" operator="out"/>
<feColorMatrix type="matrix" values="0 0 0 0 0.584615 0 0 0 0 0.496818 0 0 0 0 0.383935 0 0 0 0.15 0"/>
<feBlend mode="normal" in2="BackgroundImageFix" result="effect1_dropShadow_373_1862"/>
<feBlend mode="normal" in="SourceGraphic" in2="effect1_dropShadow_373_1862" result="shape"/>
</filter>
<linearGradient id="paint0_linear_373_1862" x1="174.525" y1="223.925" x2="111.741" y2="232.152" gradientUnits="userSpaceOnUse">
<stop stop-color="#E5AB85"/>
<stop offset="1" stop-color="#FFC29B"/>
</linearGradient>
<linearGradient id="paint1_linear_373_1862" x1="221.637" y1="331.28" x2="223.652" y2="362.994" gradientUnits="userSpaceOnUse">
<stop stop-color="#E5AB85"/>
<stop offset="1" stop-color="#FFC29B"/>
</linearGradient>
<clipPath id="clip0_373_1862">
<rect width="477" height="564" rx="20" fill="white"/>
</clipPath>
<clipPath id="clip1_373_1862">
<rect width="525" height="585" fill="white" transform="translate(-17 35)"/>
</clipPath>
</defs>
</svg>
