<svg width="765" height="353" viewBox="0 0 765 353" fill="none" xmlns="http://www.w3.org/2000/svg">
<path d="M369.094 7.06006C207.728 7.06006 0 62.4645 0 180.855C0 313.814 252.951 352.382 369.573 352.382C486.195 352.382 760.587 322.71 760.587 182.766C760.587 55.3599 528.124 7.11979 369.094 7.11979V7.06006Z" fill="url(#paint0_linear_2015_195)"/>
<path d="M645.585 60.4346C794.913 133.511 703.567 294.53 371.73 290.649C73.8551 287.186 -35.6991 145.989 95.059 62.4048C38.4551 90.5845 0 129.869 0 180.796C0 313.755 219.108 352.323 369.573 352.323C507.519 352.323 760.587 322.65 760.587 182.706C760.587 129.631 717.882 67.9572 578.559 32.9712L645.585 60.4346Z" fill="url(#paint1_linear_2015_195)"/>
<path d="M380.296 290.769C567.699 290.769 719.617 227.259 719.617 148.915C719.617 70.5705 567.699 7.06006 380.296 7.06006C192.892 7.06006 40.9712 70.5705 40.9712 148.915C40.9712 227.259 192.892 290.769 380.296 290.769Z" stroke="#FCE2C1" stroke-width="0.1" stroke-linecap="round" stroke-linejoin="round"/>
<path d="M380.296 287.544C565.55 287.544 715.728 224.97 715.728 147.78C715.728 70.5895 565.55 8.01465 380.296 8.01465C195.043 8.01465 44.8657 70.5895 44.8657 147.78C44.8657 224.97 195.043 287.544 380.296 287.544Z" stroke="#FCE2C1" stroke-width="0.1" stroke-linecap="round" stroke-linejoin="round"/>
<path d="M380.295 284.321C563.432 284.321 711.896 222.682 711.896 146.646C711.896 70.6099 563.432 8.9707 380.295 8.9707C197.159 8.9707 48.6978 70.6099 48.6978 146.646C48.6978 222.682 197.159 284.321 380.295 284.321Z" stroke="#FCE2C1" stroke-width="0.1" stroke-linecap="round" stroke-linejoin="round"/>
<path d="M380.294 281.038C561.313 281.038 708.058 220.334 708.058 145.452C708.058 70.57 561.313 9.86621 380.294 9.86621C199.276 9.86621 52.5303 70.57 52.5303 145.452C52.5303 220.334 199.276 281.038 380.294 281.038Z" stroke="#FCE2C1" stroke-width="0.1" stroke-linecap="round" stroke-linejoin="round"/>
<path d="M380.295 277.813C559.164 277.813 704.166 218.044 704.166 144.317C704.166 70.5891 559.164 10.8208 380.295 10.8208C201.427 10.8208 56.4248 70.5891 56.4248 144.317C56.4248 218.044 201.427 277.813 380.295 277.813Z" stroke="#FCE2C1" stroke-width="0.1" stroke-linecap="round" stroke-linejoin="round"/>
<path d="M380.297 274.65C557.049 274.65 700.334 215.79 700.334 143.183C700.334 70.5766 557.049 11.7173 380.297 11.7173C203.546 11.7173 60.2603 70.5766 60.2603 143.183C60.2603 215.79 203.546 274.65 380.297 274.65Z" stroke="#FCE2C1" stroke-width="0.1" stroke-linecap="round" stroke-linejoin="round"/>
<path d="M380.295 271.425C554.896 271.425 696.438 213.502 696.438 142.049C696.438 70.5962 554.896 12.6724 380.295 12.6724C205.694 12.6724 64.1514 70.5962 64.1514 142.049C64.1514 213.502 205.694 271.425 380.295 271.425Z" stroke="#FCE2C1" stroke-width="0.1" stroke-linecap="round" stroke-linejoin="round"/>
<path d="M380.297 268.201C552.781 268.201 692.607 211.212 692.607 140.914C692.607 70.6154 552.781 13.627 380.297 13.627C207.813 13.627 67.9868 70.6154 67.9868 140.914C67.9868 211.212 207.813 268.201 380.297 268.201Z" stroke="#FCE2C1" stroke-width="0.1" stroke-linecap="round" stroke-linejoin="round"/>
<path d="M380.295 264.978C550.628 264.978 688.712 208.925 688.712 139.78C688.712 70.6355 550.628 14.583 380.295 14.583C209.961 14.583 71.8779 70.6355 71.8779 139.78C71.8779 208.925 209.961 264.978 380.295 264.978Z" stroke="#FCE2C1" stroke-width="0.1" stroke-linecap="round" stroke-linejoin="round"/>
<path d="M380.297 261.694C548.514 261.694 684.881 206.576 684.881 138.586C684.881 70.5952 548.514 15.478 380.297 15.478C212.08 15.478 75.7139 70.5952 75.7139 138.586C75.7139 206.576 212.08 261.694 380.297 261.694Z" stroke="#FCE2C1" stroke-width="0.1" stroke-linecap="round" stroke-linejoin="round"/>
<path d="M380.294 258.469C546.361 258.469 680.984 204.287 680.984 137.451C680.984 70.6148 546.361 16.4331 380.294 16.4331C214.228 16.4331 79.6045 70.6148 79.6045 137.451C79.6045 204.287 214.228 258.469 380.294 258.469Z" stroke="#FCE2C1" stroke-width="0.1" stroke-linecap="round" stroke-linejoin="round"/>
<path d="M380.297 255.246C544.246 255.246 677.153 202 677.153 136.317C677.153 70.6351 544.246 17.3887 380.297 17.3887C216.347 17.3887 83.4404 70.6351 83.4404 136.317C83.4404 202 216.347 255.246 380.297 255.246Z" stroke="#FCE2C1" stroke-width="0.1" stroke-linecap="round" stroke-linejoin="round"/>
<defs>
<linearGradient id="paint0_linear_2015_195" x1="0" y1="179.722" x2="760.587" y2="179.722" gradientUnits="userSpaceOnUse">
<stop stop-color="#FFEACF"/>
<stop offset="0.15" stop-color="#FFF3E0"/>
<stop offset="0.31" stop-color="#FFF9EC"/>
<stop offset="0.49" stop-color="#FFFBF0"/>
<stop offset="0.77" stop-color="#FFF9EE"/>
<stop offset="0.87" stop-color="#FFF6E7"/>
<stop offset="0.95" stop-color="#FFF0DB"/>
<stop offset="1" stop-color="#FFEACF"/>
</linearGradient>
<linearGradient id="paint1_linear_2015_195" x1="381.253" y1="223.245" x2="383.931" y2="340.801" gradientUnits="userSpaceOnUse">
<stop stop-color="#FFECD4"/>
<stop offset="1" stop-color="#FCE2C1"/>
</linearGradient>
</defs>
</svg>
