<svg width="152" height="269" viewBox="0 0 152 269" fill="none" xmlns="http://www.w3.org/2000/svg">
<g clip-path="url(#clip0_254_9351)">
<path d="M106.902 87.0503C106.674 87.0503 106.455 86.953 106.3 86.7826L95.6834 75.1129C95.4517 74.8574 95.407 74.4883 95.5696 74.184C95.6752 73.9812 95.8622 73.8433 96.0736 73.7825C96.8052 73.2592 100.081 70.6348 102.992 68.2985C107.686 64.5343 110.702 62.1249 111.556 61.5449C123.856 45.4944 134.144 21.9725 134.973 20.0539C135.058 18.8938 135.672 11.3208 137.713 5.61374C138.871 2.38094 140.103 0.807129 141.476 0.807129C142.456 0.807129 143.757 1.59809 144.403 5.3582C144.85 7.95418 144.289 10.3595 143.842 12.2903C143.582 13.4098 143.314 14.5658 143.46 15.1093C143.834 14.7727 144.423 13.9209 144.801 13.3773L145.09 12.9636C146.525 10.9233 147.907 9.88494 149.191 9.88494C149.342 9.88494 149.496 9.90116 149.642 9.92955C149.687 9.93767 149.732 9.94983 149.777 9.96606C150.74 10.3311 151.053 10.9071 151.146 11.3289C151.39 12.4322 150.419 13.4301 149.838 14.0223C149.752 14.1115 149.679 14.1845 149.634 14.2373C149.163 14.8092 148.825 15.3527 148.431 15.9814C147.769 17.0482 146.943 18.3746 145.127 20.3337C143.619 21.9603 142.293 23.165 141.753 23.6436C141.501 24.0776 140.948 26.2031 140.416 28.2596C138.599 35.2728 135.213 48.3297 129.079 56.8681C122.303 66.2988 107.711 86.5068 107.565 86.7096C107.422 86.9084 107.195 87.0301 106.951 87.0463C106.934 87.0463 106.918 87.0463 106.906 87.0463L106.902 87.0503Z" fill="#FFB689"/>
<path d="M141.481 1.6223C142.428 1.6223 143.192 3.08659 143.606 5.50004C144.403 10.1201 141.753 14.298 142.907 15.8028C143.037 15.9732 143.184 16.0503 143.342 16.0503C144.017 16.0503 144.899 14.6549 145.761 13.434C146.7 12.0995 147.976 10.7042 149.199 10.7042C149.297 10.7042 149.399 10.7123 149.496 10.7326C151.561 11.5113 149.411 13.2474 149.013 13.7301C147.659 15.3647 147.362 16.7479 144.537 19.7941C143.204 21.23 141.96 22.3982 141.176 23.0878C140.054 24.0734 136.892 44.6182 128.429 56.4055C121.576 65.9457 106.914 86.2471 106.914 86.2471L96.2972 74.5774L96.3501 74.5855C96.6834 74.5246 111.06 62.7778 112.125 62.1613C125.14 45.2266 135.782 20.2565 135.782 20.2565C135.782 20.2565 136.331 11.9251 138.485 5.89349C139.554 2.90812 140.599 1.62635 141.485 1.62635M141.481 -0.000188353C139.135 -0.000188353 137.77 3.05009 136.948 5.3459C134.94 10.9556 134.29 18.3096 134.172 19.8631C133.038 22.4753 122.97 45.2793 110.987 60.9607C109.999 61.6583 107.341 63.7757 102.484 67.6696C99.8213 69.8032 96.5614 72.4154 95.6916 73.0563C95.342 73.1942 95.0372 73.4538 94.8542 73.8026C94.5291 74.407 94.6226 75.1493 95.0859 75.6563L105.703 87.326C106.012 87.6668 106.451 87.8574 106.906 87.8574C106.935 87.8574 106.967 87.8574 107 87.8574C107.487 87.829 107.939 87.5816 108.227 87.1841C108.373 86.9813 122.966 66.7732 129.742 57.3385C135.965 48.6744 139.375 35.5241 141.204 28.4623C141.68 26.6289 142.172 24.7346 142.42 24.1383C143.037 23.5908 144.302 22.4226 145.724 20.8853C147.598 18.8653 148.443 17.5024 149.126 16.4072C149.5 15.8028 149.825 15.2796 150.264 14.7523C150.297 14.7117 150.358 14.6549 150.423 14.586C151.073 13.9207 152.285 12.6795 151.943 11.1503C151.805 10.5338 151.37 9.69822 150.069 9.20336C149.984 9.17091 149.895 9.14657 149.805 9.12629C149.606 9.08979 149.403 9.06951 149.199 9.06951C147.708 9.06951 146.244 10.0552 144.732 12.0792C145.159 10.2255 145.655 7.7918 145.212 5.2161C144.468 0.896235 142.773 -0.00830078 141.485 -0.00830078L141.481 -0.000188353Z" fill="#51703C"/>
<path d="M31.1071 136.731C30.4486 136.731 29.8348 136.451 29.3308 135.92C27.5383 134.029 27.3066 129.146 27.4488 126.562C27.6724 122.514 32.1558 117.529 33.4199 116.198C36.5335 102.306 39.9804 93.1265 43.6671 88.9202C45.3051 87.0463 49.0122 84.2596 54.6743 80.6374C55.7636 79.9398 57.0156 79.5747 58.3 79.5747C60.9543 79.5747 63.3728 81.1323 64.4621 83.5498C65.9254 86.7988 64.5963 90.636 61.4299 92.2828C55.1052 95.5765 53.4752 96.7163 53.0687 97.1016C51.7233 98.2982 42.1794 112.978 40.147 117.561L39.834 118.324C39.8909 118.514 39.96 118.725 40.0413 118.956C40.4803 120.263 41.0819 122.051 40.7892 124.655C40.4397 127.775 37.8342 131.332 35.8953 131.332C35.5823 131.332 35.2937 131.247 35.0417 131.085C34.5743 130.78 34.3792 130.314 34.3751 129.734C33.993 131.036 33.7248 132.204 33.5053 133.157C33.0175 135.275 32.7736 136.337 31.8835 136.617C31.6233 136.698 31.3632 136.739 31.1071 136.739V136.731Z" fill="#FFB689"/>
<path d="M58.2961 80.374C60.5398 80.374 62.7144 81.6517 63.7184 83.8704C65.0069 86.73 63.8403 90.1008 61.0519 91.5529C57.605 93.3498 53.4712 95.5929 52.5079 96.5055C51.0121 97.8319 41.3909 112.738 39.4033 117.225C39.135 117.878 38.9765 118.267 38.9765 118.267C39.3098 119.581 40.3259 121.459 39.9804 124.558C39.6675 127.353 37.2774 130.517 35.8954 130.517C35.745 130.517 35.6068 130.48 35.4849 130.399C34.5093 129.766 36.2734 126.477 36.7124 125.503C36.8669 125.159 36.8547 124.753 36.6433 124.441C36.5417 124.291 36.4116 124.177 36.2409 124.177C35.8548 124.177 35.2776 124.773 34.4565 126.931C32.6152 131.766 32.5054 135.563 31.6356 135.839C31.4486 135.895 31.2738 135.924 31.1072 135.924C28.7781 135.924 28.0383 130.59 28.2578 126.607C28.4814 122.559 33.6273 117.144 34.1598 116.596C37.2896 102.57 40.7324 93.4999 44.2728 89.4518C46.232 87.2127 51.1259 83.8623 55.1093 81.319C56.1052 80.6822 57.2067 80.3821 58.2961 80.3821M58.2961 78.7515C56.8571 78.7515 55.4508 79.1652 54.2313 79.944C48.5001 83.6068 44.7402 86.4461 43.0493 88.3769C39.2935 92.6683 35.8019 101.892 32.6721 115.797C31.1885 117.383 26.8677 122.348 26.636 126.509C26.5953 127.26 26.3027 133.9 28.7415 136.471C29.4041 137.169 30.2211 137.538 31.1072 137.538C31.4445 137.538 31.786 137.485 32.1274 137.376C33.4606 136.958 33.7736 135.591 34.298 133.324C34.4037 132.861 34.5256 132.346 34.6638 131.786C35.0337 132.01 35.4564 132.127 35.8995 132.127C38.4765 132.127 41.2364 127.99 41.6023 124.729C41.9153 121.946 41.2527 119.983 40.8178 118.685C40.7771 118.567 40.7406 118.454 40.704 118.348C40.7609 118.21 40.83 118.044 40.9031 117.857C42.8705 113.448 52.2559 98.9636 53.5972 97.7143C53.6094 97.7021 53.6216 97.694 53.6338 97.6818C53.8696 97.4587 55.1581 96.4568 61.812 92.9928C65.3565 91.1473 66.8482 86.8477 65.2061 83.2092C63.9867 80.5038 61.2755 78.7555 58.3001 78.7555L58.2961 78.7515Z" fill="#51703C"/>
<path d="M85.9931 64.2057C85.9444 64.2057 85.8956 64.2016 85.8468 64.1935C85.5013 64.1286 85.233 63.8528 85.1883 63.504L84.8428 60.9202C81.209 60.2752 74.1079 55.9351 74.177 48.8732C74.2055 45.7824 75.9777 44.1477 76.876 43.519C76.7459 41.8641 76.8191 36.9277 81.7374 33.2406C84.4485 31.2043 89.2083 29.8374 93.5779 29.8374C97.4638 29.8374 100.419 30.9447 101.902 32.9566C103.138 34.6359 103.341 36.8384 102.508 39.5034C102.382 39.909 102.309 40.1402 99.0612 41.0731L86.7126 63.7879C86.5703 64.0516 86.2939 64.2138 85.9972 64.2138L85.9931 64.2057Z" fill="#DE8459"/>
<path d="M93.5779 30.6446C99.0531 30.6446 103.711 32.9404 101.728 39.2559C101.654 39.4872 98.5043 40.3795 98.5043 40.3795L85.9931 63.3945L85.5663 60.186C82.595 60.0481 74.9209 55.9108 74.99 48.8813C75.0265 45.2794 77.7418 43.9328 77.7418 43.9328C77.7418 43.9328 76.6931 38.0391 82.2252 33.8855C84.7656 31.9791 89.4075 30.6446 93.5738 30.6446M93.5779 29.0221C89.0457 29.0221 84.0909 30.454 81.2496 32.5875C76.4167 36.2178 75.9736 41.0123 76.0468 43.1337C74.9737 44.0058 73.3966 45.8067 73.3681 48.8611C73.3356 52.3778 75.0103 55.7485 78.0873 58.3526C79.9408 59.9183 82.2048 61.1189 84.1152 61.5895L84.3835 63.6054C84.477 64.3031 85.0095 64.8588 85.7005 64.9886C85.798 65.0048 85.8997 65.017 85.9972 65.017C86.5866 65.017 87.1394 64.6965 87.428 64.1692L99.614 41.7505C102.638 40.8703 103.032 40.5499 103.284 39.7386C104.203 36.8141 103.959 34.3682 102.561 32.4699C100.923 30.2471 97.7361 29.0181 93.582 29.0181L93.5779 29.0221Z" fill="#51703C"/>
<path d="M13.3526 199.975C13.2103 199.975 13.0721 199.939 12.942 199.866C12.6046 199.671 12.4543 199.261 12.5843 198.896L15.4662 190.731C15.6003 190.386 15.7873 189.896 30.4325 181.572C43.1957 174.186 51.6137 172.632 56.4304 172.632C59.6049 172.632 61.6536 173.285 62.751 173.784L68.1286 155.503C68.2303 155.158 68.5432 154.923 68.9009 154.919C68.9009 154.919 69.0107 154.919 69.0148 154.919C69.4619 154.919 69.8236 155.276 69.8277 155.722L69.8968 164.26C70.3724 168.621 71.7462 182.761 69.8277 184.736C69.0432 185.495 67.8279 185.872 66.202 185.872C64.6289 185.872 63.0843 185.523 62.5356 185.385L34.7939 191.794L16.1288 197.237L13.9623 199.704C13.8037 199.886 13.5802 199.979 13.3526 199.979V199.975Z" fill="#FFB689"/>
<path d="M69.0147 155.73L69.0838 164.309C69.0838 164.309 71.0511 182.311 69.2423 184.173C68.5391 184.854 67.3685 185.061 66.1978 185.061C64.3687 185.061 62.5436 184.55 62.5436 184.55L34.5865 191.007L15.6734 196.524L13.3525 199.164L16.2343 190.999C16.4457 190.456 30.8348 182.278 30.8348 182.278C43.1143 175.172 51.3372 173.444 56.4303 173.444C61.2348 173.444 63.2468 174.981 63.2468 174.981L68.909 155.73H69.0147ZM69.0187 154.108H68.9009C68.1855 154.116 67.5554 154.587 67.3522 155.276L62.2307 172.702C60.9625 172.255 59.0602 171.825 56.4344 171.825C49.2845 171.825 40.3991 174.872 30.0259 180.879C29.8633 180.968 29.6642 181.082 29.4122 181.228C29.0179 181.455 28.4529 181.775 27.7741 182.165C26.5384 182.875 24.6727 183.945 22.7948 185.041C15.0556 189.551 14.9784 189.754 14.7182 190.423C14.7141 190.435 14.706 190.452 14.702 190.464L11.8201 198.629C11.5599 199.363 11.8607 200.174 12.5314 200.568C12.7875 200.718 13.072 200.791 13.3525 200.791C13.8077 200.791 14.2589 200.6 14.5759 200.239L16.5839 197.952L35.0011 192.581L62.5314 186.221C63.2346 186.387 64.702 186.687 66.2019 186.687C68.0473 186.687 69.4537 186.233 70.3764 185.341C70.3885 185.329 70.4007 185.316 70.4129 185.304C71.1974 184.493 71.9941 182.846 71.4657 173.456C71.2218 169.083 70.7788 164.857 70.7097 164.22L70.6406 155.722C70.6324 154.83 69.9048 154.112 69.0147 154.112L69.0187 154.108Z" fill="#51703C"/>
<path d="M57.3287 249.704C55.6215 249.704 54.394 248.204 53.6745 245.239C53.642 245.109 53.646 244.975 53.6745 244.845L59.3448 222.877C63.3241 207.009 67.6165 198.04 72.1161 196.203C72.1689 193.157 72.425 179.309 72.7746 176.49C73.0022 174.097 74.6606 173.833 75.3597 173.833C79.4692 173.833 87.7368 181.893 88.6636 182.809C88.8505 182.996 88.9318 183.256 88.8952 183.507C89.2245 185.17 90.3545 192.962 84.8793 201.553C81.2983 207.175 74.7053 217.973 69.8521 226.329L60.7308 247.632C60.7024 247.701 60.6617 247.762 60.617 247.822C60.4626 248.013 59.0562 249.7 57.3165 249.7L57.3287 249.704Z" fill="#FFB689"/>
<path d="M75.3639 174.644C79.2579 174.644 88.0945 183.386 88.0945 183.386H88.0417C88.0417 183.386 90.1269 191.81 84.2005 201.115C80.7415 206.551 74.1119 217.385 69.1327 225.964L59.9952 247.316C59.9952 247.316 58.731 248.893 57.3287 248.893C56.2963 248.893 55.1907 248.034 54.4672 245.048L60.1374 223.08C62.9909 211.702 67.4661 198.252 72.925 196.787C72.925 196.787 73.2014 179.686 73.5876 176.587C73.7176 175.196 74.3843 174.644 75.3679 174.644M75.3639 173.022C73.4453 173.022 72.1771 174.288 71.9698 176.413C71.6325 179.183 71.3845 191.843 71.3154 195.68C68.7628 196.978 66.3808 200.231 64.0599 205.573C62.1617 209.946 60.3082 215.706 58.5603 222.686L52.8941 244.643C52.8291 244.898 52.825 245.17 52.8901 245.429C53.9103 249.632 55.8695 250.516 57.3328 250.516C59.4099 250.516 60.9748 248.695 61.2674 248.334C61.3609 248.22 61.4341 248.09 61.4951 247.956L70.5959 226.698C75.437 218.358 82.0097 207.601 85.5826 201.991C91.078 193.368 90.0984 185.47 89.7286 183.475C89.7529 183.021 89.5822 182.57 89.2489 182.238C87.6921 180.7 79.7131 173.026 75.372 173.026L75.3639 173.022Z" fill="#51703C"/>
<path d="M67.336 186.618C67.1165 186.618 66.9092 186.529 66.7548 186.375C66.6003 186.221 66.519 186.01 66.5231 185.791L67.4905 134.63C67.4946 134.325 67.6734 134.05 67.9457 133.916L69.1448 133.328C69.1855 133.307 69.2261 133.291 69.2708 133.279C69.909 133.088 84.9688 128.643 95.1793 128.643C100.764 128.643 103.943 130.026 104.638 132.76C107.028 138.787 96.793 164.921 94.2566 168.608L94.0331 185.819C94.029 186.261 93.6632 186.618 93.2201 186.618H67.3401H67.336Z" fill="#FFF9EC"/>
<path d="M95.1753 129.454C99.7237 129.454 103.227 130.367 103.858 133.011C106.252 138.682 95.5858 165.891 93.4437 168.333L93.2201 185.807H67.3401L68.3075 134.646L69.5066 134.058C69.5066 134.058 84.9728 129.454 95.1834 129.454M95.1753 127.832C84.8468 127.832 69.6773 132.314 69.0351 132.504C68.9497 132.529 68.8644 132.561 68.7831 132.602L67.584 133.19C67.0393 133.458 66.6857 134.009 66.6735 134.618L65.7061 185.779C65.698 186.213 65.8646 186.634 66.1695 186.947C66.4743 187.259 66.893 187.434 67.3279 187.434H93.208C94.0981 187.434 94.8216 186.72 94.8338 185.831L95.0533 168.864C96.667 166.37 99.7562 158.716 101.882 152.404C105.341 142.146 106.524 135.457 105.398 132.516C104.581 129.409 101.138 127.836 95.1672 127.836L95.1753 127.832Z" fill="#51703C"/>
<path d="M85.237 77.4083C84.8997 77.4083 84.5867 77.1974 84.4688 76.8648L80.9975 66.9676C80.8756 66.6188 81.0057 66.2294 81.3146 66.0225L85.2939 63.386L84.794 56.6892C83.8063 56.3404 81.8552 55.4764 81.1276 53.8904C80.7293 53.0264 80.7618 52.0651 81.217 51.1119C81.6763 50.1546 82.3226 49.6679 83.1356 49.6679C83.851 49.6679 84.5054 50.0695 85.0826 50.4223C85.2939 50.5521 85.4972 50.6779 85.6842 50.7712C85.9524 50.905 86.1475 50.9821 86.2817 51.0267C86.2613 50.7955 86.2044 50.4913 86.1679 50.2763C86.1313 50.0654 86.0906 49.8545 86.0622 49.6517C85.5216 45.7131 85.4362 42.7967 89.257 41.1174C91.4154 40.1682 93.8867 39.6855 96.602 39.6855C99.5204 39.6855 101.642 40.2494 101.732 40.2737C101.959 40.3345 102.146 40.4887 102.248 40.6996C102.309 40.8253 103.65 43.6282 102.24 47.3924C102.289 47.441 102.337 47.4938 102.382 47.5546C103.02 48.3456 103.223 49.7287 102.992 51.6554C102.134 58.7741 98.8945 62.2584 97.8417 63.2197V63.4671L115.954 67.6531C116.316 67.7383 116.576 68.0588 116.584 68.4279C116.592 68.8011 116.34 69.1296 115.983 69.227L85.4403 77.3799C85.3712 77.4002 85.298 77.4083 85.2289 77.4083H85.237Z" fill="#FFB689"/>
<path d="M96.61 40.5011C99.4513 40.5011 101.528 41.0608 101.528 41.0608C101.528 41.0608 102.939 43.9286 101.24 47.7171C101.24 47.7171 102.642 47.855 102.195 51.5624C101.215 59.6707 97.0328 62.8549 97.0328 62.8549L97.0531 64.1163L115.783 68.4443L85.241 76.5973L81.7698 66.7001L86.1475 63.7999L85.5743 56.081C85.5743 56.081 80.4122 54.6897 81.9608 51.4609C82.3104 50.7308 82.7168 50.4793 83.1477 50.4793C83.8428 50.4793 84.6069 51.1324 85.3305 51.4934C85.8914 51.7773 86.2857 51.895 86.558 51.895C87.4644 51.895 87.0173 50.5686 86.8791 49.5424C86.3548 45.693 86.2857 43.3161 89.5984 41.8599C92.0047 40.8012 94.5167 40.497 96.6141 40.497M96.61 38.8786C93.781 38.8786 91.1999 39.3815 88.9399 40.3794C84.3549 42.3953 84.7777 46.1798 85.237 49.5626C84.6517 49.2138 83.9566 48.8569 83.1436 48.8569C82.4933 48.8569 81.282 49.1043 80.4894 50.7633C79.7781 52.2519 80.0423 53.4688 80.3959 54.2313C81.1316 55.8295 82.8632 56.7786 84.0298 57.2613L84.4565 62.9765L80.8715 65.3494C80.2536 65.7591 79.9894 66.5379 80.2374 67.2356L83.7086 77.1327C83.9403 77.7979 84.5663 78.2198 85.241 78.2198C85.3792 78.2198 85.5215 78.2036 85.6638 78.163L116.206 70.01C116.925 69.8194 117.425 69.1582 117.413 68.4159C117.401 67.6696 116.881 67.0287 116.153 66.8624L99.244 62.9522C100.719 61.2689 103.093 57.7237 103.817 51.753C104.065 49.7046 103.853 48.22 103.175 47.2344C104.443 43.3647 103.061 40.4767 102.996 40.3429C102.788 39.9251 102.41 39.6127 101.959 39.4911C101.866 39.4667 99.6423 38.8745 96.6182 38.8745L96.61 38.8786Z" fill="#51703C"/>
<path d="M68.0676 268.189C66.9295 268.189 65.8199 267.941 64.7712 267.458C55.9019 263.35 52.5242 253.164 51.8372 250.759C50.5812 250.435 47.5327 249.25 46.0857 245.267C43.5127 238.177 53.4672 233.751 54.1744 233.447C54.5281 233.273 54.837 233.188 55.1297 233.188C55.5686 233.188 55.9548 233.39 56.1905 233.743C56.8002 234.656 56.219 236.631 55.6987 237.974C58.1294 240.886 60.239 241.511 61.6007 241.511C62.5965 241.511 63.2103 241.17 63.2184 241.17C63.3444 241.097 63.4867 241.065 63.6249 241.065C63.881 241.065 64.133 241.182 64.2875 241.401C64.385 241.539 66.6938 244.792 68.1245 249.108C68.1327 249.137 68.1408 249.165 68.1489 249.193C69.4781 255.367 70.5756 256.539 71.9657 258.02C72.2868 258.36 72.6161 258.713 72.9697 259.143C73.181 259.399 73.4127 259.654 73.6363 259.898C74.6525 261.009 75.8069 262.267 75.0996 264.092C74.3395 266.063 71.4332 268.193 68.0676 268.193V268.189Z" fill="#FFF9EC"/>
<path d="M55.1297 233.999C56.4792 233.999 54.7639 238.116 54.7639 238.116C57.5035 241.572 59.9667 242.326 61.5967 242.326C62.8608 242.326 63.6209 241.872 63.6209 241.872C63.6209 241.872 65.9378 245.113 67.3483 249.36C69.0229 257.136 70.4415 257.355 72.3357 259.655C73.486 261.05 74.9859 262.113 74.3355 263.8C73.7095 265.422 71.1041 267.382 68.0637 267.382C67.1044 267.382 66.1045 267.187 65.1086 266.724C55.4712 262.263 52.4877 250.07 52.4877 250.07C52.4877 250.07 48.5042 249.563 46.8458 244.991C44.468 238.436 54.5119 234.181 54.5119 234.181C54.7639 234.056 54.9671 233.995 55.1257 233.995M55.1297 232.376C54.7151 232.376 54.2924 232.486 53.829 232.713C53.4307 232.888 50.9593 234.003 48.7359 235.897C44.3664 239.613 44.468 243.194 45.3216 245.547C46.7361 249.449 49.6017 250.897 51.1829 251.412C52.134 254.507 55.7151 264.161 64.4298 268.197C65.5842 268.732 66.8077 269.004 68.0677 269.004C71.7788 269.004 75.0021 266.607 75.8598 264.384C76.7459 262.088 75.2948 260.506 74.2339 259.35C74.0063 259.103 73.7908 258.868 73.5957 258.628C73.2258 258.178 72.8681 257.801 72.5552 257.464C71.2504 256.073 70.222 254.974 68.9416 249.023C68.9294 248.966 68.9132 248.91 68.8969 248.853C67.4255 244.423 65.0476 241.073 64.9501 240.931C64.6249 240.477 64.1371 240.221 63.6331 240.221C63.3527 240.221 63.0722 240.298 62.812 240.469C62.7226 240.513 62.2877 240.704 61.6048 240.704C60.4708 240.704 58.727 240.181 56.6337 237.816C57.7759 234.648 57.1052 233.646 56.8735 233.297C56.4833 232.713 55.8532 232.381 55.1379 232.381L55.1297 232.376Z" fill="#51703C"/>
<path d="M8.69847 222.941C7.14575 222.941 4.35735 221.956 3.11761 215.348C2.39816 211.519 2.63798 200.705 2.69082 198.734C1.89414 197.663 -0.764188 193.526 2.12176 189.048C3.43873 187.007 7.42621 186.703 9.69026 186.703C11.1414 186.703 12.6697 186.829 13.9907 187.052C14.7955 187.19 15.4906 187.677 15.8971 188.382C16.3035 189.096 16.3726 189.944 16.0759 190.715C15.2752 192.812 15.2101 194.446 15.8808 195.444C16.4499 196.292 17.4742 196.539 17.9863 196.552C18.3969 196.56 18.7993 196.734 19.0676 197.018C19.2992 197.261 19.4171 197.574 19.409 197.898C19.3683 199.062 18.653 199.967 17.8238 201.013C16.7588 202.364 15.4296 204.039 15.1776 206.915C15.0638 208.205 14.8118 210.448 14.5679 212.614C14.3444 214.586 14.1371 216.447 14.0598 217.328C13.8403 219.919 11.4462 222.933 8.6944 222.933L8.69847 222.941Z" fill="#FFF9EC"/>
<path d="M9.69027 187.515C11.1576 187.515 12.625 187.644 13.8566 187.851C15.0516 188.054 15.7508 189.295 15.3199 190.427C13.125 196.175 16.6084 197.331 17.9701 197.363C18.2709 197.371 18.6083 197.57 18.6001 197.874C18.5229 200.101 14.8321 201.622 14.3728 206.851C14.1574 209.313 13.4135 215.413 13.255 217.267C13.0599 219.587 10.9341 222.13 8.69848 222.13C6.83277 222.13 4.88578 220.358 3.91837 215.198C3.15014 211.106 3.5119 198.466 3.5119 198.466C3.5119 198.466 -0.239829 194.211 2.80464 189.49C3.73546 188.046 6.70677 187.519 9.69027 187.519M9.69027 185.892C6.72709 185.892 2.88594 186.363 1.4389 188.61C-1.23975 192.767 0.369878 196.953 1.86976 199.01C1.80879 201.602 1.61368 211.75 2.31688 215.494C3.66636 222.678 6.89375 223.749 8.69848 223.749C11.9259 223.749 14.6208 220.398 14.8728 217.401C14.9459 216.533 15.1573 214.675 15.3768 212.708C15.6207 210.538 15.8727 208.29 15.9906 206.993C16.2223 204.36 17.4132 202.851 18.466 201.521C19.344 200.409 20.1732 199.359 20.226 197.931C20.2463 197.387 20.0472 196.868 19.6651 196.467C19.2464 196.025 18.6408 195.761 18.0107 195.745C17.6774 195.737 16.9458 195.57 16.5596 194.994C16.0475 194.232 16.145 192.816 16.836 191.003C17.2181 190.005 17.1328 188.906 16.6003 187.981C16.0719 187.06 15.1695 186.432 14.1249 186.253C12.7591 186.022 11.182 185.892 9.6862 185.892H9.69027Z" fill="#51703C"/>
<path d="M86.4687 137.579C81.8633 137.579 68.5352 136.877 67.6978 133.758C67.6734 133.66 67.6653 133.555 67.6775 133.454L72.2747 93.5972L61.6699 98.6716C61.556 98.7243 61.4382 98.7527 61.3203 98.7527C61.0236 98.7527 60.735 98.5864 60.5927 98.3025L51.7845 80.7269C51.5934 80.3456 51.7276 79.8832 52.0934 79.6682C52.5161 79.4167 62.4706 73.5028 67.8807 71.0528C74.7989 67.9214 80.6521 65.8568 80.709 65.8365C80.7984 65.8041 80.8878 65.7919 80.9772 65.7919C81.152 65.7919 81.3227 65.8487 81.465 65.9541C86.68 69.8359 90.5781 71.641 93.7323 71.641C95.0452 71.641 96.2484 71.3367 97.419 70.7121C99.4514 69.625 100.085 65.9298 100.159 64.5953C100.175 64.3154 100.333 64.0599 100.581 63.926C100.687 63.8693 111.17 58.1622 112.645 57.3063C112.771 57.2333 112.914 57.1968 113.052 57.1968C113.255 57.1968 113.454 57.2698 113.609 57.4158C113.641 57.4483 116.962 60.5513 120.238 63.6867C127.112 70.2618 127.112 70.5174 127.112 70.9839C127.112 71.1867 127.035 71.3814 126.896 71.5314L111.788 87.9672C111.385 94.9317 104.935 131.567 104.658 133.149C104.63 133.312 104.553 133.462 104.435 133.579C101 137.06 91.7 137.579 86.4646 137.579H86.4687Z" fill="#FFF9EC"/>
<path d="M113.052 58.0121C113.052 58.0121 126.299 70.3876 126.299 70.9839L110.991 87.6387C110.78 93.7677 103.858 133.012 103.858 133.012C101.155 135.749 93.7852 136.768 86.4687 136.768C77.6727 136.768 68.9498 135.291 68.4824 133.547L73.2462 92.2304L61.3122 97.9374L52.504 80.3619C52.504 80.3619 62.7796 74.2451 68.21 71.787C75.1729 68.6354 80.9732 66.5991 80.9732 66.5991C86.1151 70.4282 90.2001 72.4482 93.7283 72.4482C95.1672 72.4482 96.5127 72.1115 97.7971 71.426C100.687 69.8806 100.968 64.64 100.968 64.64C100.968 64.64 111.548 58.8802 113.048 58.0121M113.052 56.3896C112.772 56.3896 112.491 56.4627 112.239 56.6087C110.772 57.4564 100.301 63.1595 100.195 63.2163C99.6994 63.484 99.3823 63.991 99.3498 64.5548C99.2848 65.6784 98.7198 69.0978 97.037 69.9982C95.9924 70.558 94.9112 70.8298 93.7365 70.8298C90.7651 70.8298 87.0215 69.0734 81.9528 65.3012C81.6683 65.0902 81.3269 64.9807 80.9814 64.9807C80.7985 64.9807 80.6155 65.0091 80.4408 65.074C80.3839 65.0943 74.4941 67.1711 67.5434 70.3146C62.0886 72.7808 52.0975 78.7191 51.6748 78.9706C50.9431 79.4046 50.6708 80.3294 51.0529 81.0879L59.8611 98.6635C60.1457 99.2314 60.7188 99.5599 61.3163 99.5599C61.552 99.5599 61.7919 99.5072 62.0195 99.4017L71.2992 94.9642L66.8728 133.36C66.8484 133.563 66.8646 133.766 66.9175 133.965C67.2223 135.1 68.3076 136.394 74.0754 137.408C77.6199 138.033 82.1358 138.39 86.4728 138.39C91.8342 138.39 101.378 137.838 105.02 134.147C105.252 133.912 105.406 133.612 105.463 133.291C105.74 131.73 112.028 96.0229 112.585 88.308L127.498 72.0831C127.774 71.783 127.925 71.3936 127.925 70.988C127.925 70.128 127.925 69.9252 120.799 63.1067C117.519 59.9672 114.194 56.8602 114.162 56.8318C113.853 56.5438 113.454 56.3937 113.052 56.3937V56.3896Z" fill="#51703C"/>
<path d="M111.04 80.0249C111.04 80.0249 112.674 85.805 110.377 99.7868L111.04 80.0249Z" fill="#FFF9EC"/>
<path d="M110.377 100.598C110.333 100.598 110.288 100.598 110.243 100.586C109.8 100.513 109.499 100.095 109.572 99.653C111.8 86.085 110.268 80.3008 110.251 80.24C110.133 79.81 110.385 79.3598 110.816 79.2421C111.247 79.1245 111.694 79.3719 111.816 79.8019C111.885 80.0453 113.471 85.9187 111.174 99.9126C111.109 100.31 110.763 100.594 110.373 100.594L110.377 100.598Z" fill="#51703C"/>
<path d="M61.3121 98.7486C61.0073 98.7486 60.7187 98.5782 60.5805 98.2902C60.3854 97.8846 60.5561 97.4019 60.9625 97.2072L78.3555 88.8676C78.7619 88.6729 79.2456 88.8433 79.4407 89.2489C79.6358 89.6546 79.4651 90.1372 79.0587 90.3319L61.6657 98.6715C61.5519 98.7242 61.4341 98.7526 61.3162 98.7526L61.3121 98.7486Z" fill="#51703C"/>
<path d="M93.2161 155.73C93.2161 155.73 93.7242 167.156 93.2161 185.807V155.73Z" fill="#FFF9EC"/>
<path d="M93.216 186.618C93.216 186.618 93.1998 186.618 93.1917 186.618C92.7445 186.606 92.3868 186.233 92.399 185.787C92.899 167.384 92.4031 155.884 92.399 155.771C92.3787 155.324 92.7283 154.943 93.1754 154.923C93.6266 154.907 94.0046 155.251 94.0249 155.698C94.029 155.811 94.5249 167.367 94.0249 185.831C94.0127 186.273 93.651 186.622 93.212 186.622L93.216 186.618Z" fill="#51703C"/>
</g>
<defs>
<clipPath id="clip0_254_9351">
<rect width="152" height="269" fill="white"/>
</clipPath>
</defs>
</svg>
