<svg width="180" height="208" viewBox="0 0 180 208" fill="none" xmlns="http://www.w3.org/2000/svg">
<g clip-path="url(#clip0_254_9389)">
<path d="M114.582 188.691C114.52 188.691 114.453 188.682 114.387 188.67C114.076 188.596 113.836 188.351 113.77 188.037L113.302 185.851C113.19 185.739 113.112 185.598 113.079 185.437C112.814 184.203 106.587 155.181 106.587 150.714C106.587 146.247 107.824 143.034 108.45 141.643L83.9219 126.685C78.7878 125.166 76.0883 122.268 74.2996 120.347C73.4674 119.453 72.6849 118.612 72.217 118.612C71.9976 118.612 71.7864 118.525 71.6332 118.368C71.48 118.211 71.3889 118.004 71.3889 117.784V117.73C71.3889 117.503 71.4841 117.283 71.6498 117.126C73.2314 115.636 87.255 102.557 91.8135 102.557C95.5192 102.557 96.8027 106.113 97.5687 108.237C97.7923 108.85 98.0655 109.616 98.2477 109.802C98.7736 110.336 104.334 115.097 109.236 119.299C114.408 123.729 119.302 127.919 120.076 128.664C124.411 131.84 124.208 138.211 123.057 141.494C122.622 142.943 120.983 165.999 119.985 181.143C119.972 181.313 119.91 181.475 119.803 181.607L119.724 182.601C119.712 182.766 119.645 182.928 119.542 183.056L115.223 188.389C115.066 188.587 114.826 188.695 114.582 188.695V188.691Z" fill="#FFB689"/>
<path d="M91.8135 103.385C96.1816 103.385 96.5667 109.276 97.6597 110.382C98.7528 111.491 118.449 128.188 119.542 129.293C123.463 132.121 123.425 137.95 122.279 141.217C121.678 142.881 119.161 181.085 119.161 181.085L119.008 181.205L118.904 182.53L114.586 187.863L114.01 185.172L113.894 185.263C113.894 185.263 107.423 155.144 107.423 150.714C107.423 145.154 109.53 141.324 109.53 141.324L84.2697 125.919C76.2456 123.593 74.4072 117.78 72.2252 117.78V117.726C72.2252 117.726 87.4578 103.381 91.8218 103.381M91.8135 101.729C90.3892 101.729 87.5406 102.511 79.326 109.28C74.9786 112.862 71.1197 116.488 71.0825 116.526C70.7512 116.84 70.5608 117.275 70.5608 117.73V117.784C70.5608 118.674 71.2647 119.403 72.1466 119.44C72.453 119.581 73.1692 120.347 73.6951 120.914C75.5376 122.889 78.3034 125.861 83.5865 127.451L107.415 141.983C106.731 143.697 105.763 146.81 105.763 150.718C105.763 155.194 111.605 182.514 112.271 185.615C112.321 185.838 112.412 186.045 112.54 186.223L112.967 188.21C113.099 188.836 113.58 189.324 114.201 189.473C114.329 189.502 114.457 189.519 114.586 189.519C115.078 189.519 115.555 189.299 115.873 188.906L120.192 183.574C120.403 183.313 120.531 182.994 120.556 182.663L120.618 181.88C120.73 181.673 120.8 181.441 120.817 181.197C121.757 166.939 123.409 143.684 123.86 141.726C125.123 138.066 125.28 131.484 120.614 128.027C119.765 127.228 115.894 123.903 109.779 118.666C105.212 114.754 99.5478 109.901 98.877 109.251C98.7487 109.049 98.521 108.423 98.3553 107.96C97.5687 105.782 96.1071 101.733 91.8218 101.733L91.8135 101.729Z" fill="#51703C"/>
<path d="M130.675 198.101C130 198.101 129.346 198.089 128.729 198.064C126.866 197.99 125.131 197.865 123.603 197.754C121.653 197.613 119.968 197.493 118.436 197.493C117.372 197.493 116.47 197.555 115.67 197.679C115.07 197.77 114.445 197.82 113.803 197.82C111.563 197.82 109.369 197.249 108.209 196.363C107.39 195.737 106.868 194.698 106.872 193.717C106.872 193.013 106.897 192.16 106.938 191.192C107.063 188.174 110.926 178.453 111.091 178.039C111.22 177.72 111.526 177.517 111.861 177.517C111.899 177.517 111.94 177.517 111.981 177.525C112.797 177.641 113.476 178.18 114.196 178.751C114.921 179.326 115.67 179.918 116.585 180.117C116.681 180.138 116.772 180.15 116.871 180.15C117.554 180.15 118.229 179.591 118.772 179.14C119.285 178.714 119.728 178.345 120.279 178.345C120.556 178.345 120.813 178.44 121.024 178.622C121.508 179.045 121.475 179.736 121.426 180.883C121.392 181.641 121.351 182.58 121.496 183.28C121.666 184.1 122.73 185.06 124.407 185.913C125.516 186.476 127.098 186.89 129.102 187.412C131.296 187.983 134.025 188.695 137.18 189.892C141.643 191.585 141.3 194.661 141.088 195.559C140.596 197.658 135.151 198.101 130.675 198.101Z" fill="#FFF9EC"/>
<path d="M111.861 178.345C113.157 178.531 114.374 180.485 116.407 180.928C116.565 180.961 116.718 180.978 116.867 180.978C118.469 180.978 119.629 179.173 120.275 179.173C120.349 179.173 120.415 179.198 120.473 179.247C120.842 179.566 120.349 181.864 120.68 183.45C120.974 184.857 122.746 186 124.03 186.65C126.506 187.904 130.886 188.389 136.886 190.666C140.62 192.082 140.496 194.462 140.285 195.373C139.95 196.81 134.741 197.277 130.679 197.277C130 197.277 129.354 197.265 128.767 197.24C124.61 197.075 121.256 196.669 118.44 196.669C117.409 196.669 116.449 196.723 115.546 196.863C114.967 196.954 114.383 196.996 113.807 196.996C111.662 196.996 109.659 196.429 108.719 195.708C108.156 195.278 107.7 194.508 107.704 193.725C107.704 193.15 107.725 192.338 107.771 191.229C107.891 188.314 111.865 178.349 111.865 178.349M111.857 176.689C111.186 176.689 110.574 177.095 110.321 177.732C109.903 178.78 106.239 188.053 106.11 191.158C106.069 192.144 106.048 193.005 106.044 193.713C106.04 194.963 106.677 196.23 107.708 197.017C109 198.006 111.393 198.644 113.803 198.644C114.482 198.644 115.153 198.594 115.795 198.495C116.552 198.379 117.414 198.321 118.436 198.321C119.939 198.321 121.612 198.441 123.545 198.577C125.082 198.689 126.821 198.813 128.696 198.888C129.321 198.913 129.988 198.925 130.675 198.925C132.075 198.925 134.778 198.867 137.138 198.49C139.126 198.172 141.465 197.571 141.896 195.746C142.413 193.547 141.523 190.649 137.474 189.113C134.277 187.9 131.524 187.18 129.309 186.604C127.355 186.095 125.81 185.694 124.779 185.168C122.974 184.253 122.374 183.441 122.303 183.106C122.179 182.506 122.216 181.624 122.25 180.916C122.303 179.666 122.349 178.676 121.562 177.993C121.206 177.683 120.747 177.509 120.275 177.509C119.426 177.509 118.821 178.01 118.237 178.494C117.819 178.838 117.252 179.314 116.867 179.314C116.83 179.314 116.797 179.314 116.759 179.301C116.031 179.144 115.389 178.631 114.706 178.092C113.931 177.48 113.128 176.846 112.093 176.697C112.014 176.685 111.936 176.681 111.857 176.681V176.689Z" fill="#51703C"/>
<path d="M42.518 111.603C42.4517 111.603 42.3813 111.595 42.3151 111.578L40.7542 111.181C40.4519 111.102 40.2159 110.862 40.1497 110.556C40.0834 110.249 40.1952 109.931 40.4395 109.736L42.5387 108.047C42.6877 107.927 42.874 107.865 43.0562 107.865C43.2136 107.865 43.3667 107.91 43.5034 107.997C43.8015 108.192 43.9464 108.552 43.8553 108.9L43.3171 110.982C43.2218 111.355 42.8865 111.603 42.5138 111.603H42.518Z" fill="#FFB689"/>
<path d="M43.0521 108.693L42.5138 110.775L40.9529 110.382L43.0521 108.693ZM43.0521 107.037C43.0521 107.037 43.0355 107.037 43.0272 107.037C42.638 107.041 42.2819 107.182 42.0045 107.409L39.9178 109.09C39.4292 109.484 39.2056 110.121 39.3381 110.734C39.4706 111.347 39.9426 111.831 40.5513 111.984L42.1122 112.378C42.2488 112.411 42.3855 112.427 42.518 112.427C43.2549 112.427 43.9298 111.93 44.1203 111.185L44.642 109.165C44.6875 109.012 44.7124 108.854 44.7124 108.689C44.7124 107.774 43.9754 107.037 43.0603 107.033H43.0521V107.037Z" fill="#51703C"/>
<path d="M17.162 186.091C17.1247 186.091 17.0833 186.091 17.0461 186.082C16.7687 186.041 16.5285 185.867 16.4126 185.61L14.1064 180.638C14.0153 180.444 14.007 180.224 14.0732 180.021C14.094 179.959 16.2056 173.766 18.7188 166.943C18.7188 166.939 18.7188 166.935 18.7229 166.931C22.4741 156.75 25.0991 150.611 26.5193 148.677C28.7013 145.713 30.0966 144.512 31.5706 143.245C32.2662 142.649 32.9783 142.037 33.8147 141.2L41.7105 110.572C41.8057 110.2 42.1411 109.951 42.5137 109.951C42.5799 109.951 42.6503 109.959 42.7166 109.976L64.139 115.395C64.3709 115.453 64.5655 115.606 64.6731 115.822C64.7808 116.033 64.7932 116.281 64.7063 116.505C64.2508 117.664 53.4775 144.98 49.3371 149.861C49.3247 149.878 49.3081 149.894 49.2957 149.907C47.6644 151.563 41.4579 158.58 31.3553 170.201L31.2311 170.342C24.801 177.736 19.0707 184.373 19.0169 184.439C18.9672 184.497 18.9051 184.551 18.843 184.592L17.7831 185.809C17.6257 185.991 17.3939 186.095 17.1578 186.095L17.162 186.091Z" fill="#FFB689"/>
<path d="M42.5179 110.775L63.9404 116.199C63.9404 116.199 52.811 144.492 48.712 149.323C46.6749 151.389 38.2078 161.064 30.7343 169.655L30.6101 169.796C24.1055 177.277 18.3918 183.897 18.3918 183.897L18.3711 183.876L17.1621 185.267L14.8559 180.291C14.8559 180.291 16.9592 174.118 19.5014 167.221C22.2506 159.756 25.5133 151.443 27.1901 149.17C30.4114 144.794 31.8357 144.396 34.5642 141.627L42.5138 110.779M42.5138 109.119C41.7768 109.119 41.1019 109.616 40.9114 110.361L33.0737 140.77C32.3284 141.503 31.6701 142.07 31.0366 142.616C29.5253 143.916 28.0969 145.142 25.8569 148.185C25.3104 148.93 23.6418 151.194 17.9488 166.645C15.4273 173.484 13.3115 179.694 13.2908 179.757C13.1542 180.158 13.1749 180.601 13.3571 180.986L15.6633 185.963C15.8993 186.472 16.3754 186.828 16.9344 186.906C17.013 186.919 17.0917 186.923 17.1662 186.923C17.6424 186.923 18.0978 186.716 18.4166 186.352L19.4103 185.205C19.4973 185.139 19.5759 185.06 19.6505 184.977C19.7084 184.911 25.4388 178.274 31.8647 170.88L31.9889 170.74C42.0832 159.131 48.2731 152.13 49.8961 150.482C49.9251 150.453 49.9541 150.42 49.9789 150.391C54.2063 145.407 65.0252 117.966 65.4848 116.803C65.6587 116.36 65.6338 115.863 65.4185 115.441C65.2032 115.019 64.814 114.708 64.3503 114.592L42.9278 109.169C42.7912 109.136 42.6546 109.119 42.5221 109.119H42.5138Z" fill="#51703C"/>
<path d="M122.916 42.7294C118.875 42.7294 118.234 34.3251 118.171 33.3646C118.147 32.9796 118.391 32.6277 118.763 32.52C119.455 32.313 135.739 27.465 138.418 26.7323C140.07 26.281 146.931 25.0307 152.446 24.0247C155.481 23.4699 158.366 22.9441 159.41 22.7288C160.089 21.5531 162.515 17.827 166.651 16.6719C167.691 16.3821 169.405 16.2124 171.355 16.2124C173.893 16.2124 178.257 16.4484 178.969 18.0423C179.222 18.6136 179.242 19.156 179.027 19.6569C178.534 20.8037 176.99 21.3543 174.651 22.1823C174.257 22.3231 173.847 22.468 173.417 22.6253C171.699 23.2546 169.955 24.1778 168.643 24.9396C169.897 25.0017 172.187 25.1839 173.21 25.6848C173.947 26.045 174.497 26.6867 174.717 27.4361C174.883 28.0074 174.837 28.5704 174.584 28.9886C174.208 29.6096 173.322 29.6593 171.384 29.7752C170.535 29.8249 169.57 29.8787 168.73 29.9988C168.324 30.0526 167.918 30.0816 167.517 30.0816C166.912 30.0816 166.312 30.0153 165.741 29.887C164.482 29.6054 162.809 29.237 161.935 29.0755C160.404 29.1873 148.243 34.6936 143.647 36.7719C141.705 37.6496 140.426 38.2292 140.024 38.3906C138.364 39.053 126.8 42.4644 123.123 42.717C123.057 42.7211 122.991 42.7252 122.929 42.7252L122.916 42.7294Z" fill="#FFB689"/>
<path d="M171.351 17.0361C174.452 17.0361 177.806 17.475 178.207 18.3775C178.936 20.0128 176.617 20.5676 173.123 21.8469C171.073 22.5962 168.991 23.7513 167.624 24.571C167.157 24.8525 166.184 25.6971 167.79 25.7344C169.512 25.7716 171.951 25.9952 172.833 26.4299C173.876 26.9433 174.162 28.0652 173.86 28.562C173.607 28.976 170.796 28.8767 168.597 29.1789C168.233 29.2286 167.865 29.2575 167.5 29.2575C166.966 29.2575 166.432 29.1996 165.906 29.0837C164.643 28.798 162.9 28.413 162.018 28.2557C161.998 28.2557 161.973 28.2515 161.944 28.2515C159.998 28.2515 141.325 36.9787 139.701 37.6287C138.054 38.287 126.556 41.657 123.053 41.8971C123.007 41.8971 122.958 41.9012 122.912 41.9012C119.529 41.9012 118.995 33.3148 118.995 33.3148C118.995 33.3148 135.93 28.2722 138.629 27.5353C141.329 26.7984 158.565 23.8175 159.948 23.4532C159.948 23.4532 162.337 18.7377 166.867 17.4667C167.877 17.1852 169.57 17.0403 171.347 17.0403M171.351 15.3801C170.162 15.3801 167.939 15.4422 166.424 15.8686C162.341 17.0113 159.82 20.4682 158.884 21.9835C157.638 22.2319 154.93 22.7246 152.297 23.2048C146.475 24.2647 139.88 25.4694 138.194 25.929C135.507 26.6617 119.215 31.5139 118.523 31.7209C117.786 31.9403 117.294 32.64 117.343 33.41C117.451 35.1033 118.217 43.549 122.916 43.549C122.999 43.549 123.082 43.549 123.169 43.5407C126.912 43.284 138.642 39.8312 140.323 39.1564C140.724 38.9949 141.85 38.4857 143.974 37.5252C148.363 35.538 159.886 30.3215 161.919 29.9117C162.631 30.0483 163.906 30.3174 165.546 30.69C166.179 30.8308 166.838 30.9053 167.504 30.9053C167.939 30.9053 168.386 30.8763 168.829 30.8142C169.641 30.7024 170.585 30.6486 171.417 30.5989C173.587 30.4706 174.675 30.4085 175.28 29.4149C175.653 28.798 175.731 27.9907 175.499 27.1999C175.214 26.227 174.51 25.4032 173.562 24.9395C173.032 24.6787 172.257 24.4965 171.438 24.3682C172.166 24.0121 172.932 23.6768 173.69 23.3994C174.121 23.2421 174.531 23.0972 174.92 22.9564C177.466 22.0539 179.147 21.4536 179.781 19.9756C179.992 19.4788 180.153 18.6797 179.714 17.6985C179.458 17.1231 178.679 15.376 171.347 15.376L171.351 15.3801Z" fill="#51703C"/>
<path d="M60.3754 137.553C60.3175 137.553 60.2636 137.549 60.2057 137.537L34.088 132.068C33.8644 132.022 33.6698 131.881 33.5497 131.687C33.4297 131.492 33.3965 131.256 33.4586 131.033C40.0129 107.488 46.6169 93.4369 46.6831 93.2962C46.8197 93.0064 47.1137 92.8242 47.4325 92.8242C47.4491 92.8242 47.4698 92.8242 47.4863 92.8242L80.9077 95.0102C80.9367 95.0102 80.9657 95.0143 80.9947 95.0226C81.1934 95.0557 86.166 96.1031 109.464 115.549C109.65 115.702 109.758 115.93 109.762 116.17C109.766 116.41 109.667 116.642 109.485 116.803L89.7806 134.444C89.6233 134.585 89.4245 134.655 89.2299 134.655C89.0602 134.655 88.8863 134.601 88.7414 134.494L68.826 119.855L61.1331 137.065C60.9965 137.367 60.6984 137.553 60.3796 137.553H60.3754Z" fill="#FFF9EC"/>
<path d="M47.4283 93.6521L80.8497 95.8381C80.8497 95.8381 85.5325 96.6578 108.93 116.182L89.2257 133.823L68.4864 118.579L60.3754 136.725L34.2577 131.256C40.8658 107.509 47.4325 93.6521 47.4325 93.6521M47.4283 91.9961C46.7907 91.9961 46.2069 92.3604 45.9336 92.9442C45.8674 93.0849 39.2345 107.202 32.6595 130.813C32.5353 131.256 32.6015 131.728 32.8417 132.117C33.0818 132.506 33.471 132.784 33.9182 132.879L60.0359 138.348C60.1476 138.373 60.2636 138.385 60.3754 138.385C61.0171 138.385 61.6175 138.009 61.8866 137.404L69.1613 121.134L88.2486 135.164C88.5425 135.38 88.8862 135.487 89.2298 135.487C89.6273 135.487 90.0207 135.347 90.3353 135.065L110.04 117.424C110.4 117.105 110.598 116.642 110.59 116.162C110.582 115.681 110.367 115.226 109.994 114.92C87.3998 96.0657 81.9924 94.3642 81.1395 94.2152C81.0815 94.2069 81.0194 94.1986 80.9615 94.1945L47.5401 92.0085C47.5028 92.0085 47.4656 92.0085 47.4325 92.0085L47.4283 91.9961Z" fill="#51703C"/>
<path d="M63.7912 45.9213C63.5303 45.9213 63.2819 45.7971 63.1246 45.5859C62.9424 45.3417 62.9093 45.0146 63.0418 44.7413C63.079 44.6627 66.7681 36.8173 67.2443 33.9648C67.472 32.5903 66.7309 31.2241 65.8655 29.6385C64.8428 27.763 63.6877 25.635 63.6877 22.8033C63.6877 19.7272 65.0706 17.7855 66.1843 16.2289C67.0497 15.0158 67.7287 14.0595 67.7287 12.8464C67.7287 12.4987 67.7246 12.1468 67.7163 11.7866C67.6666 8.67328 67.6004 4.79819 71.3971 2.29761C72.8711 1.3247 74.3492 0.832031 75.7777 0.832031C79.4916 0.832031 81.6984 4.06955 82.2243 4.93896L82.6425 5.1915C82.924 5.36124 83.0772 5.68002 83.0358 6.00709C81.214 19.9218 78.4979 40.978 78.4689 41.9758C78.4689 42.8245 78.1004 43.4165 70.8671 44.7621C67.4265 45.3996 63.9444 45.913 63.9113 45.9171C63.8699 45.9213 63.8326 45.9254 63.7912 45.9254V45.9213Z" fill="#DE8459"/>
<path d="M75.7819 1.65602C79.5331 1.65602 81.6157 5.5311 81.6157 5.5311L82.2161 5.89542C82.2161 5.89542 77.6409 40.8581 77.6409 41.9635C77.6409 43.0689 63.7913 45.0892 63.7913 45.0892C63.7913 45.0892 67.5632 37.0948 68.06 34.0974C68.6314 30.6777 64.5159 27.8791 64.5159 22.7992C64.5159 17.7194 68.5569 16.1545 68.5569 12.8383C68.5569 9.5221 68.0311 5.49384 71.8526 2.97669C73.3101 2.0162 74.6267 1.64774 75.7778 1.64774M75.7819 0C74.1837 0 72.5565 0.538206 70.9418 1.6022C66.7682 4.35119 66.8386 8.65683 66.8883 11.7991C66.8924 12.1552 66.9007 12.5029 66.9007 12.8466C66.9007 13.7491 66.3708 14.5398 65.5096 15.7487C64.3295 17.4047 62.8597 19.4665 62.8597 22.8034C62.8597 25.8463 64.1225 28.1689 65.1369 30.0319C65.9567 31.543 66.6068 32.7312 66.4246 33.8242C66.0478 36.097 63.311 42.216 62.2925 44.3813C62.0316 44.9319 62.0979 45.5819 62.4581 46.0746C62.7727 46.501 63.2696 46.7453 63.7871 46.7453C63.8658 46.7453 63.9486 46.7411 64.0273 46.7287C64.0604 46.7245 67.5632 46.2112 71.0163 45.5695C73.0658 45.1886 74.7095 44.8367 75.902 44.5179C77.4049 44.1205 79.2723 43.6237 79.2971 41.9925C79.3716 40.6594 82.0629 19.8267 83.8598 6.11071C83.9468 5.46072 83.6362 4.81901 83.0773 4.47953L82.8247 4.32635C82.0753 3.15885 79.6863 0 75.7819 0Z" fill="#51703C"/>
<path d="M82.7583 26.1814C78.5393 26.1814 74.1877 25.4403 72.5108 25.1257H72.5026C71.927 25.0967 71.6993 24.5543 71.6124 24.3473C71.07 23.0556 68.3829 12.8546 72.9207 8.25083C75.4008 5.72954 78.8788 4.28467 82.4561 4.28467C85.1515 4.28467 87.7061 5.10854 89.6438 6.60309C94.3929 10.267 95.5191 17.4831 92.2068 23.0267C90.9563 25.1174 87.7765 26.1772 82.7542 26.1772L82.7583 26.1814Z" fill="#DE8459"/>
<path d="M82.4604 5.10865C84.928 5.10865 87.3088 5.84144 89.143 7.25734C93.685 10.7598 94.4717 17.6281 91.4989 22.6045C90.2236 24.7449 86.5387 25.3535 82.7585 25.3535C77.7983 25.3535 72.6724 24.306 72.5648 24.2936C72.5648 24.2936 72.5648 24.2936 72.5606 24.2936C72.5606 24.2936 72.5565 24.2936 72.5524 24.2936C72.1507 24.2936 69.1531 13.2521 73.5171 8.82641C75.993 6.31341 79.2971 5.10865 82.4645 5.10865M82.4604 3.45264C78.6636 3.45264 74.9704 4.98859 72.3329 7.6672C67.8075 12.2585 69.8859 22.3561 70.8465 24.6579C71.2523 25.6309 71.8899 25.9041 72.3992 25.9455C74.1257 26.2726 78.5063 27.0095 82.7585 27.0095C88.1658 27.0095 91.4906 25.8461 92.919 23.4532C96.4425 17.5536 95.2252 9.86143 90.1532 5.94908C88.0706 4.34275 85.3379 3.45678 82.4604 3.45678V3.45264Z" fill="#51703C"/>
<path d="M66.1431 97.4856C60.9717 97.4856 53.2498 96.877 45.8468 93.9707C45.5114 93.8382 45.2547 93.565 45.1181 93.2006C44.261 90.8739 49.4614 80.5776 51.7759 76.1933L36.5392 72.8647C36.2866 72.8109 36.0713 72.637 35.9636 72.4011C35.856 72.1651 35.8643 71.8918 35.9885 71.66C41.6236 61.2436 52.5584 47.7388 57.3157 43.3752C64.0273 37.2231 75.1898 36.776 75.6619 36.7594L87.7808 35.8817L124.345 30.5659C124.386 30.5618 124.423 30.5576 124.465 30.5576C124.655 30.5576 124.842 30.6239 124.991 30.7481C125.173 30.8971 125.28 31.1124 125.293 31.3484L126.158 49.5811C126.179 50.0034 125.873 50.376 125.454 50.4381L100.794 54.16C100.666 59.8236 97.0885 66.4311 95.13 70.0495C94.9065 70.4635 94.7077 70.832 94.538 71.1549C92.9108 74.2434 81.6654 92.5341 80.4399 94.5296C80.2825 95.2044 79.4379 95.9579 75.9475 96.6452C73.2066 97.1834 69.7286 97.4815 66.1472 97.4815L66.1431 97.4856Z" fill="#FFF9EC"/>
<path d="M124.465 31.3899L125.33 49.6227L99.9618 53.4522C100.169 59.6747 95.4943 67.5615 93.8009 70.7742C92.1075 73.9868 79.6366 94.2523 79.6366 94.2523C79.6366 95.2708 73.8565 96.6618 66.143 96.6618C60.0524 96.6618 52.757 95.7966 46.149 93.2049C44.0456 92.381 53.022 75.6221 53.022 75.6221L36.7171 72.0617C42.4184 61.5253 53.2911 48.1985 57.8787 43.9922C64.4413 37.9767 75.6907 37.5917 75.6907 37.5917L87.8718 36.7099L124.465 31.3899ZM124.465 29.7339C124.386 29.7339 124.307 29.738 124.225 29.7504L87.6896 35.0621L75.5997 35.9398C74.7633 35.9729 63.5759 36.5236 56.7567 42.7709C51.9538 47.1718 40.932 60.7842 35.2597 71.271C35.0113 71.7305 34.9947 72.277 35.21 72.749C35.4253 73.2209 35.8518 73.5645 36.361 73.6763L50.5461 76.7731C49.7801 78.2594 48.6829 80.4287 47.6312 82.6768C43.8717 90.6919 43.9628 92.4597 44.3396 93.4906C44.5549 94.0785 44.9814 94.5256 45.5403 94.745C53.0634 97.6969 60.8971 98.3179 66.1388 98.3179C69.77 98.3179 73.3059 98.0156 76.0965 97.465C79.2722 96.8399 80.8248 96.0615 81.1975 94.8651C82.7087 92.4059 93.6435 74.612 95.2583 71.5483C95.4281 71.2254 95.6268 70.8611 95.8462 70.4512C97.7591 66.9156 101.192 60.5772 101.577 54.8847L125.562 51.2663C126.402 51.1379 127.011 50.3969 126.97 49.5523L126.104 31.3195C126.084 30.8517 125.864 30.417 125.504 30.1189C125.206 29.8746 124.833 29.7422 124.452 29.7422L124.465 29.7339Z" fill="#51703C"/>
<path d="M81.9799 47.4906C75.289 47.4906 73.9227 37.8857 73.8647 37.4759C73.8564 37.4262 73.8564 37.3724 73.8564 37.3227L74.3699 27.4073V27.3783C74.3699 27.1051 74.5065 26.8484 74.7301 26.6952C74.8708 26.6 75.0323 26.5503 75.1979 26.5503C75.2973 26.5503 75.4008 26.5669 75.496 26.6083L85.8305 30.62C86.0955 30.7235 86.2901 30.9553 86.3439 31.2368L88.0829 40.3532C88.0829 40.3532 88.0912 40.3905 88.0912 40.407C88.1077 40.5354 88.4555 43.5824 86.613 45.6607C85.5407 46.8738 83.9797 47.4906 81.9758 47.4906H81.9799Z" fill="#FFB689"/>
<path d="M75.2021 27.3782L85.5366 31.3899L87.2756 40.5063C87.2756 40.5063 88.025 46.6584 81.9841 46.6584C75.9433 46.6584 74.6929 37.3598 74.6929 37.3598L75.2063 27.4237V27.374M75.2021 25.7222C74.8709 25.7222 74.5479 25.8215 74.2664 26.012C73.8151 26.3225 73.546 26.8317 73.546 27.3782L73.0326 37.277C73.0284 37.3805 73.0326 37.4799 73.045 37.5834C73.1029 38.0222 74.5728 48.3185 81.98 48.3185C84.2282 48.3185 86.0003 47.6106 87.2383 46.2113C89.2878 43.897 88.9607 40.6677 88.9193 40.3075C88.9152 40.2703 88.911 40.233 88.9027 40.1999L87.1638 31.0835C87.0561 30.5246 86.6669 30.0568 86.1369 29.8498L75.8025 25.8381C75.6079 25.7636 75.405 25.7263 75.2021 25.7263V25.7222Z" fill="#51703C"/>
<path d="M83.9177 37.2974C80.9283 37.2974 74.962 34.2545 73.4673 28.1893C72.987 27.8043 71.9022 26.8852 71.2688 26.0117C70.3123 24.6868 69.89 22.9356 70.2171 21.6563C70.4075 20.9194 70.8216 20.3812 71.4261 20.0955C71.6869 19.9713 71.9726 19.9092 72.2749 19.9092C72.8835 19.9092 73.4839 20.1783 73.9849 20.5054C74.3078 18.3194 75.169 14.4444 77.3344 12.5813C78.6925 11.4139 80.7586 10.7432 83.0068 10.7432C86.2487 10.7432 89.0891 12.1011 90.414 14.2829C92.9148 18.394 92.8858 22.2235 92.4842 25.7467C91.9501 30.4125 87.3459 37.2974 83.9177 37.2974Z" fill="#FFB689"/>
<path d="M83.0068 11.5713C85.6732 11.5713 88.4224 12.598 89.706 14.7136C91.9376 18.3817 92.095 21.8386 91.6602 25.6557C91.122 30.3671 86.6172 36.4737 83.9135 36.4737C81.4334 36.4737 75.5375 33.7992 74.2043 27.7257C74.2043 27.7257 72.6848 26.5665 71.9395 25.5357C70.7388 23.8714 70.5276 21.4453 71.778 20.8533C71.9353 20.7787 72.101 20.7456 72.2707 20.7456C73.3804 20.7456 74.6266 22.145 74.6266 22.145C74.6266 22.145 75.0531 15.6368 77.8727 13.2149C79.1314 12.1302 81.0484 11.5754 83.0068 11.5754M83.0068 9.91527C80.564 9.91527 78.2992 10.6563 76.792 11.9522C74.755 13.7034 73.7944 16.9244 73.3431 19.2676C73.0036 19.1517 72.6434 19.0813 72.2707 19.0813C71.8484 19.0813 71.4426 19.1724 71.07 19.3504C70.2502 19.7396 69.6623 20.4889 69.4138 21.4536C69.0205 22.9813 69.4884 24.9643 70.598 26.5003C71.2066 27.3407 72.1589 28.1853 72.7303 28.6614C74.5024 35.2606 80.92 38.1255 83.9135 38.1255C87.8759 38.1255 92.7202 30.9798 93.304 25.842C93.7222 22.1698 93.747 18.1747 91.1179 13.8525C89.6439 11.4222 86.5344 9.91113 83.0027 9.91113L83.0068 9.91527Z" fill="#51703C"/>
<path d="M69.538 112.522C69.538 112.522 66.3416 123.58 60.3752 136.725L69.538 112.522Z" fill="#FFF9EC"/>
<path d="M60.3753 137.553C60.2594 137.553 60.1435 137.528 60.0317 137.478C59.6135 137.288 59.4313 136.799 59.6176 136.381C65.4887 123.439 68.7058 112.402 68.7389 112.29C68.8673 111.851 69.3269 111.599 69.7658 111.723C70.2046 111.851 70.4572 112.311 70.333 112.75C70.2999 112.862 67.0497 124.015 61.1289 137.064C60.9922 137.371 60.69 137.549 60.3753 137.549V137.553Z" fill="#51703C"/>
<path d="M12.1977 207.168C8.09869 207.114 2.38079 205.644 1.4492 204.65C1.18007 204.365 1.01446 203.926 0.910946 203.235C0.583853 201.073 1.23804 198.842 2.70374 197.111C6.53776 192.586 8.11939 190.405 8.33055 189.887C8.34712 189.581 8.43406 188.968 8.83154 187.378C9.48573 184.762 10.9514 182.46 12.9595 180.895C14.1023 180.001 15.1871 179.52 16.1808 179.467C16.2346 179.467 16.2926 179.462 16.3464 179.462C17.9984 179.462 19.5593 180.783 20.8594 183.288C21.4267 184.377 21.5426 185.635 21.1824 186.832L19.8285 191.353C20.2135 192.644 22.0519 198.838 22.4328 199.964C22.6232 200.527 22.6853 201.301 22.615 202.262C22.5363 203.317 21.9525 204.294 21.0499 204.878C18.8637 206.294 15.5556 207.172 12.4213 207.172H12.2018L12.1977 207.168Z" fill="#FFF9EC"/>
<path d="M16.3422 180.291C18.048 180.291 19.3688 182.228 20.1182 183.669C20.5861 184.571 20.6772 185.619 20.3832 186.596L18.9589 191.353C18.9589 191.353 21.2072 198.946 21.646 200.229C21.8282 200.763 21.8365 201.508 21.7868 202.2C21.7288 203.011 21.2817 203.74 20.5985 204.183C18.6111 205.47 15.481 206.344 12.4212 206.344C12.3508 206.344 12.2804 206.344 12.2101 206.344C7.92888 206.286 2.66642 204.742 2.05364 204.088C1.90045 203.922 1.79694 203.562 1.73069 203.115C1.43672 201.152 2.05364 199.165 3.33717 197.65C5.54814 195.042 9.13374 190.707 9.15444 189.995C9.16686 189.56 9.3863 188.575 9.63473 187.581C10.2268 185.209 11.5393 183.052 13.4687 181.549C14.3382 180.87 15.2947 180.348 16.2221 180.299C16.2635 180.299 16.3049 180.299 16.3422 180.299M16.3422 178.635C16.2718 178.635 16.2014 178.635 16.131 178.639C14.9676 178.701 13.7254 179.239 12.4461 180.241C10.2972 181.922 8.72798 184.385 8.02825 187.175C7.68045 188.566 7.56038 189.254 7.51898 189.655C7.30782 190.036 6.33068 191.556 2.07434 196.577C0.455445 198.49 -0.269126 200.962 0.0910897 203.359C0.223583 204.228 0.455445 204.804 0.844644 205.218C1.4243 205.835 2.93969 206.447 5.35769 207.044C6.73644 207.383 9.45669 207.958 12.1852 207.996C12.2639 207.996 12.3384 207.996 12.4171 207.996C15.7046 207.996 19.1825 207.064 21.497 205.57C22.6149 204.845 23.3395 203.628 23.4388 202.32C23.5175 201.231 23.4471 200.374 23.2153 199.695C22.8592 198.639 21.1865 193.029 20.6896 191.353L21.9731 187.068C22.3913 185.664 22.2588 184.186 21.5922 182.903C20.1389 180.108 18.3254 178.63 16.3463 178.63L16.3422 178.635Z" fill="#51703C"/>
<path d="M69.124 100.864C65.0954 100.864 59.8371 98.769 58.5204 98.1728C57.5888 98.3095 56.7607 98.3716 55.9409 98.3716C54.8437 98.3716 53.7424 98.2556 52.376 97.999C47.1219 97.3573 40.1701 95.8958 36.8205 92.5921L36.5887 92.3685C35.5039 91.3169 34.2742 90.1287 34.4605 86.8208C34.6468 83.5792 39.5118 74.3469 40.0666 73.3036C40.2115 73.0262 40.4972 72.8647 40.7995 72.8647C40.8699 72.8647 40.9402 72.873 41.0106 72.8937L51.9123 75.7752C52.1607 75.8414 52.3636 76.0195 52.463 76.2554C52.5624 76.4914 52.5458 76.7647 52.4174 76.9882L47.5152 85.5374C49.2914 86.7919 55.059 89.6899 58.5949 90.3771C58.9883 90.4268 59.3361 90.4641 59.5555 90.4889C60.6734 89.8886 62.2261 89.2759 65.4473 88.7832C65.8158 88.7253 66.2091 88.6963 66.619 88.6963C69.1488 88.6963 72.0098 89.7934 72.9911 91.143C73.4673 91.7972 73.4259 92.3644 73.3099 92.7287C73.2727 92.8446 73.223 92.9564 73.1567 93.0557C74.1422 93.0557 75.0241 93.0226 75.7983 92.9936C76.4028 92.9729 76.9204 92.9522 77.3758 92.9522C78.2867 92.9522 79.2142 93.0061 79.6406 93.6726C80.1002 94.393 80.1706 95.1796 79.8476 95.9496C78.8043 98.4295 73.7364 100.102 70.9085 100.694C70.3785 100.806 69.7823 100.864 69.1281 100.864H69.124Z" fill="#FFB689"/>
<path d="M40.7995 73.6926L51.7011 76.5741L46.4553 85.7236C47.5069 86.8704 54.5622 90.4391 58.4666 91.1926C59.1704 91.2796 59.7294 91.3334 59.7294 91.3334C60.9342 90.6544 62.4289 90.0748 65.5756 89.5946C65.9152 89.5449 66.263 89.52 66.619 89.52C69.5794 89.52 72.9373 91.1802 72.5191 92.4677C72.3825 92.8983 71.7573 93.0391 70.9789 93.0391C69.7119 93.0391 68.035 92.6665 67.3684 92.5588C67.1531 92.5257 66.8799 92.447 66.648 92.447C66.47 92.447 66.3126 92.4884 66.2174 92.6292C66.1015 92.799 66.0352 93.3579 69.4138 93.6973C70.7636 93.834 72.0181 93.8754 73.1402 93.8754C74.9081 93.8754 76.3573 93.7719 77.3717 93.7719C78.2204 93.7719 78.767 93.8422 78.9367 94.1072C80.5142 96.5788 75.0033 98.9759 70.7304 99.8784C70.2377 99.9819 69.6954 100.027 69.1198 100.027C64.9836 100.027 59.2408 97.6387 58.6446 97.3075C57.6592 97.4606 56.7856 97.5352 55.9368 97.5352C54.823 97.5352 53.7506 97.4068 52.5002 97.1708C47.4282 96.554 40.6007 95.1505 37.396 91.9958C36.2864 90.9028 35.1023 90.0127 35.2844 86.858C35.4625 83.7033 40.7953 73.6802 40.7953 73.6802M40.7995 72.0366C40.1991 72.0366 39.6319 72.3637 39.3379 72.9143C38.4187 74.6407 33.827 83.4259 33.6366 86.7752C33.4254 90.4598 34.8621 91.8509 36.0132 92.9646C36.0877 93.0391 36.1622 93.1095 36.2409 93.184C39.0646 95.9661 44.4513 97.8622 52.2518 98.8186C53.6596 99.0835 54.7982 99.1995 55.9451 99.1995C56.74 99.1995 57.5308 99.1415 58.4086 99.0256C60.1103 99.7666 65.1202 101.692 69.1281 101.692C69.8403 101.692 70.4944 101.63 71.0782 101.505C72.4239 101.224 79.1976 99.6424 80.6136 96.2683C81.0401 95.2499 80.9448 94.1693 80.3403 93.2254C79.6365 92.1241 78.2246 92.1241 77.3799 92.1241C76.9121 92.1241 76.3821 92.1448 75.7735 92.1655C75.2932 92.1821 74.7756 92.2028 74.2167 92.2152C74.2084 91.6811 74.0221 91.1471 73.666 90.6544C72.3949 88.9114 69.0909 87.8682 66.6273 87.8682C66.1801 87.8682 65.7413 87.9013 65.3314 87.9634C62.1971 88.4436 60.5699 89.0398 59.4023 89.636C59.216 89.6152 58.9841 89.5904 58.7357 89.5573C55.7008 88.957 50.7696 86.5847 48.629 85.2765L53.1461 77.398C53.4029 76.9509 53.436 76.4126 53.2372 75.9365C53.0385 75.4604 52.6286 75.1044 52.1318 74.9761L41.2301 72.0946C41.0893 72.0573 40.9485 72.0408 40.8077 72.0408L40.7995 72.0366Z" fill="#51703C"/>
<path d="M63.249 62.7427L54.579 76.6491L36.502 72.6788" fill="#FFF9EC"/>
<path d="M54.5789 77.4769C54.5209 77.4769 54.4588 77.4727 54.4009 77.4562L36.3239 73.49C35.8767 73.3907 35.5951 72.9518 35.6945 72.5047C35.7939 72.0576 36.2328 71.776 36.6799 71.8754L54.1856 75.7174L62.5492 62.3078C62.7893 61.9186 63.3027 61.8027 63.6919 62.0428C64.0811 62.2829 64.1971 62.7963 63.9569 63.1855L55.2869 77.0877C55.1337 77.332 54.8646 77.4769 54.583 77.4769H54.5789Z" fill="#51703C"/>
</g>
<defs>
<clipPath id="clip0_254_9389">
<rect width="180" height="208" fill="white"/>
</clipPath>
</defs>
</svg>
