<svg width="196" height="222" viewBox="0 0 196 222" fill="none" xmlns="http://www.w3.org/2000/svg">
<g clip-path="url(#clip0_254_9517)">
<path d="M35.0021 210.989C34.8443 210.989 34.6822 210.946 34.5372 210.852L28.3667 206.852C28.1108 206.685 27.9616 206.395 27.9786 206.087C27.9957 205.78 28.1748 205.507 28.4434 205.37L30.2387 204.461L32.1876 199.222C32.2729 198.893 32.3624 198.556 32.4648 198.219C32.8272 196.976 35.2537 190.572 38.2259 182.985V182.972C42.6097 171.803 46.4903 162.359 48.6183 157.713C50.3198 153.99 53.0618 150.899 56.5543 148.764L71.6332 139.551C71.7697 139.465 71.9232 139.427 72.0767 139.427C72.2601 139.427 72.4477 139.487 72.597 139.606L88.2899 151.762C88.4946 151.919 88.6097 152.159 88.6225 152.406L90.324 156.33C90.4221 156.556 90.4178 156.812 90.3112 157.034C90.2046 157.256 90.0085 157.423 89.7739 157.491L63.6673 164.912C64.4008 169.395 60.0852 177.315 50.823 188.484L35.7057 210.617C35.5394 210.861 35.275 210.989 35.0021 210.989Z" fill="#FFB689"/>
<path d="M72.0768 140.28L87.7697 152.436H87.7058L89.5395 156.667L62.6354 164.314C64.3923 169.224 57.0405 179.65 50.1365 187.967L34.9936 210.135L28.823 206.134L30.9169 205.075L32.9979 199.482C33.0832 199.145 33.177 198.808 33.2751 198.466C33.629 197.262 36.0469 190.862 39.0107 183.305C42.5587 174.253 46.887 163.532 49.3817 158.076C51.0064 154.524 53.6546 151.539 56.9851 149.503L72.064 140.289M72.0768 138.573C71.7697 138.573 71.4627 138.654 71.1898 138.825L56.1109 148.038C52.4734 150.258 49.6162 153.482 47.8465 157.359C45.7143 162.025 41.8209 171.487 37.4371 182.673C34.4051 190.401 32.0299 196.694 31.6503 197.979C31.5608 198.278 31.4755 198.594 31.3774 198.966L29.5608 203.85L28.064 204.61C27.5181 204.887 27.1642 205.434 27.1301 206.044C27.096 206.655 27.3945 207.236 27.9062 207.569L34.0768 211.569C34.3625 211.753 34.6866 211.843 35.0022 211.843C35.548 211.843 36.081 211.582 36.4137 211.1L51.5139 188.996C55.693 183.954 58.9254 179.488 61.1173 175.726C63.5906 171.478 64.742 168.118 64.6013 165.535L90.0128 158.311C90.4862 158.178 90.8785 157.845 91.0874 157.397C91.2964 156.953 91.3049 156.436 91.1088 155.984L89.4584 152.184C89.3945 151.757 89.1727 151.356 88.8145 151.082L73.1216 138.927C72.8145 138.692 72.4478 138.568 72.0768 138.568V138.573Z" fill="#51703C"/>
<path d="M13.8037 221.146C11.3176 221.146 8.91675 220.8 6.66941 220.113C3.76962 219.229 1.93167 218.059 1.20672 216.633C0.788814 215.809 0.737641 214.921 1.05747 213.999C2.72058 208.871 10.5244 207.693 11.5308 207.56C13.4882 206.886 27.1811 202.163 29.1641 201.89C29.4071 201.856 29.6118 201.843 29.7952 201.843C31.3517 201.843 31.6374 202.949 31.9658 204.23C32.1321 204.887 32.341 205.703 32.7376 206.766C32.9892 207.488 33.3474 207.586 33.6971 207.586C34.8528 207.586 36.8869 206.318 38.8869 204.358C39.5479 203.705 40.1449 203.414 40.8144 203.414C41.0148 203.414 41.1897 203.44 41.3432 203.461L41.4669 203.478C41.8933 203.534 42.2131 203.897 42.2131 204.324V205.267C42.2131 205.267 42.2472 206.352 42.3325 208.815C42.5202 211.031 42.8016 215.267 42.9509 217.589C42.9892 218.208 42.7845 218.806 42.3709 219.267C41.9573 219.728 41.3858 220.002 40.7632 220.027L14.9509 221.12C14.5713 221.137 14.1875 221.146 13.808 221.146H13.8037Z" fill="#FFF9EC"/>
<path d="M29.7995 202.701C31.1641 202.701 30.7462 203.85 31.9402 207.069C32.2814 208.051 32.9168 208.444 33.7014 208.444C35.42 208.444 37.8592 206.57 39.4882 204.968C40.0681 204.396 40.4605 204.273 40.8187 204.273C41.0021 204.273 41.1769 204.307 41.3645 204.328V205.272C41.3645 205.272 41.3986 206.352 41.4839 208.85C41.6758 211.117 41.9573 215.399 42.1023 217.649C42.1534 218.456 41.5351 219.148 40.7291 219.178L14.9168 220.271C14.55 220.288 14.179 220.296 13.8123 220.296C11.4797 220.296 9.15557 219.98 6.92529 219.301C3.95301 218.396 0.989259 216.829 1.87199 214.289C3.46687 209.366 11.7355 208.41 11.7355 208.41C11.7355 208.41 27.3006 203.022 29.2878 202.753C29.4839 202.727 29.6545 202.714 29.8038 202.714M29.7995 200.994C29.5777 200.994 29.3347 201.011 29.0532 201.049C27.0362 201.327 14.3027 205.703 11.3347 206.732C9.94448 206.924 2.0383 208.26 0.247255 213.742C-0.140804 214.87 -0.0683098 216.005 0.447682 217.026C1.29203 218.687 3.24512 219.967 6.4221 220.932C8.75045 221.641 11.2366 222.004 13.808 222.004C14.1961 222.004 14.5927 221.995 14.985 221.978L40.7974 220.885C41.6502 220.851 42.4349 220.48 43.002 219.844C43.5735 219.207 43.8549 218.388 43.7995 217.538C43.6502 215.228 43.3731 211.027 43.1812 208.747C43.1044 206.506 43.0703 205.421 43.066 205.246V204.328C43.066 203.47 42.4264 202.744 41.5777 202.633L41.4669 202.616C41.292 202.59 41.0745 202.56 40.8144 202.56C39.9146 202.56 39.1129 202.936 38.2899 203.747C36.2942 205.707 34.469 206.732 33.7014 206.732C33.6844 206.732 33.6673 206.732 33.6545 206.732C33.6332 206.702 33.5948 206.634 33.5479 206.506C33.5479 206.493 33.5394 206.48 33.5351 206.471C33.1556 205.451 32.9509 204.657 32.7888 204.021C32.4605 202.74 32.0127 200.989 29.7952 200.989L29.7995 200.994Z" fill="#51703C"/>
<path d="M177.463 200.601C177.173 200.601 176.896 200.452 176.738 200.196C175.791 198.855 164.209 196.097 149.194 193.633L120.943 189.031C119.911 189.018 113.872 188.758 109.919 184.283C105.923 179.612 103.041 162.769 102.917 162.056C102.874 161.808 102.943 161.556 103.105 161.364C103.267 161.172 103.505 161.061 103.753 161.061L121.523 161.022C121.672 161.022 121.821 161.061 121.949 161.138L123.331 161.936C123.39 161.522 123.749 161.206 124.175 161.206C124.618 161.206 124.989 161.548 125.024 161.992L126.03 174.378C127.373 173.891 128.81 173.652 130.397 173.652C135.881 173.652 143.505 176.474 154.388 182.528C163.646 186.298 178.039 193.04 178.183 193.108C178.503 193.258 178.699 193.591 178.674 193.941C178.495 196.464 178.307 199.316 178.311 199.688C178.341 200.068 178.115 200.426 177.753 200.554C177.659 200.588 177.561 200.606 177.463 200.606V200.601Z" fill="#FFB689"/>
<path d="M121.522 161.868L124.068 163.341L124.171 162.051L125.275 175.616C126.644 174.945 128.269 174.497 130.397 174.497C135.041 174.497 142.073 176.636 154.034 183.301C163.377 187.105 177.821 193.877 177.821 193.877C177.821 193.877 177.42 199.504 177.458 199.752C175.923 197.241 152.661 193.339 149.326 192.792L148.925 192.728L121.006 188.181H120.989C120.61 188.181 114.431 188.113 110.55 183.719C106.67 179.185 103.753 161.915 103.753 161.915L121.518 161.876M121.522 160.16L103.757 160.198C103.254 160.198 102.78 160.42 102.456 160.805C102.132 161.189 101.996 161.697 102.077 162.192C102.384 164.007 105.194 180.065 109.262 184.821C109.267 184.829 109.275 184.834 109.279 184.842C113.42 189.53 119.693 189.859 120.87 189.876L148.657 194.406L149.058 194.47C150.802 194.756 156.985 195.794 163.134 197.075C173.765 199.29 175.74 200.469 176.077 200.742C176.401 201.195 176.921 201.451 177.463 201.451C177.659 201.451 177.855 201.417 178.043 201.348C178.755 201.092 179.203 200.396 179.164 199.653C179.173 199.196 179.352 196.443 179.527 193.988C179.578 193.283 179.19 192.617 178.55 192.318C178.405 192.25 164.038 185.525 154.759 181.743C143.765 175.629 136.026 172.785 130.397 172.785C129.113 172.785 127.923 172.93 126.793 173.229L125.872 161.906C125.8 161.018 125.062 160.335 124.171 160.335C123.74 160.335 123.339 160.497 123.041 160.766L122.375 160.382C122.115 160.232 121.821 160.151 121.522 160.151V160.16Z" fill="#51703C"/>
<path d="M105.079 168.247C104.78 168.247 104.503 168.242 104.26 168.234C103.864 168.217 103.527 167.931 103.454 167.542L101.348 156.471L78.6013 163.072C78.5245 163.093 78.4435 163.106 78.3624 163.106C78.0554 163.106 77.7654 162.94 77.6119 162.662C77.5181 162.491 68.2047 145.405 65.9872 142.369C65.8507 142.185 65.7953 141.955 65.8337 141.728C65.872 141.502 65.9957 141.302 66.1833 141.169L96.3497 119.74L93.7868 116.047C93.629 115.821 93.5906 115.53 93.6844 115.27C93.7782 115.01 93.9914 114.813 94.2558 114.736C94.9595 114.536 111.633 109.848 120.985 109.848C123.667 109.848 125.497 110.232 126.576 111.026C126.814 111.201 126.947 111.491 126.921 111.79L126.55 116.026C130.874 120.756 135.087 136.003 126.537 145.618C126.661 148.133 127.343 162.461 127.228 164.831C127.211 165.181 126.985 165.48 126.657 165.595C122.776 166.936 110.188 168.247 105.079 168.247Z" fill="#FFF9EC"/>
<path d="M120.989 110.697C123.275 110.697 125.092 110.987 126.077 111.713L125.672 116.337C130.021 120.624 134.286 135.99 125.672 145.306C125.672 145.306 126.503 162.261 126.379 164.788C122.537 166.116 110.043 167.393 105.079 167.393C104.793 167.393 104.529 167.388 104.294 167.38L102.013 155.387L78.3666 162.248C78.3666 162.248 68.9594 144.977 66.6822 141.861L97.5393 119.941L94.4946 115.556C94.4946 115.556 111.65 110.697 120.989 110.697ZM120.989 108.989C111.522 108.989 94.7376 113.711 94.0298 113.912C93.501 114.061 93.0745 114.459 92.8869 114.979C92.6993 115.5 92.776 116.077 93.0916 116.529L95.1726 119.527L65.6929 140.469C65.3219 140.733 65.0703 141.135 64.9978 141.587C64.9253 142.04 65.0362 142.501 65.3048 142.868C67.0532 145.263 73.6332 157.129 76.8698 163.067C77.1726 163.627 77.7568 163.96 78.3666 163.96C78.5244 163.96 78.6822 163.938 78.84 163.892L100.686 157.551L102.618 167.7C102.767 168.481 103.437 169.058 104.23 169.088C104.482 169.096 104.767 169.1 105.079 169.1C109.825 169.1 122.661 167.879 126.938 166.402C127.595 166.176 128.051 165.569 128.085 164.874C128.2 162.559 127.569 149.187 127.411 145.921C131.168 141.528 132.878 135.473 132.23 128.774C131.736 123.642 129.846 118.549 127.437 115.735L127.778 111.867C127.829 111.273 127.569 110.693 127.087 110.343C125.838 109.425 123.902 108.998 120.989 108.998V108.989Z" fill="#51703C"/>
<path d="M111.821 57.4473C111.569 57.4473 111.335 57.3363 111.173 57.1484C109.825 55.5644 97.9744 41.6414 97.1599 39.8738L97.0704 39.6688C96.2303 37.786 94.8273 34.635 97.1813 30.199C98.435 27.8336 100.955 26.5869 104.456 26.5869C106.704 26.5869 108.435 27.1035 108.908 27.2658C113.318 28.7388 121.147 37.2779 121.39 43.4261C121.629 49.3138 112.81 56.9264 112.435 57.2466C112.281 57.379 112.085 57.4516 111.881 57.4516H111.821V57.4473Z" fill="#DE8459"/>
<path d="M104.456 27.4363C106.132 27.4363 107.697 27.7566 108.64 28.0682C112.759 29.443 120.316 37.7943 120.537 43.4515C120.763 48.9933 111.881 56.5889 111.881 56.5889H111.821C111.821 56.5889 98.7207 41.2227 97.9318 39.5107C97.1472 37.7388 95.693 34.8141 97.9318 30.5958C99.2367 28.1365 101.97 27.4363 104.456 27.4363ZM104.456 25.7285C100.67 25.7285 97.8209 27.1716 96.4265 29.7974C93.8721 34.6049 95.4457 38.123 96.29 40.0187L96.3753 40.2066C96.3753 40.2066 96.3838 40.2237 96.3838 40.2279C97.2069 42.0169 107.416 54.0528 110.525 57.699C110.849 58.079 111.322 58.2967 111.821 58.2967H111.881C112.286 58.2967 112.678 58.1516 112.989 57.8868C113.962 57.0543 122.495 49.574 122.243 43.3831C122.085 39.3954 119.122 35.2112 117.369 33.0722C114.661 29.7718 111.522 27.2314 109.181 26.4501C107.829 25.9975 106.064 25.7285 104.456 25.7285Z" fill="#51703C"/>
<path d="M108.661 58.2967C108.597 58.2967 108.537 58.2882 108.473 58.2754L104.213 57.3147C104.043 57.2763 103.889 57.1866 103.77 57.0586L94.998 47.4606C94.8828 47.3368 94.8104 47.1831 94.7848 47.0166C94.7421 46.7518 93.821 40.4457 98.418 35.2368C99.8551 33.6101 101.761 32.752 103.932 32.752C107.757 32.752 111.731 35.446 112.444 37.1923C112.448 37.2051 112.456 37.2222 112.461 37.235C113.024 38.8574 112.239 41.2057 111.505 42.3542C111.454 42.4353 111.437 42.4823 111.433 42.4994C111.433 42.4994 111.437 42.5036 111.441 42.5079C111.476 42.4994 111.54 42.478 111.655 42.4225C112.073 42.2261 112.491 42.1236 112.887 42.1236C113.659 42.1236 114.346 42.4951 114.815 43.1697C115.407 44.0151 115.586 45.2575 115.25 46.1883C114.542 48.148 112.427 49.1599 111.463 49.5271L109.484 57.6435C109.39 58.032 109.041 58.2967 108.657 58.2967H108.661Z" fill="#FFB689"/>
<path d="M103.932 33.6014C107.544 33.6014 111.117 36.1973 111.65 37.5123C112.094 38.7932 111.429 40.881 110.78 41.8929C110.473 42.3711 110.508 42.7937 110.887 43.1695C110.857 43.1481 110.827 43.1225 110.793 43.0926L110.972 43.2463C110.942 43.2207 110.913 43.1951 110.887 43.1652C111.07 43.3018 111.237 43.3616 111.412 43.3616C111.586 43.3616 111.783 43.2975 112.013 43.1908C112.333 43.0414 112.623 42.9731 112.883 42.9731C114.264 42.9731 114.832 44.826 114.448 45.8934C113.676 48.0282 110.746 48.8651 110.746 48.8651L108.657 57.4341L104.397 56.4734L95.6248 46.8754C95.6248 46.8754 94.6696 40.7614 99.0534 35.7917C100.469 34.1863 102.205 33.5928 103.932 33.5928M103.932 31.8936C101.51 31.8936 99.3775 32.8542 97.7783 34.6688C92.9212 40.1765 93.8977 46.8669 93.9404 47.1487C93.9915 47.4817 94.1408 47.7891 94.3668 48.0368L103.139 57.6347C103.373 57.8909 103.68 58.0702 104.021 58.1471L108.282 59.1077C108.409 59.1376 108.533 59.1504 108.657 59.1504C109.424 59.1504 110.124 58.6253 110.311 57.8482L112.188 50.1587C113.386 49.6378 115.318 48.5192 116.051 46.4826C116.482 45.2872 116.264 43.7587 115.51 42.6827C114.896 41.8117 113.97 41.2994 112.955 41.2738C113.433 39.9673 113.727 38.3107 113.258 36.953C113.25 36.9231 113.237 36.8975 113.228 36.8676C112.414 34.8652 108.149 31.8936 103.928 31.8936H103.932Z" fill="#51703C"/>
<path d="M86.9254 57.9935C86.7719 57.9935 86.6141 57.9508 86.4776 57.8654C78.1962 52.759 64.1791 41.6496 60.0811 38.3663C57.0491 35.937 51.3732 29.285 47.9787 25.31C47.1983 24.3964 46.5501 23.6364 46.1024 23.1283C45.629 22.5604 44.9894 21.9456 44.1919 21.2881C43.6674 20.8526 43.113 20.4555 42.5246 20.0371C40.3753 18.5001 37.9403 16.7624 36.5118 12.6294C36.2772 11.9549 36.3924 11.1479 36.8017 10.5715C37.1173 10.1275 37.5821 9.87558 38.0768 9.87558C38.742 9.87558 39.3518 10.294 39.8806 11.118C40.1834 11.5877 41.1429 12.7319 41.7229 13.4065C41.2794 12.0701 40.354 10.2043 39.4585 8.39404C37.4286 4.29527 36.6568 2.52767 37.2026 1.50298C37.3945 1.14433 37.7314 0.913778 38.1493 0.862543C38.1877 0.858273 38.2261 0.854004 38.2644 0.854004C38.2644 0.854004 38.4222 0.854004 38.4947 0.854004C43.4798 0.854004 47.0022 5.764 47.6589 6.75026C48.9169 8.63741 49.7356 10.9131 50.0256 13.3339C50.209 14.8539 51.0875 16.6642 52.4265 18.2952C53.4755 19.5717 56.354 21.1216 59.693 22.9191C64.8956 25.7199 71.3732 29.2081 74.5715 33.7168C76.3838 36.27 85.6333 41.1928 90.6013 43.8399C92.7463 44.9799 93.6759 45.4837 94.1194 45.774C94.4563 45.8509 94.725 46.1284 94.7762 46.4913L95.386 50.8804C95.4286 51.1793 95.3092 51.4739 95.0747 51.6618L87.4585 57.8056C87.3049 57.9295 87.113 57.9935 86.9211 57.9935H86.9254Z" fill="#FFB689"/>
<path d="M38.499 1.70782C42.6525 1.70782 45.8593 5.58031 46.951 7.22409C48.1877 9.08135 48.9126 11.2247 49.1813 13.4406C49.3689 15.0032 50.2218 16.9544 51.7698 18.8416C54.6653 22.364 68.7463 26.9836 73.8764 34.2162C76.5374 37.9649 93.0022 45.8423 93.8167 46.615H93.9276L94.5374 50.9999L86.9212 57.1438C79.5097 52.5753 67.3604 43.1183 60.6099 37.7087C56.9382 34.767 49.0832 25.2374 46.7421 22.5732C46.2005 21.9242 45.4926 21.2667 44.7378 20.639C42.2133 18.547 39.0321 17.3045 37.322 12.3604C37.0875 11.6772 37.4542 10.7422 38.0811 10.7422C38.3924 10.7422 38.7719 10.977 39.1685 11.5919C39.6419 12.3262 41.3732 14.3116 41.3732 14.3116C41.7911 14.7769 42.1237 14.9648 42.3583 14.9648C42.7591 14.9648 42.8871 14.4226 42.7165 13.748C41.8124 10.1744 36.4478 1.95119 38.2645 1.72063C38.3455 1.72063 38.4222 1.72063 38.5033 1.72063M38.2687 1.71209C38.2687 1.71209 38.2687 1.71209 38.2602 1.71209C38.2559 1.71209 38.2517 1.71209 38.2517 1.71209C38.2517 1.71209 38.2645 1.71209 38.2687 1.71209ZM38.499 0C38.4222 0 38.3455 0 38.2645 0C38.192 0 38.1237 0.00426956 38.0555 0.0128087C38.0384 0.0128087 38.0214 0.0128087 38.0086 0.0213478C37.3348 0.119548 36.7719 0.512347 36.4564 1.10155C35.6802 2.5532 36.5843 4.50438 38.6994 8.77394C38.7634 8.90203 38.8274 9.03439 38.8956 9.16674C38.5971 9.06 38.3199 9.02585 38.0811 9.02585C37.305 9.02585 36.5886 9.41011 36.1109 10.0804C35.548 10.8746 35.3903 11.9847 35.7101 12.9154C37.2282 17.3003 39.7826 19.1276 42.0342 20.7372C42.6099 21.1471 43.1515 21.5357 43.6547 21.9498C44.4095 22.5732 45.0107 23.1495 45.4414 23.6662C45.45 23.6747 45.4585 23.6875 45.467 23.6961C45.9063 24.1956 46.5672 24.9727 47.3348 25.8693C50.7463 29.8698 56.4564 36.5602 59.5523 39.0366C64.8188 43.2549 77.9361 53.6 86.0384 58.5954C86.3156 58.7662 86.6227 58.8473 86.934 58.8473C87.3135 58.8473 87.693 58.7192 88.0043 58.4673L95.6205 52.3234C96.0854 51.9477 96.3242 51.3543 96.2389 50.7608L95.6291 46.3717C95.5395 45.7142 95.0832 45.189 94.4862 44.9883C93.9745 44.6681 93.0363 44.16 91.015 43.0841C86.4564 40.659 76.9723 35.6124 75.2794 33.2214C71.966 28.5463 65.3903 25.0068 60.1109 22.1633C56.9894 20.4811 54.0427 18.8971 53.1003 17.7528C51.8593 16.2414 51.0534 14.5934 50.8871 13.2314C50.5758 10.6782 49.7101 8.27441 48.3796 6.27625C47.676 5.23021 43.919 0 38.499 0Z" fill="#51703C"/>
<path d="M96.7379 119.454C96.6441 119.454 96.546 119.437 96.4565 119.407C96.1963 119.317 95.9959 119.104 95.9192 118.839C95.416 117.101 83.7742 76.6644 86.1622 65.0384C84.8062 63.924 78.4437 59.9662 72.7123 56.5462C72.5119 56.4267 72.3669 56.226 72.3157 55.9997C72.2646 55.7692 72.3115 55.5301 72.4394 55.3337L82.674 40.1682C82.836 39.9291 83.1047 39.7925 83.3818 39.7925C83.4714 39.7925 83.561 39.8053 83.6505 39.8352C84.3072 40.0529 99.868 45.2575 107.753 50.1547C115.203 54.7829 121.356 62.7584 123.062 69.9953C127.198 86.8046 126.316 113.771 126.307 114.04C126.299 114.309 126.162 114.557 125.94 114.71C125.795 114.813 125.625 114.864 125.454 114.864C125.365 114.864 125.271 114.851 125.186 114.821C125.147 114.809 121.297 113.545 115.842 113.545C108.908 113.545 102.653 115.483 97.2369 119.3C97.0919 119.403 96.9213 119.458 96.7464 119.458L96.7379 119.454Z" fill="#FFF9EC"/>
<path d="M83.3775 40.6463C83.3775 40.6463 99.4116 45.9832 107.296 50.8804C114.823 55.5556 120.648 63.5098 122.222 70.1916C126.38 87.0863 125.446 114.01 125.446 114.01C125.446 114.01 121.505 112.691 115.834 112.691C110.414 112.691 103.412 113.895 96.7379 118.6C96.7379 118.6 84.3199 75.7079 87.0875 64.8035C87.2368 64.21 73.1472 55.8118 73.1472 55.8118L83.3818 40.6463M83.3775 38.9385C82.8231 38.9385 82.2858 39.2117 81.9617 39.6899L71.7272 54.8554C71.4628 55.2439 71.3732 55.7264 71.4756 56.1832C71.5779 56.6401 71.8637 57.0371 72.2688 57.2762C77.5566 60.4272 83.369 64.0392 85.224 65.3969C83.2411 77.9153 94.5971 117.353 95.0918 119.074C95.2453 119.603 95.6462 120.026 96.1664 120.21C96.3498 120.274 96.5417 120.308 96.7293 120.308C97.0747 120.308 97.4202 120.201 97.7101 119.996C102.977 116.282 109.07 114.394 115.825 114.399C121.122 114.399 124.862 115.62 124.9 115.633C125.075 115.692 125.258 115.718 125.437 115.718C125.783 115.718 126.124 115.615 126.414 115.411C126.853 115.103 127.126 114.608 127.147 114.07C127.186 112.96 128.043 86.7148 123.876 69.7818C122.128 62.357 115.825 54.168 108.192 49.4288C100.226 44.4804 84.5715 39.2459 83.9106 39.0239C83.7315 38.9641 83.5524 38.9385 83.3732 38.9385H83.3775Z" fill="#51703C"/>
<path d="M78.034 163.925C77.6801 163.925 77.3475 163.699 77.228 163.345C77.0788 162.896 77.3176 162.414 77.7611 162.26L112.908 150.331C113.356 150.182 113.838 150.421 113.991 150.865C114.141 151.313 113.902 151.796 113.458 151.949L78.3112 163.878C78.2217 163.908 78.1278 163.925 78.0383 163.925H78.034Z" fill="#51703C"/>
<path d="M182.781 220.826C179.514 220.826 175.578 220.1 175.237 218.059C174.96 216.385 175.975 213.132 178.166 211.279C177.382 210.22 175.514 208.077 173.957 206.284C168.921 200.494 167.348 198.534 167.335 197.535C167.326 196.967 167.672 196.558 168.038 196.126C168.589 195.473 169.211 194.739 168.951 193.33C168.755 192.211 168.554 191.673 168.303 190.994L168.162 190.606C167.757 189.479 167.352 187.818 168.516 186.392C168.9 185.922 169.365 185.593 169.902 185.41C170.418 185.23 171.233 185.145 172.397 185.145C176.38 185.145 185.092 186.294 186.806 188.1C188.849 190.247 189.147 194.329 188.785 197.172C188.537 199.111 190.256 201.685 191.514 203.568C191.902 204.153 192.269 204.7 192.546 205.178C192.618 205.302 192.712 205.455 192.815 205.626C193.783 207.21 195.8 210.506 194.934 213.939C194.418 215.984 192.96 217.713 190.601 219.079C187.987 220.595 184.58 220.821 182.781 220.821V220.826Z" fill="#FFF9EC"/>
<path d="M172.397 186.008C176.661 186.008 184.81 187.25 186.188 188.697C187.889 190.491 188.307 194.175 187.936 197.07C187.565 199.969 190.631 203.577 191.8 205.609C192.819 207.381 197.676 213.99 190.171 218.345C188.183 219.498 185.369 219.976 182.78 219.976C179.335 219.976 176.282 219.135 176.081 217.927C175.838 216.462 176.913 213.034 179.309 211.501C178.623 209.87 168.209 199.017 168.188 197.531C168.175 196.775 170.282 195.862 169.791 193.185C169.544 191.784 169.284 191.208 168.964 190.328C168.49 189.013 168.397 187.899 169.177 186.947C169.433 186.635 169.761 186.375 170.179 186.23C170.614 186.08 171.399 186.012 172.397 186.012M172.397 184.3C170.721 184.3 170.013 184.475 169.625 184.611C168.938 184.846 168.345 185.269 167.859 185.862C166.418 187.622 166.883 189.586 167.36 190.909C167.412 191.046 167.458 191.174 167.505 191.302C167.753 191.968 167.928 192.446 168.111 193.484C168.299 194.504 167.898 194.982 167.386 195.584C166.977 196.071 166.469 196.673 166.482 197.557C166.499 198.795 167.586 200.272 173.313 206.852C174.546 208.265 176.102 210.054 177.015 211.194C174.985 213.303 174.102 216.445 174.392 218.204C174.93 221.432 180.942 221.684 182.776 221.684C184.61 221.684 188.235 221.441 191.024 219.827C193.586 218.341 195.181 216.433 195.753 214.157C196.708 210.374 194.563 206.873 193.535 205.191C193.433 205.024 193.343 204.879 193.275 204.76C192.989 204.26 192.614 203.696 192.213 203.103C191.1 201.434 189.416 198.91 189.621 197.292C190.009 194.265 189.663 189.889 187.416 187.523C185.296 185.295 175.684 184.304 172.388 184.304L172.397 184.3Z" fill="#51703C"/>
</g>
<defs>
<clipPath id="clip0_254_9517">
<rect width="196" height="222" fill="white"/>
</clipPath>
</defs>
</svg>
