<svg width="216" height="193" viewBox="0 0 216 193" fill="none" xmlns="http://www.w3.org/2000/svg">
<g clip-path="url(#clip0_254_9480)">
<path d="M43.3989 92.1318C42.5359 92.1165 41.834 91.7366 41.3699 91.0345C39.8281 88.717 41.3047 83.3568 42.4209 80.5521C44.0778 76.3929 50.859 72.6787 52.071 72.0418C53.1027 70.5569 60.5321 59.9057 63.3589 56.7786C75.8434 42.9619 86.6864 37.0876 86.7938 37.0301C86.9088 36.9687 87.0316 36.938 87.1543 36.938C87.4228 36.938 87.6798 37.0761 87.8217 37.3255L93.5711 47.4127C93.759 47.7427 93.6785 48.1648 93.3755 48.3988L57.8051 76.059L57.5941 76.3046C57.5941 76.5502 57.6056 76.8341 57.6209 77.1449C57.6938 78.6413 57.7974 80.694 56.3744 83.1228C55.9257 83.8902 55.4616 84.7842 55.009 85.6436C53.4441 88.6441 52.6425 90.0867 51.557 90.0867C51.3269 90.0867 51.1044 90.0139 50.9127 89.8796C50.0919 89.2925 48.4733 87.4431 51.1466 82.9693C51.2617 82.7775 51.4228 82.3823 51.5225 82.0561C51.2118 82.2978 50.6902 82.7851 49.8963 83.752C48.2201 85.7971 47.012 87.7693 46.1298 89.2081C44.9408 91.1496 44.3463 92.1242 43.4181 92.1242H43.3989V92.1318Z" fill="#FFB689"/>
<path d="M87.1503 37.7091L92.8998 47.7963L57.2718 75.5026C56.9956 75.8249 56.8346 76.009 56.8346 76.009C56.7272 77.4555 57.4214 79.8152 55.7108 82.7428C54.1612 85.3864 52.5081 89.3269 51.5569 89.3269C51.4879 89.3269 51.4227 89.3039 51.3613 89.2617C50.3487 88.5365 49.7657 86.7907 51.8062 83.372C52.0133 83.0229 52.4774 81.8795 52.37 81.4881C52.3048 81.2579 52.1744 81.0622 51.9059 81.0622C51.4764 81.0622 50.6978 81.5764 49.3055 83.28C45.8037 87.5581 44.396 91.372 43.4218 91.372H43.4141C40.3381 91.3144 41.4389 85.1025 43.1341 80.8435C44.8294 76.5846 52.5925 72.6441 52.5925 72.6441C52.5925 72.6441 60.95 60.5962 63.9264 57.3003C76.4685 43.4222 87.1542 37.7129 87.1542 37.7129M87.1503 36.1743C86.9049 36.1743 86.6594 36.2319 86.4293 36.3547C85.9844 36.5925 75.3639 42.3517 62.7872 56.2682C60.0142 59.3377 52.9108 69.4978 51.5492 71.4546C49.8271 72.3678 43.4065 76.0052 41.7112 80.2718C41.389 81.0814 38.6198 88.2833 40.7331 91.4641C41.3353 92.3734 42.2788 92.8837 43.3873 92.9029C43.395 92.9029 43.4141 92.9029 43.4218 92.9029C44.7796 92.9029 45.493 91.7365 46.7894 89.6224C47.3724 88.6708 48.0973 87.4852 49.0063 86.2075C48.5384 88.7322 49.7581 90.0022 50.4715 90.5125C50.7936 90.7427 51.1695 90.8655 51.5607 90.8655C53.1601 90.8655 54.1113 89.0392 55.6916 86.0118C56.1365 85.1562 56.5968 84.2737 57.0378 83.5217C58.5759 80.8934 58.4608 78.622 58.3879 77.1179C58.3803 76.9337 58.3688 76.7611 58.3649 76.6076L93.8471 49.0164C94.4493 48.5483 94.6181 47.708 94.2383 47.0443L88.4889 36.957C88.2051 36.4621 87.6873 36.182 87.1542 36.182L87.1503 36.1743Z" fill="#51703C"/>
<path d="M22.3112 167.645C22.2 167.645 22.0888 167.622 21.9814 167.572L16.2051 164.829C16.0133 164.737 15.8676 164.572 15.8024 164.372C15.7372 164.169 15.7602 163.95 15.8599 163.766L27.2974 143.024C31.0792 135.738 33.5722 131.245 34.696 129.687C37.7107 125.509 41.7994 123.594 42.8043 123.172L53.6971 107.905C53.8429 107.698 54.0768 107.583 54.3223 107.583C54.3952 107.583 54.468 107.594 54.5371 107.613C57.8701 108.588 74.5546 113.656 75.7858 117.981C75.9929 118.71 75.8203 119.412 75.2871 120.003C72.2111 123.433 60.8887 129.744 55.4499 132.776C54.1497 133.501 53.1218 134.072 52.696 134.333C50.9087 135.458 46.6973 139.82 45.3127 141.255C45.0596 141.52 44.8716 141.712 44.7757 141.808C44.6453 141.946 43.3835 143.35 36.5831 151.047L22.8942 167.377C22.7446 167.553 22.526 167.649 22.3074 167.649L22.3112 167.645Z" fill="#FFB689"/>
<path d="M54.3261 108.346C54.3261 108.346 78.4131 115.375 74.7195 119.489C70.9914 123.648 54.5217 132.315 52.2972 133.681C50.1224 135.047 44.9176 140.58 44.2349 141.267C43.9281 141.589 40.1386 145.867 36.0116 150.537L22.3074 166.882L16.5311 164.139L27.9686 143.396C30.9871 137.576 34.021 131.932 35.3174 130.136C38.6121 125.574 43.2991 123.797 43.2991 123.797L54.3185 108.346M54.3261 106.812C53.839 106.812 53.3711 107.046 53.0758 107.456L42.3057 122.55C40.9748 123.141 37.028 125.148 34.0785 129.234C32.9317 130.823 30.4233 135.343 26.6223 142.667L15.1925 163.394C14.9892 163.766 14.9471 164.204 15.0775 164.607C15.2079 165.01 15.4955 165.34 15.8791 165.524L21.6553 168.267C21.8663 168.367 22.0926 168.417 22.3112 168.417C22.7561 168.417 23.1895 168.225 23.4887 167.868L37.1776 151.538C43.8245 144.018 45.1554 142.529 45.3396 142.334C45.4393 142.23 45.6234 142.042 45.865 141.793C47.2343 140.373 51.3996 136.06 53.1141 134.982C53.513 134.736 54.5332 134.169 55.8258 133.447C61.721 130.159 72.6982 124.039 75.8625 120.513C76.5682 119.727 76.806 118.752 76.526 117.77C76.0849 116.223 74.3551 113.975 64.8009 110.288C59.7649 108.342 54.959 106.934 54.7557 106.877C54.6138 106.835 54.468 106.815 54.3261 106.815V106.812Z" fill="#51703C"/>
<path d="M123.89 179.241C123.733 179.241 123.576 179.191 123.446 179.099C123.277 178.98 123.166 178.799 123.135 178.596C123.108 178.419 122.912 177.311 122.164 173.113C121.988 173.006 121.854 172.825 121.812 172.61C121.777 172.445 118.417 156.1 117.098 147.617C116.02 140.745 117.639 136.843 118.325 135.565L108.004 120.175C107.793 119.857 107.843 119.431 108.127 119.178L109.81 117.662C109.918 117.566 110.048 117.501 110.19 117.478L125.835 114.7C125.881 114.692 125.923 114.688 125.969 114.688C126.234 114.688 126.487 114.827 126.629 115.061C127.116 115.874 131.381 123.034 132.003 125.021C132.724 127.009 132.39 130.044 132.171 132.054C132.141 132.338 132.11 132.603 132.087 132.833C132.072 133.094 131.592 142.778 130.702 160.804L130.073 177.568C130.058 177.928 129.793 178.231 129.437 178.297L124.021 179.237C123.979 179.244 123.933 179.248 123.89 179.248V179.241Z" fill="#FFB689"/>
<path d="M125.969 115.452C125.969 115.452 130.687 123.341 131.274 125.263C132.041 127.354 131.496 130.949 131.32 132.753C131.297 133.136 130.503 149.19 129.931 160.762L129.302 177.537L123.887 178.477C123.837 178.162 123.373 175.553 122.82 172.457H122.556C122.556 172.457 119.181 156.066 117.85 147.502C116.569 139.314 119.227 135.542 119.227 135.542L108.637 119.749L110.321 118.234L125.966 115.456M125.969 113.917C125.881 113.917 125.789 113.925 125.701 113.94L110.056 116.718C109.772 116.768 109.511 116.895 109.296 117.087L107.613 118.602C107.045 119.113 106.938 119.964 107.363 120.597L117.435 135.623C116.634 137.33 115.326 141.305 116.335 147.736C117.654 156.235 121.022 172.599 121.052 172.764C121.114 173.059 121.256 173.316 121.451 173.52C122.157 177.483 122.345 178.542 122.372 178.711C122.437 179.118 122.659 179.479 122.993 179.72C123.254 179.908 123.568 180.008 123.887 180.008C123.975 180.008 124.063 180 124.147 179.985L129.563 179.045C130.277 178.922 130.806 178.316 130.833 177.591L131.462 160.816C132.321 143.412 132.812 133.512 132.846 132.868C132.869 132.645 132.896 132.4 132.927 132.131C133.157 130.055 133.498 126.924 132.724 124.768C132.068 122.715 128.079 115.997 127.281 114.662C127.001 114.194 126.499 113.914 125.966 113.914L125.969 113.917Z" fill="#51703C"/>
<path d="M10.7546 189.762C3.93125 189.762 0.901202 186.765 0.901202 185.626C0.901202 185.495 0.855176 185.234 0.80915 184.958C0.5445 183.469 1.72967 181.827 4.0885 178.55C5.51147 176.578 7.27964 174.123 9.3278 170.877C11.3836 167.669 12.9945 165.167 13.9918 163.636L14.3216 163.134C14.4942 162.869 14.6285 162.662 14.7282 162.516C14.7282 162.516 14.8586 162.336 14.8778 162.309C15.944 160.268 16.4618 159.968 16.8914 159.853C17.0295 159.811 17.1369 159.811 17.1944 159.811C17.8771 159.811 18.0536 160.44 18.2377 161.104C18.5215 162.117 18.9971 163.817 20.3587 164.312C20.654 164.419 20.9916 164.473 21.3598 164.473C22.4452 164.473 23.5882 164.016 24.4243 163.682C24.9881 163.456 25.3602 163.306 25.69 163.306C26.1388 163.306 26.4955 163.59 26.576 164.009C26.6412 164.335 26.576 164.488 26.1234 165.501C25.8051 166.226 25.2681 167.435 24.3821 169.553C23.6496 171.31 22.8671 173.114 22.6485 173.609C21.9504 177.326 21.7395 180.699 22.0156 181.248C22.0386 181.282 22.0501 181.313 22.0693 181.351C22.963 183.492 22.1882 185.772 20.9532 186.946C20.5466 187.448 18.3144 189.697 10.9464 189.758H10.7546V189.762Z" fill="#FFF9EC"/>
<path d="M17.1945 160.578C17.5474 160.578 17.6701 164.15 20.098 165.033C20.5045 165.182 20.9303 165.24 21.3599 165.24C23.2431 165.24 25.1647 164.074 25.6863 164.074C25.763 164.074 25.809 164.1 25.8205 164.158C25.8551 164.335 25.4984 164.902 23.6727 169.261C22.8595 171.206 22.0387 173.102 21.9083 173.382C21.3905 176.114 20.7922 180.745 21.356 181.65C22.1193 183.477 21.4481 185.445 20.378 186.431C20.378 186.431 18.5983 188.933 10.935 188.994C10.8736 188.994 10.8122 188.994 10.7509 188.994C4.34942 188.994 1.66074 186.232 1.66074 185.626C1.66074 185.426 1.61471 185.154 1.55334 184.812C1.21198 182.894 4.76749 179.529 9.96843 171.283C12.1316 167.903 13.6965 165.478 14.6247 164.051C14.9661 163.533 15.2001 163.168 15.3535 162.942C15.4225 162.846 15.4724 162.777 15.5184 162.719C16.5655 160.705 16.9529 160.624 17.0948 160.586C17.1293 160.574 17.1523 160.574 17.1907 160.574M17.1945 159.043C17.0641 159.043 16.8915 159.051 16.6806 159.113C15.8291 159.347 15.1732 160.087 14.222 161.902C14.2105 161.913 14.2028 161.929 14.1913 161.944C14.1721 161.971 14.153 161.998 14.1299 162.029C14.1184 162.044 14.1031 162.063 14.0916 162.082C13.988 162.236 13.8461 162.451 13.662 162.735L13.3475 163.21C12.3426 164.749 10.7317 167.254 8.6797 170.458C6.63921 173.693 4.87872 176.141 3.45959 178.105C0.974182 181.555 -0.272356 183.285 0.0459902 185.085C0.0805097 185.292 0.126536 185.549 0.126536 185.633C0.126536 187.233 2.40099 188.542 3.09521 188.902C4.52202 189.647 7.01126 190.533 10.747 190.533H10.9465C18.395 190.472 20.8881 188.219 21.5133 187.471C22.9171 186.101 23.7877 183.5 22.7713 181.06C22.756 181.021 22.7368 180.983 22.7176 180.944C22.5374 180.219 22.779 177.104 23.385 173.842C23.6497 173.244 24.3784 171.556 25.0918 169.852C25.974 167.738 26.5071 166.533 26.8255 165.812C27.2972 164.745 27.4391 164.423 27.3241 163.855C27.1745 163.084 26.4994 162.539 25.6863 162.539C25.2107 162.539 24.785 162.712 24.1368 162.969C23.362 163.279 22.2996 163.705 21.3599 163.705C21.0837 163.705 20.8344 163.667 20.6234 163.59C19.6301 163.23 19.2235 161.771 18.978 160.901C18.7824 160.206 18.4602 159.047 17.1945 159.047V159.043Z" fill="#51703C"/>
<path d="M141.84 192.233C141.652 192.233 141.465 192.233 141.277 192.221C140.207 192.183 139.171 192.029 138.201 191.761C136.67 191.339 135.048 191.101 133.237 191.032C132.865 191.016 132.497 191.013 132.137 191.013C130.756 191.013 129.463 191.101 128.255 191.193L128.09 191.204C127.166 191.266 126.364 191.32 125.632 191.32C125.474 191.32 125.325 191.32 125.175 191.312C125.091 191.312 125.01 191.304 124.934 191.297C124.884 191.293 124.834 191.289 124.784 191.285C122.602 191.101 120.454 190.717 119.272 189.117C118.475 188.043 118.267 186.573 118.659 184.755C119.008 183.166 119.43 181.601 119.683 180.945C120.07 179.955 120.826 174.99 120.887 174.487C120.887 174.476 121.094 173.075 121.094 173.075C121.136 172.783 121.344 172.542 121.627 172.454C121.7 172.43 121.777 172.419 121.854 172.419C122.065 172.419 122.272 172.507 122.417 172.668L123.204 173.52C123.204 173.52 124.427 174.744 125.827 174.794C125.866 174.794 125.904 174.794 125.942 174.794C126.28 174.794 126.579 174.736 126.828 174.621C127.964 174.107 128.673 173.489 129.245 172.991C129.77 172.53 130.227 172.135 130.81 172.039C130.879 172.024 130.951 172.016 131.028 172.016H131.101C132.202 172.058 132.858 174.522 133.088 175.565C133.586 175.807 134.419 176.233 135.473 176.774C137.733 177.929 142.42 180.323 143.168 180.484C144.007 180.523 146.309 180.968 148.227 181.355C148.414 181.393 148.549 181.42 148.618 181.432C151.257 181.555 152.864 182.23 153.523 183.496C154.095 184.59 153.853 185.986 152.806 187.636C151.563 189.562 147.068 192.221 141.852 192.221L141.84 192.233Z" fill="#FFF9EC"/>
<path d="M131.021 172.799C131.021 172.799 131.047 172.799 131.059 172.799C131.581 172.818 132.375 175.819 132.405 176.11C133.56 176.62 142.232 181.232 143.099 181.263C144.157 181.302 148.461 182.207 148.526 182.211C154.897 182.491 152.91 186.04 152.15 187.241C151.004 189.021 146.731 191.469 141.841 191.469C141.664 191.469 141.484 191.469 141.307 191.458C140.303 191.419 139.324 191.277 138.404 191.024C136.801 190.579 135.125 190.337 133.268 190.268C132.885 190.253 132.509 190.249 132.137 190.249C130.71 190.249 129.387 190.341 128.198 190.429C127.235 190.495 126.38 190.556 125.636 190.556C125.49 190.556 125.348 190.556 125.21 190.548C125.068 190.545 124.941 190.525 124.815 190.522C122.003 190.288 118.394 189.674 119.411 184.92C119.748 183.393 120.162 181.842 120.4 181.229C120.849 180.078 121.65 174.633 121.654 174.575L121.858 173.194L122.644 174.046C122.644 174.046 124.071 175.504 125.804 175.569C125.854 175.569 125.9 175.569 125.95 175.569C126.399 175.569 126.802 175.489 127.154 175.327C129.387 174.315 130.123 172.918 130.955 172.803C130.982 172.795 131.005 172.795 131.032 172.795M131.021 171.264C130.898 171.264 130.779 171.276 130.664 171.299C129.878 171.429 129.321 171.916 128.735 172.427C128.175 172.914 127.538 173.47 126.51 173.935C126.357 174.004 126.165 174.038 125.939 174.038C125.908 174.038 125.881 174.038 125.85 174.038C124.961 174.004 124.04 173.282 123.741 172.987L122.978 172.158C122.682 171.836 122.272 171.663 121.85 171.663C121.7 171.663 121.547 171.686 121.397 171.732C120.834 171.905 120.419 172.388 120.331 172.975L120.128 174.357C120.128 174.357 120.124 174.391 120.12 174.41C120.02 175.185 119.292 179.84 118.962 180.676C118.647 181.49 118.202 183.228 117.903 184.597C117.462 186.65 117.715 188.327 118.651 189.585C120.017 191.427 122.356 191.861 124.681 192.056C124.704 192.056 124.727 192.056 124.753 192.06C124.792 192.06 124.83 192.064 124.872 192.068C124.961 192.076 125.053 192.083 125.148 192.087C125.306 192.095 125.467 192.095 125.632 192.095C126.391 192.095 127.246 192.037 128.152 191.976L128.297 191.964C129.502 191.872 130.779 191.784 132.133 191.784C132.497 191.784 132.862 191.792 133.207 191.803C134.956 191.868 136.521 192.099 137.994 192.505C139.029 192.789 140.126 192.95 141.25 192.993C141.445 193 141.645 193.004 141.841 193.004C147.041 193.004 151.909 190.445 153.439 188.074C154.647 186.163 154.9 184.513 154.195 183.159C153.405 181.643 151.606 180.833 148.702 180.688C148.626 180.672 148.51 180.649 148.365 180.619C146.374 180.219 144.234 179.809 143.294 179.74C142.354 179.444 137.951 177.196 135.815 176.106C134.902 175.638 134.219 175.289 133.736 175.051C133.625 174.637 133.487 174.192 133.376 173.866C132.938 172.58 132.405 171.318 131.12 171.272C131.086 171.272 131.055 171.272 131.024 171.272L131.021 171.264Z" fill="#51703C"/>
<path d="M71.0298 130.274C70.7498 130.274 70.1016 130.274 58.154 123.276C52.7574 120.114 46.2524 116.235 45.9111 115.717C45.7692 115.498 45.7423 115.214 45.8459 114.976C46.5171 113.48 54.6023 103.032 65.1078 89.53C68.8282 84.7454 72.3837 80.1757 73.822 78.2572L69.6643 77.4476C69.2501 77.3671 68.9778 76.9642 69.0583 76.5498C69.1312 76.1815 69.4495 75.9282 69.8101 75.9282C69.8599 75.9282 69.906 75.9321 69.9558 75.9436L75.2833 76.9795C75.3102 76.9834 75.3409 76.991 75.3677 77.0026L109.277 87.719C109.369 87.7459 109.454 87.7919 109.527 87.8533C114.827 92.1008 132.528 121.138 132.962 122.577C133.023 122.784 132.996 123.007 132.885 123.191C132.774 123.375 132.593 123.506 132.382 123.552C106.5 128.977 106.24 129.019 106.128 129.019C106.094 129.019 106.059 129.019 106.025 129.012C105.779 128.979 104.347 127.432 101.729 124.373C98.07 120.099 90.7596 111.554 88.7383 109.793C87.6145 111.128 84.5844 114.685 81.1747 118.694C77.1359 123.441 72.5908 128.778 71.7777 129.76C71.7662 129.794 71.747 129.833 71.7317 129.867C71.5974 130.117 71.3059 130.286 71.0221 130.286L71.0298 130.274Z" fill="#FFF9EC"/>
<path d="M75.1414 77.724L109.051 88.4405C114.118 92.5038 131.857 121.541 132.233 122.788C132.233 122.788 106.24 128.237 106.136 128.237C105.879 128.202 89.7776 108.788 88.5925 108.765C88.0056 109.505 71.022 129.403 71.0489 129.442C71.0757 129.484 71.0681 129.503 71.0297 129.503C69.9826 129.503 46.4288 115.56 46.5516 115.276C47.6562 112.805 74.2822 79.2281 75.1414 77.7202M69.81 75.1533C69.0889 75.1533 68.4484 75.6636 68.3065 76.3965C68.1454 77.2291 68.6862 78.0348 69.5185 78.196L72.468 78.7715C70.7229 81.0583 67.5739 85.1062 64.4979 89.0621C51.9021 105.254 45.7921 113.215 45.1478 114.658C44.933 115.134 44.9828 115.702 45.2667 116.139C45.4891 116.481 45.5888 116.634 49.5854 119.07C51.8292 120.436 54.8094 122.213 57.7627 123.943C69.8867 131.049 70.5196 131.049 71.0259 131.049C71.6089 131.049 72.142 130.735 72.4105 130.224C72.422 130.205 72.4335 130.182 72.4412 130.159C73.4192 128.985 78.0103 123.59 81.7576 119.186C85.0945 115.268 87.53 112.402 88.8034 110.898C91.3195 113.38 97.8053 120.962 101.15 124.868C102.235 126.134 103.171 127.232 103.846 128.01C105.127 129.488 105.292 129.68 105.917 129.768C105.986 129.779 106.059 129.783 106.128 129.783C106.347 129.783 106.447 129.772 132.536 124.3C132.958 124.212 133.322 123.951 133.541 123.583C133.759 123.214 133.813 122.769 133.69 122.355C133.376 121.315 127.956 112.475 123.68 105.845C119.023 98.6313 112.871 89.5532 109.998 87.2511C109.849 87.1321 109.68 87.0439 109.5 86.9863L75.6131 76.2775C75.5748 76.266 75.5326 76.2545 75.4904 76.243C75.4636 76.2353 75.4329 76.2315 75.406 76.2238L70.0938 75.1917C69.9941 75.1725 69.8982 75.1648 69.7985 75.1648L69.81 75.1533Z" fill="#51703C"/>
<path d="M213.154 96.4407C212.372 96.4407 211.493 95.7654 209.905 94.5414C208.513 93.4709 206.611 92.0014 204.217 90.6354C202.94 89.9026 202.227 89.6378 201.851 89.5496C201.889 89.588 201.939 89.6225 201.989 89.6493C202.119 89.7146 202.296 89.7951 202.499 89.8911C205.103 91.1035 207.405 92.3237 206.898 93.9121C206.745 94.3956 206.223 95.209 204.451 95.209C202.557 95.209 199.523 94.2191 197.636 92.3812C195.561 90.3668 194.82 88.4177 194.276 86.998C194.172 86.7256 194.076 86.4801 193.984 86.2614C192.151 85.2753 180.74 79.1247 178.416 77.6207C176.924 76.6538 168.67 71.9881 162.038 68.2394C157.827 65.8567 154.191 63.8001 153.42 63.332C151.986 62.4611 148.979 57.3119 149.934 53.9048C150.332 52.4736 151.564 50.77 155.158 50.77C156.028 50.77 157.014 50.8698 158.092 51.0693C158.149 51.0808 158.203 51.0962 158.253 51.1192C158.698 51.311 169.138 55.8155 175.363 62.1733C176.283 62.4649 180.1 63.8078 184.1 67.1728C188.028 70.4763 196.435 78.7756 197.804 80.13C199.385 80.3218 207.152 81.4269 210.251 84.7957C212.372 87.1016 215.789 91.752 215.156 94.5606C214.964 95.4047 214.431 96.0263 213.611 96.3601C213.469 96.4176 213.315 96.4483 213.154 96.4483V96.4407Z" fill="#FFB689"/>
<path d="M155.157 51.5297C155.959 51.5297 156.887 51.6218 157.954 51.8175C157.954 51.8175 168.781 56.4448 174.952 62.8409C174.952 62.8409 179.183 64.0304 183.609 67.7522C187.897 71.355 197.455 80.8552 197.455 80.8552C197.455 80.8552 206.461 81.7991 209.691 85.3098C212.916 88.8167 216.295 94.4455 213.327 95.6426C213.277 95.6618 213.219 95.6733 213.158 95.6733C212.08 95.6733 209.33 92.6728 204.601 89.9678C202.99 89.047 202.062 88.7323 201.548 88.7323C201.034 88.7323 200.93 89.0431 200.961 89.3654C200.999 89.7837 201.279 90.1443 201.655 90.3285C202.721 90.8541 206.568 92.4388 206.173 93.6743C206.008 94.1961 205.353 94.434 204.459 94.434C202.645 94.434 199.845 93.4479 198.176 91.8249C195.687 89.4038 195.227 87.0671 194.583 85.7012C194.583 85.7012 181.316 78.5684 178.834 76.9684C176.356 75.3646 155.771 63.85 153.823 62.6683C152.043 61.5863 146.696 51.5259 155.161 51.5259M155.157 49.995C150.869 49.995 149.581 52.3125 149.193 53.6938C148.112 57.5537 151.36 62.9752 153.021 63.9843C153.8 64.4563 157.267 66.4169 161.655 68.8994C168.279 72.6442 176.521 77.3099 177.998 78.2614C180.261 79.7233 190.95 85.494 193.378 86.8024C193.436 86.9443 193.493 87.1017 193.558 87.2705C194.095 88.6748 194.905 90.7966 197.102 92.9299C199.158 94.9289 202.357 95.9726 204.451 95.9726C206.795 95.9726 207.454 94.691 207.631 94.1424C207.662 94.0388 207.688 93.939 207.708 93.8393C208.352 94.3112 208.927 94.7563 209.437 95.1476C211.16 96.4752 212.111 97.2042 213.154 97.2042C213.415 97.2042 213.664 97.1582 213.898 97.0623C214.949 96.6402 215.662 95.8076 215.908 94.7217C216.775 90.881 211.432 84.9338 210.818 84.2662C207.665 80.8398 200.355 79.6696 198.161 79.3895C196.324 77.5708 188.453 69.8126 184.599 66.5742C180.729 63.3205 177.004 61.897 175.785 61.4903C169.441 55.0942 159.008 50.5935 158.56 50.4017C158.456 50.3556 158.349 50.325 158.237 50.3019C157.114 50.0947 156.078 49.9873 155.165 49.9873L155.157 49.995Z" fill="#51703C"/>
<path d="M123.887 48.9318C123.564 48.9318 123.269 48.7284 123.162 48.4138L119.138 36.6345C119.065 36.4235 119.088 36.1894 119.203 35.9976C120.864 33.1813 123.089 29.7895 124.316 29.5324C124.98 29.2791 128.846 26.3823 131.22 23.9765C131.212 23.9612 131.205 23.9497 131.201 23.9382C130.675 22.9367 129.797 21.26 130.265 19.3339C130.817 17.0624 132.263 16.7248 133.073 16.7248C133.268 16.7248 133.452 16.744 133.621 16.7747L133.985 15.2783C134.005 15.1977 134.035 15.121 134.081 15.0519L140.149 5.37141C140.295 5.1412 140.544 5.01074 140.801 5.01074C140.912 5.01074 141.024 5.03376 141.131 5.08748L153.965 11.2112C154.256 11.3493 154.429 11.6563 154.398 11.9786C154.39 12.0438 153.731 18.6509 152.453 24.4945C151.165 30.4417 147.977 36.8724 144.023 36.9261C143.348 36.9261 141.929 36.6115 140.793 36.1664L140.448 38.7908L141.165 44.1663C141.219 44.5577 140.966 44.9222 140.582 45.0143L124.067 48.9126C124.009 48.9279 123.948 48.9318 123.89 48.9318H123.887Z" fill="#FFB689"/>
<path d="M140.801 5.77451L153.635 11.8982C153.635 11.8982 152.986 18.4593 151.705 24.3221C150.424 30.2348 147.356 36.1052 144.015 36.1513H144C143.263 36.1513 141.142 35.6179 140.172 35.0117L139.673 38.7834L140.402 44.2586L123.887 48.1569L119.863 36.3776C119.863 36.3776 123.357 30.4496 124.473 30.2731C125.148 30.1734 129.805 26.605 132.144 24.1072C131.734 23.1979 130.522 21.4943 131.005 19.5029C131.408 17.8531 132.325 17.4809 133.069 17.4809C133.679 17.4809 134.173 17.7303 134.173 17.7303L134.729 15.4473L140.797 5.76683M140.801 4.23975C140.287 4.23975 139.789 4.49682 139.501 4.96108L133.433 14.6416C133.345 14.7797 133.28 14.9332 133.241 15.0943L133.03 15.9576C132.171 15.9692 130.207 16.3145 129.517 19.1538C129.049 21.0761 129.716 22.7144 130.28 23.831C128.083 25.9681 124.872 28.393 124.082 28.7959C123.411 28.9417 122.076 29.6209 118.544 35.6064C118.317 35.9939 118.268 36.4582 118.413 36.8841L122.437 48.6634C122.652 49.2965 123.246 49.7032 123.887 49.7032C124.002 49.7032 124.121 49.6917 124.239 49.661L140.755 45.7627C141.522 45.5824 142.028 44.8495 141.925 44.0668L141.223 38.791L141.434 37.1949C142.439 37.5018 143.455 37.6937 144 37.6937H144.031C148.43 37.6323 151.809 31.0981 153.205 24.6559C154.49 18.7739 155.134 12.3279 155.161 12.0555C155.226 11.4109 154.877 10.797 154.294 10.5208L141.461 4.39706C141.25 4.2973 141.024 4.24742 140.801 4.24742V4.23975Z" fill="#51703C"/>
<path d="M102.22 89.2618C92.359 89.2618 76.4148 86.4225 72.1152 81.0892C71.8966 80.8168 71.8889 80.4292 72.096 80.1492C81.0404 68.1665 88.0594 56.6712 89.2752 54.6606C88.4813 52.9916 83.1768 45.2909 78.298 38.4957C78.1638 38.3077 78.1216 38.0737 78.1791 37.8511C78.2367 37.6286 78.3939 37.4444 78.601 37.3485C79.0766 37.1298 80.0432 36.5811 81.2667 35.8867C86.6326 32.8363 97.7977 26.4901 108.038 24.8095C108.71 24.6982 109.507 24.6445 110.409 24.6445C116.339 24.6445 125.39 26.9812 125.774 27.081C125.996 27.1385 126.18 27.292 126.276 27.503C126.372 27.7141 126.368 27.9519 126.269 28.1591L126.058 28.5965C126.027 28.6579 125.989 28.7193 125.943 28.7692C122.199 32.9975 124.596 38.3883 125.843 39.7696C126.951 41.0051 128.505 41.6842 130.215 41.6842C130.465 41.6842 130.722 41.6689 130.979 41.642C133.656 41.3542 135.976 38.4842 137.514 36.585C137.898 36.113 138.224 35.7063 138.512 35.3994C138.661 35.2421 138.864 35.1576 139.072 35.1576C139.194 35.1576 139.317 35.1883 139.432 35.2497C139.536 35.3073 150.141 41.0166 167.228 54.5724C167.412 54.7182 167.519 54.9407 167.519 55.1748C167.519 55.4894 167.519 55.5009 165.717 57.922C164.566 59.4721 163.208 61.2524 162 62.8102C156.304 70.1502 155.787 70.1502 155.288 70.1502C155.012 70.1502 154.958 70.1502 137.982 60.5387C135.888 64.345 126.361 72.9396 115.901 82.1827C112.48 85.2062 109.78 87.5927 108.844 88.575C108.733 88.6939 108.587 88.7707 108.426 88.8014C106.738 89.1083 104.652 89.2656 102.22 89.2656V89.2618Z" fill="#FFF9EC"/>
<path d="M110.413 25.4117C116.312 25.4117 125.582 27.8213 125.582 27.8213L125.371 28.2587C121.275 32.8822 123.841 38.6951 125.275 40.2835C126.391 41.5267 128.067 42.4514 130.219 42.4514C130.491 42.4514 130.775 42.436 131.063 42.4054C134.764 42.0063 137.683 37.4097 139.071 35.9248C139.071 35.9248 149.523 41.4998 166.752 55.1707C166.752 55.3357 156.289 69.3788 155.288 69.3788C155.157 69.3788 137.618 59.445 137.618 59.445C136.54 63.9265 111.64 84.5154 108.292 88.0415C106.623 88.3446 104.54 88.4942 102.224 88.4942C91.8372 88.4942 76.6947 85.5436 72.7134 80.6056C82.655 67.2915 90.1228 54.741 90.1228 54.741C89.8504 53.2676 78.9231 38.0466 78.9231 38.0466C81.5351 36.8572 95.6229 27.6218 108.165 25.569C108.825 25.4616 109.584 25.4117 110.413 25.4117ZM110.413 23.877C109.469 23.877 108.629 23.9345 107.916 24.0535C97.5406 25.7532 86.2949 32.1455 80.8907 35.2188C79.6825 35.9056 78.7313 36.4466 78.2864 36.65C77.8683 36.8418 77.5577 37.2064 77.4388 37.6514C77.3199 38.0965 77.4081 38.5685 77.6766 38.9406C82.2561 45.3214 87.1886 52.4772 88.3929 54.6336C86.7015 57.4153 79.9587 68.3351 71.4861 79.6847C71.068 80.2449 71.0795 81.0199 71.5206 81.5648C76.173 87.3355 92.5928 90.0251 102.224 90.0251C104.701 90.0251 106.838 89.864 108.568 89.5494C108.886 89.4918 109.181 89.3307 109.404 89.0966C110.317 88.1374 113.14 85.6396 116.411 82.7504C128.604 71.9764 135.838 65.2695 138.258 61.5668C139.9 62.4954 142.773 64.1222 145.653 65.7452C147.855 66.9884 150.06 68.2315 151.725 69.1601C153.806 70.3239 154.995 70.9059 155.292 70.9059C156.097 70.9059 156.669 70.5298 158.675 68.1702C159.703 66.9615 161.026 65.3155 162.614 63.2704C163.826 61.7088 165.183 59.9208 166.338 58.3707C167.639 56.6185 168.29 55.5506 168.29 55.1669C168.29 54.6988 168.075 54.2537 167.711 53.9659C150.57 40.3641 140.234 34.7968 139.8 34.5666C139.574 34.4438 139.325 34.3862 139.079 34.3862C138.665 34.3862 138.254 34.5551 137.959 34.8735C137.656 35.1997 137.319 35.614 136.927 36.0975C135.558 37.7896 133.272 40.6212 130.906 40.8744C130.675 40.8975 130.449 40.9128 130.227 40.9128C128.313 40.9128 127.105 40.0111 126.426 39.2553C125.739 38.4917 122.847 33.427 126.525 29.2755C126.618 29.1719 126.694 29.0529 126.756 28.9302L126.967 28.4927C127.166 28.0784 127.174 27.5949 126.982 27.1805C126.79 26.7623 126.418 26.4515 125.973 26.3364C125.586 26.2366 116.442 23.877 110.416 23.877H110.413Z" fill="#51703C"/>
<path d="M129.908 24.9861C129.874 24.9861 129.836 24.9861 129.801 24.9784C129.571 24.9477 129.368 24.8096 129.249 24.6101C129.107 24.3722 125.785 18.7204 126.583 13.9358C127.634 7.63947 131.443 6.93732 132.62 6.87209C136.149 1.56949 142.063 0.767578 145.316 0.767578C148.929 0.767578 152.204 1.71913 153.566 2.65917C158.832 6.28888 158.874 10.4711 157.984 13.3411C157.279 15.6164 155.426 18.214 154.505 18.214C154.279 18.214 154.045 18.1065 153.899 17.9339C153.746 17.7535 153.685 17.5118 153.727 17.2701C153.842 16.5986 154.11 14.3425 152.714 13.7401C152.453 13.6289 152.162 13.5713 151.847 13.5713C150.647 13.5713 149.481 14.354 149.469 14.3617C149.339 14.45 149.189 14.496 149.036 14.496C148.971 14.496 148.906 14.4883 148.84 14.4692C148.626 14.4116 148.445 14.2658 148.346 14.0663C148.3 13.978 147.168 11.791 144.456 11.58C144.272 11.5646 144.088 11.5569 143.908 11.5569C138.247 11.5569 136.007 18.824 135.938 19.0734C135.853 19.5415 135.481 19.7564 135.163 19.7602C134.615 19.7602 134.434 19.2883 134.335 19.0351C134.032 18.2447 133.598 17.4351 132.701 17.4351C132.471 17.4351 132.214 17.485 131.934 17.5809C131.366 17.7804 131.002 18.1065 130.817 18.5823C130.307 19.9137 131.247 22.1123 131.65 22.8451C131.818 23.1521 131.757 23.5358 131.504 23.7736L130.43 24.7827C130.288 24.917 130.1 24.9899 129.905 24.9899L129.908 24.9861Z" fill="#DE8459"/>
<path d="M145.319 1.53476C148.829 1.53476 151.913 2.44794 153.136 3.29206C162.123 9.48866 155 17.4464 154.513 17.4464C154.494 17.4464 154.482 17.431 154.49 17.4003C154.575 16.9054 155.058 13.9088 153.025 13.034C152.641 12.869 152.243 12.8037 151.851 12.8037C150.386 12.8037 149.044 13.7246 149.044 13.7246C149.044 13.7246 147.736 11.0618 144.526 10.8086C144.318 10.7932 144.115 10.7855 143.92 10.7855C137.752 10.7855 135.297 18.4056 135.194 18.9198C135.186 18.9658 135.178 18.985 135.167 18.985C135.052 18.985 134.626 16.6598 132.705 16.6598C132.402 16.6598 132.064 16.7174 131.684 16.8478C128.148 18.0795 130.982 23.2056 130.982 23.2056L129.908 24.2147C129.908 24.2147 126.579 18.6243 127.339 14.0584C128.347 8.01912 131.918 7.62776 132.827 7.62776C132.962 7.62776 133.038 7.63543 133.038 7.63543C135.957 2.93523 140.966 1.52709 145.319 1.52709M145.319 0C139.62 0 134.994 2.17169 132.194 6.14288C130.557 6.35391 126.875 7.53184 125.827 13.8128C124.984 18.8737 128.443 24.7557 128.593 25.0051C128.831 25.4041 129.237 25.6765 129.697 25.7379C129.77 25.7494 129.839 25.7533 129.912 25.7533C130.3 25.7533 130.676 25.6075 130.963 25.3389L132.037 24.3298C132.551 23.8502 132.67 23.0828 132.329 22.4689C131.914 21.7092 131.17 19.8176 131.542 18.8507C131.615 18.6665 131.746 18.4555 132.194 18.302C132.39 18.233 132.566 18.1984 132.708 18.1984C133.004 18.1984 133.272 18.3864 133.625 19.3073C133.936 20.113 134.454 20.5236 135.171 20.5236C135.815 20.5236 136.529 20.0823 136.697 19.2421C136.797 18.9083 138.933 12.3241 143.92 12.3241C144.081 12.3241 144.242 12.3318 144.407 12.3433C146.666 12.5198 147.636 14.3423 147.674 14.4191C147.87 14.8181 148.227 15.1059 148.66 15.2172C148.787 15.2517 148.913 15.267 149.036 15.267C149.347 15.267 149.65 15.1711 149.911 14.9908C150.175 14.8143 151.057 14.3385 151.851 14.3385C152.066 14.3385 152.25 14.373 152.419 14.4421C153.171 14.7644 153.125 16.2915 152.979 17.1433C152.898 17.5999 153.021 18.068 153.32 18.4248C153.616 18.7778 154.053 18.9812 154.517 18.9812C154.885 18.9812 155.576 18.9812 156.918 17.1394C157.474 16.3797 158.237 15.1443 158.725 13.5711C159.518 11.0196 159.96 6.13137 154.011 2.02972C152.595 1.05131 149.27 0 145.323 0L145.319 0Z" fill="#51703C"/>
<path d="M77.7187 123.813C77.55 123.813 77.3774 123.755 77.2355 123.64C76.9056 123.372 76.8557 122.888 77.1242 122.562L92.3243 103.838C92.5928 103.508 93.0761 103.458 93.4021 103.727C93.7319 103.995 93.7818 104.479 93.5133 104.805L78.3132 123.529C78.1598 123.717 77.9412 123.813 77.7187 123.813Z" fill="#51703C"/>
<path d="M104.659 43.8865C103.393 44.8995 89.7965 55.2783 89.7965 55.2783L78.3936 38.3115" fill="#FFF9EC"/>
<path d="M89.7966 56.0419C89.7544 56.0419 89.7122 56.0419 89.67 56.0304C89.4629 55.9958 89.275 55.8769 89.1599 55.7004L77.757 38.7336C77.5192 38.3806 77.6151 37.9048 77.9641 37.667C78.317 37.4329 78.7926 37.525 79.0304 37.8742L89.9807 54.1656C92.7001 52.0899 103.094 44.1513 104.18 43.2803C104.51 43.0156 104.993 43.0693 105.258 43.3993C105.522 43.7293 105.468 44.2127 105.139 44.4775C103.881 45.4866 90.8207 55.4548 90.2645 55.8807C90.1303 55.9843 89.9654 56.038 89.8005 56.038L89.7966 56.0419Z" fill="#51703C"/>
</g>
<defs>
<clipPath id="clip0_254_9480">
<rect width="216" height="193" fill="white"/>
</clipPath>
</defs>
</svg>
