<svg width="178" height="186" viewBox="0 0 178 186" fill="none" xmlns="http://www.w3.org/2000/svg">
<g clip-path="url(#clip0_254_9436)">
<path d="M50.088 44.2528C47.8824 44.2528 46.0368 44.2112 45.3888 44.1507C44.7445 44.0902 41.9971 43.7157 38.5219 43.2428C31.7915 42.3311 22.5751 41.0789 20.1383 40.9163C19.4562 40.8709 17.3681 40.3034 14.4463 39.4636C14.0635 39.3539 13.7869 39.2745 13.677 39.2442C12.0929 38.8281 9.7471 38.2985 7.5529 38.1509C7.07919 38.1207 6.62443 38.0942 6.19241 38.0677C3.64576 37.9202 1.96695 37.8256 1.17112 36.861C0.830051 36.4486 0.701202 35.9266 0.784575 35.3175C1.11806 32.8775 10.0616 30.4943 12.5514 30.4678H12.6538C17.0687 30.4678 20.5287 33.4752 21.4799 34.3945C22.5486 34.315 25.6144 33.9973 28.8432 33.6606C34.6224 33.0629 41.8189 32.3176 43.5887 32.2874C44.1155 32.2798 45.1841 32.2722 46.7644 32.2722C52.8279 32.2722 64.716 32.3403 64.8335 32.3403C65.1859 32.3403 65.4929 32.5862 65.5687 32.9305C65.7203 33.5963 66.9898 39.5317 65.2655 42.229C64.8146 42.9364 64.2006 43.3752 63.4427 43.5416C60.3844 44.2112 51.7819 44.2453 50.088 44.2453V44.2528Z" fill="#FFB689"/>
<path d="M12.6537 31.228C17.4855 31.228 21.1842 35.1736 21.1842 35.1736C22.666 35.132 40.6972 33.0968 43.6 33.0476C44.1571 33.0363 45.2902 33.0325 46.753 33.0325C52.8847 33.0325 64.8297 33.1006 64.8297 33.1006C64.8297 33.1006 66.842 42.0321 63.2835 42.8076C60.9074 43.3259 54.5787 43.4923 50.0917 43.4923C47.8558 43.4923 46.0747 43.4507 45.4646 43.394C43.6342 43.2162 23.9431 40.4092 20.1876 40.1596C19.2629 40.099 14.4197 38.6577 13.8702 38.514C12.271 38.0941 9.86456 37.5493 7.60592 37.398C3.75564 37.137 1.28478 37.258 1.5349 35.4195C1.75091 33.8269 9.56896 31.2583 12.559 31.2242C12.5893 31.2242 12.6234 31.2242 12.6537 31.2242M12.6537 29.7148H12.5438C10.5732 29.7375 7.51497 30.5925 5.49509 31.315C0.31084 33.1762 0.113779 34.6062 0.0304062 35.219C-0.109811 36.2518 0.253996 36.9478 0.583696 37.345C1.58795 38.5632 3.39941 38.6691 6.14691 38.8242C6.57514 38.8507 7.02611 38.8734 7.49981 38.9074C9.63339 39.0512 11.9299 39.5694 13.4799 39.978C13.586 40.0045 13.8551 40.0839 14.2264 40.1898C17.838 41.2264 19.4258 41.6273 20.0852 41.6727C22.4993 41.8316 32.0795 43.133 38.4196 43.9917C42.0387 44.4835 44.6574 44.8391 45.313 44.8996C45.9951 44.9639 47.8255 45.0055 50.0841 45.0055C51.7895 45.0055 60.4678 44.9715 63.6018 44.2868C64.553 44.0787 65.3489 43.5113 65.9022 42.6412C67.7477 39.7434 66.5616 33.9101 66.3039 32.7677C66.1485 32.0792 65.5383 31.5912 64.8335 31.5874C64.7122 31.5874 52.8089 31.5193 46.7455 31.5193C45.1652 31.5193 44.0965 31.5231 43.5659 31.5344C41.7621 31.5647 34.8535 32.2797 28.756 32.9114C25.9289 33.2027 23.026 33.5054 21.7451 33.6151C20.4566 32.4386 16.9967 29.7148 12.6462 29.7148H12.6537Z" fill="#51703C"/>
<path d="M132.066 89.9244C132.039 89.9244 132.012 89.9244 131.986 89.9206C131.755 89.8979 131.55 89.7693 131.425 89.5726L120.431 72.311C120.249 72.0273 120.28 71.6603 120.5 71.4069L133.089 56.9673C133.13 56.816 133.225 56.6723 133.362 56.5701C133.498 56.468 133.657 56.415 133.82 56.415C134.025 56.415 134.226 56.4983 134.373 56.6534L134.423 56.7063C134.498 56.7858 134.552 56.8803 134.586 56.9787C135.393 58.367 139.823 66.3037 139.823 73.9263C139.823 82.2374 132.907 89.391 132.611 89.6936C132.467 89.8412 132.274 89.9206 132.069 89.9206L132.066 89.9244Z" fill="#FFB689"/>
<path d="M133.816 57.1753L133.866 57.2282L133.854 57.2396C133.828 57.198 133.816 57.1753 133.816 57.1753ZM133.854 57.2396C134.332 58.0416 139.061 66.1938 139.061 73.93C139.061 81.6661 132.066 89.1677 132.066 89.1677L121.072 71.9061L133.854 57.2396ZM133.816 55.6621C133.498 55.6621 133.176 55.7642 132.903 55.9685C132.687 56.1312 132.528 56.343 132.426 56.5776L119.931 70.915C119.491 71.4219 119.435 72.1558 119.795 72.7194L130.788 89.981C131.039 90.3707 131.452 90.6279 131.91 90.6733C131.963 90.6771 132.016 90.6809 132.069 90.6809C132.475 90.6809 132.865 90.5182 133.153 90.2269C133.456 89.9167 140.581 82.5475 140.581 73.93C140.581 66.1901 136.155 58.1778 135.264 56.6457C135.196 56.483 135.101 56.3317 134.976 56.1993L134.927 56.1463C134.631 55.8286 134.226 55.6659 133.816 55.6659V55.6621Z" fill="#51703C"/>
<path d="M99.8082 31.9541C97.0455 31.9541 92.9982 31.0727 92.8238 31.0348C92.7177 31.0121 92.6192 30.9667 92.532 30.8986C92.3463 30.7587 87.939 27.4032 86.7073 22.5572C85.9001 19.3758 86.01 14.1667 86.0176 13.9473V13.55C86.0176 13.3155 86.1275 13.0961 86.3094 12.9523C86.4421 12.8464 86.6088 12.7935 86.7755 12.7935C86.84 12.7935 86.9006 12.801 86.965 12.8162L95.0256 14.8854C95.2265 14.9346 95.3932 15.067 95.4955 15.2448C96.712 17.3822 102.787 28.1598 102.893 30.2593C102.912 30.6338 102.783 30.9743 102.525 31.2467C102.063 31.7309 101.199 31.9579 99.8082 31.9579V31.9541Z" fill="#FFB689"/>
<path d="M86.7717 13.5503L94.8323 15.6196C94.8323 15.6196 102.029 28.2735 102.131 30.2974C102.165 30.9745 101.157 31.1977 99.8043 31.1977C97.0947 31.1977 92.983 30.2974 92.983 30.2974C92.983 30.2974 88.6173 27.0176 87.4387 22.3759C86.6467 19.2588 86.7717 13.9664 86.7717 13.9664V13.5503ZM86.7717 12.0371C86.4382 12.0371 86.1123 12.1468 85.8433 12.3549C85.4719 12.6424 85.2559 13.0812 85.2559 13.5503V13.9513C85.2483 14.3598 85.1535 19.5311 85.9683 22.7466C87.2644 27.8498 91.8764 31.3604 92.0734 31.5079C92.2478 31.6403 92.4486 31.7311 92.6608 31.7765C92.8352 31.8144 96.9621 32.7147 99.8081 32.7147C101.445 32.7147 102.45 32.4234 103.075 31.769C103.473 31.3491 103.677 30.8043 103.651 30.2255C103.624 29.7035 103.571 28.6216 99.7892 21.4945C97.9891 18.0974 96.1738 14.9084 96.1549 14.8743C95.9503 14.5187 95.613 14.2577 95.2151 14.1556L87.1545 12.0863C87.0294 12.056 86.9044 12.0371 86.7755 12.0371H86.7717Z" fill="#51703C"/>
<path d="M103.086 29.1474C95.7833 29.1474 94.7071 28.0957 94.3546 27.7477C93.4565 26.8663 93.2973 25.5384 93.1306 24.1274C92.9373 22.5272 92.7402 20.8703 91.5048 19.6446C90.3528 18.4984 88.9695 17.5413 87.8592 16.7733C86.2599 15.6649 85.2974 14.9954 85.2329 14.0988C84.9525 10.0397 85.809 7.55809 88.4011 4.93651C90.9477 2.35653 94.5744 0.756348 97.8676 0.756348C100.505 0.756348 108.57 2.11443 110.923 8.15201C113.068 13.66 107.887 27.551 107.668 28.1411C107.599 28.3227 107.463 28.4702 107.289 28.5572L106.334 29.0188C106.243 29.0641 106.14 29.0868 106.038 29.0944C105.985 29.0944 104.753 29.1549 103.082 29.1549L103.086 29.1474Z" fill="#DE8459"/>
<path d="M97.8715 1.51306C100.869 1.51306 108.126 3.04893 110.222 8.42829C112.287 13.7282 106.963 27.8764 106.963 27.8764L106.008 28.3379C106.008 28.3379 104.757 28.3947 103.09 28.3947C100.153 28.3947 95.9122 28.2131 94.8928 27.2106C93.2936 25.6407 94.5934 21.6421 92.043 19.1113C89.4963 16.5805 86.0667 15.0598 85.9947 14.0497C85.7332 10.3008 86.4457 8.00081 88.9468 5.47002C91.4442 2.93923 94.8776 1.51306 97.8753 1.51306M97.8715 -0.000123302C94.3812 -0.000123302 90.5461 1.68707 87.863 4.40701C85.1307 7.16856 84.1833 9.90364 84.4788 14.1519C84.566 15.4116 85.7029 16.1985 87.4272 17.3939C88.5679 18.1845 89.8639 19.0811 90.9705 20.1819C92.0203 21.2222 92.1946 22.6787 92.3803 24.2183C92.5584 25.6937 92.7403 27.222 93.8279 28.285C94.3206 28.7692 95.4764 29.9003 103.09 29.9003C104.776 29.9003 106.027 29.8436 106.08 29.8398C106.285 29.8284 106.485 29.7792 106.667 29.6922L107.622 29.2307C107.971 29.0605 108.244 28.7654 108.38 28.4023C108.945 26.9004 113.845 13.5504 111.635 7.87598C109.4 2.13724 102.006 -0.00390625 97.8753 -0.00390625L97.8715 -0.000123302Z" fill="#51703C"/>
<path d="M105.182 24.3735C103.457 24.3735 102.506 23.163 101.585 21.9903C101.244 21.559 100.892 21.1088 100.494 20.7041C100.236 20.443 99.9481 20.1782 99.6412 19.8983C98.1897 18.5705 96.3821 16.9173 96.3821 14.099C96.3821 11.2807 99.8307 11.1559 100.964 11.1559C101.695 11.1559 102.449 11.2013 103.177 11.2429C103.844 11.2807 104.477 11.3186 105.034 11.3186C106.023 11.3186 106.879 10.6187 107.709 9.94535C108.551 9.26063 109.418 8.55322 110.476 8.55322C111.211 8.55322 111.893 8.88612 112.571 9.57084C114.819 11.8482 113.788 14.8556 112.81 16.3347C112.791 16.3953 112.769 16.4558 112.734 16.5125C112.723 16.5315 111.556 18.5629 112.621 19.6448C113.057 20.0874 113.178 20.6511 112.95 21.1921C112.17 23.0533 106.743 24.3773 105.189 24.3773L105.182 24.3735Z" fill="#DE8459"/>
<path d="M110.472 9.30993C110.957 9.30993 111.465 9.53313 112.026 10.1006C114.576 12.6843 112.026 16.1268 112.026 16.1268H112.075C112.075 16.1268 110.578 18.6576 112.075 20.1746C113.576 21.6953 107.08 23.617 105.182 23.617C103.283 23.617 102.533 21.6953 101.032 20.1746C99.5352 18.6576 97.1363 17.1369 97.1363 14.0991C97.1363 12.2795 98.9023 11.9126 100.96 11.9126C102.332 11.9126 103.833 12.0753 105.03 12.0753C107.365 12.0753 108.763 9.30993 110.472 9.30993ZM110.472 7.79675C109.146 7.79675 108.126 8.62522 107.228 9.35911C106.47 9.97951 105.75 10.5621 105.03 10.5621C104.496 10.5621 103.874 10.5243 103.219 10.4864C102.48 10.4448 101.714 10.3994 100.96 10.3994C99.5162 10.3994 98.4627 10.5734 97.6479 10.9442C96.3405 11.5419 95.6243 12.6578 95.6243 14.0954C95.6243 17.2503 97.6517 19.1002 99.1297 20.4545C99.4291 20.7269 99.7133 20.9879 99.9558 21.2338C100.327 21.6083 100.665 22.0396 100.99 22.4557C101.926 23.6473 103.09 25.1264 105.186 25.1264C106.508 25.1264 112.628 23.9121 113.648 21.4797C113.993 20.655 113.811 19.7698 113.159 19.1078C112.617 18.5555 113.197 17.2276 113.367 16.9174C113.417 16.8342 113.462 16.7472 113.496 16.6564C114.58 14.9503 115.649 11.6062 113.106 9.03378C112.291 8.20909 111.404 7.79297 110.472 7.79297V7.79675Z" fill="#51703C"/>
<path d="M133.858 87.7419L94.1008 84.6852C93.881 84.6701 93.6801 84.5566 93.5475 84.3788C93.4149 84.201 93.3694 83.974 93.4186 83.7622L96.3746 70.9418C96.2798 67.8738 90.8417 58.5375 87.2339 52.3448C86.3017 50.7446 85.4831 49.3411 84.8427 48.1949C78.0137 48.6413 63.8518 48.7056 63.704 48.7056C63.3099 48.7056 62.9839 48.4068 62.9498 48.0133L61.4491 30.6042C61.415 30.2108 61.6917 29.859 62.082 29.7947C62.1995 29.7757 74.08 27.8389 90.8038 27.8389C98.474 27.8389 106.027 28.2436 113.25 29.0381C126.525 30.4983 140.016 54.2249 140.581 55.235C140.611 55.2842 140.634 55.3409 140.649 55.3976C140.839 56.0559 140.858 56.124 133.877 61.1439C131.251 63.0354 128.587 64.9155 127.654 65.57C127.859 67.3858 129.322 71.7022 130.743 75.8823C131.114 76.9794 131.493 78.0953 131.865 79.2L134.631 86.7318C134.718 86.9739 134.68 87.2425 134.525 87.4506C134.381 87.6397 134.157 87.7494 133.922 87.7494C133.904 87.7494 133.885 87.7494 133.866 87.7494L133.858 87.7419Z" fill="#FFF9EC"/>
<path d="M90.7963 28.5991C97.5684 28.5991 105.167 28.9131 113.159 29.7945C126.199 31.2283 139.914 55.6094 139.914 55.6094C140.012 55.9498 126.866 65.1954 126.866 65.1954C126.866 67.2192 129.136 73.4422 131.141 79.4419L133.915 86.9927L94.1577 83.9361L97.1364 71.0249C97.1364 66.9771 88.4088 53.0899 85.271 47.4117C78.6012 47.8922 63.7002 47.9527 63.7002 47.9527L62.1995 30.5436C62.1995 30.5436 73.9399 28.5991 90.7963 28.5991ZM90.7963 27.0859C74.0119 27.0859 62.0707 29.0304 61.9532 29.0493C61.1725 29.1779 60.623 29.8853 60.6913 30.6722L62.192 48.0813C62.2602 48.8644 62.9158 49.4659 63.7002 49.4659H63.7078C64.2914 49.4659 77.4377 49.4053 84.4145 48.9854C85.0208 50.0522 85.756 51.3157 86.5784 52.7305C89.9019 58.4352 95.4234 67.9115 95.6129 70.8773L92.6797 83.5994C92.5812 84.0307 92.6759 84.4808 92.9336 84.8364C93.1951 85.192 93.5968 85.4152 94.0402 85.4493L133.797 88.5059C133.835 88.5059 133.877 88.5097 133.915 88.5097C134.389 88.5097 134.836 88.2903 135.124 87.9082C135.435 87.4958 135.518 86.9587 135.34 86.4744L132.573 78.9426C132.206 77.8417 131.831 76.7334 131.459 75.6439C130.209 71.9668 128.814 67.8623 128.469 65.9255C129.621 65.1121 131.986 63.4401 134.317 61.7604C136.227 60.3872 137.746 59.2788 138.83 58.4617C139.497 57.9624 139.99 57.5803 140.342 57.2928C140.903 56.835 141.669 56.2109 141.373 55.1932C141.339 55.0798 141.297 54.9738 141.237 54.8717C140.661 53.8503 126.984 29.7983 113.326 28.2965C106.076 27.4983 98.4968 27.0935 90.7963 27.0935V27.0859Z" fill="#51703C"/>
<path d="M139.02 104.757C138.644 104.757 138.322 104.481 138.269 104.106L138.262 104.053C138.216 103.732 138.383 103.414 138.675 103.27C138.781 103.217 138.898 103.191 139.012 103.191C139.209 103.191 139.406 103.267 139.55 103.414L139.599 103.463C139.812 103.675 139.876 103.989 139.77 104.269C139.664 104.549 139.402 104.738 139.103 104.753C139.103 104.753 139.035 104.753 139.02 104.753V104.757Z" fill="#FFB689"/>
<path d="M139.012 103.948L139.061 103.997H139.02L139.012 103.948ZM139.012 102.435C138.781 102.435 138.55 102.488 138.334 102.593C137.75 102.885 137.417 103.516 137.511 104.163L137.519 104.216C137.629 104.965 138.269 105.514 139.02 105.514C139.05 105.514 139.076 105.514 139.107 105.514H139.148C139.743 105.476 140.263 105.098 140.479 104.542C140.691 103.986 140.558 103.358 140.138 102.934L140.088 102.885C139.796 102.593 139.41 102.438 139.016 102.438L139.012 102.435Z" fill="#51703C"/>
<path d="M164.335 168.901C164.122 168.901 163.914 168.81 163.766 168.647L150.851 154.124C146.277 149.21 141.616 144.266 140.471 143.108C138.19 140.797 135.973 136.451 135.446 135.384C135.01 135.164 134.586 134.956 134.173 134.756C130.83 133.118 128.193 131.824 126.34 128.071L124.342 124.024L115.346 105.752C115.236 105.525 115.243 105.256 115.372 105.037C115.501 104.817 115.729 104.678 115.982 104.662L138.978 103.248C138.978 103.248 139.008 103.248 139.024 103.248C139.399 103.248 139.717 103.52 139.774 103.894L142.715 124.205C144.064 125.098 149.695 128.888 153.28 132.524C155.55 134.82 158.184 140.332 161.11 148.9C162.08 150.78 168.681 166.063 168.966 166.722C169.053 166.922 169.049 167.149 168.954 167.346C168.859 167.543 168.689 167.69 168.477 167.751L164.543 168.878C164.475 168.897 164.403 168.908 164.335 168.908V168.901Z" fill="#FFB689"/>
<path d="M139.02 104.001L142.01 124.648C142.01 124.648 148.74 128.998 152.734 133.05C155.581 135.932 158.563 143.79 160.405 149.192C161.254 150.784 168.264 167.013 168.264 167.013L164.331 168.14L151.416 153.618C146.796 148.658 142.161 143.74 141.009 142.575C138.512 140.045 136.011 134.82 136.011 134.82C132.013 132.793 129.015 131.783 127.014 127.731L125.017 123.683L116.02 105.412L139.016 103.997M139.02 102.487C138.989 102.487 138.955 102.487 138.925 102.487L115.929 103.902C115.422 103.933 114.967 104.216 114.713 104.651C114.459 105.09 114.44 105.623 114.664 106.077L123.66 124.349L125.657 128.397C127.628 132.384 130.504 133.795 133.839 135.429C134.177 135.596 134.525 135.766 134.881 135.944C135.579 137.328 137.716 141.391 139.933 143.638C141.078 144.796 145.724 149.729 150.298 154.639L163.202 169.147C163.493 169.476 163.91 169.654 164.335 169.654C164.475 169.654 164.615 169.635 164.751 169.593L168.685 168.466C169.102 168.345 169.451 168.053 169.636 167.66C169.822 167.267 169.83 166.813 169.659 166.412C168.954 164.781 162.864 150.686 161.807 148.594C158.851 139.946 156.16 134.355 153.815 131.983C150.396 128.518 145.159 124.917 143.412 123.751L140.52 103.774C140.411 103.025 139.77 102.476 139.02 102.476V102.487Z" fill="#51703C"/>
<path d="M61.04 172.359C60.9983 172.359 60.9566 172.359 60.9149 172.347L54.446 171.269C54.0481 171.201 53.7714 170.834 53.8169 170.433L56.0225 151.711C57.3905 138.49 58.1447 130.671 58.1447 129.71C58.1447 127.64 59.6189 122.847 61.3659 121.081C62.7718 119.655 71.0371 108.688 73.5193 105.31C76.5359 101.239 81.7277 96.73 81.9475 96.5408C82.0877 96.4198 82.2658 96.3555 82.4439 96.3555C82.5576 96.3555 82.6675 96.3819 82.7736 96.4311L106.004 107.644C106.19 107.648 106.372 107.723 106.516 107.863C106.811 108.158 106.815 108.635 106.523 108.93C106.376 109.078 106.053 109.46 105.644 109.936C103.363 112.607 98.0194 118.856 92.839 121.505C87.4842 124.24 76.5131 130.591 74.2507 131.908C74.3303 133.092 74.4061 136.213 73.4473 139.693C72.7917 142.069 70.84 146.828 68.949 151.428L68.2252 153.187C67.6188 155.025 62.6961 169.964 61.7221 171.935C61.5933 172.196 61.328 172.359 61.0438 172.359H61.04Z" fill="#FFB689"/>
<path d="M82.4439 97.1123L105.932 108.45L105.981 108.401C104.981 109.414 98.5385 117.741 92.4902 120.831C86.4419 123.918 73.451 131.492 73.451 131.492C73.451 131.492 73.883 135.241 72.712 139.489C71.9882 142.129 69.5856 147.857 67.5088 152.922C67.4975 152.952 62.0328 169.575 61.0399 171.602L54.571 170.524L56.7765 151.802C57.6633 143.253 58.9025 131.015 58.9025 129.71C58.9025 127.686 60.4032 123.131 61.9039 121.611C63.4008 120.094 71.9314 108.745 74.1294 105.756C77.1308 101.709 82.4401 97.1123 82.4401 97.1123M82.4439 95.5991C82.0876 95.5991 81.7314 95.724 81.451 95.9698C81.2274 96.1628 75.9787 100.725 72.9129 104.856C70.514 108.121 62.1844 119.174 60.8277 120.548C58.9291 122.469 57.3905 127.467 57.3905 129.71C57.3905 130.149 57.1858 133.16 55.272 151.636L53.0665 170.346C52.9717 171.148 53.525 171.882 54.3208 172.015L60.7898 173.093C60.8731 173.108 60.9565 173.112 61.0399 173.112C61.6121 173.112 62.1427 172.79 62.4004 172.264C63.4008 170.229 68.2933 155.381 68.9337 153.444C69.1687 152.869 69.4074 152.29 69.6462 151.704C71.5448 147.085 73.5078 142.307 74.171 139.89C75.0464 136.705 75.0806 133.799 75.0237 132.328C77.9569 130.625 88.1018 124.769 93.1761 122.178C98.493 119.462 103.905 113.129 106.216 110.428C106.584 109.997 106.906 109.623 107.042 109.479C107.323 109.203 107.493 108.824 107.493 108.401C107.493 107.644 106.936 107.016 106.209 106.906L83.0995 95.7504C82.891 95.6483 82.6636 95.5991 82.4401 95.5991H82.4439Z" fill="#51703C"/>
<path d="M158.26 185.243C156.122 185.243 154.879 184.812 154.341 183.889C153.67 182.731 154.444 181.392 155.008 180.416L155.118 180.223C155.895 178.858 157.153 177.81 158.26 176.891C158.722 176.505 159.162 176.142 159.51 175.794C160.981 174.341 160.931 172.23 160.863 169.306C160.848 168.685 160.833 168.038 160.833 167.369C160.833 162.988 164.725 161.399 167.34 161.399C169.632 161.399 171.876 164.426 174.472 167.933C174.942 168.564 175.412 169.204 175.885 169.82C177.325 171.613 177.595 173.618 176.806 176.72C176.154 179.281 174.028 185.243 168.374 185.243H158.256H158.26Z" fill="#FFF9EC"/>
<path d="M167.347 162.156C169.644 162.156 172.452 166.575 175.29 170.278C176.484 171.765 176.863 173.444 176.079 176.535C175.787 177.674 174.013 184.487 168.382 184.487H158.263C153.322 184.487 154.955 182.051 155.785 180.594C156.812 178.79 158.847 177.522 160.052 176.327C162.102 174.299 161.602 171.265 161.602 167.365C161.602 163.465 165.051 162.152 167.351 162.152M167.347 160.643C163.736 160.643 160.082 162.954 160.082 167.369C160.082 168.05 160.098 168.697 160.113 169.325C160.181 172.332 160.162 174.091 158.983 175.256C158.658 175.578 158.233 175.934 157.782 176.308C156.623 177.273 155.311 178.362 154.466 179.849L154.356 180.038C153.776 181.048 152.803 182.735 153.689 184.267C154.587 185.818 156.729 186 158.263 186H168.382C172.672 186 176.098 182.599 177.549 176.906C178.39 173.596 178.076 171.334 176.488 169.344C176.022 168.738 175.552 168.099 175.093 167.479C172.376 163.809 170.027 160.639 167.351 160.639L167.347 160.643Z" fill="#51703C"/>
<path d="M41.4891 183.711C38.1352 183.711 35.7818 183.412 34.2887 182.792C32.3977 182.009 32.0794 180.897 32.0566 180.303C32.0111 179.051 33.0457 177.889 35.1338 176.845C36.085 176.372 37.9495 175.616 40.1058 174.742C43.6226 173.316 48.9357 171.163 49.8073 170.278C50.2811 169.801 50.8116 168.886 51.3232 167.997C52.3199 166.279 53.1043 164.921 54.2337 164.921C54.4876 164.921 54.8665 164.997 55.2266 165.364C55.8026 165.943 56.0641 166.631 56.2952 167.237C56.6515 168.167 56.8864 168.784 58.0423 169.075C58.3075 169.143 58.588 169.177 58.876 169.177C60.1038 169.177 61.3734 168.576 62.4496 167.49C62.7604 167.176 63.0863 167.108 63.3061 167.108C64.0716 167.108 64.9243 167.687 65.9437 171.871C66.4742 174.05 66.9707 176.925 67.2056 179.191C67.3724 180.814 66.3454 182.293 64.7613 182.713C63.7305 182.985 62.6543 183.121 61.5553 183.121C60.0811 183.121 58.5918 182.871 57.1252 182.376C55.8102 182.573 47.8633 183.719 41.4853 183.719L41.4891 183.711Z" fill="#FFF9EC"/>
<path d="M54.2375 165.678C54.3929 165.678 54.5444 165.746 54.6885 165.894C55.939 167.157 55.4161 169.196 57.8604 169.809C58.1863 169.892 58.5274 169.934 58.8798 169.934C60.21 169.934 61.6879 169.336 62.9916 168.02C63.0977 167.914 63.2 167.865 63.3099 167.865C64.606 167.865 66.0385 175.223 66.4553 179.267C66.5842 180.511 65.7846 181.657 64.5719 181.979C63.7609 182.191 62.7415 182.365 61.5591 182.365C60.2782 182.365 58.804 182.164 57.201 181.601C57.201 181.601 48.4545 182.963 41.4891 182.963C38.6544 182.963 36.1116 182.736 34.5806 182.1C32.2044 181.116 31.9695 179.278 35.4749 177.53C38.158 176.191 48.8524 172.336 50.3493 170.815C51.6757 169.476 53.0703 165.686 54.2375 165.686M54.2375 164.165C52.6724 164.165 51.7439 165.765 50.6714 167.619C50.2053 168.425 49.6747 169.336 49.273 169.745C48.4658 170.539 42.8458 172.817 39.8216 174.042C37.6502 174.924 35.7743 175.684 34.7966 176.172C32.4205 177.356 31.2457 178.756 31.3025 180.333C31.329 181.109 31.7156 182.55 34.0007 183.496C35.5886 184.154 38.0367 184.472 41.4929 184.472C47.7648 184.472 55.3062 183.409 57.0684 183.148C58.5577 183.628 60.066 183.874 61.5629 183.874C62.7263 183.874 63.867 183.727 64.9622 183.439C66.9063 182.925 68.172 181.105 67.9636 179.111C67.7249 176.815 67.2246 173.902 66.6865 171.693C65.8831 168.398 65.038 166.355 63.3137 166.355C62.7983 166.355 62.3019 166.571 61.9153 166.964C60.9831 167.906 59.9068 168.428 58.8836 168.428C58.6562 168.428 58.4402 168.402 58.2318 168.349C57.4928 168.164 57.3677 167.91 57.0115 166.976C56.7652 166.333 56.4582 165.534 55.7723 164.838C55.2304 164.29 54.643 164.173 54.2413 164.173L54.2375 164.165Z" fill="#51703C"/>
<path d="M117.062 128.503C116.93 128.503 116.801 128.469 116.683 128.401C116.509 128.299 116.38 128.132 116.331 127.936L111.541 109.622L91.0046 126.207C90.8643 126.32 90.6976 126.377 90.5271 126.377C90.3414 126.377 90.1595 126.309 90.0155 126.176L69.7825 107.644C69.4869 107.371 69.4528 106.917 69.7105 106.607C74.8 100.415 87.0103 87.9687 92.2248 82.6536C93.1116 81.7495 93.8203 81.0269 94.294 80.5389C94.366 80.4633 94.4531 80.4065 94.5479 80.3687C98.762 78.6172 106.656 77.5693 115.66 77.5693C122.159 77.5693 130.337 78.1822 132.009 79.9072C134.578 82.559 142.411 114.517 143.298 118.153C143.328 118.278 143.328 118.402 143.294 118.527C143.116 119.197 142.745 120.593 129.784 124.758C123.554 126.759 117.335 128.458 117.271 128.476C117.206 128.495 117.138 128.503 117.07 128.503H117.062Z" fill="#FFF9EC"/>
<path d="M115.656 78.3259C123.353 78.3259 130.209 79.1393 131.459 80.433C133.96 83.013 142.555 118.331 142.555 118.331C141.847 120.998 117.062 127.743 117.062 127.743L111.977 108.294L90.5272 125.62L70.2942 107.088C76.1947 99.9076 91.4897 84.511 94.836 81.0686C99.4935 79.1317 107.994 78.3259 115.656 78.3259ZM115.656 76.8127C106.557 76.8127 98.5574 77.8795 94.2562 79.6689C94.0667 79.7483 93.8962 79.8656 93.7522 80.0131C93.2785 80.4973 92.5698 81.2237 91.6792 82.1278C86.0175 87.9006 74.2317 99.9114 69.1232 106.127C68.6116 106.747 68.676 107.659 69.271 108.2L89.504 126.733C89.792 126.997 90.1596 127.13 90.5272 127.13C90.8644 127.13 91.2017 127.016 91.4822 126.793L111.105 110.942L115.6 128.121C115.702 128.511 115.956 128.847 116.308 129.048C116.539 129.184 116.805 129.252 117.066 129.252C117.199 129.252 117.335 129.233 117.464 129.199C117.525 129.184 123.766 127.482 130.008 125.473C133.695 124.289 136.674 123.226 138.857 122.318C142.794 120.68 143.753 119.727 144.022 118.713C144.086 118.467 144.09 118.213 144.029 117.967C144.007 117.88 141.847 109.017 139.41 99.9493C134.385 81.2653 133.096 79.9375 132.547 79.3738C131.948 78.7534 130.682 77.9665 126.169 77.3878C123.262 77.0132 119.529 76.8052 115.656 76.8052V76.8127Z" fill="#51703C"/>
<path d="M122.808 52.0308C122.808 52.0308 126.116 63.1072 130.069 73.6881L122.808 52.0308Z" fill="#FFF9EC"/>
<path d="M130.065 74.4446C129.758 74.4446 129.47 74.2554 129.356 73.9528C125.441 63.4703 122.114 52.3597 122.08 52.2463C121.959 51.8453 122.19 51.4254 122.591 51.3043C122.993 51.187 123.414 51.414 123.535 51.815C123.569 51.9247 126.881 62.9898 130.777 73.4232C130.925 73.8166 130.724 74.2517 130.33 74.3954C130.243 74.4295 130.152 74.4446 130.065 74.4446Z" fill="#51703C"/>
<path d="M116.024 103.948C106.607 112.913 98.3567 120.248 98.3567 120.248L116.024 103.948Z" fill="#FFF9EC"/>
<path d="M98.3567 121.005C98.1482 121.005 97.9398 120.918 97.792 120.752C97.5154 120.441 97.5419 119.961 97.8526 119.685C97.936 119.613 106.201 112.251 115.501 103.399C115.804 103.112 116.286 103.123 116.574 103.426C116.862 103.728 116.85 104.205 116.547 104.496C107.228 113.367 98.9441 120.744 98.8607 120.816C98.7167 120.945 98.5348 121.009 98.3567 121.009V121.005Z" fill="#51703C"/>
</g>
<defs>
<clipPath id="clip0_254_9436">
<rect width="178" height="186" fill="white"/>
</clipPath>
</defs>
</svg>
