<svg width="109" height="109" viewBox="0 0 109 109" fill="none" xmlns="http://www.w3.org/2000/svg">
<path d="M53.9095 108.092C83.6829 108.092 107.819 83.9561 107.819 54.1827C107.819 24.4093 83.6829 0.273193 53.9095 0.273193C24.1361 0.273193 0 24.4093 0 54.1827C0 83.9561 24.1361 108.092 53.9095 108.092Z" fill="#E58A59"/>
<path d="M99.7719 62.5667C104.576 37.6199 88.2468 13.5022 63.3 8.69831C38.3532 3.89441 14.2355 20.2234 9.43164 45.1702C4.62773 70.117 20.9568 94.2347 45.9035 99.0386C70.8503 103.842 94.968 87.5135 99.7719 62.5667Z" fill="#EFB698"/>
<rect x="49" y="76" width="10" height="10" rx="5" fill="#E58A59"/>
<rect x="49" y="19" width="10" height="54" rx="5" fill="#E58A59"/>
</svg>
