<svg width="76" height="85" viewBox="0 0 76 85" fill="none" xmlns="http://www.w3.org/2000/svg">
<mask id="mask0_664_79" style="mask-type:luminance" maskUnits="userSpaceOnUse" x="0" y="0" width="76" height="85">
<path d="M75.5253 0H0V84.3894H75.5253V0Z" fill="white"/>
</mask>
<g mask="url(#mask0_664_79)">
<path d="M45.3478 12.4397C45.2175 10.2233 43.7456 8.83429 41.5069 8.81449H41.4641C39.943 8.81449 38.7571 9.54151 37.7022 10.3275C37.3945 10.5563 37.0931 10.7933 36.7393 11.0711L36.6104 11.1721L36.5886 10.9955C36.5356 10.5659 36.4938 10.2266 36.4309 9.87877C36.1123 8.12529 35.1017 7.20089 33.3415 7.05225C32.7237 6.98511 32.0988 7.06118 31.5148 7.27459C30.9308 7.48806 30.4033 7.83317 29.9727 8.28346C29.2943 8.99041 28.6761 9.7532 28.1243 10.5637C24.5112 15.9225 21.2225 21.4953 18.2761 27.2516C18.1067 27.557 17.919 27.8518 17.7141 28.1344L17.6288 28.2576L17.5378 28.0811C17.3502 27.7198 17.192 27.4154 17.0308 27.1132C15.809 24.7081 13.7759 22.8182 11.2952 21.7815C10.5791 21.4591 9.78989 21.3361 9.0103 21.4253C8.23072 21.5146 7.48939 21.8129 6.86379 22.2889C6.23978 22.8041 5.76505 23.4786 5.48936 24.2416C5.21369 25.0045 5.14709 25.8279 5.29667 26.6256C5.40555 27.2379 5.56702 27.8396 5.77934 28.4239C6.7036 31.1323 7.09045 33.9966 6.9179 36.8548C6.7036 40.6681 6.63327 44.4427 6.56937 48.6276C6.56048 49.5721 6.7188 50.5106 7.03693 51.3993C8.38475 55.3175 10.9279 58.7089 14.3042 61.0905C15.2987 61.7861 15.619 62.4263 15.5734 63.6259L15.5621 63.9197C15.494 65.6638 15.4217 67.4671 15.9134 69.1036C18.0913 76.3749 22.756 81.1494 29.7823 83.2948C31.4463 83.8145 33.1773 84.0846 34.9197 84.0959C37.3576 84.0948 39.7603 83.5138 41.9323 82.4013C44.5521 81.0956 46.9366 79.3595 48.9884 77.2657C52.0137 74.2305 54.866 71.0269 57.5319 67.6688C60.6639 63.6636 63.1302 60.198 64.989 56.2993C65.9106 54.4465 66.647 52.507 67.1887 50.5085C68.0145 47.26 66.6267 44.6673 63.3806 43.3916C63.287 43.3478 63.1976 43.2948 63.1136 43.2337L63.0585 43.1984C63.0938 43.113 63.1291 43.0275 63.1639 42.9413C63.3282 42.5614 63.4727 42.1734 63.5974 41.7786C63.6766 41.5142 63.7612 41.249 63.8463 40.9834C64.1439 40.1505 64.3574 39.2897 64.4827 38.414C64.5683 37.8169 64.5292 37.2085 64.3681 36.6277C64.207 36.0465 63.9282 35.5056 63.5482 35.0388C63.1259 34.5672 62.6126 34.1874 62.0394 33.9227C61.4662 33.6581 60.8454 33.5143 60.2143 33.4999L59.2724 33.4445C59.2975 33.1825 59.3243 32.9252 59.351 32.6678C59.4319 31.891 59.5089 31.1589 59.5266 30.4139C59.5737 28.2029 58.2512 26.6588 56.075 26.3841C55.6677 26.3486 55.2572 26.3617 54.8526 26.4229C54.6358 26.4476 54.3506 26.4759 54.0744 26.4816H53.9979C53.3763 26.4834 53.2249 26.4283 53.1929 26.4021C52.2511 25.0484 50.845 24.5039 49.5747 24.0484C49.6176 23.915 49.6601 23.785 49.7023 23.6572C49.8596 23.212 49.9885 22.7575 50.0887 22.296L50.1793 21.8369C50.3837 20.9728 50.4979 20.0897 50.52 19.2018C50.4958 16.9067 48.8995 15.3065 46.5481 15.2218C46.193 15.2087 45.8385 15.2119 45.4841 15.2157H45.3604C45.3622 14.963 45.3657 14.7176 45.3689 14.4743C45.3773 13.7681 45.3854 13.1021 45.3478 12.4397ZM20.8882 28.1715C22.2262 25.745 23.6103 23.2359 25.0414 20.8122C26.6453 18.0956 28.3873 15.3983 30.072 12.7893L30.9127 11.4871C31.275 10.9065 31.74 10.3975 32.2848 9.98539C32.7415 9.65352 33.1823 9.55674 33.4925 9.72125C33.7907 9.87909 33.9545 10.2781 33.9418 10.8159C33.9273 11.7452 33.7603 12.6657 33.4476 13.5403C32.858 15.1102 32.1806 16.6455 31.4188 18.1387C30.2923 20.3741 29.1286 22.6173 28.0034 24.7867L27.9564 24.8774C27.2594 26.2213 26.5645 27.5661 25.8718 28.9119L25.8072 29.0369C25.5415 29.4503 25.3909 29.9277 25.371 30.4196C25.4073 30.6936 25.504 30.956 25.654 31.1877C25.8041 31.4194 26.0037 31.6145 26.2383 31.7588C26.6342 31.9781 27.4498 31.6808 27.7034 31.315C28.3659 30.3619 28.9587 29.3617 29.4771 28.3223C31.6353 23.9764 34.4603 19.4681 38.3672 14.1343C39.0033 13.3189 39.806 12.6499 40.7207 12.1721C41.2694 11.8737 41.7268 11.8052 41.9758 11.9849C42.2112 12.1552 42.2888 12.5806 42.1894 13.1502C41.9344 14.8499 41.4633 16.5097 40.7875 18.0889C38.3081 23.4394 35.3054 28.5289 31.8239 33.2821L31.6876 33.4679C31.5875 33.6038 31.4871 33.7404 31.3943 33.8806L31.33 33.9774C30.9844 34.495 30.4624 35.2774 31.187 36.0638C31.4925 36.4257 31.9188 36.6633 32.3862 36.7322C32.8535 36.8007 33.3297 36.6958 33.7255 36.4367C34.3329 36.0641 34.8417 35.5497 35.2085 34.9367C37.6779 30.6826 40.2996 26.1472 42.8168 21.5813C43.6248 20.1188 44.4724 19.1866 45.5702 18.5592C46.3011 18.1411 46.7139 18.104 46.9946 18.4328C47.283 18.8217 47.4088 19.3082 47.3459 19.789C47.1224 20.8916 46.7919 21.9696 46.3595 23.0075C46.2063 23.3499 45.9295 23.6207 45.5846 23.7649C43.6097 24.3704 42.3717 25.8011 41.4212 27.1192C38.084 31.7536 34.6598 36.5599 31.2474 41.4047C30.6207 42.2952 30.0475 43.227 29.437 44.2189C29.2477 44.5264 29.0544 44.8407 28.8542 45.1623L28.4628 44.1422C27.4847 41.6424 25.7437 39.5185 23.4898 38.0754C21.4738 36.7259 19.7051 36.6072 18.0847 37.7142C16.3195 38.9193 15.6176 40.6766 15.9991 42.9368C16.1203 43.6553 16.2594 44.3816 16.3981 45.1065C16.5963 46.1407 16.8015 47.2106 16.9522 48.2678C17.2462 50.3291 16.9556 52.3284 16.6469 54.4492C16.487 55.5509 16.3219 56.6882 16.2433 57.8481L16.2081 57.8379C16.0667 57.811 15.9311 57.7588 15.8073 57.6845C13.0322 55.34 11.2839 52.9276 10.457 50.3086C9.94382 48.6816 9.92273 46.8836 9.94767 44.871C9.97224 42.8831 10.1317 40.8616 10.2856 38.9065C10.3372 38.2495 10.3888 37.5927 10.4359 36.9356C10.742 33.5087 10.295 30.0562 9.12634 26.8223L9.05157 26.6232C8.71679 25.7447 8.40065 24.9145 9.17975 24.3584C9.42461 24.1755 9.72133 24.0765 10.0264 24.0759C10.5304 24.0759 11.1199 24.3411 11.7778 24.8644C14.6583 27.1549 15.6331 29.5365 14.843 32.3595C14.6428 33.0741 14.5333 33.96 15.4729 34.4692C15.9447 34.7249 16.8654 34.9709 17.7362 33.7461C18.0927 33.2222 18.4165 32.6766 18.7058 32.1123C18.8111 31.9174 18.9165 31.7239 19.0219 31.53C19.641 30.4237 20.2559 29.3143 20.8664 28.2018L20.8882 28.1715ZM19.1346 63.7491C19.2007 63.0455 19.2751 62.2482 19.3805 61.4606C19.6802 59.2404 20.0006 56.9846 20.3108 54.8037L20.6378 52.4943C21.0483 49.4534 20.8645 46.3614 20.0968 43.3912L20.0753 43.304C19.8741 42.6048 19.7543 41.8846 19.7182 41.1575C19.6968 40.97 19.7181 40.7797 19.7806 40.6017C19.8431 40.4238 19.9451 40.2621 20.0788 40.1297C20.2486 40.0244 20.4396 39.9584 20.6379 39.9369C20.8361 39.9157 21.0366 39.939 21.2247 40.0054C21.5527 40.082 21.8709 40.1961 22.1732 40.3451C24.9073 41.6985 26.6618 45.8848 25.7162 48.7967C25.3572 49.9019 25.1046 51.0237 26.2726 51.5402C27.1677 51.9364 28.127 51.5049 28.9037 50.3524C29.8497 48.9489 30.7866 47.5277 31.6929 46.1563C33.1682 43.924 34.6907 41.6155 36.2472 39.3846C38.8653 35.6327 41.6119 31.9256 44.4303 28.1418C44.9045 27.5066 45.5133 26.9853 46.2123 26.6158C46.3669 26.5127 46.5463 26.4531 46.7315 26.4429C46.9166 26.4327 47.1014 26.4723 47.2661 26.5578C47.4098 26.6807 47.519 26.8394 47.5826 27.0181C47.6466 27.1967 47.6623 27.389 47.629 27.5758C47.5861 28.5019 47.3814 29.4133 47.0241 30.2681C46.2681 31.9633 45.4117 33.6116 44.4598 35.204C42.9366 37.7378 41.3488 40.291 39.812 42.7624C39.0504 43.9865 38.2902 45.2118 37.5318 46.438C37.4869 46.5108 37.437 46.5853 37.3867 46.6605C37.1349 46.9624 36.9789 47.3335 36.9392 47.7254C36.9308 48.3182 37.1398 48.8934 37.5262 49.3415C37.6337 49.4535 37.7647 49.5403 37.9098 49.5954C38.0549 49.6501 38.2105 49.672 38.3647 49.6593C38.5726 49.6283 38.7712 49.5527 38.9478 49.4383C39.1242 49.3239 39.2745 49.1731 39.3887 48.9958C39.5271 48.802 39.6666 48.6089 39.8067 48.416C40.3361 47.6869 40.8827 46.9331 41.3495 46.1404C43.9841 41.6664 47.2426 37.2424 51.9171 31.7981C52.7306 30.9045 53.7329 30.2054 54.851 29.7526C55.4156 29.5132 55.8641 29.4853 56.083 29.6756C56.3025 29.866 56.3416 30.3186 56.1885 30.9154C55.7887 32.6491 55.1839 34.3284 54.3864 35.9173C51.6993 40.8793 48.3091 45.7686 43.7203 51.303C43.6244 51.4188 43.525 51.531 43.4119 51.6589C43.2752 51.8132 43.1383 51.9678 43.01 52.1288L42.9651 52.185C42.5214 52.7397 41.9137 53.4992 42.638 54.4449C42.9665 54.8263 43.4136 55.0851 43.9072 55.1787C44.4004 55.2723 44.9108 55.1953 45.3548 54.9597C46.0089 54.5681 46.5783 54.0484 47.0301 53.4328C49.417 50.0887 51.7864 46.6983 54.0733 43.3555C54.7081 42.4276 55.2792 41.4396 55.8368 40.4743C56.0012 40.19 56.166 39.9065 56.3314 39.623C57.0357 38.4214 58.1061 37.4793 59.3842 36.9363C59.9746 36.6715 60.4632 36.5716 60.9299 36.9458C61.3624 37.2929 61.4426 37.7784 61.1686 38.3879C60.9203 38.9401 60.6827 39.5012 60.4439 40.0651C59.822 41.6688 59.0556 43.2125 58.1543 44.6768C56.6167 47.0019 54.9093 49.2688 53.2579 51.4611L53.2273 51.5018C52.4296 52.561 51.6051 53.6557 50.8098 54.744C50.0279 55.814 49.312 56.8824 48.6814 57.9218C48.3878 58.4054 48.1429 59.0833 48.3361 59.5373C48.6143 60.1904 49.0991 60.7327 49.7156 61.0802C50.2158 61.3347 51.0979 60.5611 51.348 60.2232C52.3558 58.8622 53.3457 57.4651 54.3029 56.1142C54.9307 55.2276 55.5612 54.3432 56.1944 53.4607L56.7569 52.6779C57.6052 51.4915 58.4829 50.2645 59.4426 49.1519C60.0902 48.432 60.8668 47.8405 61.7317 47.4087C61.8901 47.301 62.0721 47.2314 62.2615 47.206C62.451 47.1803 62.6442 47.1989 62.8251 47.2607C63.0932 47.3988 63.2763 47.7477 63.356 48.2696C63.4754 49.0477 63.4106 49.8433 63.1671 50.5918C62.5891 52.2934 61.9056 53.9575 61.1215 55.5735C59.3077 59.299 57.0507 62.7899 54.4003 65.9688L54.2885 66.1017C53.9112 66.5219 53.574 66.977 53.2821 67.4612C51.4635 70.7003 48.7773 73.2987 46.1789 75.8116L46.0967 75.8912C44.2371 77.6509 42.043 79.0152 39.6458 79.9018C37.0639 80.8928 34.2407 80.861 31.016 79.8071C25.4025 77.971 21.6214 74.153 19.4561 68.1326L19.4266 68.0508C19.3101 67.7678 19.2287 67.4708 19.1842 67.168C19.1351 66.6338 19.114 66.0931 19.0922 65.4674L19.089 65.3851C19.0796 65.1317 19.0697 64.8633 19.056 64.6018C19.0823 64.3436 19.1087 64.0628 19.1364 63.7663L18.9566 63.7497L19.1346 63.7491Z" fill="#8E705F"/>
<path d="M20.2663 0.133545C20.2255 0.133545 20.1861 0.133545 20.1025 0.133545L19.7513 0.150484C19.5812 0.165667 19.3568 0.185776 19.1344 0.221085C15.4644 0.787377 11.9508 2.11164 8.81525 4.11039C4.73362 6.65746 1.72661 10.6246 0.366937 15.2562C0.177533 15.9141 0.0635492 16.5916 0.0272364 17.2755C-0.00508126 17.7553 -0.0798526 18.8789 1.046 19.0315C1.10422 19.0393 1.16289 19.0432 1.22164 19.0434C1.96389 19.0434 2.18872 18.35 2.3229 17.9354C2.34293 17.8733 2.3629 17.8119 2.38362 17.7529C2.50095 17.4203 2.60811 17.082 2.7156 16.7462C2.89511 16.1813 3.08092 15.5944 3.31628 15.0453C5.91259 8.99652 10.7635 5.2541 18.1442 3.60515C18.5053 3.52431 18.8794 3.4639 19.2415 3.40776C19.6982 3.33714 20.1679 3.26088 20.658 3.13518C21.3588 2.95581 22.3184 2.71147 22.377 1.56109C22.3849 1.41536 22.3631 1.26958 22.313 1.13261C22.2629 0.995643 22.1855 0.870387 22.0855 0.764519C21.7353 0.383175 21.0901 0.159674 20.2663 0.133545Z" fill="#8E705F"/>
<path d="M67.1498 72.6312C64.9153 74.611 62.4383 76.2959 59.7799 77.6451C59.3924 77.8652 59.0242 78.1186 58.6806 78.4026C58.5179 78.529 58.3509 78.6587 58.1732 78.7867L57.8682 79.0073L58.1363 79.2714C58.3766 79.5388 58.6688 79.7551 58.9943 79.9073C59.3197 80.0585 59.6724 80.1424 60.0315 80.1537C60.6545 80.1193 61.2619 79.9439 61.8084 79.641C64.3961 78.4096 66.9106 76.6703 69.7215 74.1682C72.5827 71.6209 74.4581 68.2763 75.2952 64.2264C75.5826 62.8385 75.4172 61.3311 75.2716 59.9985C75.1314 58.7208 74.4961 58.0193 73.3818 57.9128L73.2191 57.8977L73.1137 58.0231C72.4029 58.8591 72.4286 59.7709 72.4511 60.5784C72.4559 60.7436 72.4607 60.9077 72.4586 61.0691C72.3986 65.6548 70.664 69.4373 67.1498 72.6312Z" fill="#8E705F"/>
<path d="M67.9435 59.644C67.8209 59.538 67.6769 59.4605 67.5212 59.417C67.366 59.3729 67.2033 59.3642 67.0438 59.3906C65.7389 59.5762 65.7239 60.6581 65.7138 61.3736C65.7138 61.4742 65.7111 61.5748 65.7074 61.6722C65.6833 63.1731 65.3097 64.6477 64.6161 65.977C63.923 67.3069 62.9291 68.4544 61.7147 69.3281C60.921 69.8929 60.093 70.4073 59.2356 70.8683C58.8893 71.0641 58.543 71.2599 58.2021 71.4617C58.0619 71.5402 57.9179 71.6107 57.7707 71.6736C57.4405 71.7952 57.1392 71.9857 56.8876 72.2326C56.5975 72.5591 56.2486 73.2784 56.4225 73.7863C56.5916 74.2807 57.3152 74.6153 57.7723 74.6648C57.8285 74.6712 57.8852 74.6739 57.9414 74.6739C58.3942 74.6422 58.8363 74.5265 59.2468 74.3334L59.303 74.3108C61.3689 73.5098 63.2518 72.2972 64.8392 70.7467C66.0103 69.6363 66.9496 68.3022 67.6025 66.8233C68.255 65.3438 68.6077 63.7487 68.6398 62.1311V62.0159C68.6398 61.9293 68.6398 61.8427 68.6398 61.7566C68.6141 60.7415 68.3738 60.0109 67.9435 59.644Z" fill="#8E705F"/>
<path d="M9.62113 19.0193L9.77222 18.8781C9.83687 18.8184 9.89339 18.7721 9.94611 18.7301C10.0635 18.6522 10.1572 18.5432 10.2169 18.4152C11.8518 14.2152 14.8889 11.4314 19.2494 10.1415C19.9025 9.90544 20.5119 9.56146 21.0524 9.12387C21.2196 8.98572 21.3438 8.80217 21.4099 8.59499C21.4761 8.38787 21.4814 8.16596 21.4255 7.95582C21.3255 7.76404 21.188 7.59441 21.0213 7.45712C20.8546 7.31983 20.6621 7.21772 20.4553 7.15677C20.0428 7.07903 19.6168 7.11922 19.2258 7.2726C15.9185 8.33999 13.4705 9.76084 11.5212 11.7442C10.2612 13.0263 9.34009 14.6519 8.62243 16.8598C8.41166 17.5063 8.26731 18.4251 9.43038 18.9357L9.62113 19.0193Z" fill="#8E705F"/>
</g>
</svg>
