<svg width="33" height="44" viewBox="0 0 33 44" fill="none" xmlns="http://www.w3.org/2000/svg">
<path d="M4.4967 6.93806C6.24706 5.58965 9.05113 5.63161 10.7598 7.03243L28.6091 21.6682C30.3178 23.0693 30.2834 25.2981 28.5329 26.6466C26.7826 27.9948 23.9793 27.9525 22.2707 26.5518L4.42141 11.916C2.71284 10.515 2.74655 8.28656 4.4967 6.93806Z" fill="white"/>
<path d="M28.4439 22.0308C29.3677 24.038 28.7002 26.7623 26.9532 28.1151L8.70399 42.2477C6.95695 43.6006 4.79106 43.0699 3.86724 41.0627C2.94365 39.0555 3.61135 36.3321 5.35819 34.9793L23.6084 20.8465C25.3553 19.4936 27.52 20.0237 28.4439 22.0308Z" fill="white"/>
</svg>
