<svg width="82" height="83" viewBox="0 0 82 83" fill="none" xmlns="http://www.w3.org/2000/svg">
<path d="M45.4228 48.9465C52.2079 44.5102 58.9911 40.0705 65.7724 35.6276C67.1221 34.739 68.4139 33.7586 69.6811 32.7567C69.8889 32.5889 70.0411 32.3626 70.1168 32.1075C70.1922 31.8522 70.1882 31.5801 70.1053 31.3264C69.9885 30.9111 69.2791 30.6675 68.7681 30.8931C68.2741 31.111 67.7575 31.2888 67.2893 31.5512C64.3014 33.2251 61.2661 34.8259 58.3553 36.6225C52.3754 40.3145 46.4452 44.0849 40.5301 47.8759C34.917 51.4724 29.3547 55.1449 23.7534 58.7605C22.8541 59.3409 21.8786 59.8074 20.9272 60.3052C20.8579 60.3289 20.7836 60.3349 20.7111 60.3228C20.6386 60.3106 20.5703 60.2807 20.5124 60.2357C20.4057 60.1082 20.2929 59.8512 20.353 59.7407C21.4641 57.7034 22.5217 55.6326 23.7475 53.6634C26.5986 49.0844 28.9055 44.2323 31.2067 39.3746C31.5845 38.5763 31.9891 37.7524 31.7352 36.8122C31.6887 36.6413 31.6022 36.3532 31.512 36.3443C31.1706 36.2843 30.82 36.3088 30.4914 36.4155C30.1697 36.5723 29.8988 36.8147 29.709 37.1155C29.0297 38.1701 28.3691 39.2387 27.7501 40.3294C23.3271 48.1232 18.9289 55.9306 14.4948 63.718C12.8223 66.6558 12.4536 68.6979 17.3923 69.6198C18.8152 69.8857 20.2479 70.1446 21.6877 70.27C28.365 70.8535 35.0446 71.4064 41.7267 71.9283C42.6264 71.9704 43.5277 71.9433 44.4224 71.847C45.0172 71.8017 45.3642 71.3789 45.5566 70.8517C45.7682 70.2715 45.429 69.197 45.0219 68.8903C44.1182 68.2091 43.0527 67.9677 41.9809 67.8183C37.8538 67.2427 33.7217 66.7039 29.5894 66.1677C26.897 65.8183 24.2021 65.5023 21.511 65.1487C21.3782 65.1311 21.2259 64.908 21.1722 64.7527C21.1565 64.6798 21.159 64.6042 21.1795 64.5326C21.2 64.4609 21.2378 64.3954 21.2897 64.3416C22.1544 63.7035 23.0082 63.0473 23.9147 62.4718C31.0643 57.9326 38.2198 53.4027 45.3813 48.8821L45.4228 48.9465Z" fill="white"/>
</svg>
